<?xml version="1.0" encoding="UTF-8"?>
<svg xmlns="http://www.w3.org/2000/svg" xmlns:xlink="http://www.w3.org/1999/xlink" viewBox="0 0 445.19 200.94">
<defs>
<g>
<g id="arbre-cgroups-glyph-0-0">
<path d="M 0.26 1.45 L 3.06 -4.87 L 3.56 -4.87 L 0.78 1.45 Z M 0.26 1.45 "/>
</g>
<g id="arbre-cgroups-glyph-0-1">
<path d="M 2.06 0.06 C 1.75 0.06 1.47 0.02 1.21 -0.04 C 0.95 -0.12 0.73 -0.25 0.56 -0.43 L 0.82 -0.78 C 1.04 -0.62 1.25 -0.51 1.43 -0.45 C 1.63 -0.39 1.83 -0.35 2.04 -0.35 C 2.32 -0.35 2.55 -0.41 2.73 -0.53 C 2.92 -0.64 3.01 -0.78 3.01 -0.95 C 3.01 -1.08 2.97 -1.19 2.89 -1.26 C 2.80 -1.33 2.69 -1.39 2.54 -1.42 C 2.41 -1.45 2.25 -1.47 2.07 -1.5 C 1.91 -1.51 1.74 -1.53 1.57 -1.56 C 1.41 -1.59 1.25 -1.64 1.10 -1.70 C 0.97 -1.76 0.85 -1.85 0.76 -1.96 C 0.67 -2.09 0.64 -2.25 0.64 -2.45 C 0.64 -2.64 0.69 -2.82 0.81 -2.96 C 0.92 -3.12 1.08 -3.24 1.29 -3.32 C 1.50 -3.41 1.73 -3.45 2 -3.45 C 2.25 -3.45 2.48 -3.42 2.71 -3.35 C 2.94 -3.29 3.17 -3.18 3.40 -3.03 L 3.15 -2.65 C 2.96 -2.78 2.77 -2.88 2.57 -2.93 C 2.37 -3 2.17 -3.03 1.96 -3.03 C 1.71 -3.03 1.50 -2.97 1.34 -2.87 C 1.18 -2.78 1.10 -2.64 1.10 -2.48 C 1.10 -2.35 1.14 -2.25 1.23 -2.18 C 1.32 -2.11 1.44 -2.06 1.57 -2.03 C 1.72 -2 1.87 -1.97 2.04 -1.95 C 2.22 -1.92 2.39 -1.90 2.56 -1.87 C 2.72 -1.84 2.87 -1.79 3.01 -1.73 C 3.16 -1.67 3.27 -1.58 3.35 -1.46 C 3.45 -1.35 3.5 -1.19 3.5 -0.98 C 3.5 -0.78 3.43 -0.60 3.31 -0.43 C 3.18 -0.28 3.01 -0.15 2.79 -0.06 C 2.57 0.01 2.33 0.06 2.06 0.06 Z M 2.06 0.06 "/>
</g>
<g id="arbre-cgroups-glyph-0-2">
<path d="M 0.90 1.53 C 0.82 1.53 0.73 1.52 0.65 1.51 C 0.58 1.50 0.50 1.48 0.42 1.46 L 0.42 0.98 C 0.51 1.00 0.59 1.01 0.65 1.03 C 0.72 1.03 0.78 1.04 0.84 1.04 C 1 1.04 1.12 1.01 1.23 0.95 C 1.34 0.89 1.43 0.78 1.5 0.62 L 1.75 0.01 L 0.37 -3.40 L 0.93 -3.40 L 2.04 -0.57 L 3.20 -3.40 L 3.75 -3.40 L 1.96 0.78 C 1.88 0.95 1.79 1.09 1.70 1.20 C 1.60 1.31 1.49 1.39 1.35 1.45 C 1.23 1.50 1.08 1.53 0.90 1.53 Z M 0.90 1.53 "/>
</g>
<g id="arbre-cgroups-glyph-0-3">
<path d="M 1.5 0 L 1.5 -2.98 L 0.34 -2.98 L 0.34 -3.40 L 1.5 -3.40 L 1.5 -4.07 C 1.5 -4.79 1.91 -5.15 2.73 -5.15 C 2.87 -5.15 3.01 -5.14 3.15 -5.10 C 3.30 -5.08 3.44 -5.05 3.57 -5 L 3.57 -4.51 C 3.41 -4.58 3.25 -4.63 3.12 -4.65 C 3 -4.68 2.85 -4.70 2.68 -4.70 C 2.46 -4.70 2.30 -4.64 2.18 -4.53 C 2.07 -4.42 2.01 -4.25 2.01 -4 L 2.01 -3.40 L 3.57 -3.40 L 3.57 -2.98 L 2.01 -2.98 L 2.01 0 Z M 1.5 0 "/>
</g>
<g id="arbre-cgroups-glyph-0-4">
<path d="M 2.14 0.06 C 1.82 0.06 1.53 -0.00 1.28 -0.15 C 1.01 -0.31 0.81 -0.51 0.65 -0.78 C 0.50 -1.05 0.43 -1.35 0.43 -1.68 C 0.43 -2.01 0.50 -2.32 0.65 -2.59 C 0.81 -2.86 1.01 -3.07 1.28 -3.21 C 1.53 -3.37 1.82 -3.45 2.14 -3.45 C 2.46 -3.45 2.75 -3.37 3 -3.23 C 3.25 -3.09 3.46 -2.91 3.60 -2.68 L 3.20 -2.42 C 3.08 -2.59 2.93 -2.73 2.75 -2.84 C 2.57 -2.94 2.36 -3 2.14 -3 C 1.91 -3 1.70 -2.94 1.51 -2.82 C 1.33 -2.71 1.19 -2.55 1.09 -2.35 C 0.98 -2.17 0.93 -1.94 0.93 -1.68 C 0.93 -1.43 0.98 -1.21 1.09 -1.01 C 1.19 -0.81 1.33 -0.66 1.51 -0.54 C 1.70 -0.44 1.91 -0.39 2.14 -0.39 C 2.36 -0.39 2.57 -0.44 2.75 -0.54 C 2.93 -0.64 3.08 -0.78 3.20 -0.96 L 3.60 -0.70 C 3.46 -0.46 3.25 -0.27 3 -0.14 C 2.75 -0.00 2.46 0.06 2.14 0.06 Z M 2.14 0.06 "/>
</g>
<g id="arbre-cgroups-glyph-0-5">
<path d="M 2.10 1.53 C 1.87 1.53 1.64 1.5 1.42 1.43 C 1.19 1.37 0.97 1.28 0.78 1.17 L 1 0.78 C 1.20 0.88 1.39 0.96 1.56 1.01 C 1.73 1.06 1.91 1.09 2.09 1.09 C 2.71 1.09 3.03 0.80 3.03 0.21 L 3.03 -0.45 C 2.90 -0.29 2.75 -0.17 2.56 -0.07 C 2.37 0.00 2.17 0.04 1.95 0.04 C 1.66 0.04 1.39 -0.03 1.15 -0.18 C 0.91 -0.34 0.72 -0.55 0.59 -0.81 C 0.45 -1.08 0.39 -1.37 0.39 -1.70 C 0.39 -2.02 0.45 -2.31 0.59 -2.57 C 0.73 -2.83 0.92 -3.04 1.17 -3.20 C 1.41 -3.35 1.67 -3.43 1.98 -3.43 C 2.19 -3.43 2.38 -3.39 2.56 -3.31 C 2.75 -3.23 2.91 -3.12 3.04 -2.96 L 3.04 -3.40 L 3.54 -3.40 L 3.54 0.21 C 3.54 0.63 3.42 0.95 3.17 1.18 C 2.92 1.41 2.57 1.53 2.10 1.53 Z M 2.07 -0.39 C 2.27 -0.39 2.45 -0.42 2.62 -0.51 C 2.78 -0.59 2.92 -0.71 3.03 -0.85 L 3.03 -2.53 C 2.92 -2.67 2.78 -2.78 2.60 -2.87 C 2.44 -2.95 2.26 -3 2.07 -3 C 1.84 -3 1.64 -2.94 1.46 -2.82 C 1.28 -2.71 1.14 -2.55 1.04 -2.35 C 0.94 -2.17 0.89 -1.95 0.89 -1.70 C 0.89 -1.45 0.94 -1.22 1.04 -1.03 C 1.14 -0.83 1.28 -0.67 1.46 -0.56 C 1.64 -0.44 1.84 -0.39 2.07 -0.39 Z M 2.07 -0.39 "/>
</g>
<g id="arbre-cgroups-glyph-0-6">
<path d="M 0.64 0 L 0.64 -0.42 L 1.57 -0.42 L 1.57 -2.98 L 0.64 -2.98 L 0.64 -3.40 L 2.09 -3.40 L 2.09 -2.64 C 2.19 -2.89 2.34 -3.09 2.54 -3.23 C 2.75 -3.37 2.99 -3.45 3.26 -3.45 C 3.36 -3.45 3.46 -3.44 3.54 -3.42 C 3.62 -3.41 3.72 -3.39 3.84 -3.35 L 3.84 -2.89 C 3.72 -2.92 3.61 -2.94 3.51 -2.96 C 3.41 -3 3.30 -3.01 3.20 -3.01 C 2.95 -3.01 2.72 -2.94 2.53 -2.81 C 2.34 -2.68 2.19 -2.50 2.09 -2.26 L 2.09 -0.42 L 3.07 -0.42 L 3.07 0 Z M 0.64 0 "/>
</g>
<g id="arbre-cgroups-glyph-0-7">
<path d="M 2.09 0.06 C 1.78 0.06 1.5 -0.00 1.25 -0.15 C 1 -0.31 0.80 -0.51 0.65 -0.78 C 0.50 -1.05 0.43 -1.35 0.43 -1.68 C 0.43 -2.01 0.50 -2.32 0.65 -2.59 C 0.80 -2.86 1 -3.07 1.25 -3.21 C 1.5 -3.37 1.78 -3.45 2.09 -3.45 C 2.40 -3.45 2.67 -3.37 2.92 -3.21 C 3.17 -3.07 3.36 -2.86 3.51 -2.59 C 3.67 -2.32 3.75 -2.01 3.75 -1.68 C 3.75 -1.35 3.67 -1.05 3.51 -0.78 C 3.36 -0.51 3.17 -0.31 2.92 -0.15 C 2.67 -0.00 2.40 0.06 2.09 0.06 Z M 2.09 -0.39 C 2.31 -0.39 2.50 -0.44 2.67 -0.54 C 2.84 -0.66 2.98 -0.81 3.07 -1.01 C 3.17 -1.21 3.23 -1.43 3.23 -1.68 C 3.23 -1.94 3.17 -2.17 3.07 -2.35 C 2.98 -2.55 2.84 -2.71 2.67 -2.82 C 2.50 -2.94 2.31 -3 2.09 -3 C 1.86 -3 1.66 -2.94 1.48 -2.82 C 1.31 -2.71 1.17 -2.55 1.07 -2.35 C 0.98 -2.17 0.93 -1.94 0.93 -1.68 C 0.93 -1.43 0.98 -1.21 1.07 -1.01 C 1.17 -0.81 1.31 -0.66 1.48 -0.54 C 1.66 -0.44 1.86 -0.39 2.09 -0.39 Z M 2.09 -0.39 "/>
</g>
<g id="arbre-cgroups-glyph-0-8">
<path d="M 1.90 0.06 C 1.66 0.06 1.45 0.00 1.26 -0.09 C 1.07 -0.20 0.92 -0.35 0.82 -0.54 C 0.72 -0.74 0.67 -0.96 0.67 -1.20 L 0.67 -3.40 L 1.18 -3.40 L 1.18 -1.35 C 1.18 -1.05 1.26 -0.81 1.42 -0.64 C 1.58 -0.46 1.81 -0.37 2.09 -0.37 C 2.28 -0.37 2.44 -0.41 2.59 -0.5 C 2.75 -0.59 2.87 -0.72 2.98 -0.89 L 2.98 -3.40 L 3.48 -3.40 L 3.48 0 L 2.98 0 L 2.98 -0.54 C 2.72 -0.14 2.36 0.06 1.90 0.06 Z M 1.90 0.06 "/>
</g>
<g id="arbre-cgroups-glyph-0-9">
<path d="M 0.62 1.45 L 0.62 -3.40 L 1.12 -3.40 L 1.12 -2.90 C 1.25 -3.08 1.42 -3.21 1.60 -3.29 C 1.79 -3.39 2.00 -3.43 2.23 -3.43 C 2.52 -3.43 2.78 -3.35 3.01 -3.20 C 3.25 -3.04 3.44 -2.83 3.57 -2.57 C 3.72 -2.31 3.79 -2.02 3.79 -1.70 C 3.79 -1.37 3.72 -1.08 3.57 -0.81 C 3.44 -0.55 3.25 -0.34 3.01 -0.18 C 2.77 -0.03 2.50 0.04 2.20 0.04 C 1.98 0.04 1.78 0.00 1.60 -0.06 C 1.42 -0.14 1.27 -0.26 1.14 -0.42 L 1.14 1.45 Z M 2.10 -0.39 C 2.33 -0.39 2.53 -0.44 2.71 -0.56 C 2.89 -0.67 3.03 -0.83 3.14 -1.03 C 3.24 -1.22 3.29 -1.44 3.29 -1.68 C 3.29 -1.93 3.24 -2.16 3.14 -2.35 C 3.03 -2.55 2.89 -2.71 2.71 -2.82 C 2.53 -2.94 2.33 -3 2.10 -3 C 1.91 -3 1.72 -2.95 1.54 -2.87 C 1.37 -2.78 1.24 -2.67 1.14 -2.53 L 1.14 -0.85 C 1.24 -0.71 1.37 -0.59 1.54 -0.51 C 1.72 -0.42 1.91 -0.39 2.10 -0.39 Z M 2.10 -0.39 "/>
</g>
<g id="arbre-cgroups-glyph-0-10">
<path d="M 2.04 -4.20 C 1.92 -4.20 1.81 -4.24 1.73 -4.32 C 1.64 -4.42 1.60 -4.52 1.60 -4.64 C 1.60 -4.76 1.64 -4.86 1.73 -4.95 C 1.81 -5.03 1.92 -5.07 2.04 -5.07 C 2.16 -5.07 2.25 -5.03 2.34 -4.95 C 2.43 -4.86 2.48 -4.76 2.48 -4.64 C 2.48 -4.52 2.43 -4.42 2.34 -4.32 C 2.25 -4.24 2.16 -4.20 2.04 -4.20 Z M 2.89 0.06 C 2.53 0.06 2.25 -0.01 2.06 -0.18 C 1.87 -0.35 1.78 -0.60 1.78 -0.93 L 1.78 -2.98 L 0.51 -2.98 L 0.51 -3.40 L 2.29 -3.40 L 2.29 -0.98 C 2.29 -0.76 2.34 -0.60 2.43 -0.51 C 2.53 -0.42 2.69 -0.39 2.90 -0.39 C 3.01 -0.39 3.14 -0.39 3.26 -0.42 C 3.39 -0.44 3.53 -0.48 3.68 -0.54 L 3.68 -0.09 C 3.55 -0.03 3.41 -0.00 3.28 0.01 C 3.15 0.04 3.02 0.06 2.89 0.06 Z M 2.89 0.06 "/>
</g>
<g id="arbre-cgroups-glyph-0-11">
<path d="M 0.68 0 L 0.68 -3.40 L 1.20 -3.40 L 1.20 -2.84 C 1.46 -3.25 1.82 -3.45 2.28 -3.45 C 2.51 -3.45 2.73 -3.39 2.92 -3.29 C 3.10 -3.19 3.25 -3.04 3.35 -2.85 C 3.46 -2.67 3.51 -2.45 3.51 -2.20 L 3.51 0 L 3 0 L 3 -2.06 C 3 -2.36 2.91 -2.59 2.75 -2.76 C 2.59 -2.94 2.37 -3.03 2.09 -3.03 C 1.90 -3.03 1.73 -2.98 1.57 -2.89 C 1.42 -2.80 1.30 -2.67 1.20 -2.51 L 1.20 0 Z M 0.68 0 "/>
</g>
<g id="arbre-cgroups-glyph-0-12">
<path d="M 2.64 0.06 C 2.26 0.06 1.97 -0.01 1.76 -0.17 C 1.56 -0.33 1.46 -0.58 1.46 -0.90 L 1.46 -2.98 L 0.31 -2.98 L 0.31 -3.40 L 1.46 -3.40 L 1.46 -4.32 L 1.98 -4.45 L 1.98 -3.40 L 3.54 -3.40 L 3.54 -2.98 L 1.98 -2.98 L 1.98 -0.98 C 1.98 -0.76 2.03 -0.60 2.15 -0.51 C 2.26 -0.42 2.43 -0.39 2.65 -0.39 C 2.78 -0.39 2.92 -0.39 3.07 -0.42 C 3.22 -0.45 3.37 -0.5 3.54 -0.56 L 3.54 -0.10 C 3.39 -0.04 3.23 -0.00 3.09 0.01 C 2.94 0.04 2.79 0.06 2.64 0.06 Z M 2.64 0.06 "/>
</g>
<g id="arbre-cgroups-glyph-0-13">
<path d="M 2.09 0.06 C 1.95 0.06 1.84 0.01 1.76 -0.06 C 1.67 -0.15 1.64 -0.26 1.64 -0.39 C 1.64 -0.51 1.67 -0.61 1.76 -0.70 C 1.84 -0.79 1.95 -0.84 2.09 -0.84 C 2.21 -0.84 2.32 -0.79 2.40 -0.70 C 2.5 -0.61 2.54 -0.51 2.54 -0.39 C 2.54 -0.26 2.5 -0.15 2.40 -0.06 C 2.32 0.01 2.21 0.06 2.09 0.06 Z M 2.09 0.06 "/>
</g>
<g id="arbre-cgroups-glyph-0-14">
<path d="M 2.17 0.06 C 1.84 0.06 1.55 -0.00 1.29 -0.15 C 1.03 -0.31 0.82 -0.52 0.67 -0.79 C 0.52 -1.06 0.45 -1.36 0.45 -1.70 C 0.45 -2.03 0.52 -2.33 0.67 -2.59 C 0.81 -2.86 1.00 -3.07 1.25 -3.21 C 1.5 -3.37 1.78 -3.45 2.09 -3.45 C 2.41 -3.45 2.70 -3.37 2.95 -3.21 C 3.20 -3.07 3.39 -2.86 3.53 -2.60 C 3.67 -2.35 3.75 -2.06 3.75 -1.73 L 3.75 -1.59 L 0.95 -1.59 C 0.96 -1.35 1.02 -1.14 1.14 -0.95 C 1.25 -0.77 1.39 -0.63 1.57 -0.53 C 1.76 -0.42 1.96 -0.37 2.18 -0.37 C 2.39 -0.37 2.58 -0.41 2.75 -0.48 C 2.92 -0.56 3.07 -0.67 3.18 -0.81 L 3.54 -0.5 C 3.36 -0.31 3.16 -0.17 2.92 -0.07 C 2.69 0.01 2.44 0.06 2.17 0.06 Z M 0.96 -1.96 L 3.25 -1.96 C 3.22 -2.16 3.16 -2.34 3.04 -2.5 C 2.94 -2.66 2.80 -2.78 2.64 -2.87 C 2.47 -2.96 2.28 -3.01 2.07 -3.01 C 1.89 -3.01 1.71 -2.96 1.56 -2.87 C 1.40 -2.78 1.27 -2.67 1.17 -2.51 C 1.06 -2.35 1 -2.17 0.96 -1.96 Z M 0.96 -1.96 "/>
</g>
<g id="arbre-cgroups-glyph-0-15">
<path d="M 2.89 0.06 C 2.53 0.06 2.25 -0.01 2.06 -0.18 C 1.87 -0.35 1.78 -0.60 1.78 -0.93 L 1.78 -4.64 L 0.51 -4.64 L 0.51 -5.06 L 2.29 -5.06 L 2.29 -0.98 C 2.29 -0.76 2.34 -0.60 2.43 -0.51 C 2.53 -0.42 2.69 -0.39 2.90 -0.39 C 3.01 -0.39 3.14 -0.39 3.26 -0.42 C 3.39 -0.44 3.53 -0.48 3.68 -0.54 L 3.68 -0.09 C 3.55 -0.03 3.41 -0.00 3.28 0.01 C 3.15 0.04 3.02 0.06 2.89 0.06 Z M 2.89 0.06 "/>
</g>
<g id="arbre-cgroups-glyph-0-16">
<path d="M 0.46 0 L 0.46 -3.40 L 0.93 -3.40 L 0.93 -3.10 C 1.01 -3.23 1.10 -3.32 1.20 -3.37 C 1.30 -3.42 1.42 -3.45 1.56 -3.45 C 1.70 -3.45 1.83 -3.41 1.95 -3.34 C 2.06 -3.26 2.16 -3.16 2.23 -3.03 C 2.32 -3.17 2.42 -3.28 2.54 -3.34 C 2.67 -3.41 2.81 -3.45 2.96 -3.45 C 3.19 -3.45 3.38 -3.36 3.53 -3.20 C 3.67 -3.03 3.75 -2.81 3.75 -2.54 L 3.75 0 L 3.28 0 L 3.28 -2.42 C 3.28 -2.61 3.23 -2.77 3.15 -2.89 C 3.07 -3.00 2.94 -3.06 2.78 -3.06 C 2.69 -3.06 2.61 -3.03 2.54 -3 C 2.47 -2.96 2.39 -2.89 2.32 -2.78 C 2.33 -2.73 2.34 -2.69 2.34 -2.65 C 2.34 -2.62 2.34 -2.58 2.34 -2.54 L 2.34 0 L 1.87 0 L 1.87 -2.42 C 1.87 -2.61 1.83 -2.77 1.75 -2.89 C 1.66 -3.00 1.53 -3.06 1.37 -3.06 C 1.30 -3.06 1.22 -3.04 1.14 -3.01 C 1.06 -2.98 1 -2.91 0.93 -2.81 L 0.93 0 Z M 0.46 0 "/>
</g>
<g id="arbre-cgroups-glyph-0-17">
<path d="M 1.78 0.06 C 1.53 0.06 1.32 0.01 1.12 -0.06 C 0.93 -0.14 0.78 -0.26 0.67 -0.42 C 0.56 -0.57 0.51 -0.75 0.51 -0.96 C 0.51 -1.17 0.56 -1.35 0.67 -1.5 C 0.78 -1.65 0.94 -1.77 1.14 -1.85 C 1.33 -1.94 1.56 -1.98 1.82 -1.98 C 2.02 -1.98 2.21 -1.96 2.39 -1.92 C 2.56 -1.89 2.73 -1.82 2.90 -1.73 L 2.90 -2.12 C 2.90 -2.42 2.82 -2.64 2.67 -2.79 C 2.51 -2.95 2.28 -3.03 1.98 -3.03 C 1.81 -3.03 1.64 -3.00 1.46 -2.95 C 1.30 -2.91 1.10 -2.82 0.89 -2.70 L 0.68 -3.09 C 0.92 -3.22 1.15 -3.32 1.37 -3.37 C 1.60 -3.42 1.82 -3.45 2.04 -3.45 C 2.48 -3.45 2.81 -3.34 3.04 -3.12 C 3.28 -2.90 3.40 -2.59 3.40 -2.18 L 3.40 0 L 2.90 0 L 2.90 -0.39 C 2.73 -0.23 2.56 -0.11 2.37 -0.04 C 2.19 0.02 2 0.06 1.78 0.06 Z M 1 -0.98 C 1 -0.78 1.07 -0.62 1.23 -0.5 C 1.39 -0.38 1.61 -0.32 1.89 -0.32 C 2.08 -0.32 2.26 -0.35 2.43 -0.42 C 2.60 -0.48 2.75 -0.58 2.90 -0.71 L 2.90 -1.37 C 2.75 -1.45 2.60 -1.51 2.43 -1.54 C 2.26 -1.58 2.09 -1.60 1.90 -1.60 C 1.63 -1.60 1.41 -1.55 1.25 -1.43 C 1.08 -1.32 1 -1.17 1 -0.98 Z M 1 -0.98 "/>
</g>
<g id="arbre-cgroups-glyph-0-18">
<path d="M 0.68 0 L 0.68 -5.03 L 1.20 -5.14 L 1.20 -2.84 C 1.46 -3.25 1.82 -3.45 2.28 -3.45 C 2.51 -3.45 2.73 -3.39 2.92 -3.29 C 3.10 -3.19 3.25 -3.04 3.35 -2.85 C 3.46 -2.67 3.51 -2.45 3.51 -2.20 L 3.51 0 L 3 0 L 3 -2.06 C 3 -2.36 2.91 -2.59 2.75 -2.76 C 2.59 -2.94 2.37 -3.03 2.09 -3.03 C 1.90 -3.03 1.73 -2.98 1.57 -2.89 C 1.42 -2.80 1.30 -2.67 1.20 -2.51 L 1.20 0 Z M 0.68 0 "/>
</g>
<g id="arbre-cgroups-glyph-0-19">
<path d="M 1.95 0.04 C 1.66 0.04 1.39 -0.03 1.15 -0.18 C 0.91 -0.34 0.72 -0.55 0.59 -0.81 C 0.45 -1.07 0.39 -1.36 0.39 -1.68 C 0.39 -2.01 0.45 -2.31 0.59 -2.57 C 0.73 -2.83 0.92 -3.04 1.17 -3.20 C 1.41 -3.35 1.67 -3.43 1.98 -3.43 C 2.19 -3.43 2.38 -3.39 2.56 -3.31 C 2.75 -3.23 2.90 -3.12 3.03 -2.96 L 3.03 -5.03 L 3.54 -5.14 L 3.54 0 L 3.03 0 L 3.03 -0.45 C 2.90 -0.28 2.75 -0.16 2.56 -0.07 C 2.37 0.00 2.17 0.04 1.95 0.04 Z M 2.07 -0.39 C 2.27 -0.39 2.45 -0.42 2.62 -0.51 C 2.78 -0.59 2.92 -0.70 3.03 -0.84 L 3.03 -2.53 C 2.92 -2.67 2.78 -2.78 2.60 -2.87 C 2.44 -2.95 2.26 -3 2.07 -3 C 1.84 -3 1.64 -2.94 1.46 -2.82 C 1.28 -2.71 1.14 -2.55 1.04 -2.35 C 0.94 -2.17 0.89 -1.95 0.89 -1.70 C 0.89 -1.45 0.94 -1.22 1.04 -1.03 C 1.14 -0.83 1.28 -0.67 1.46 -0.56 C 1.64 -0.44 1.84 -0.39 2.07 -0.39 Z M 2.07 -0.39 "/>
</g>
<g id="arbre-cgroups-glyph-0-20">
<path d="M 0.78 0 L 0.78 -5.03 L 1.29 -5.14 L 1.29 -1.82 L 3.09 -3.40 L 3.73 -3.40 L 1.85 -1.76 L 3.81 0 L 3.12 0 L 1.29 -1.65 L 1.29 0 Z M 0.78 0 "/>
</g>
<g id="arbre-cgroups-glyph-0-21">
<path d="M 1.84 0 L 0.39 -3.40 L 0.93 -3.40 L 2.10 -0.57 L 3.25 -3.40 L 3.79 -3.40 L 2.32 0 Z M 1.84 0 "/>
</g>
<g id="arbre-cgroups-glyph-0-22">
<path d="M 0.93 -1.73 L 0.93 -2.15 L 3.25 -2.15 L 3.25 -1.73 Z M 0.93 -1.73 "/>
</g>
<g id="arbre-cgroups-glyph-0-23">
<path d="M 2.09 0.07 C 1.73 0.07 1.42 -0.01 1.15 -0.21 C 0.88 -0.42 0.67 -0.71 0.51 -1.09 C 0.36 -1.47 0.29 -1.92 0.29 -2.43 C 0.29 -2.95 0.36 -3.40 0.51 -3.78 C 0.67 -4.15 0.88 -4.44 1.15 -4.64 C 1.42 -4.84 1.73 -4.95 2.09 -4.95 C 2.44 -4.95 2.75 -4.84 3.01 -4.64 C 3.28 -4.44 3.5 -4.15 3.65 -3.78 C 3.81 -3.40 3.89 -2.95 3.89 -2.43 C 3.89 -1.92 3.81 -1.47 3.65 -1.09 C 3.5 -0.71 3.28 -0.42 3.01 -0.21 C 2.75 -0.01 2.44 0.07 2.09 0.07 Z M 0.79 -2.43 C 0.79 -2.14 0.82 -1.87 0.87 -1.64 C 0.93 -1.41 1.00 -1.20 1.09 -1.03 L 2.76 -4.26 C 2.56 -4.42 2.34 -4.5 2.09 -4.5 C 1.83 -4.5 1.60 -4.41 1.40 -4.25 C 1.21 -4.08 1.06 -3.84 0.95 -3.53 C 0.84 -3.21 0.79 -2.85 0.79 -2.43 Z M 2.09 -0.37 C 2.35 -0.37 2.57 -0.45 2.76 -0.62 C 2.96 -0.80 3.11 -1.03 3.21 -1.34 C 3.32 -1.65 3.37 -2.01 3.37 -2.43 C 3.37 -2.72 3.34 -2.99 3.29 -3.23 C 3.24 -3.47 3.17 -3.67 3.07 -3.85 L 1.42 -0.62 C 1.60 -0.45 1.83 -0.37 2.09 -0.37 Z M 2.09 -0.37 "/>
</g>
<g id="arbre-cgroups-glyph-0-24">
<path d="M 1.93 -4.95 C 2.32 -4.95 2.65 -4.84 2.93 -4.64 C 3.21 -4.44 3.44 -4.16 3.60 -3.81 C 3.77 -3.46 3.85 -3.06 3.85 -2.60 C 3.85 -2.06 3.76 -1.59 3.57 -1.18 C 3.39 -0.78 3.14 -0.47 2.81 -0.25 C 2.48 -0.03 2.10 0.07 1.67 0.07 C 1.46 0.07 1.25 0.05 1.06 0 C 0.86 -0.06 0.67 -0.14 0.51 -0.25 L 0.78 -0.64 C 0.91 -0.55 1.06 -0.48 1.21 -0.43 C 1.38 -0.39 1.54 -0.37 1.70 -0.37 C 2.03 -0.37 2.32 -0.46 2.56 -0.64 C 2.81 -0.81 3.00 -1.06 3.14 -1.39 C 3.27 -1.71 3.34 -2.10 3.35 -2.56 C 3.17 -2.32 2.95 -2.13 2.70 -2 C 2.45 -1.87 2.19 -1.81 1.92 -1.81 C 1.60 -1.81 1.32 -1.87 1.07 -2.01 C 0.82 -2.14 0.63 -2.33 0.5 -2.56 C 0.36 -2.78 0.29 -3.05 0.29 -3.34 C 0.29 -3.65 0.36 -3.92 0.5 -4.17 C 0.64 -4.41 0.84 -4.59 1.09 -4.73 C 1.34 -4.87 1.62 -4.95 1.93 -4.95 Z M 2 -2.23 C 2.25 -2.23 2.48 -2.29 2.71 -2.42 C 2.95 -2.54 3.16 -2.72 3.34 -2.95 C 3.31 -3.26 3.22 -3.53 3.09 -3.76 C 2.96 -4.00 2.80 -4.18 2.60 -4.31 C 2.42 -4.44 2.20 -4.51 1.95 -4.51 C 1.73 -4.51 1.53 -4.46 1.35 -4.35 C 1.17 -4.25 1.03 -4.11 0.93 -3.93 C 0.84 -3.76 0.79 -3.57 0.79 -3.35 C 0.79 -3.14 0.84 -2.94 0.93 -2.76 C 1.03 -2.59 1.17 -2.46 1.35 -2.37 C 1.54 -2.28 1.75 -2.23 2 -2.23 Z M 2 -2.23 "/>
</g>
<g id="arbre-cgroups-glyph-0-25">
<path d="M 0.40 0 L 1.78 -1.75 L 0.46 -3.40 L 1.07 -3.40 L 2.09 -2.09 L 3.14 -3.40 L 3.71 -3.40 L 2.39 -1.76 L 3.78 0 L 3.17 0 L 2.06 -1.40 L 0.98 0 Z M 0.40 0 "/>
</g>
<g id="arbre-cgroups-glyph-0-26">
<path d="M 0.57 0 L 0.57 -0.43 L 1.81 -0.43 L 1.81 -4.32 L 0.57 -3.79 L 0.57 -4.25 L 2 -4.87 L 2.32 -4.87 L 2.32 -0.43 L 3.73 -0.43 L 3.73 0 Z M 0.57 0 "/>
</g>
<g id="arbre-cgroups-glyph-0-27">
<path d="M 2.23 0.06 C 1.85 0.06 1.52 -0.03 1.23 -0.23 C 0.95 -0.42 0.72 -0.70 0.56 -1.04 C 0.40 -1.39 0.32 -1.80 0.32 -2.26 C 0.32 -2.80 0.41 -3.27 0.59 -3.67 C 0.78 -4.07 1.03 -4.39 1.35 -4.60 C 1.69 -4.83 2.07 -4.95 2.51 -4.95 C 2.72 -4.95 2.92 -4.92 3.12 -4.85 C 3.32 -4.80 3.5 -4.72 3.65 -4.62 L 3.40 -4.23 C 3.25 -4.31 3.10 -4.37 2.95 -4.42 C 2.79 -4.47 2.63 -4.5 2.46 -4.5 C 2.13 -4.5 1.84 -4.41 1.59 -4.23 C 1.35 -4.06 1.16 -3.81 1.03 -3.48 C 0.90 -3.16 0.83 -2.77 0.82 -2.32 C 1.00 -2.55 1.21 -2.73 1.46 -2.85 C 1.72 -2.99 1.99 -3.06 2.26 -3.06 C 2.57 -3.06 2.85 -2.99 3.09 -2.85 C 3.34 -2.73 3.53 -2.55 3.67 -2.32 C 3.81 -2.09 3.89 -1.83 3.89 -1.54 C 3.89 -1.23 3.81 -0.95 3.67 -0.70 C 3.52 -0.46 3.32 -0.27 3.07 -0.14 C 2.82 -0.00 2.54 0.06 2.23 0.06 Z M 2.18 -2.64 C 1.93 -2.64 1.69 -2.57 1.45 -2.45 C 1.21 -2.32 1.00 -2.15 0.84 -1.93 C 0.88 -1.62 0.96 -1.34 1.07 -1.10 C 1.20 -0.87 1.36 -0.69 1.56 -0.56 C 1.75 -0.43 1.98 -0.37 2.23 -0.37 C 2.45 -0.37 2.64 -0.42 2.82 -0.51 C 3.00 -0.61 3.14 -0.75 3.23 -0.93 C 3.33 -1.11 3.39 -1.31 3.39 -1.53 C 3.39 -1.75 3.33 -1.94 3.23 -2.10 C 3.12 -2.27 2.98 -2.40 2.81 -2.5 C 2.63 -2.59 2.42 -2.64 2.18 -2.64 Z M 2.18 -2.64 "/>
</g>
<g id="arbre-cgroups-glyph-0-28">
<path d="M 0.51 0 L 0.51 -0.37 L 2.46 -2.5 C 2.62 -2.66 2.74 -2.81 2.82 -2.93 C 2.91 -3.07 2.96 -3.19 3 -3.29 C 3.03 -3.41 3.06 -3.53 3.06 -3.65 C 3.06 -3.90 2.96 -4.10 2.76 -4.26 C 2.57 -4.42 2.33 -4.51 2.03 -4.51 C 1.80 -4.51 1.58 -4.46 1.39 -4.37 C 1.20 -4.28 0.98 -4.14 0.75 -3.92 L 0.45 -4.26 C 0.71 -4.49 0.96 -4.66 1.21 -4.78 C 1.47 -4.89 1.75 -4.95 2.04 -4.95 C 2.33 -4.95 2.59 -4.89 2.81 -4.78 C 3.03 -4.67 3.21 -4.53 3.34 -4.34 C 3.47 -4.15 3.54 -3.93 3.54 -3.68 C 3.54 -3.51 3.52 -3.36 3.48 -3.23 C 3.44 -3.09 3.36 -2.95 3.26 -2.79 C 3.16 -2.64 3.00 -2.45 2.81 -2.23 L 1.14 -0.43 L 3.65 -0.43 L 3.65 0 Z M 0.51 0 "/>
</g>
<g id="arbre-cgroups-glyph-0-29">
<path d="M 2 0.07 C 1.36 0.07 0.81 -0.14 0.34 -0.57 L 0.65 -0.92 C 0.87 -0.72 1.08 -0.57 1.29 -0.48 C 1.50 -0.39 1.74 -0.35 2.01 -0.35 C 2.25 -0.35 2.46 -0.40 2.64 -0.5 C 2.81 -0.59 2.95 -0.72 3.06 -0.90 C 3.16 -1.08 3.21 -1.28 3.21 -1.51 C 3.21 -1.83 3.10 -2.09 2.87 -2.29 C 2.65 -2.50 2.36 -2.60 2.01 -2.60 C 1.82 -2.60 1.64 -2.58 1.46 -2.53 C 1.28 -2.48 1.10 -2.42 0.92 -2.32 L 0.57 -2.43 L 0.68 -4.87 L 3.45 -4.87 L 3.45 -4.43 L 1.10 -4.43 L 1.03 -2.75 C 1.21 -2.84 1.39 -2.91 1.56 -2.95 C 1.73 -2.99 1.92 -3.01 2.12 -3.01 C 2.43 -3.01 2.71 -2.95 2.95 -2.82 C 3.19 -2.70 3.37 -2.53 3.51 -2.31 C 3.64 -2.09 3.71 -1.83 3.71 -1.54 C 3.71 -1.22 3.64 -0.93 3.5 -0.68 C 3.35 -0.44 3.14 -0.25 2.89 -0.12 C 2.64 0.00 2.34 0.07 2 0.07 Z M 2 0.07 "/>
</g>
<g id="arbre-cgroups-glyph-0-30">
<path d="M 0.85 0 L 3.28 -4.43 L 0.35 -4.43 L 0.35 -4.87 L 3.82 -4.87 L 3.82 -4.48 L 1.42 0 Z M 0.85 0 "/>
</g>
<g id="arbre-cgroups-glyph-0-31">
<path d="M 2.09 0.07 C 1.75 0.07 1.46 0.01 1.20 -0.09 C 0.94 -0.21 0.73 -0.38 0.57 -0.59 C 0.42 -0.81 0.35 -1.05 0.35 -1.31 C 0.35 -1.50 0.40 -1.69 0.5 -1.85 C 0.59 -2.03 0.72 -2.18 0.90 -2.31 C 1.08 -2.43 1.28 -2.52 1.5 -2.57 C 1.21 -2.64 0.98 -2.78 0.81 -2.98 C 0.63 -3.19 0.54 -3.42 0.54 -3.68 C 0.54 -3.92 0.61 -4.14 0.75 -4.32 C 0.88 -4.52 1.06 -4.67 1.29 -4.78 C 1.53 -4.89 1.80 -4.95 2.09 -4.95 C 2.38 -4.95 2.64 -4.89 2.87 -4.78 C 3.11 -4.67 3.30 -4.52 3.43 -4.32 C 3.57 -4.14 3.64 -3.92 3.64 -3.68 C 3.64 -3.42 3.55 -3.19 3.37 -2.98 C 3.19 -2.78 2.96 -2.64 2.67 -2.57 C 3.01 -2.49 3.28 -2.33 3.5 -2.10 C 3.71 -1.87 3.82 -1.61 3.82 -1.31 C 3.82 -1.05 3.75 -0.81 3.59 -0.59 C 3.44 -0.38 3.24 -0.21 2.98 -0.09 C 2.72 0.01 2.42 0.07 2.09 0.07 Z M 2.09 -2.78 C 2.28 -2.78 2.46 -2.81 2.62 -2.89 C 2.78 -2.97 2.92 -3.08 3.01 -3.21 C 3.10 -3.35 3.15 -3.50 3.15 -3.67 C 3.15 -3.83 3.10 -3.98 3.01 -4.12 C 2.92 -4.25 2.78 -4.36 2.62 -4.43 C 2.46 -4.50 2.28 -4.54 2.09 -4.54 C 1.89 -4.54 1.71 -4.50 1.54 -4.43 C 1.39 -4.36 1.26 -4.25 1.17 -4.12 C 1.07 -3.98 1.03 -3.83 1.03 -3.67 C 1.03 -3.50 1.07 -3.35 1.17 -3.21 C 1.26 -3.08 1.39 -2.97 1.54 -2.89 C 1.71 -2.81 1.89 -2.78 2.09 -2.78 Z M 2.09 -0.32 C 2.33 -0.32 2.53 -0.36 2.71 -0.45 C 2.90 -0.54 3.05 -0.66 3.15 -0.81 C 3.26 -0.96 3.32 -1.14 3.32 -1.34 C 3.32 -1.53 3.26 -1.69 3.15 -1.84 C 3.05 -2 2.90 -2.11 2.71 -2.20 C 2.53 -2.29 2.33 -2.34 2.09 -2.34 C 1.85 -2.34 1.64 -2.29 1.45 -2.20 C 1.26 -2.11 1.11 -2 1 -1.84 C 0.89 -1.69 0.84 -1.53 0.84 -1.34 C 0.84 -1.14 0.89 -0.96 1 -0.81 C 1.11 -0.66 1.26 -0.54 1.45 -0.45 C 1.64 -0.36 1.85 -0.32 2.09 -0.32 Z M 2.09 -0.32 "/>
</g>
<g id="arbre-cgroups-glyph-0-32">
<path d="M 2.84 0 L 2.84 -1.29 L 0.20 -1.29 L 0.20 -1.70 L 2.79 -4.87 L 3.32 -4.87 L 3.32 -1.73 L 4 -1.73 L 4 -1.29 L 3.32 -1.29 L 3.32 0 Z M 0.78 -1.73 L 2.84 -1.73 L 2.84 -4.26 Z M 0.78 -1.73 "/>
</g>
<g id="arbre-cgroups-glyph-0-33">
<path d="M 0.93 -2.21 L 0.93 -2.64 L 3.25 -2.64 L 3.25 -2.21 Z M 0.93 -2.21 "/>
</g>
<g id="arbre-cgroups-glyph-1-0">
<path d="M 2.12 0.09 C 1.75 0.09 1.42 0.00 1.14 -0.17 C 0.86 -0.34 0.65 -0.58 0.5 -0.89 C 0.35 -1.20 0.28 -1.55 0.28 -1.95 C 0.28 -2.34 0.35 -2.69 0.51 -3 C 0.67 -3.31 0.89 -3.55 1.17 -3.73 C 1.46 -3.92 1.80 -4.01 2.18 -4.01 C 2.42 -4.01 2.64 -3.97 2.82 -3.89 C 3.02 -3.80 3.19 -3.69 3.34 -3.56 C 3.48 -3.42 3.60 -3.28 3.68 -3.12 L 3.06 -2.89 C 2.97 -3.05 2.85 -3.18 2.68 -3.28 C 2.53 -3.37 2.34 -3.42 2.14 -3.42 C 1.95 -3.42 1.76 -3.36 1.59 -3.26 C 1.41 -3.16 1.27 -3 1.17 -2.78 C 1.06 -2.57 1.01 -2.30 1.01 -1.96 C 1.01 -1.63 1.06 -1.35 1.17 -1.14 C 1.28 -0.92 1.42 -0.75 1.59 -0.65 C 1.76 -0.55 1.95 -0.5 2.14 -0.5 C 2.35 -0.5 2.54 -0.54 2.70 -0.64 C 2.86 -0.73 2.99 -0.85 3.07 -1.01 L 3.70 -0.78 C 3.60 -0.61 3.47 -0.46 3.31 -0.32 C 3.15 -0.20 2.97 -0.09 2.76 -0.01 C 2.56 0.05 2.35 0.09 2.12 0.09 Z M 2.12 0.09 "/>
</g>
<g id="arbre-cgroups-glyph-1-1">
<path d="M 2.17 0.09 C 1.95 0.09 1.72 0.05 1.5 -0.01 C 1.28 -0.09 1.07 -0.22 0.89 -0.39 C 0.71 -0.55 0.56 -0.76 0.45 -1.03 C 0.33 -1.28 0.28 -1.59 0.28 -1.95 C 0.28 -2.30 0.33 -2.61 0.45 -2.87 C 0.56 -3.13 0.71 -3.34 0.89 -3.51 C 1.07 -3.67 1.28 -3.80 1.5 -3.89 C 1.72 -3.97 1.95 -4.01 2.17 -4.01 C 2.39 -4.01 2.62 -3.97 2.84 -3.89 C 3.07 -3.80 3.27 -3.67 3.45 -3.51 C 3.64 -3.34 3.78 -3.13 3.90 -2.87 C 4.01 -2.61 4.07 -2.30 4.07 -1.95 C 4.07 -1.59 4.01 -1.28 3.90 -1.03 C 3.78 -0.76 3.64 -0.55 3.45 -0.39 C 3.27 -0.22 3.07 -0.09 2.84 -0.01 C 2.62 0.05 2.39 0.09 2.17 0.09 Z M 2.17 -0.5 C 2.37 -0.5 2.57 -0.54 2.75 -0.64 C 2.92 -0.74 3.07 -0.90 3.18 -1.12 C 3.30 -1.34 3.35 -1.61 3.35 -1.95 C 3.35 -2.29 3.30 -2.57 3.18 -2.78 C 3.07 -3 2.92 -3.16 2.75 -3.26 C 2.57 -3.36 2.37 -3.42 2.17 -3.42 C 1.98 -3.42 1.79 -3.36 1.60 -3.26 C 1.42 -3.16 1.28 -3 1.17 -2.78 C 1.05 -2.57 1 -2.29 1 -1.95 C 1 -1.61 1.05 -1.34 1.17 -1.12 C 1.28 -0.90 1.42 -0.74 1.60 -0.64 C 1.79 -0.54 1.98 -0.5 2.17 -0.5 Z M 2.17 -0.5 "/>
</g>
<g id="arbre-cgroups-glyph-1-2">
<path d="M 0.57 0 L 0.57 -3.93 L 1.06 -3.93 L 1.23 -3.34 C 1.31 -3.47 1.41 -3.59 1.51 -3.68 C 1.62 -3.78 1.76 -3.85 1.92 -3.92 C 2.08 -3.98 2.28 -4.01 2.51 -4.01 C 2.82 -4.01 3.07 -3.94 3.26 -3.81 C 3.46 -3.68 3.60 -3.50 3.68 -3.28 C 3.76 -3.06 3.81 -2.80 3.81 -2.5 L 3.81 0 L 3.15 0 L 3.15 -2.29 C 3.15 -2.49 3.13 -2.67 3.09 -2.85 C 3.05 -3.03 2.96 -3.17 2.84 -3.28 C 2.72 -3.38 2.53 -3.43 2.28 -3.43 C 1.95 -3.43 1.70 -3.32 1.51 -3.10 C 1.32 -2.89 1.23 -2.56 1.23 -2.14 L 1.23 0 Z M 0.57 0 "/>
</g>
<g id="arbre-cgroups-glyph-1-3">
<path d="M 1.75 0 C 1.50 0 1.32 -0.02 1.18 -0.07 C 1.05 -0.12 0.95 -0.22 0.90 -0.35 C 0.85 -0.50 0.82 -0.71 0.82 -0.98 L 0.82 -3.40 L 0.15 -3.40 L 0.15 -3.93 L 0.82 -3.93 L 0.82 -4.93 L 1.5 -4.93 L 1.5 -3.93 L 2.31 -3.93 L 2.31 -3.40 L 1.5 -3.40 L 1.5 -1.09 C 1.5 -0.87 1.51 -0.73 1.56 -0.67 C 1.61 -0.61 1.72 -0.59 1.90 -0.59 L 2.31 -0.59 L 2.31 0 Z M 1.75 0 "/>
</g>
<g id="arbre-cgroups-glyph-1-4">
<path d="M 0.57 0 L 0.57 -3.93 L 1.06 -3.93 L 1.26 -3.21 C 1.36 -3.37 1.48 -3.50 1.62 -3.62 C 1.75 -3.75 1.91 -3.84 2.09 -3.90 C 2.26 -3.97 2.46 -4.01 2.68 -4.01 L 2.68 -3.31 C 2.32 -3.31 2.03 -3.25 1.82 -3.12 C 1.61 -3 1.46 -2.81 1.37 -2.57 C 1.28 -2.33 1.23 -2.03 1.23 -1.68 L 1.23 0 Z M 0.57 0 "/>
</g>
<g id="arbre-cgroups-glyph-1-5">
<path d="M 2.17 0.09 C 1.95 0.09 1.72 0.05 1.5 -0.01 C 1.28 -0.09 1.07 -0.22 0.89 -0.39 C 0.71 -0.55 0.56 -0.76 0.45 -1.03 C 0.33 -1.28 0.28 -1.59 0.28 -1.95 C 0.28 -2.30 0.33 -2.61 0.45 -2.87 C 0.56 -3.13 0.71 -3.34 0.89 -3.51 C 1.07 -3.67 1.28 -3.80 1.5 -3.89 C 1.72 -3.97 1.95 -4.01 2.17 -4.01 C 2.39 -4.01 2.62 -3.97 2.84 -3.89 C 3.07 -3.80 3.27 -3.67 3.45 -3.51 C 3.64 -3.34 3.78 -3.13 3.90 -2.87 C 4.01 -2.61 4.07 -2.30 4.07 -1.95 C 4.07 -1.59 4.01 -1.28 3.90 -1.03 C 3.78 -0.76 3.64 -0.55 3.45 -0.39 C 3.27 -0.22 3.07 -0.09 2.84 -0.01 C 2.62 0.05 2.39 0.09 2.17 0.09 Z M 2.17 -0.5 C 2.37 -0.5 2.57 -0.54 2.75 -0.64 C 2.92 -0.74 3.07 -0.90 3.18 -1.12 C 3.30 -1.34 3.35 -1.61 3.35 -1.95 C 3.35 -2.29 3.30 -2.57 3.18 -2.78 C 3.07 -3 2.92 -3.16 2.75 -3.26 C 2.57 -3.36 2.37 -3.42 2.17 -3.42 C 1.98 -3.42 1.79 -3.36 1.60 -3.26 C 1.42 -3.16 1.28 -3 1.17 -2.78 C 1.05 -2.57 1 -2.29 1 -1.95 C 1 -1.61 1.05 -1.34 1.17 -1.12 C 1.28 -0.90 1.42 -0.74 1.60 -0.64 C 1.79 -0.54 1.98 -0.5 2.17 -0.5 Z M 0.89 -4.57 L 1.78 -5.37 C 1.84 -5.42 1.90 -5.46 1.96 -5.48 C 2.03 -5.51 2.10 -5.53 2.17 -5.53 C 2.24 -5.53 2.31 -5.51 2.37 -5.48 C 2.44 -5.46 2.50 -5.42 2.56 -5.37 L 3.45 -4.57 L 2.71 -4.57 L 2.17 -5.06 L 1.64 -4.57 Z M 0.89 -4.57 "/>
</g>
<g id="arbre-cgroups-glyph-1-6">
<path d="M 1.48 0 C 1.24 0 1.05 -0.02 0.90 -0.07 C 0.76 -0.12 0.67 -0.22 0.62 -0.35 C 0.57 -0.49 0.54 -0.68 0.54 -0.93 L 0.54 -5.62 L 1.20 -5.62 L 1.20 -1.01 C 1.20 -0.84 1.22 -0.73 1.28 -0.67 C 1.33 -0.61 1.45 -0.59 1.65 -0.59 L 1.92 -0.59 L 1.92 0 Z M 1.48 0 "/>
</g>
<g id="arbre-cgroups-glyph-1-7">
<path d="M 2.21 0.09 C 1.80 0.09 1.44 0.00 1.15 -0.17 C 0.87 -0.35 0.65 -0.60 0.5 -0.92 C 0.35 -1.23 0.28 -1.58 0.28 -1.96 C 0.28 -2.38 0.36 -2.74 0.53 -3.04 C 0.70 -3.34 0.93 -3.58 1.21 -3.75 C 1.50 -3.92 1.83 -4.01 2.20 -4.01 C 2.51 -4.01 2.78 -3.95 3.03 -3.82 C 3.26 -3.70 3.46 -3.53 3.62 -3.31 C 3.78 -3.10 3.89 -2.86 3.96 -2.60 C 4.03 -2.34 4.06 -2.07 4.04 -1.79 L 0.98 -1.79 C 1.00 -1.53 1.05 -1.31 1.14 -1.14 C 1.23 -0.97 1.33 -0.84 1.45 -0.75 C 1.57 -0.65 1.70 -0.58 1.84 -0.54 C 1.97 -0.51 2.10 -0.5 2.21 -0.5 C 2.43 -0.5 2.61 -0.53 2.76 -0.59 C 2.92 -0.66 3.04 -0.75 3.14 -0.87 L 3.78 -0.68 C 3.64 -0.45 3.44 -0.26 3.17 -0.12 C 2.91 0.01 2.59 0.09 2.21 0.09 Z M 1 -2.32 L 3.32 -2.32 C 3.32 -2.50 3.28 -2.67 3.18 -2.84 C 3.09 -3.01 2.96 -3.16 2.79 -3.26 C 2.62 -3.37 2.42 -3.43 2.20 -3.43 C 2.02 -3.43 1.84 -3.39 1.67 -3.32 C 1.50 -3.26 1.35 -3.14 1.23 -2.98 C 1.10 -2.82 1.03 -2.60 1 -2.32 Z M 1 -2.32 "/>
</g>
<g id="arbre-cgroups-glyph-1-8">
<path d="M 1.82 0.09 C 1.51 0.09 1.26 0.03 1.07 -0.09 C 0.89 -0.22 0.75 -0.41 0.67 -0.64 C 0.59 -0.86 0.56 -1.13 0.56 -1.43 L 0.56 -3.93 L 1.21 -3.93 L 1.21 -1.62 C 1.21 -1.42 1.23 -1.23 1.28 -1.06 C 1.32 -0.88 1.39 -0.74 1.51 -0.64 C 1.62 -0.54 1.80 -0.5 2.04 -0.5 C 2.35 -0.5 2.60 -0.60 2.78 -0.82 C 2.95 -1.04 3.04 -1.36 3.04 -1.78 L 3.04 -3.93 L 3.71 -3.93 L 3.71 0 L 3.21 0 L 3.04 -0.57 C 2.94 -0.37 2.78 -0.21 2.59 -0.09 C 2.40 0.03 2.14 0.09 1.82 0.09 Z M 1.82 0.09 "/>
</g>
<g id="arbre-cgroups-glyph-1-9">
<path d="M 1.90 0.09 C 1.67 0.09 1.45 0.05 1.23 -0.01 C 1.01 -0.08 0.81 -0.19 0.64 -0.34 C 0.46 -0.48 0.33 -0.67 0.25 -0.89 L 0.89 -1.12 C 0.95 -0.90 1.08 -0.73 1.28 -0.62 C 1.47 -0.51 1.68 -0.46 1.90 -0.46 C 2.16 -0.46 2.38 -0.51 2.56 -0.62 C 2.75 -0.73 2.84 -0.89 2.84 -1.07 C 2.84 -1.25 2.76 -1.38 2.62 -1.46 C 2.48 -1.56 2.27 -1.64 1.98 -1.70 L 1.53 -1.81 C 1.30 -1.86 1.09 -1.92 0.92 -2.01 C 0.74 -2.09 0.60 -2.20 0.5 -2.34 C 0.39 -2.48 0.34 -2.67 0.34 -2.90 C 0.34 -3.13 0.41 -3.33 0.54 -3.5 C 0.69 -3.66 0.87 -3.79 1.10 -3.89 C 1.33 -3.98 1.59 -4.03 1.87 -4.03 C 2.19 -4.03 2.5 -3.96 2.78 -3.82 C 3.06 -3.69 3.26 -3.48 3.39 -3.20 L 2.76 -2.96 C 2.69 -3.13 2.56 -3.25 2.39 -3.32 C 2.21 -3.41 2.02 -3.45 1.82 -3.45 C 1.59 -3.45 1.40 -3.40 1.25 -3.31 C 1.09 -3.22 1.01 -3.09 1.01 -2.92 C 1.01 -2.78 1.07 -2.67 1.18 -2.59 C 1.30 -2.51 1.46 -2.45 1.68 -2.40 L 2.15 -2.29 C 2.42 -2.24 2.66 -2.17 2.85 -2.07 C 3.06 -1.98 3.22 -1.85 3.32 -1.70 C 3.44 -1.55 3.5 -1.35 3.5 -1.10 C 3.5 -0.86 3.42 -0.65 3.28 -0.46 C 3.14 -0.28 2.95 -0.14 2.71 -0.04 C 2.47 0.04 2.20 0.09 1.90 0.09 Z M 1.90 0.09 "/>
</g>
<g id="arbre-cgroups-glyph-1-10">
<path d="M 0.82 0.09 C 0.69 0.09 0.57 0.04 0.46 -0.04 C 0.36 -0.14 0.31 -0.27 0.31 -0.42 C 0.31 -0.56 0.36 -0.68 0.46 -0.78 C 0.57 -0.88 0.69 -0.93 0.82 -0.93 C 0.97 -0.93 1.09 -0.88 1.20 -0.78 C 1.30 -0.68 1.35 -0.56 1.35 -0.42 C 1.35 -0.27 1.30 -0.14 1.20 -0.04 C 1.09 0.04 0.97 0.09 0.82 0.09 Z M 0.82 -2.95 C 0.69 -2.95 0.57 -3.00 0.46 -3.10 C 0.36 -3.21 0.31 -3.33 0.31 -3.46 C 0.31 -3.61 0.36 -3.73 0.46 -3.84 C 0.57 -3.94 0.69 -4 0.82 -4 C 0.97 -4 1.09 -3.94 1.20 -3.84 C 1.30 -3.73 1.35 -3.61 1.35 -3.46 C 1.35 -3.33 1.30 -3.21 1.20 -3.10 C 1.09 -3.00 0.97 -2.95 0.82 -2.95 Z M 0.82 -2.95 "/>
</g>
<g id="arbre-cgroups-glyph-1-11">
<path d="M 0.57 1.28 L 0.57 -3.93 L 1.06 -3.93 L 1.23 -3.32 C 1.31 -3.46 1.41 -3.58 1.53 -3.68 C 1.65 -3.78 1.80 -3.86 1.96 -3.92 C 2.13 -3.98 2.31 -4.01 2.51 -4.01 C 2.81 -4.01 3.09 -3.92 3.35 -3.76 C 3.61 -3.59 3.82 -3.36 3.98 -3.06 C 4.14 -2.75 4.21 -2.39 4.21 -1.95 C 4.21 -1.52 4.14 -1.15 3.98 -0.84 C 3.82 -0.53 3.61 -0.30 3.35 -0.14 C 3.09 0.01 2.81 0.09 2.51 0.09 C 2.31 0.09 2.13 0.06 1.96 0 C 1.80 -0.05 1.65 -0.12 1.53 -0.23 C 1.41 -0.33 1.31 -0.45 1.23 -0.59 L 1.23 1.28 Z M 2.34 -0.48 C 2.68 -0.48 2.95 -0.60 3.15 -0.85 C 3.36 -1.11 3.46 -1.48 3.46 -1.95 C 3.46 -2.42 3.36 -2.79 3.15 -3.04 C 2.95 -3.30 2.68 -3.43 2.34 -3.43 C 2.00 -3.43 1.73 -3.30 1.53 -3.04 C 1.32 -2.79 1.21 -2.42 1.21 -1.95 C 1.21 -1.48 1.32 -1.11 1.53 -0.85 C 1.73 -0.60 2.00 -0.48 2.34 -0.48 Z M 2.34 -0.48 "/>
</g>
<g id="arbre-cgroups-glyph-1-12">
<path d="M 0.37 1.06 L 0.75 0.09 C 0.62 0.07 0.51 0.01 0.43 -0.07 C 0.35 -0.17 0.31 -0.29 0.31 -0.42 C 0.31 -0.55 0.36 -0.67 0.46 -0.78 C 0.57 -0.88 0.69 -0.93 0.82 -0.93 C 0.97 -0.93 1.09 -0.88 1.20 -0.78 C 1.30 -0.67 1.35 -0.55 1.35 -0.42 C 1.35 -0.37 1.34 -0.33 1.32 -0.29 C 1.31 -0.26 1.30 -0.23 1.29 -0.20 L 0.81 1.06 Z M 0.37 1.06 "/>
</g>
<g id="arbre-cgroups-glyph-1-13">
<path d="M 0.57 0 L 0.57 -3.93 L 1.06 -3.93 L 1.23 -3.34 C 1.31 -3.47 1.41 -3.59 1.51 -3.68 C 1.61 -3.78 1.74 -3.85 1.89 -3.92 C 2.04 -3.98 2.22 -4.01 2.42 -4.01 C 2.72 -4.01 2.96 -3.95 3.15 -3.82 C 3.34 -3.70 3.47 -3.53 3.56 -3.31 C 3.71 -3.56 3.91 -3.73 4.14 -3.84 C 4.36 -3.95 4.61 -4.01 4.89 -4.01 C 5.20 -4.01 5.44 -3.94 5.62 -3.81 C 5.81 -3.68 5.94 -3.50 6.03 -3.28 C 6.11 -3.06 6.15 -2.80 6.15 -2.5 L 6.15 0 L 5.5 0 L 5.5 -2.29 C 5.5 -2.49 5.47 -2.67 5.43 -2.85 C 5.39 -3.03 5.31 -3.17 5.18 -3.28 C 5.07 -3.38 4.89 -3.43 4.65 -3.43 C 4.36 -3.43 4.12 -3.32 3.95 -3.10 C 3.78 -2.89 3.70 -2.56 3.70 -2.14 L 3.70 0 L 3.03 0 L 3.03 -2.29 C 3.03 -2.49 3.00 -2.67 2.96 -2.85 C 2.93 -3.03 2.85 -3.17 2.73 -3.28 C 2.61 -3.38 2.43 -3.43 2.18 -3.43 C 2 -3.43 1.83 -3.38 1.68 -3.28 C 1.55 -3.18 1.44 -3.03 1.35 -2.84 C 1.27 -2.65 1.23 -2.42 1.23 -2.14 L 1.23 0 Z M 0.57 0 "/>
</g>
<g id="arbre-cgroups-glyph-1-14">
<path d="M 0.37 1.28 L 0.37 0.70 L 0.70 0.70 C 0.85 0.70 0.98 0.68 1.07 0.65 C 1.17 0.63 1.24 0.58 1.29 0.5 C 1.35 0.41 1.41 0.29 1.46 0.14 L 1.5 0.01 L 0.07 -3.93 L 0.81 -3.93 L 1.82 -0.93 L 2.76 -3.93 L 3.48 -3.93 L 2.10 0.17 C 2.03 0.39 1.96 0.56 1.89 0.70 C 1.81 0.84 1.72 0.96 1.62 1.04 C 1.53 1.12 1.41 1.18 1.26 1.21 C 1.11 1.25 0.93 1.28 0.71 1.28 Z M 0.37 1.28 "/>
</g>
<g id="arbre-cgroups-glyph-1-15">
<path d="M 0.75 0 L 0.75 -3.40 L 0.20 -3.40 L 0.20 -3.93 L 1.42 -3.93 L 1.42 0 Z M 1.01 -4.68 C 0.87 -4.68 0.76 -4.73 0.67 -4.82 C 0.57 -4.92 0.53 -5.05 0.53 -5.18 C 0.53 -5.32 0.57 -5.43 0.67 -5.53 C 0.76 -5.62 0.87 -5.67 1.01 -5.67 C 1.14 -5.67 1.26 -5.62 1.35 -5.53 C 1.46 -5.43 1.51 -5.32 1.51 -5.18 C 1.51 -5.05 1.46 -4.92 1.35 -4.82 C 1.26 -4.73 1.14 -4.68 1.01 -4.68 Z M 1.01 -4.68 "/>
</g>
<g id="arbre-cgroups-glyph-1-16">
<path d="M 1.98 0.09 C 1.67 0.09 1.39 0.01 1.14 -0.14 C 0.87 -0.30 0.67 -0.53 0.51 -0.84 C 0.35 -1.14 0.28 -1.51 0.28 -1.95 C 0.28 -2.39 0.35 -2.75 0.51 -3.06 C 0.67 -3.36 0.87 -3.59 1.14 -3.76 C 1.39 -3.92 1.67 -4.01 1.98 -4.01 C 2.29 -4.01 2.55 -3.95 2.76 -3.82 C 2.97 -3.70 3.14 -3.53 3.26 -3.32 L 3.26 -5.62 L 3.92 -5.62 L 3.92 -1.48 C 3.92 -1.34 3.92 -1.14 3.93 -0.89 C 3.95 -0.64 4 -0.34 4.06 0 L 3.43 0 L 3.26 -0.59 C 3.16 -0.38 3 -0.21 2.78 -0.09 C 2.56 0.03 2.29 0.09 1.98 0.09 Z M 2.15 -0.48 C 2.38 -0.48 2.58 -0.53 2.75 -0.65 C 2.91 -0.76 3.04 -0.93 3.14 -1.15 C 3.23 -1.37 3.28 -1.64 3.28 -1.95 C 3.28 -2.42 3.17 -2.79 2.96 -3.04 C 2.76 -3.30 2.5 -3.43 2.15 -3.43 C 1.81 -3.43 1.53 -3.30 1.32 -3.04 C 1.12 -2.79 1.03 -2.42 1.03 -1.95 C 1.03 -1.48 1.12 -1.11 1.32 -0.85 C 1.53 -0.60 1.81 -0.48 2.15 -0.48 Z M 2.15 -0.48 "/>
</g>
<g id="arbre-cgroups-glyph-1-17">
<path d="M 0.82 0.09 C 0.69 0.09 0.57 0.04 0.46 -0.04 C 0.36 -0.14 0.31 -0.27 0.31 -0.42 C 0.31 -0.56 0.36 -0.68 0.46 -0.78 C 0.57 -0.88 0.69 -0.93 0.82 -0.93 C 0.97 -0.93 1.09 -0.88 1.20 -0.78 C 1.30 -0.68 1.35 -0.56 1.35 -0.42 C 1.35 -0.27 1.30 -0.14 1.20 -0.04 C 1.09 0.04 0.97 0.09 0.82 0.09 Z M 0.82 0.09 "/>
</g>
<g id="arbre-cgroups-glyph-1-18">
<path d="M 0.62 0 L 0.62 -5.31 L 2.54 -5.31 C 2.92 -5.31 3.26 -5.25 3.56 -5.14 C 3.85 -5.02 4.08 -4.84 4.25 -4.60 C 4.41 -4.37 4.5 -4.08 4.5 -3.71 C 4.5 -3.35 4.41 -3.05 4.25 -2.81 C 4.08 -2.57 3.85 -2.39 3.56 -2.28 C 3.26 -2.16 2.92 -2.10 2.54 -2.10 L 1.37 -2.10 L 1.37 0 Z M 1.37 -2.76 L 2.51 -2.76 C 2.86 -2.76 3.16 -2.83 3.39 -2.96 C 3.61 -3.11 3.73 -3.36 3.73 -3.71 C 3.73 -4.07 3.61 -4.31 3.39 -4.45 C 3.16 -4.59 2.86 -4.67 2.51 -4.67 L 1.37 -4.67 Z M 1.37 -2.76 "/>
</g>
<g id="arbre-cgroups-glyph-1-19">
<path d="M 0.43 0 L 0.43 -0.56 L 1.18 -0.56 L 1.18 -4.75 L 0.43 -4.75 L 0.43 -5.31 L 2.68 -5.31 L 2.68 -4.75 L 1.93 -4.75 L 1.93 -0.56 L 2.68 -0.56 L 2.68 0 Z M 0.43 0 "/>
</g>
<g id="arbre-cgroups-glyph-1-20">
<path d="M 0.62 0 L 0.62 -5.31 L 2.06 -5.31 C 2.50 -5.31 2.91 -5.26 3.26 -5.17 C 3.61 -5.07 3.92 -4.92 4.17 -4.71 C 4.42 -4.50 4.62 -4.23 4.76 -3.89 C 4.89 -3.55 4.96 -3.14 4.96 -2.67 C 4.96 -2.16 4.89 -1.73 4.75 -1.39 C 4.61 -1.04 4.41 -0.76 4.15 -0.56 C 3.89 -0.36 3.58 -0.21 3.23 -0.12 C 2.87 -0.03 2.48 0 2.06 0 Z M 1.37 -0.62 L 2.04 -0.62 C 2.34 -0.62 2.62 -0.64 2.89 -0.70 C 3.14 -0.75 3.37 -0.84 3.57 -0.98 C 3.77 -1.12 3.92 -1.33 4.03 -1.60 C 4.14 -1.87 4.20 -2.23 4.20 -2.67 C 4.20 -3.09 4.14 -3.44 4.03 -3.70 C 3.92 -3.97 3.77 -4.17 3.57 -4.31 C 3.37 -4.45 3.14 -4.55 2.89 -4.60 C 2.62 -4.66 2.34 -4.68 2.04 -4.68 L 1.37 -4.68 Z M 1.37 -0.62 "/>
</g>
<g id="arbre-cgroups-glyph-1-21">
<path d="M 1.68 0 L 1.68 -4.01 L 0.28 -4.01 L 0.28 -4.54 C 0.53 -4.54 0.76 -4.56 0.98 -4.59 C 1.20 -4.63 1.39 -4.70 1.56 -4.81 C 1.72 -4.92 1.84 -5.09 1.92 -5.31 L 2.35 -5.31 L 2.35 0 Z M 1.68 0 "/>
</g>
<g id="arbre-cgroups-glyph-1-22">
<path d="M 1.48 0 L 0.07 -3.93 L 0.79 -3.93 L 1.84 -0.87 L 2.85 -3.93 L 3.59 -3.93 L 2.17 0 Z M 1.48 0 "/>
</g>
<g id="arbre-cgroups-glyph-1-23">
<path d="M 1.62 0.09 C 1.37 0.09 1.14 0.05 0.93 -0.03 C 0.72 -0.12 0.56 -0.25 0.43 -0.42 C 0.31 -0.58 0.25 -0.78 0.25 -1.03 C 0.25 -1.34 0.35 -1.59 0.57 -1.78 C 0.79 -1.96 1.10 -2.11 1.5 -2.21 C 1.90 -2.33 2.39 -2.41 2.95 -2.46 L 2.95 -2.53 C 2.95 -2.81 2.87 -3.03 2.73 -3.20 C 2.58 -3.37 2.35 -3.46 2.04 -3.46 C 1.80 -3.46 1.60 -3.41 1.45 -3.31 C 1.29 -3.20 1.19 -3.05 1.15 -2.85 L 0.51 -3.04 C 0.61 -3.34 0.80 -3.58 1.07 -3.75 C 1.35 -3.92 1.67 -4.01 2.03 -4.01 C 2.57 -4.01 2.96 -3.87 3.21 -3.60 C 3.46 -3.34 3.59 -2.94 3.59 -2.40 L 3.59 -1.48 C 3.59 -1.26 3.59 -1.06 3.60 -0.89 C 3.62 -0.71 3.64 -0.55 3.67 -0.40 C 3.69 -0.25 3.71 -0.12 3.73 0 L 3.12 0 L 2.96 -0.54 C 2.85 -0.34 2.68 -0.19 2.46 -0.07 C 2.25 0.03 1.96 0.09 1.62 0.09 Z M 1.78 -0.43 C 1.98 -0.43 2.17 -0.47 2.35 -0.54 C 2.53 -0.61 2.67 -0.73 2.78 -0.90 C 2.89 -1.08 2.95 -1.32 2.95 -1.62 L 2.95 -1.93 C 2.32 -1.88 1.84 -1.78 1.5 -1.65 C 1.15 -1.51 0.98 -1.31 0.98 -1.04 C 0.98 -0.85 1.05 -0.70 1.18 -0.59 C 1.33 -0.48 1.53 -0.43 1.78 -0.43 Z M 1.78 -0.43 "/>
</g>
<g id="arbre-cgroups-glyph-1-24">
<path d="M 0.57 0 L 0.57 -5.62 L 1.23 -5.62 L 1.23 -3.34 C 1.31 -3.47 1.41 -3.59 1.51 -3.68 C 1.62 -3.78 1.76 -3.85 1.92 -3.92 C 2.08 -3.98 2.28 -4.01 2.51 -4.01 C 2.82 -4.01 3.07 -3.94 3.26 -3.81 C 3.46 -3.68 3.60 -3.50 3.68 -3.28 C 3.76 -3.06 3.81 -2.80 3.81 -2.5 L 3.81 0 L 3.15 0 L 3.15 -2.29 C 3.15 -2.49 3.13 -2.67 3.09 -2.85 C 3.05 -3.03 2.96 -3.17 2.84 -3.28 C 2.72 -3.38 2.53 -3.43 2.28 -3.43 C 1.95 -3.43 1.70 -3.32 1.51 -3.10 C 1.32 -2.89 1.23 -2.56 1.23 -2.14 L 1.23 0 Z M 0.57 0 "/>
</g>
<g id="arbre-cgroups-glyph-1-25">
<path d="M 0.57 0 L 0.57 -5.62 L 1.23 -5.62 L 1.23 -2.17 L 2.82 -3.93 L 3.64 -3.93 L 2.14 -2.31 L 3.82 0 L 3.01 0 L 1.70 -1.82 L 1.23 -1.31 L 1.23 0 Z M 0.57 0 "/>
</g>
<g id="arbre-cgroups-glyph-1-26">
<path d="M 2.51 0.09 C 2.31 0.09 2.13 0.06 1.96 0 C 1.80 -0.05 1.65 -0.12 1.53 -0.23 C 1.41 -0.33 1.31 -0.45 1.23 -0.59 L 1.06 0 L 0.57 0 L 0.57 -5.62 L 1.23 -5.62 L 1.23 -3.32 C 1.31 -3.46 1.41 -3.58 1.53 -3.68 C 1.65 -3.78 1.80 -3.86 1.96 -3.92 C 2.13 -3.98 2.31 -4.01 2.51 -4.01 C 2.81 -4.01 3.09 -3.92 3.35 -3.76 C 3.61 -3.59 3.82 -3.36 3.98 -3.06 C 4.14 -2.75 4.21 -2.39 4.21 -1.95 C 4.21 -1.51 4.14 -1.14 3.98 -0.84 C 3.82 -0.53 3.61 -0.30 3.35 -0.14 C 3.09 0.01 2.81 0.09 2.51 0.09 Z M 2.34 -0.48 C 2.68 -0.48 2.95 -0.60 3.15 -0.85 C 3.36 -1.11 3.46 -1.48 3.46 -1.95 C 3.46 -2.42 3.36 -2.79 3.15 -3.04 C 2.95 -3.30 2.68 -3.43 2.34 -3.43 C 2.00 -3.43 1.73 -3.30 1.53 -3.04 C 1.32 -2.79 1.21 -2.42 1.21 -1.95 C 1.21 -1.64 1.26 -1.37 1.35 -1.15 C 1.45 -0.93 1.58 -0.76 1.75 -0.65 C 1.92 -0.53 2.12 -0.48 2.34 -0.48 Z M 2.34 -0.48 "/>
</g>
<g id="arbre-cgroups-glyph-2-0">
<path d="M 1.42 0.07 C 1.20 0.07 1 0.03 0.81 -0.03 C 0.63 -0.10 0.48 -0.21 0.37 -0.35 C 0.26 -0.50 0.21 -0.68 0.21 -0.90 C 0.21 -1.17 0.31 -1.39 0.5 -1.56 C 0.68 -1.72 0.95 -1.85 1.31 -1.95 C 1.67 -2.04 2.10 -2.11 2.59 -2.15 L 2.59 -2.21 C 2.59 -2.46 2.52 -2.66 2.39 -2.81 C 2.26 -2.96 2.06 -3.04 1.79 -3.04 C 1.58 -3.04 1.41 -3 1.28 -2.90 C 1.14 -2.81 1.05 -2.67 1.01 -2.51 L 0.45 -2.67 C 0.54 -2.94 0.71 -3.14 0.95 -3.29 C 1.19 -3.44 1.46 -3.51 1.78 -3.51 C 2.25 -3.51 2.60 -3.39 2.82 -3.17 C 3.04 -2.94 3.15 -2.58 3.15 -2.10 L 3.15 -1.29 C 3.15 -1.10 3.16 -0.93 3.17 -0.78 C 3.17 -0.62 3.19 -0.48 3.21 -0.35 C 3.23 -0.23 3.25 -0.11 3.28 0 L 2.73 0 L 2.59 -0.46 C 2.5 -0.30 2.35 -0.16 2.15 -0.06 C 1.96 0.03 1.72 0.07 1.42 0.07 Z M 1.54 -0.39 C 1.73 -0.39 1.90 -0.42 2.06 -0.48 C 2.22 -0.54 2.35 -0.64 2.45 -0.79 C 2.54 -0.95 2.59 -1.16 2.59 -1.42 L 2.59 -1.68 C 2.03 -1.64 1.61 -1.56 1.31 -1.45 C 1.00 -1.33 0.85 -1.15 0.85 -0.90 C 0.85 -0.75 0.92 -0.62 1.04 -0.53 C 1.17 -0.43 1.33 -0.39 1.54 -0.39 Z M 1.54 -0.39 "/>
</g>
<g id="arbre-cgroups-glyph-2-1">
<path d="M 1.59 0.07 C 1.32 0.07 1.10 0.01 0.93 -0.09 C 0.78 -0.20 0.66 -0.36 0.59 -0.56 C 0.51 -0.75 0.48 -0.98 0.48 -1.25 L 0.48 -3.45 L 1.07 -3.45 L 1.07 -1.42 C 1.07 -1.24 1.09 -1.07 1.12 -0.92 C 1.15 -0.77 1.22 -0.65 1.32 -0.56 C 1.42 -0.47 1.58 -0.43 1.79 -0.43 C 2.06 -0.43 2.28 -0.53 2.43 -0.71 C 2.59 -0.91 2.67 -1.19 2.67 -1.56 L 2.67 -3.45 L 3.26 -3.45 L 3.26 0 L 2.82 0 L 2.67 -0.5 C 2.57 -0.33 2.44 -0.19 2.28 -0.07 C 2.11 0.02 1.88 0.07 1.59 0.07 Z M 1.59 0.07 "/>
</g>
<g id="arbre-cgroups-glyph-2-2">
<path d="M 1.85 0.07 C 1.52 0.07 1.23 0 1 -0.15 C 0.75 -0.31 0.57 -0.51 0.43 -0.78 C 0.31 -1.05 0.25 -1.36 0.25 -1.71 C 0.25 -2.06 0.31 -2.36 0.45 -2.64 C 0.58 -2.91 0.78 -3.12 1.03 -3.28 C 1.28 -3.43 1.58 -3.51 1.92 -3.51 C 2.12 -3.51 2.31 -3.47 2.48 -3.40 C 2.64 -3.33 2.79 -3.23 2.92 -3.12 C 3.04 -3.00 3.14 -2.87 3.21 -2.73 L 2.68 -2.53 C 2.61 -2.67 2.50 -2.78 2.35 -2.87 C 2.21 -2.95 2.05 -3 1.87 -3 C 1.70 -3 1.54 -2.95 1.39 -2.85 C 1.23 -2.76 1.10 -2.62 1.01 -2.43 C 0.92 -2.25 0.89 -2.00 0.89 -1.71 C 0.89 -1.43 0.93 -1.19 1.03 -1 C 1.12 -0.80 1.24 -0.65 1.39 -0.56 C 1.54 -0.47 1.70 -0.43 1.87 -0.43 C 2.07 -0.43 2.23 -0.47 2.37 -0.56 C 2.51 -0.64 2.62 -0.75 2.70 -0.89 L 3.23 -0.68 C 3.14 -0.53 3.03 -0.41 2.90 -0.29 C 2.76 -0.17 2.61 -0.08 2.43 -0.01 C 2.25 0.04 2.06 0.07 1.85 0.07 Z M 1.85 0.07 "/>
</g>
<g id="arbre-cgroups-glyph-2-3">
<path d="M 0.5 0 L 0.5 -3.45 L 0.93 -3.45 L 1.09 -2.93 C 1.15 -3.03 1.23 -3.13 1.32 -3.21 C 1.42 -3.31 1.55 -3.38 1.68 -3.43 C 1.83 -3.48 2.00 -3.51 2.20 -3.51 C 2.48 -3.51 2.70 -3.45 2.87 -3.34 C 3.03 -3.22 3.16 -3.07 3.23 -2.87 C 3.30 -2.67 3.34 -2.44 3.34 -2.18 L 3.34 0 L 2.76 0 L 2.76 -2.01 C 2.76 -2.19 2.74 -2.35 2.70 -2.5 C 2.67 -2.65 2.59 -2.78 2.48 -2.87 C 2.37 -2.96 2.21 -3.01 2 -3.01 C 1.71 -3.01 1.49 -2.91 1.32 -2.71 C 1.17 -2.53 1.09 -2.25 1.09 -1.87 L 1.09 0 Z M 0.5 0 "/>
</g>
<g id="arbre-cgroups-glyph-2-4">
<path d="M 1.93 0.07 C 1.58 0.07 1.27 0 1.01 -0.15 C 0.76 -0.31 0.57 -0.52 0.43 -0.79 C 0.31 -1.07 0.25 -1.38 0.25 -1.71 C 0.25 -2.08 0.32 -2.39 0.46 -2.67 C 0.62 -2.94 0.82 -3.14 1.07 -3.29 C 1.32 -3.44 1.61 -3.51 1.93 -3.51 C 2.20 -3.51 2.44 -3.45 2.65 -3.34 C 2.86 -3.23 3.03 -3.09 3.17 -2.90 C 3.30 -2.72 3.40 -2.51 3.46 -2.28 C 3.53 -2.05 3.55 -1.81 3.54 -1.56 L 0.85 -1.56 C 0.87 -1.33 0.92 -1.14 1 -1 C 1.08 -0.85 1.17 -0.73 1.28 -0.65 C 1.38 -0.57 1.49 -0.51 1.60 -0.48 C 1.73 -0.45 1.84 -0.43 1.93 -0.43 C 2.13 -0.43 2.30 -0.46 2.43 -0.53 C 2.57 -0.59 2.67 -0.67 2.75 -0.78 L 3.31 -0.60 C 3.18 -0.41 3.00 -0.24 2.78 -0.10 C 2.55 0.01 2.26 0.07 1.93 0.07 Z M 0.87 -2.03 L 2.92 -2.03 C 2.92 -2.19 2.87 -2.35 2.79 -2.5 C 2.71 -2.64 2.59 -2.76 2.45 -2.85 C 2.30 -2.96 2.13 -3.01 1.93 -3.01 C 1.78 -3.01 1.62 -2.98 1.46 -2.92 C 1.32 -2.85 1.19 -2.75 1.07 -2.60 C 0.97 -2.47 0.90 -2.28 0.87 -2.03 Z M 0.87 -2.03 "/>
</g>
<g id="arbre-cgroups-glyph-2-5">
<path d="M 1.29 0 C 1.08 0 0.92 -0.01 0.79 -0.06 C 0.67 -0.11 0.59 -0.19 0.54 -0.31 C 0.49 -0.43 0.46 -0.60 0.46 -0.82 L 0.46 -4.93 L 1.06 -4.93 L 1.06 -0.89 C 1.06 -0.74 1.08 -0.64 1.12 -0.59 C 1.16 -0.53 1.27 -0.51 1.45 -0.51 L 1.68 -0.51 L 1.68 0 Z M 1.29 0 "/>
</g>
<g id="arbre-cgroups-glyph-2-6">
<path d="M 0.65 0 L 0.65 -2.98 L 0.17 -2.98 L 0.17 -3.45 L 1.23 -3.45 L 1.23 0 Z M 0.89 -4.10 C 0.77 -4.10 0.67 -4.14 0.57 -4.23 C 0.49 -4.32 0.45 -4.42 0.45 -4.54 C 0.45 -4.66 0.49 -4.75 0.57 -4.84 C 0.67 -4.92 0.77 -4.96 0.89 -4.96 C 1.01 -4.96 1.11 -4.92 1.20 -4.84 C 1.28 -4.75 1.32 -4.66 1.32 -4.54 C 1.32 -4.42 1.28 -4.32 1.20 -4.23 C 1.11 -4.14 1.01 -4.10 0.89 -4.10 Z M 0.89 -4.10 "/>
</g>
<g id="arbre-cgroups-glyph-2-7">
<path d="M 0.5 0 L 0.5 -3.45 L 0.93 -3.45 L 1.09 -2.93 C 1.15 -3.03 1.23 -3.13 1.32 -3.21 C 1.42 -3.31 1.53 -3.38 1.67 -3.43 C 1.80 -3.48 1.95 -3.51 2.12 -3.51 C 2.38 -3.51 2.59 -3.45 2.76 -3.34 C 2.92 -3.23 3.05 -3.09 3.12 -2.90 C 3.25 -3.11 3.42 -3.26 3.62 -3.35 C 3.82 -3.46 4.03 -3.51 4.28 -3.51 C 4.55 -3.51 4.76 -3.45 4.92 -3.34 C 5.08 -3.22 5.20 -3.07 5.28 -2.87 C 5.36 -2.67 5.40 -2.44 5.40 -2.18 L 5.40 0 L 4.81 0 L 4.81 -2.01 C 4.81 -2.19 4.78 -2.35 4.75 -2.5 C 4.71 -2.65 4.64 -2.78 4.54 -2.87 C 4.44 -2.96 4.28 -3.01 4.07 -3.01 C 3.82 -3.01 3.62 -2.91 3.46 -2.71 C 3.32 -2.53 3.25 -2.25 3.25 -1.87 L 3.25 0 L 2.65 0 L 2.65 -2.01 C 2.65 -2.19 2.64 -2.35 2.60 -2.5 C 2.57 -2.65 2.50 -2.78 2.40 -2.87 C 2.30 -2.96 2.14 -3.01 1.92 -3.01 C 1.75 -3.01 1.60 -2.96 1.48 -2.87 C 1.35 -2.78 1.25 -2.66 1.18 -2.5 C 1.12 -2.33 1.09 -2.12 1.09 -1.87 L 1.09 0 Z M 0.5 0 "/>
</g>
<g id="arbre-cgroups-glyph-2-8">
<path d="M 1.54 0 C 1.32 0 1.15 -0.01 1.03 -0.06 C 0.91 -0.10 0.83 -0.18 0.78 -0.31 C 0.73 -0.44 0.71 -0.62 0.71 -0.85 L 0.71 -2.98 L 0.14 -2.98 L 0.14 -3.45 L 0.71 -3.45 L 0.71 -4.32 L 1.31 -4.32 L 1.31 -3.45 L 2.03 -3.45 L 2.03 -2.98 L 1.31 -2.98 L 1.31 -0.96 C 1.31 -0.76 1.33 -0.64 1.37 -0.59 C 1.41 -0.53 1.51 -0.51 1.67 -0.51 L 2.03 -0.51 L 2.03 0 Z M 1.54 0 "/>
</g>
<g id="arbre-cgroups-glyph-2-9">
<path d="M 0.73 0.07 C 0.60 0.07 0.5 0.03 0.40 -0.04 C 0.32 -0.14 0.28 -0.25 0.28 -0.37 C 0.28 -0.5 0.32 -0.60 0.40 -0.68 C 0.5 -0.78 0.60 -0.82 0.73 -0.82 C 0.85 -0.82 0.96 -0.78 1.04 -0.68 C 1.14 -0.60 1.18 -0.5 1.18 -0.37 C 1.18 -0.25 1.14 -0.14 1.04 -0.04 C 0.96 0.03 0.85 0.07 0.73 0.07 Z M 0.73 -2.59 C 0.60 -2.59 0.5 -2.63 0.40 -2.71 C 0.32 -2.81 0.28 -2.92 0.28 -3.04 C 0.28 -3.17 0.32 -3.27 0.40 -3.35 C 0.5 -3.45 0.60 -3.5 0.73 -3.5 C 0.85 -3.5 0.96 -3.45 1.04 -3.35 C 1.14 -3.27 1.18 -3.17 1.18 -3.04 C 1.18 -2.92 1.14 -2.81 1.04 -2.71 C 0.96 -2.63 0.85 -2.59 0.73 -2.59 Z M 0.73 -2.59 "/>
</g>
<g id="arbre-cgroups-glyph-2-10">
<path d="M 2.85 -0.28 L 1.82 -1.73 L 2.85 -3.20 L 3.54 -3.20 L 2.51 -1.73 L 3.54 -0.28 Z M 1.40 -0.28 L 0.37 -1.73 L 1.40 -3.20 L 2.09 -3.20 L 1.04 -1.73 L 2.09 -0.28 Z M 1.40 -0.28 "/>
</g>
<g id="arbre-cgroups-glyph-2-11">
<path d="M 0.06 0 L 1.32 -1.78 L 0.12 -3.45 L 0.82 -3.45 L 1.67 -2.26 L 2.53 -3.45 L 3.21 -3.45 L 2.01 -1.78 L 3.28 0 L 2.59 0 L 1.67 -1.29 L 0.76 0 Z M 0.06 0 "/>
</g>
<g id="arbre-cgroups-glyph-2-12">
<path d="M 1.82 -0.28 L 2.85 -1.73 L 1.82 -3.20 L 2.51 -3.20 L 3.54 -1.73 L 2.51 -0.28 Z M 0.37 -0.28 L 1.40 -1.73 L 0.37 -3.20 L 1.06 -3.20 L 2.09 -1.73 L 1.06 -0.28 Z M 0.37 -0.28 "/>
</g>
</g>
<clipPath id="arbre-cgroups-clip-0">
<path clip-rule="nonzero" d="M 117 0.15 L 307 0.15 L 307 39 L 117 39 Z M 117 0.15 "/>
</clipPath>
<clipPath id="arbre-cgroups-clip-1">
<path clip-rule="nonzero" d="M 314 98 L 444.38 98 L 444.38 177 L 314 177 Z M 314 98 "/>
</clipPath>
</defs>
<path fill-rule="nonzero" style="fill:var(--fig-gris-bg)" fill-opacity="1" d="M 294.06 4.52 L 130.63 4.52 C 129.81 4.52 129.14 5.19 129.14 6.01 L 129.14 25.39 C 129.14 26.21 129.81 26.88 130.63 26.88 L 294.06 26.88 C 294.88 26.88 295.55 26.21 295.55 25.39 L 295.55 6.01 C 295.55 5.19 294.88 4.52 294.06 4.52 Z M 294.06 4.52 "/>
<g clip-path="url(#arbre-cgroups-clip-0)">
<path fill="none" stroke-width="0.79" stroke-linecap="butt" stroke-linejoin="miter" style="stroke:var(--fig-ink)" stroke-opacity="1" stroke-miterlimit="10" d="M 285.95 186.94 L 122.23 186.94 C 121.40 186.94 120.73 186.27 120.73 185.45 L 120.73 166.04 C 120.73 165.22 121.40 164.55 122.23 164.55 L 285.95 164.55 C 286.78 164.55 287.45 165.22 287.45 166.04 L 287.45 185.45 C 287.45 186.27 286.78 186.94 285.95 186.94 Z M 285.95 186.94 " transform="matrix(0.99, 0, 0, -0.99, 8.62, 191.13)"/>
</g>
<g style="fill:var(--fig-ink)" fill-opacity="1">
<use xlink:href="#arbre-cgroups-glyph-0-0" x="133.12" y="13.66"/>
<use xlink:href="#arbre-cgroups-glyph-0-1" x="137.29" y="13.66"/>
<use xlink:href="#arbre-cgroups-glyph-0-2" x="141.47" y="13.66"/>
<use xlink:href="#arbre-cgroups-glyph-0-1" x="145.65" y="13.66"/>
<use xlink:href="#arbre-cgroups-glyph-0-0" x="149.82" y="13.66"/>
<use xlink:href="#arbre-cgroups-glyph-0-3" x="154.00" y="13.66"/>
<use xlink:href="#arbre-cgroups-glyph-0-1" x="158.18" y="13.66"/>
<use xlink:href="#arbre-cgroups-glyph-0-0" x="162.35" y="13.66"/>
<use xlink:href="#arbre-cgroups-glyph-0-4" x="166.53" y="13.66"/>
<use xlink:href="#arbre-cgroups-glyph-0-5" x="170.71" y="13.66"/>
<use xlink:href="#arbre-cgroups-glyph-0-6" x="174.88" y="13.66"/>
<use xlink:href="#arbre-cgroups-glyph-0-7" x="179.06" y="13.66"/>
<use xlink:href="#arbre-cgroups-glyph-0-8" x="183.24" y="13.66"/>
<use xlink:href="#arbre-cgroups-glyph-0-9" x="187.41" y="13.66"/>
</g>
<g style="fill:var(--fig-ink)" fill-opacity="1">
<use xlink:href="#arbre-cgroups-glyph-1-0" x="133.12" y="21.61"/>
</g>
<g style="fill:var(--fig-ink)" fill-opacity="1">
<use xlink:href="#arbre-cgroups-glyph-1-1" x="136.90" y="21.61"/>
<use xlink:href="#arbre-cgroups-glyph-1-2" x="141.26" y="21.61"/>
</g>
<g style="fill:var(--fig-ink)" fill-opacity="1">
<use xlink:href="#arbre-cgroups-glyph-1-3" x="145.50" y="21.61"/>
<use xlink:href="#arbre-cgroups-glyph-1-4" x="148.10" y="21.61"/>
</g>
<g style="fill:var(--fig-ink)" fill-opacity="1">
<use xlink:href="#arbre-cgroups-glyph-1-5" x="150.77" y="21.61"/>
<use xlink:href="#arbre-cgroups-glyph-1-6" x="155.13" y="21.61"/>
</g>
<g style="fill:var(--fig-ink)" fill-opacity="1">
<use xlink:href="#arbre-cgroups-glyph-1-7" x="157.18" y="21.61"/>
<use xlink:href="#arbre-cgroups-glyph-1-8" x="161.46" y="21.61"/>
<use xlink:href="#arbre-cgroups-glyph-1-4" x="165.76" y="21.61"/>
<use xlink:href="#arbre-cgroups-glyph-1-9" x="168.54" y="21.61"/>
</g>
<g style="fill:var(--fig-ink)" fill-opacity="1">
<use xlink:href="#arbre-cgroups-glyph-1-10" x="174.59" y="21.61"/>
</g>
<g style="fill:var(--fig-ink)" fill-opacity="1">
<use xlink:href="#arbre-cgroups-glyph-1-0" x="179.74" y="21.61"/>
<use xlink:href="#arbre-cgroups-glyph-1-11" x="183.60" y="21.61"/>
<use xlink:href="#arbre-cgroups-glyph-1-8" x="188.11" y="21.61"/>
<use xlink:href="#arbre-cgroups-glyph-1-12" x="192.40" y="21.61"/>
</g>
<g style="fill:var(--fig-ink)" fill-opacity="1">
<use xlink:href="#arbre-cgroups-glyph-1-13" x="196.39" y="21.61"/>
<use xlink:href="#arbre-cgroups-glyph-1-7" x="203.11" y="21.61"/>
<use xlink:href="#arbre-cgroups-glyph-1-13" x="207.39" y="21.61"/>
<use xlink:href="#arbre-cgroups-glyph-1-1" x="214.11" y="21.61"/>
<use xlink:href="#arbre-cgroups-glyph-1-4" x="218.47" y="21.61"/>
</g>
<g style="fill:var(--fig-ink)" fill-opacity="1">
<use xlink:href="#arbre-cgroups-glyph-1-14" x="221.41" y="21.61"/>
</g>
<g style="fill:var(--fig-ink)" fill-opacity="1">
<use xlink:href="#arbre-cgroups-glyph-1-12" x="224.75" y="21.61"/>
</g>
<g style="fill:var(--fig-ink)" fill-opacity="1">
<use xlink:href="#arbre-cgroups-glyph-1-11" x="228.74" y="21.61"/>
</g>
<g style="fill:var(--fig-ink)" fill-opacity="1">
<use xlink:href="#arbre-cgroups-glyph-1-15" x="233.21" y="21.61"/>
<use xlink:href="#arbre-cgroups-glyph-1-16" x="235.21" y="21.61"/>
<use xlink:href="#arbre-cgroups-glyph-1-9" x="239.70" y="21.61"/>
<use xlink:href="#arbre-cgroups-glyph-1-12" x="243.45" y="21.61"/>
</g>
<g style="fill:var(--fig-ink)" fill-opacity="1">
<use xlink:href="#arbre-cgroups-glyph-1-15" x="247.43" y="21.61"/>
<use xlink:href="#arbre-cgroups-glyph-1-1" x="249.44" y="21.61"/>
</g>
<g style="fill:var(--fig-ink)" fill-opacity="1">
<use xlink:href="#arbre-cgroups-glyph-1-12" x="253.72" y="21.61"/>
</g>
<g style="fill:var(--fig-ink)" fill-opacity="1">
<use xlink:href="#arbre-cgroups-glyph-1-0" x="257.70" y="21.61"/>
<use xlink:href="#arbre-cgroups-glyph-1-11" x="261.56" y="21.61"/>
<use xlink:href="#arbre-cgroups-glyph-1-8" x="266.06" y="21.61"/>
<use xlink:href="#arbre-cgroups-glyph-1-9" x="270.36" y="21.61"/>
</g>
<g style="fill:var(--fig-ink)" fill-opacity="1">
<use xlink:href="#arbre-cgroups-glyph-1-7" x="274.10" y="21.61"/>
</g>
<g style="fill:var(--fig-ink)" fill-opacity="1">
<use xlink:href="#arbre-cgroups-glyph-1-3" x="278.35" y="21.61"/>
<use xlink:href="#arbre-cgroups-glyph-1-17" x="280.95" y="21.61"/>
<use xlink:href="#arbre-cgroups-glyph-1-17" x="282.62" y="21.61"/>
<use xlink:href="#arbre-cgroups-glyph-1-17" x="284.29" y="21.61"/>
</g>
<path fill-rule="nonzero" style="fill:var(--fig-paper);stroke:var(--fig-gris)" fill-opacity="1" stroke-width="0.79" stroke-linecap="butt" stroke-linejoin="miter" stroke-opacity="1" stroke-miterlimit="10" d="M 53.78 133.04 L -2.76 133.04 C -3.58 133.04 -4.25 132.37 -4.25 131.55 L -4.25 112.23 C -4.25 111.40 -3.58 110.73 -2.76 110.73 L 53.78 110.73 C 54.61 110.73 55.28 111.40 55.28 112.23 L 55.28 131.55 C 55.28 132.37 54.61 133.04 53.78 133.04 Z M 53.78 133.04 " transform="matrix(0.99, 0, 0, -0.99, 8.62, 191.13)"/>
<g style="fill:var(--fig-ink)" fill-opacity="1">
<use xlink:href="#arbre-cgroups-glyph-0-10" x="8.35" y="67.37"/>
<use xlink:href="#arbre-cgroups-glyph-0-11" x="12.53" y="67.37"/>
<use xlink:href="#arbre-cgroups-glyph-0-10" x="16.70" y="67.37"/>
<use xlink:href="#arbre-cgroups-glyph-0-12" x="20.88" y="67.37"/>
<use xlink:href="#arbre-cgroups-glyph-0-13" x="25.06" y="67.37"/>
<use xlink:href="#arbre-cgroups-glyph-0-1" x="29.23" y="67.37"/>
<use xlink:href="#arbre-cgroups-glyph-0-4" x="33.41" y="67.37"/>
<use xlink:href="#arbre-cgroups-glyph-0-7" x="37.59" y="67.37"/>
<use xlink:href="#arbre-cgroups-glyph-0-9" x="41.76" y="67.37"/>
<use xlink:href="#arbre-cgroups-glyph-0-14" x="45.94" y="67.37"/>
</g>
<g style="fill:var(--fig-ink)" fill-opacity="1">
<use xlink:href="#arbre-cgroups-glyph-1-9" x="8.35" y="75.33"/>
</g>
<g style="fill:var(--fig-ink)" fill-opacity="1">
<use xlink:href="#arbre-cgroups-glyph-1-14" x="12.04" y="75.33"/>
</g>
<g style="fill:var(--fig-ink)" fill-opacity="1">
<use xlink:href="#arbre-cgroups-glyph-1-9" x="15.59" y="75.33"/>
</g>
<g style="fill:var(--fig-ink)" fill-opacity="1">
<use xlink:href="#arbre-cgroups-glyph-1-3" x="19.32" y="75.33"/>
</g>
<g style="fill:var(--fig-ink)" fill-opacity="1">
<use xlink:href="#arbre-cgroups-glyph-1-7" x="21.82" y="75.33"/>
<use xlink:href="#arbre-cgroups-glyph-1-13" x="26.10" y="75.33"/>
<use xlink:href="#arbre-cgroups-glyph-1-16" x="32.82" y="75.33"/>
<use xlink:href="#arbre-cgroups-glyph-1-12" x="37.31" y="75.33"/>
</g>
<g style="fill:var(--fig-ink)" fill-opacity="1">
<use xlink:href="#arbre-cgroups-glyph-1-18" x="41.20" y="75.33"/>
<use xlink:href="#arbre-cgroups-glyph-1-19" x="45.91" y="75.33"/>
<use xlink:href="#arbre-cgroups-glyph-1-20" x="49.03" y="75.33"/>
</g>
<g style="fill:var(--fig-ink)" fill-opacity="1">
<use xlink:href="#arbre-cgroups-glyph-1-21" x="56.58" y="75.33"/>
</g>
<path fill-rule="nonzero" style="fill:var(--fig-paper);stroke:var(--fig-gris)" fill-opacity="1" stroke-width="0.79" stroke-linecap="butt" stroke-linejoin="miter" stroke-opacity="1" stroke-miterlimit="10" d="M 146.36 132.44 L 97.42 132.44 C 96.59 132.44 95.92 131.77 95.92 130.95 L 95.92 112.82 C 95.92 112.00 96.59 111.33 97.42 111.33 L 146.36 111.33 C 147.18 111.33 147.85 112.00 147.85 112.82 L 147.85 130.95 C 147.85 131.77 147.18 132.44 146.36 132.44 Z M 146.36 132.44 " transform="matrix(0.99, 0, 0, -0.99, 8.62, 191.13)"/>
<g style="fill:var(--fig-ink)" fill-opacity="1">
<use xlink:href="#arbre-cgroups-glyph-0-8" x="108.35" y="67.97"/>
<use xlink:href="#arbre-cgroups-glyph-0-1" x="112.53" y="67.97"/>
<use xlink:href="#arbre-cgroups-glyph-0-14" x="116.70" y="67.97"/>
<use xlink:href="#arbre-cgroups-glyph-0-6" x="120.88" y="67.97"/>
<use xlink:href="#arbre-cgroups-glyph-0-13" x="125.06" y="67.97"/>
<use xlink:href="#arbre-cgroups-glyph-0-1" x="129.23" y="67.97"/>
<use xlink:href="#arbre-cgroups-glyph-0-15" x="133.41" y="67.97"/>
<use xlink:href="#arbre-cgroups-glyph-0-10" x="137.59" y="67.97"/>
<use xlink:href="#arbre-cgroups-glyph-0-4" x="141.76" y="67.97"/>
<use xlink:href="#arbre-cgroups-glyph-0-14" x="145.94" y="67.97"/>
</g>
<g style="fill:var(--fig-ink)" fill-opacity="1">
<use xlink:href="#arbre-cgroups-glyph-1-22" x="108.35" y="75.93"/>
</g>
<g style="fill:var(--fig-ink)" fill-opacity="1">
<use xlink:href="#arbre-cgroups-glyph-1-1" x="111.96" y="75.93"/>
</g>
<g style="fill:var(--fig-ink)" fill-opacity="1">
<use xlink:href="#arbre-cgroups-glyph-1-9" x="116.27" y="75.93"/>
</g>
<g style="fill:var(--fig-ink)" fill-opacity="1">
<use xlink:href="#arbre-cgroups-glyph-1-9" x="122.23" y="75.93"/>
</g>
<g style="fill:var(--fig-ink)" fill-opacity="1">
<use xlink:href="#arbre-cgroups-glyph-1-7" x="125.97" y="75.93"/>
<use xlink:href="#arbre-cgroups-glyph-1-9" x="130.25" y="75.93"/>
<use xlink:href="#arbre-cgroups-glyph-1-9" x="134.00" y="75.93"/>
<use xlink:href="#arbre-cgroups-glyph-1-15" x="137.75" y="75.93"/>
<use xlink:href="#arbre-cgroups-glyph-1-1" x="139.75" y="75.93"/>
<use xlink:href="#arbre-cgroups-glyph-1-2" x="144.11" y="75.93"/>
<use xlink:href="#arbre-cgroups-glyph-1-9" x="148.49" y="75.93"/>
</g>
<path fill-rule="nonzero" style="fill:var(--fig-orange-bg);stroke:var(--fig-orange)" fill-opacity="1" stroke-width="0.79" stroke-linecap="butt" stroke-linejoin="miter" stroke-opacity="1" stroke-miterlimit="10" d="M 299.72 132.44 L 244.53 132.44 C 243.70 132.44 243.03 131.77 243.03 130.95 L 243.03 112.82 C 243.03 112.00 243.70 111.33 244.53 111.33 L 299.72 111.33 C 300.55 111.33 301.21 112.00 301.21 112.82 L 301.21 130.95 C 301.21 131.77 300.55 132.44 299.72 132.44 Z M 299.72 132.44 " transform="matrix(0.99, 0, 0, -0.99, 8.62, 191.13)"/>
<g style="fill:var(--fig-ink)" fill-opacity="1">
<use xlink:href="#arbre-cgroups-glyph-0-1" x="255.19" y="67.97"/>
<use xlink:href="#arbre-cgroups-glyph-0-2" x="259.37" y="67.97"/>
<use xlink:href="#arbre-cgroups-glyph-0-1" x="263.54" y="67.97"/>
<use xlink:href="#arbre-cgroups-glyph-0-12" x="267.72" y="67.97"/>
<use xlink:href="#arbre-cgroups-glyph-0-14" x="271.90" y="67.97"/>
<use xlink:href="#arbre-cgroups-glyph-0-16" x="276.07" y="67.97"/>
<use xlink:href="#arbre-cgroups-glyph-0-13" x="280.25" y="67.97"/>
<use xlink:href="#arbre-cgroups-glyph-0-1" x="284.43" y="67.97"/>
<use xlink:href="#arbre-cgroups-glyph-0-15" x="288.60" y="67.97"/>
<use xlink:href="#arbre-cgroups-glyph-0-10" x="292.78" y="67.97"/>
<use xlink:href="#arbre-cgroups-glyph-0-4" x="296.96" y="67.97"/>
<use xlink:href="#arbre-cgroups-glyph-0-14" x="301.13" y="67.97"/>
</g>
<g style="fill:var(--fig-ink)" fill-opacity="1">
<use xlink:href="#arbre-cgroups-glyph-1-6" x="255.19" y="75.93"/>
</g>
<g style="fill:var(--fig-ink)" fill-opacity="1">
<use xlink:href="#arbre-cgroups-glyph-1-7" x="257.25" y="75.93"/>
<use xlink:href="#arbre-cgroups-glyph-1-9" x="261.53" y="75.93"/>
</g>
<g style="fill:var(--fig-ink)" fill-opacity="1">
<use xlink:href="#arbre-cgroups-glyph-1-9" x="267.50" y="75.93"/>
</g>
<g style="fill:var(--fig-ink)" fill-opacity="1">
<use xlink:href="#arbre-cgroups-glyph-1-7" x="271.24" y="75.93"/>
<use xlink:href="#arbre-cgroups-glyph-1-4" x="275.52" y="75.93"/>
</g>
<g style="fill:var(--fig-ink)" fill-opacity="1">
<use xlink:href="#arbre-cgroups-glyph-1-22" x="278.45" y="75.93"/>
</g>
<g style="fill:var(--fig-ink)" fill-opacity="1">
<use xlink:href="#arbre-cgroups-glyph-1-15" x="282.27" y="75.93"/>
<use xlink:href="#arbre-cgroups-glyph-1-0" x="284.28" y="75.93"/>
</g>
<g style="fill:var(--fig-ink)" fill-opacity="1">
<use xlink:href="#arbre-cgroups-glyph-1-7" x="288.06" y="75.93"/>
<use xlink:href="#arbre-cgroups-glyph-1-9" x="292.34" y="75.93"/>
</g>
<path fill-rule="nonzero" style="fill:var(--fig-paper);stroke:var(--fig-gris)" fill-opacity="1" stroke-width="0.79" stroke-linecap="butt" stroke-linejoin="miter" stroke-opacity="1" stroke-miterlimit="10" d="M 416.34 132.47 L 343.34 132.47 C 342.52 132.47 341.85 131.80 341.85 130.98 L 341.85 112.79 C 341.85 111.97 342.52 111.30 343.34 111.30 L 416.34 111.30 C 417.17 111.30 417.84 111.97 417.84 112.79 L 417.84 130.98 C 417.84 131.80 417.17 132.47 416.34 132.47 Z M 416.34 132.47 " transform="matrix(0.99, 0, 0, -0.99, 8.62, 191.13)"/>
<g style="fill:var(--fig-ink)" fill-opacity="1">
<use xlink:href="#arbre-cgroups-glyph-0-16" x="353.83" y="68.00"/>
<use xlink:href="#arbre-cgroups-glyph-0-17" x="358.00" y="68.00"/>
<use xlink:href="#arbre-cgroups-glyph-0-4" x="362.18" y="68.00"/>
<use xlink:href="#arbre-cgroups-glyph-0-18" x="366.36" y="68.00"/>
<use xlink:href="#arbre-cgroups-glyph-0-10" x="370.53" y="68.00"/>
<use xlink:href="#arbre-cgroups-glyph-0-11" x="374.71" y="68.00"/>
<use xlink:href="#arbre-cgroups-glyph-0-14" x="378.89" y="68.00"/>
<use xlink:href="#arbre-cgroups-glyph-0-13" x="383.06" y="68.00"/>
<use xlink:href="#arbre-cgroups-glyph-0-1" x="387.24" y="68.00"/>
<use xlink:href="#arbre-cgroups-glyph-0-15" x="391.42" y="68.00"/>
<use xlink:href="#arbre-cgroups-glyph-0-10" x="395.59" y="68.00"/>
<use xlink:href="#arbre-cgroups-glyph-0-4" x="399.77" y="68.00"/>
<use xlink:href="#arbre-cgroups-glyph-0-14" x="403.95" y="68.00"/>
</g>
<g style="fill:var(--fig-ink)" fill-opacity="1">
<use xlink:href="#arbre-cgroups-glyph-1-13" x="353.83" y="75.96"/>
<use xlink:href="#arbre-cgroups-glyph-1-23" x="360.55" y="75.96"/>
</g>
<g style="fill:var(--fig-ink)" fill-opacity="1">
<use xlink:href="#arbre-cgroups-glyph-1-0" x="364.67" y="75.96"/>
</g>
<g style="fill:var(--fig-ink)" fill-opacity="1">
<use xlink:href="#arbre-cgroups-glyph-1-24" x="368.69" y="75.96"/>
<use xlink:href="#arbre-cgroups-glyph-1-15" x="373.06" y="75.96"/>
<use xlink:href="#arbre-cgroups-glyph-1-2" x="375.07" y="75.96"/>
<use xlink:href="#arbre-cgroups-glyph-1-7" x="379.44" y="75.96"/>
<use xlink:href="#arbre-cgroups-glyph-1-9" x="383.72" y="75.96"/>
</g>
<g style="fill:var(--fig-ink)" fill-opacity="1">
<use xlink:href="#arbre-cgroups-glyph-1-22" x="389.62" y="75.96"/>
</g>
<g style="fill:var(--fig-ink)" fill-opacity="1">
<use xlink:href="#arbre-cgroups-glyph-1-15" x="393.44" y="75.96"/>
<use xlink:href="#arbre-cgroups-glyph-1-4" x="395.45" y="75.96"/>
</g>
<g style="fill:var(--fig-ink)" fill-opacity="1">
<use xlink:href="#arbre-cgroups-glyph-1-3" x="398.42" y="75.96"/>
<use xlink:href="#arbre-cgroups-glyph-1-8" x="401.02" y="75.96"/>
<use xlink:href="#arbre-cgroups-glyph-1-7" x="405.31" y="75.96"/>
<use xlink:href="#arbre-cgroups-glyph-1-6" x="409.59" y="75.96"/>
</g>
<g style="fill:var(--fig-ink)" fill-opacity="1">
<use xlink:href="#arbre-cgroups-glyph-1-6" x="411.64" y="75.96"/>
</g>
<g style="fill:var(--fig-ink)" fill-opacity="1">
<use xlink:href="#arbre-cgroups-glyph-1-7" x="413.69" y="75.96"/>
<use xlink:href="#arbre-cgroups-glyph-1-9" x="417.97" y="75.96"/>
</g>
<path fill="none" stroke-width="0.69" stroke-linecap="butt" stroke-linejoin="miter" style="stroke:var(--fig-line)" stroke-opacity="1" stroke-miterlimit="10" d="M 204.09 164.15 L 25.51 133.44 " transform="matrix(0.99, 0, 0, -0.99, 8.62, 191.13)"/>
<path fill="none" stroke-width="0.69" stroke-linecap="butt" stroke-linejoin="miter" style="stroke:var(--fig-line)" stroke-opacity="1" stroke-miterlimit="10" d="M 204.09 164.15 L 121.89 132.84 " transform="matrix(0.99, 0, 0, -0.99, 8.62, 191.13)"/>
<path fill="none" stroke-width="0.69" stroke-linecap="butt" stroke-linejoin="miter" style="stroke:var(--fig-line)" stroke-opacity="1" stroke-miterlimit="10" d="M 204.09 164.15 L 272.12 132.84 " transform="matrix(0.99, 0, 0, -0.99, 8.62, 191.13)"/>
<path fill="none" stroke-width="0.69" stroke-linecap="butt" stroke-linejoin="miter" style="stroke:var(--fig-line)" stroke-opacity="1" stroke-miterlimit="10" d="M 204.09 164.15 L 379.84 132.87 " transform="matrix(0.99, 0, 0, -0.99, 8.62, 191.13)"/>
<path fill-rule="nonzero" style="fill:var(--fig-paper);stroke:var(--fig-gris)" fill-opacity="1" stroke-width="0.79" stroke-linecap="butt" stroke-linejoin="miter" stroke-opacity="1" stroke-miterlimit="10" d="M 190.52 72.95 L 126.96 72.95 C 126.13 72.95 125.46 72.28 125.46 71.45 L 125.46 53.26 C 125.46 52.44 126.13 51.77 126.96 51.77 L 190.52 51.77 C 191.34 51.77 192.01 52.44 192.01 53.26 L 192.01 71.45 C 192.01 72.28 191.34 72.95 190.52 72.95 Z M 190.52 72.95 " transform="matrix(0.99, 0, 0, -0.99, 8.62, 191.13)"/>
<g style="fill:var(--fig-ink)" fill-opacity="1">
<use xlink:href="#arbre-cgroups-glyph-0-19" x="137.83" y="127.42"/>
<use xlink:href="#arbre-cgroups-glyph-0-7" x="142.01" y="127.42"/>
<use xlink:href="#arbre-cgroups-glyph-0-4" x="146.19" y="127.42"/>
<use xlink:href="#arbre-cgroups-glyph-0-20" x="150.36" y="127.42"/>
<use xlink:href="#arbre-cgroups-glyph-0-14" x="154.54" y="127.42"/>
<use xlink:href="#arbre-cgroups-glyph-0-6" x="158.72" y="127.42"/>
<use xlink:href="#arbre-cgroups-glyph-0-13" x="162.89" y="127.42"/>
<use xlink:href="#arbre-cgroups-glyph-0-1" x="167.07" y="127.42"/>
<use xlink:href="#arbre-cgroups-glyph-0-14" x="171.25" y="127.42"/>
<use xlink:href="#arbre-cgroups-glyph-0-6" x="175.42" y="127.42"/>
<use xlink:href="#arbre-cgroups-glyph-0-21" x="179.60" y="127.42"/>
<use xlink:href="#arbre-cgroups-glyph-0-10" x="183.78" y="127.42"/>
<use xlink:href="#arbre-cgroups-glyph-0-4" x="187.95" y="127.42"/>
<use xlink:href="#arbre-cgroups-glyph-0-14" x="192.13" y="127.42"/>
</g>
<g style="fill:var(--fig-ink)" fill-opacity="1">
<use xlink:href="#arbre-cgroups-glyph-1-16" x="137.83" y="135.38"/>
<use xlink:href="#arbre-cgroups-glyph-1-1" x="142.32" y="135.38"/>
</g>
<g style="fill:var(--fig-ink)" fill-opacity="1">
<use xlink:href="#arbre-cgroups-glyph-1-0" x="146.70" y="135.38"/>
</g>
<g style="fill:var(--fig-ink)" fill-opacity="1">
<use xlink:href="#arbre-cgroups-glyph-1-25" x="150.72" y="135.38"/>
</g>
<g style="fill:var(--fig-ink)" fill-opacity="1">
<use xlink:href="#arbre-cgroups-glyph-1-7" x="154.48" y="135.38"/>
<use xlink:href="#arbre-cgroups-glyph-1-4" x="158.76" y="135.38"/>
</g>
<g style="fill:var(--fig-ink)" fill-opacity="1">
<use xlink:href="#arbre-cgroups-glyph-1-16" x="161.43" y="135.38"/>
</g>
<path fill-rule="nonzero" style="fill:var(--fig-bleu-bg);stroke:var(--fig-bleu)" fill-opacity="1" stroke-width="0.79" stroke-linecap="butt" stroke-linejoin="miter" stroke-opacity="1" stroke-miterlimit="10" d="M 317.13 77.09 L 210.10 77.09 C 209.28 77.09 208.61 76.42 208.61 75.59 L 208.61 32.12 C 208.61 31.29 209.28 30.62 210.10 30.62 L 317.13 30.62 C 317.96 30.62 318.63 31.29 318.63 32.12 L 318.63 75.59 C 318.63 76.42 317.96 77.09 317.13 77.09 Z M 317.13 77.09 " transform="matrix(0.99, 0, 0, -0.99, 8.62, 191.13)"/>
<g style="fill:var(--fig-ink)" fill-opacity="1">
<use xlink:href="#arbre-cgroups-glyph-0-19" x="220.83" y="123.31"/>
<use xlink:href="#arbre-cgroups-glyph-0-7" x="225.01" y="123.31"/>
<use xlink:href="#arbre-cgroups-glyph-0-4" x="229.19" y="123.31"/>
<use xlink:href="#arbre-cgroups-glyph-0-20" x="233.36" y="123.31"/>
<use xlink:href="#arbre-cgroups-glyph-0-14" x="237.54" y="123.31"/>
<use xlink:href="#arbre-cgroups-glyph-0-6" x="241.72" y="123.31"/>
<use xlink:href="#arbre-cgroups-glyph-0-22" x="245.89" y="123.31"/>
<use xlink:href="#arbre-cgroups-glyph-0-23" x="250.07" y="123.31"/>
<use xlink:href="#arbre-cgroups-glyph-0-24" x="254.25" y="123.31"/>
<use xlink:href="#arbre-cgroups-glyph-0-23" x="258.42" y="123.31"/>
<use xlink:href="#arbre-cgroups-glyph-0-4" x="262.60" y="123.31"/>
<use xlink:href="#arbre-cgroups-glyph-0-3" x="266.78" y="123.31"/>
<use xlink:href="#arbre-cgroups-glyph-0-19" x="270.95" y="123.31"/>
<use xlink:href="#arbre-cgroups-glyph-0-13" x="275.13" y="123.31"/>
<use xlink:href="#arbre-cgroups-glyph-0-13" x="279.31" y="123.31"/>
<use xlink:href="#arbre-cgroups-glyph-0-13" x="283.48" y="123.31"/>
<use xlink:href="#arbre-cgroups-glyph-0-1" x="287.66" y="123.31"/>
<use xlink:href="#arbre-cgroups-glyph-0-4" x="291.84" y="123.31"/>
<use xlink:href="#arbre-cgroups-glyph-0-7" x="296.01" y="123.31"/>
<use xlink:href="#arbre-cgroups-glyph-0-9" x="300.19" y="123.31"/>
<use xlink:href="#arbre-cgroups-glyph-0-14" x="304.37" y="123.31"/>
</g>
<g style="fill:var(--fig-ink)" fill-opacity="1">
<use xlink:href="#arbre-cgroups-glyph-1-0" x="220.83" y="131.26"/>
</g>
<g style="fill:var(--fig-ink)" fill-opacity="1">
<use xlink:href="#arbre-cgroups-glyph-1-1" x="224.61" y="131.26"/>
<use xlink:href="#arbre-cgroups-glyph-1-2" x="228.97" y="131.26"/>
</g>
<g style="fill:var(--fig-ink)" fill-opacity="1">
<use xlink:href="#arbre-cgroups-glyph-1-3" x="233.21" y="131.26"/>
</g>
<g style="fill:var(--fig-ink)" fill-opacity="1">
<use xlink:href="#arbre-cgroups-glyph-1-7" x="235.71" y="131.26"/>
<use xlink:href="#arbre-cgroups-glyph-1-2" x="239.99" y="131.26"/>
<use xlink:href="#arbre-cgroups-glyph-1-7" x="244.36" y="131.26"/>
<use xlink:href="#arbre-cgroups-glyph-1-8" x="248.65" y="131.26"/>
<use xlink:href="#arbre-cgroups-glyph-1-4" x="252.94" y="131.26"/>
</g>
<g style="fill:var(--fig-ink)" fill-opacity="1">
<use xlink:href="#arbre-cgroups-glyph-1-0" x="257.87" y="131.26"/>
</g>
<g style="fill:var(--fig-ink)" fill-opacity="1">
<use xlink:href="#arbre-cgroups-glyph-1-15" x="261.78" y="131.26"/>
<use xlink:href="#arbre-cgroups-glyph-1-26" x="263.78" y="131.26"/>
<use xlink:href="#arbre-cgroups-glyph-1-6" x="268.29" y="131.26"/>
</g>
<g style="fill:var(--fig-ink)" fill-opacity="1">
<use xlink:href="#arbre-cgroups-glyph-1-7" x="270.35" y="131.26"/>
</g>
<g style="fill:var(--fig-ink)" fill-opacity="1">
<use xlink:href="#arbre-cgroups-glyph-0-16" x="220.83" y="139.22"/>
<use xlink:href="#arbre-cgroups-glyph-0-14" x="225.01" y="139.22"/>
<use xlink:href="#arbre-cgroups-glyph-0-16" x="229.19" y="139.22"/>
<use xlink:href="#arbre-cgroups-glyph-0-7" x="233.36" y="139.22"/>
<use xlink:href="#arbre-cgroups-glyph-0-6" x="237.54" y="139.22"/>
<use xlink:href="#arbre-cgroups-glyph-0-2" x="241.72" y="139.22"/>
<use xlink:href="#arbre-cgroups-glyph-0-13" x="245.89" y="139.22"/>
<use xlink:href="#arbre-cgroups-glyph-0-16" x="250.07" y="139.22"/>
<use xlink:href="#arbre-cgroups-glyph-0-17" x="254.25" y="139.22"/>
<use xlink:href="#arbre-cgroups-glyph-0-25" x="258.42" y="139.22"/>
</g>
<g style="fill:var(--fig-ink)" fill-opacity="1">
<use xlink:href="#arbre-cgroups-glyph-0-16" x="264.92" y="139.22"/>
<use xlink:href="#arbre-cgroups-glyph-0-17" x="269.09" y="139.22"/>
<use xlink:href="#arbre-cgroups-glyph-0-25" x="273.27" y="139.22"/>
</g>
<g style="fill:var(--fig-ink)" fill-opacity="1">
<use xlink:href="#arbre-cgroups-glyph-0-4" x="220.83" y="147.18"/>
<use xlink:href="#arbre-cgroups-glyph-0-9" x="225.01" y="147.18"/>
<use xlink:href="#arbre-cgroups-glyph-0-8" x="229.19" y="147.18"/>
<use xlink:href="#arbre-cgroups-glyph-0-13" x="233.36" y="147.18"/>
<use xlink:href="#arbre-cgroups-glyph-0-16" x="237.54" y="147.18"/>
<use xlink:href="#arbre-cgroups-glyph-0-17" x="241.72" y="147.18"/>
<use xlink:href="#arbre-cgroups-glyph-0-25" x="245.89" y="147.18"/>
</g>
<g style="fill:var(--fig-ink)" fill-opacity="1">
<use xlink:href="#arbre-cgroups-glyph-0-16" x="252.39" y="147.18"/>
<use xlink:href="#arbre-cgroups-glyph-0-17" x="256.56" y="147.18"/>
<use xlink:href="#arbre-cgroups-glyph-0-25" x="260.74" y="147.18"/>
</g>
<g style="fill:var(--fig-ink)" fill-opacity="1">
<use xlink:href="#arbre-cgroups-glyph-0-26" x="267.24" y="147.18"/>
<use xlink:href="#arbre-cgroups-glyph-0-23" x="271.41" y="147.18"/>
<use xlink:href="#arbre-cgroups-glyph-0-23" x="275.59" y="147.18"/>
<use xlink:href="#arbre-cgroups-glyph-0-23" x="279.77" y="147.18"/>
<use xlink:href="#arbre-cgroups-glyph-0-23" x="283.94" y="147.18"/>
<use xlink:href="#arbre-cgroups-glyph-0-23" x="288.12" y="147.18"/>
</g>
<g style="fill:var(--fig-ink)" fill-opacity="1">
<use xlink:href="#arbre-cgroups-glyph-0-9" x="220.83" y="155.13"/>
<use xlink:href="#arbre-cgroups-glyph-0-10" x="225.01" y="155.13"/>
<use xlink:href="#arbre-cgroups-glyph-0-19" x="229.19" y="155.13"/>
<use xlink:href="#arbre-cgroups-glyph-0-1" x="233.36" y="155.13"/>
<use xlink:href="#arbre-cgroups-glyph-0-13" x="237.54" y="155.13"/>
<use xlink:href="#arbre-cgroups-glyph-0-16" x="241.72" y="155.13"/>
<use xlink:href="#arbre-cgroups-glyph-0-17" x="245.89" y="155.13"/>
<use xlink:href="#arbre-cgroups-glyph-0-25" x="250.07" y="155.13"/>
</g>
<g style="fill:var(--fig-ink)" fill-opacity="1">
<use xlink:href="#arbre-cgroups-glyph-0-26" x="256.56" y="155.13"/>
<use xlink:href="#arbre-cgroups-glyph-0-27" x="260.74" y="155.13"/>
<use xlink:href="#arbre-cgroups-glyph-0-28" x="264.92" y="155.13"/>
<use xlink:href="#arbre-cgroups-glyph-0-28" x="269.09" y="155.13"/>
<use xlink:href="#arbre-cgroups-glyph-0-26" x="273.27" y="155.13"/>
</g>
<path fill-rule="nonzero" style="fill:var(--fig-brique-bg)" fill-opacity="1" d="M 438.37 114.19 L 331.53 114.19 C 330.71 114.19 330.04 114.85 330.04 115.68 L 330.04 159.06 C 330.04 159.89 330.71 160.55 331.53 160.55 L 438.37 160.55 C 439.19 160.55 439.86 159.89 439.86 159.06 L 439.86 115.68 C 439.86 114.85 439.19 114.19 438.37 114.19 Z M 438.37 114.19 "/>
<g clip-path="url(#arbre-cgroups-clip-1)">
<path fill="none" stroke-width="1.09" stroke-linecap="butt" stroke-linejoin="miter" style="stroke:var(--fig-brique)" stroke-opacity="1" stroke-miterlimit="10" d="M 430.52 77.08 L 323.49 77.08 C 322.67 77.08 322.00 76.41 322.00 75.58 L 322.00 32.12 C 322.00 31.30 322.67 30.63 323.49 30.63 L 430.52 30.63 C 431.35 30.63 432.02 31.30 432.02 32.12 L 432.02 75.58 C 432.02 76.41 431.35 77.08 430.52 77.08 Z M 430.52 77.08 " transform="matrix(0.99, 0, 0, -0.99, 8.62, 191.13)"/>
</g>
<g style="fill:var(--fig-ink)" fill-opacity="1">
<use xlink:href="#arbre-cgroups-glyph-0-19" x="334.01" y="123.30"/>
<use xlink:href="#arbre-cgroups-glyph-0-7" x="338.19" y="123.30"/>
<use xlink:href="#arbre-cgroups-glyph-0-4" x="342.36" y="123.30"/>
<use xlink:href="#arbre-cgroups-glyph-0-20" x="346.54" y="123.30"/>
<use xlink:href="#arbre-cgroups-glyph-0-14" x="350.72" y="123.30"/>
<use xlink:href="#arbre-cgroups-glyph-0-6" x="354.89" y="123.30"/>
<use xlink:href="#arbre-cgroups-glyph-0-22" x="359.07" y="123.30"/>
<use xlink:href="#arbre-cgroups-glyph-0-29" x="363.25" y="123.30"/>
<use xlink:href="#arbre-cgroups-glyph-0-23" x="367.42" y="123.30"/>
<use xlink:href="#arbre-cgroups-glyph-0-23" x="371.60" y="123.30"/>
<use xlink:href="#arbre-cgroups-glyph-0-4" x="375.78" y="123.30"/>
<use xlink:href="#arbre-cgroups-glyph-0-4" x="379.96" y="123.30"/>
<use xlink:href="#arbre-cgroups-glyph-0-23" x="384.13" y="123.30"/>
<use xlink:href="#arbre-cgroups-glyph-0-13" x="388.31" y="123.30"/>
<use xlink:href="#arbre-cgroups-glyph-0-13" x="392.49" y="123.30"/>
<use xlink:href="#arbre-cgroups-glyph-0-13" x="396.66" y="123.30"/>
<use xlink:href="#arbre-cgroups-glyph-0-1" x="400.84" y="123.30"/>
<use xlink:href="#arbre-cgroups-glyph-0-4" x="405.02" y="123.30"/>
<use xlink:href="#arbre-cgroups-glyph-0-7" x="409.19" y="123.30"/>
<use xlink:href="#arbre-cgroups-glyph-0-9" x="413.37" y="123.30"/>
<use xlink:href="#arbre-cgroups-glyph-0-14" x="417.55" y="123.30"/>
</g>
<g style="fill:var(--fig-ink)" fill-opacity="1">
<use xlink:href="#arbre-cgroups-glyph-1-0" x="334.01" y="131.25"/>
</g>
<g style="fill:var(--fig-ink)" fill-opacity="1">
<use xlink:href="#arbre-cgroups-glyph-1-1" x="337.79" y="131.25"/>
<use xlink:href="#arbre-cgroups-glyph-1-2" x="342.15" y="131.25"/>
</g>
<g style="fill:var(--fig-ink)" fill-opacity="1">
<use xlink:href="#arbre-cgroups-glyph-1-3" x="346.39" y="131.25"/>
</g>
<g style="fill:var(--fig-ink)" fill-opacity="1">
<use xlink:href="#arbre-cgroups-glyph-1-7" x="348.89" y="131.25"/>
<use xlink:href="#arbre-cgroups-glyph-1-2" x="353.17" y="131.25"/>
<use xlink:href="#arbre-cgroups-glyph-1-7" x="357.54" y="131.25"/>
<use xlink:href="#arbre-cgroups-glyph-1-8" x="361.82" y="131.25"/>
<use xlink:href="#arbre-cgroups-glyph-1-4" x="366.12" y="131.25"/>
</g>
<g style="fill:var(--fig-ink)" fill-opacity="1">
<use xlink:href="#arbre-cgroups-glyph-1-6" x="371.05" y="131.25"/>
</g>
<g style="fill:var(--fig-ink)" fill-opacity="1">
<use xlink:href="#arbre-cgroups-glyph-1-15" x="373.19" y="131.25"/>
<use xlink:href="#arbre-cgroups-glyph-1-13" x="375.20" y="131.25"/>
<use xlink:href="#arbre-cgroups-glyph-1-15" x="381.92" y="131.25"/>
<use xlink:href="#arbre-cgroups-glyph-1-3" x="383.92" y="131.25"/>
</g>
<g style="fill:var(--fig-ink)" fill-opacity="1">
<use xlink:href="#arbre-cgroups-glyph-1-7" x="386.43" y="131.25"/>
</g>
<g style="fill:var(--fig-ink)" fill-opacity="1">
<use xlink:href="#arbre-cgroups-glyph-0-16" x="334.01" y="139.21"/>
<use xlink:href="#arbre-cgroups-glyph-0-14" x="338.19" y="139.21"/>
<use xlink:href="#arbre-cgroups-glyph-0-16" x="342.36" y="139.21"/>
<use xlink:href="#arbre-cgroups-glyph-0-7" x="346.54" y="139.21"/>
<use xlink:href="#arbre-cgroups-glyph-0-6" x="350.72" y="139.21"/>
<use xlink:href="#arbre-cgroups-glyph-0-2" x="354.89" y="139.21"/>
<use xlink:href="#arbre-cgroups-glyph-0-13" x="359.07" y="139.21"/>
<use xlink:href="#arbre-cgroups-glyph-0-16" x="363.25" y="139.21"/>
<use xlink:href="#arbre-cgroups-glyph-0-17" x="367.42" y="139.21"/>
<use xlink:href="#arbre-cgroups-glyph-0-25" x="371.60" y="139.21"/>
</g>
<g style="fill:var(--fig-ink)" fill-opacity="1">
<use xlink:href="#arbre-cgroups-glyph-0-27" x="378.10" y="139.21"/>
<use xlink:href="#arbre-cgroups-glyph-0-30" x="382.27" y="139.21"/>
<use xlink:href="#arbre-cgroups-glyph-0-26" x="386.45" y="139.21"/>
<use xlink:href="#arbre-cgroups-glyph-0-23" x="390.63" y="139.21"/>
<use xlink:href="#arbre-cgroups-glyph-0-31" x="394.80" y="139.21"/>
<use xlink:href="#arbre-cgroups-glyph-0-31" x="398.98" y="139.21"/>
<use xlink:href="#arbre-cgroups-glyph-0-27" x="403.16" y="139.21"/>
<use xlink:href="#arbre-cgroups-glyph-0-32" x="407.33" y="139.21"/>
</g>
<g style="fill:var(--fig-ink)" fill-opacity="1">
<use xlink:href="#arbre-cgroups-glyph-0-4" x="334.01" y="147.16"/>
<use xlink:href="#arbre-cgroups-glyph-0-9" x="338.19" y="147.16"/>
<use xlink:href="#arbre-cgroups-glyph-0-8" x="342.36" y="147.16"/>
<use xlink:href="#arbre-cgroups-glyph-0-13" x="346.54" y="147.16"/>
<use xlink:href="#arbre-cgroups-glyph-0-16" x="350.72" y="147.16"/>
<use xlink:href="#arbre-cgroups-glyph-0-17" x="354.89" y="147.16"/>
<use xlink:href="#arbre-cgroups-glyph-0-25" x="359.07" y="147.16"/>
</g>
<g style="fill:var(--fig-ink)" fill-opacity="1">
<use xlink:href="#arbre-cgroups-glyph-0-29" x="365.57" y="147.16"/>
<use xlink:href="#arbre-cgroups-glyph-0-23" x="369.74" y="147.16"/>
<use xlink:href="#arbre-cgroups-glyph-0-23" x="373.92" y="147.16"/>
<use xlink:href="#arbre-cgroups-glyph-0-23" x="378.10" y="147.16"/>
<use xlink:href="#arbre-cgroups-glyph-0-23" x="382.27" y="147.16"/>
</g>
<g style="fill:var(--fig-ink)" fill-opacity="1">
<use xlink:href="#arbre-cgroups-glyph-0-26" x="388.77" y="147.16"/>
<use xlink:href="#arbre-cgroups-glyph-0-23" x="392.94" y="147.16"/>
<use xlink:href="#arbre-cgroups-glyph-0-23" x="397.12" y="147.16"/>
<use xlink:href="#arbre-cgroups-glyph-0-23" x="401.30" y="147.16"/>
<use xlink:href="#arbre-cgroups-glyph-0-23" x="405.47" y="147.16"/>
<use xlink:href="#arbre-cgroups-glyph-0-23" x="409.65" y="147.16"/>
</g>
<g style="fill:var(--fig-ink)" fill-opacity="1">
<use xlink:href="#arbre-cgroups-glyph-0-9" x="334.01" y="155.12"/>
<use xlink:href="#arbre-cgroups-glyph-0-10" x="338.19" y="155.12"/>
<use xlink:href="#arbre-cgroups-glyph-0-19" x="342.36" y="155.12"/>
<use xlink:href="#arbre-cgroups-glyph-0-1" x="346.54" y="155.12"/>
<use xlink:href="#arbre-cgroups-glyph-0-13" x="350.72" y="155.12"/>
<use xlink:href="#arbre-cgroups-glyph-0-16" x="354.89" y="155.12"/>
<use xlink:href="#arbre-cgroups-glyph-0-17" x="359.07" y="155.12"/>
<use xlink:href="#arbre-cgroups-glyph-0-25" x="363.25" y="155.12"/>
</g>
<g style="fill:var(--fig-ink)" fill-opacity="1">
<use xlink:href="#arbre-cgroups-glyph-0-29" x="369.74" y="155.12"/>
<use xlink:href="#arbre-cgroups-glyph-0-23" x="373.92" y="155.12"/>
</g>
<path fill="none" stroke-width="0.69" stroke-linecap="butt" stroke-linejoin="miter" style="stroke:var(--fig-line)" stroke-opacity="1" stroke-miterlimit="10" d="M 272.12 110.93 L 158.74 73.34 " transform="matrix(0.99, 0, 0, -0.99, 8.62, 191.13)"/>
<path fill="none" stroke-width="0.69" stroke-linecap="butt" stroke-linejoin="miter" style="stroke:var(--fig-line)" stroke-opacity="1" stroke-miterlimit="10" d="M 272.12 110.93 L 263.62 77.49 " transform="matrix(0.99, 0, 0, -0.99, 8.62, 191.13)"/>
<path fill="none" stroke-width="0.69" stroke-linecap="butt" stroke-linejoin="miter" style="stroke:var(--fig-line)" stroke-opacity="1" stroke-miterlimit="10" d="M 272.12 110.93 L 377.01 77.63 " transform="matrix(0.99, 0, 0, -0.99, 8.62, 191.13)"/>
<g style="fill:var(--fig-brique)" fill-opacity="1">
<use xlink:href="#arbre-cgroups-glyph-0-33" x="336.91" y="184.03"/>
<use xlink:href="#arbre-cgroups-glyph-0-33" x="341.09" y="184.03"/>
<use xlink:href="#arbre-cgroups-glyph-0-16" x="345.26" y="184.03"/>
<use xlink:href="#arbre-cgroups-glyph-0-14" x="349.44" y="184.03"/>
<use xlink:href="#arbre-cgroups-glyph-0-16" x="353.62" y="184.03"/>
<use xlink:href="#arbre-cgroups-glyph-0-7" x="357.79" y="184.03"/>
<use xlink:href="#arbre-cgroups-glyph-0-6" x="361.97" y="184.03"/>
<use xlink:href="#arbre-cgroups-glyph-0-2" x="366.15" y="184.03"/>
</g>
<g style="fill:var(--fig-brique)" fill-opacity="1">
<use xlink:href="#arbre-cgroups-glyph-0-27" x="374.49" y="184.03"/>
<use xlink:href="#arbre-cgroups-glyph-0-32" x="378.67" y="184.03"/>
<use xlink:href="#arbre-cgroups-glyph-0-16" x="382.85" y="184.03"/>
</g>
<g style="fill:var(--fig-brique)" fill-opacity="1">
<use xlink:href="#arbre-cgroups-glyph-0-33" x="391.20" y="184.03"/>
<use xlink:href="#arbre-cgroups-glyph-0-33" x="395.38" y="184.03"/>
<use xlink:href="#arbre-cgroups-glyph-0-4" x="399.55" y="184.03"/>
<use xlink:href="#arbre-cgroups-glyph-0-9" x="403.73" y="184.03"/>
<use xlink:href="#arbre-cgroups-glyph-0-8" x="407.91" y="184.03"/>
<use xlink:href="#arbre-cgroups-glyph-0-1" x="412.08" y="184.03"/>
</g>
<g style="fill:var(--fig-brique)" fill-opacity="1">
<use xlink:href="#arbre-cgroups-glyph-0-23" x="420.44" y="184.03"/>
<use xlink:href="#arbre-cgroups-glyph-0-13" x="424.61" y="184.03"/>
<use xlink:href="#arbre-cgroups-glyph-0-29" x="428.79" y="184.03"/>
</g>
<g style="fill:var(--fig-brique)" fill-opacity="1">
<use xlink:href="#arbre-cgroups-glyph-0-33" x="336.91" y="191.99"/>
<use xlink:href="#arbre-cgroups-glyph-0-33" x="341.09" y="191.99"/>
<use xlink:href="#arbre-cgroups-glyph-0-9" x="345.26" y="191.99"/>
<use xlink:href="#arbre-cgroups-glyph-0-10" x="349.44" y="191.99"/>
<use xlink:href="#arbre-cgroups-glyph-0-19" x="353.62" y="191.99"/>
<use xlink:href="#arbre-cgroups-glyph-0-1" x="357.79" y="191.99"/>
<use xlink:href="#arbre-cgroups-glyph-0-22" x="361.97" y="191.99"/>
<use xlink:href="#arbre-cgroups-glyph-0-15" x="366.15" y="191.99"/>
<use xlink:href="#arbre-cgroups-glyph-0-10" x="370.32" y="191.99"/>
<use xlink:href="#arbre-cgroups-glyph-0-16" x="374.50" y="191.99"/>
<use xlink:href="#arbre-cgroups-glyph-0-10" x="378.68" y="191.99"/>
<use xlink:href="#arbre-cgroups-glyph-0-12" x="382.85" y="191.99"/>
</g>
<g style="fill:var(--fig-brique)" fill-opacity="1">
<use xlink:href="#arbre-cgroups-glyph-0-29" x="391.20" y="191.99"/>
<use xlink:href="#arbre-cgroups-glyph-0-23" x="395.38" y="191.99"/>
</g>
<g style="fill:var(--fig-muted)" fill-opacity="1">
<use xlink:href="#arbre-cgroups-glyph-2-0" x="235.85" y="184.05"/>
</g>
<g style="fill:var(--fig-muted)" fill-opacity="1">
<use xlink:href="#arbre-cgroups-glyph-2-1" x="239.44" y="184.05"/>
<use xlink:href="#arbre-cgroups-glyph-2-2" x="243.20" y="184.05"/>
<use xlink:href="#arbre-cgroups-glyph-2-1" x="246.58" y="184.05"/>
<use xlink:href="#arbre-cgroups-glyph-2-3" x="250.34" y="184.05"/>
<use xlink:href="#arbre-cgroups-glyph-2-4" x="254.17" y="184.05"/>
</g>
<g style="fill:var(--fig-muted)" fill-opacity="1">
<use xlink:href="#arbre-cgroups-glyph-2-5" x="259.86" y="184.05"/>
</g>
<g style="fill:var(--fig-muted)" fill-opacity="1">
<use xlink:href="#arbre-cgroups-glyph-2-6" x="261.73" y="184.05"/>
<use xlink:href="#arbre-cgroups-glyph-2-7" x="263.48" y="184.05"/>
<use xlink:href="#arbre-cgroups-glyph-2-6" x="269.36" y="184.05"/>
<use xlink:href="#arbre-cgroups-glyph-2-8" x="271.12" y="184.05"/>
</g>
<g style="fill:var(--fig-muted)" fill-opacity="1">
<use xlink:href="#arbre-cgroups-glyph-2-4" x="273.31" y="184.05"/>
</g>
<g style="fill:var(--fig-muted)" fill-opacity="1">
<use xlink:href="#arbre-cgroups-glyph-2-9" x="279.00" y="184.05"/>
</g>
<g style="fill:var(--fig-muted)" fill-opacity="1">
<use xlink:href="#arbre-cgroups-glyph-2-10" x="283.06" y="184.05"/>
</g>
<g style="fill:var(--fig-muted)" fill-opacity="1">
<use xlink:href="#arbre-cgroups-glyph-2-7" x="288.92" y="184.05"/>
<use xlink:href="#arbre-cgroups-glyph-2-0" x="294.81" y="184.05"/>
<use xlink:href="#arbre-cgroups-glyph-2-11" x="298.46" y="184.05"/>
</g>
<g style="fill:var(--fig-muted)" fill-opacity="1">
<use xlink:href="#arbre-cgroups-glyph-2-12" x="303.76" y="184.05"/>
</g>
</svg>
