<?xml version="1.0" encoding="UTF-8"?>
<svg xmlns="http://www.w3.org/2000/svg" xmlns:xlink="http://www.w3.org/1999/xlink" viewBox="0 0 466.46 125.59">
<defs>
<g>
<g id="chemin-images-glyph-0-0">
<path d="M 0.42 0 L 0.42 -4.64 L 1.89 -4.64 C 2.28 -4.64 2.64 -4.59 2.96 -4.51 C 3.30 -4.42 3.58 -4.29 3.81 -4.10 C 4.05 -3.92 4.23 -3.69 4.35 -3.40 C 4.49 -3.11 4.56 -2.75 4.56 -2.32 C 4.56 -1.89 4.49 -1.51 4.35 -1.21 C 4.23 -0.92 4.05 -0.69 3.81 -0.51 C 3.57 -0.33 3.28 -0.20 2.96 -0.12 C 2.64 -0.03 2.28 0 1.89 0 Z M 1.43 -0.85 L 1.90 -0.85 C 2.14 -0.85 2.35 -0.87 2.54 -0.90 C 2.74 -0.94 2.91 -1.01 3.06 -1.12 C 3.20 -1.22 3.31 -1.37 3.39 -1.56 C 3.47 -1.75 3.51 -2.01 3.51 -2.32 C 3.51 -2.62 3.47 -2.87 3.39 -3.06 C 3.31 -3.25 3.20 -3.41 3.06 -3.51 C 2.91 -3.61 2.74 -3.69 2.54 -3.73 C 2.35 -3.77 2.14 -3.79 1.90 -3.79 L 1.43 -3.79 Z M 1.43 -0.85 "/>
</g>
<g id="chemin-images-glyph-0-1">
<path d="M 2 0.07 C 1.75 0.07 1.53 0.04 1.32 -0.01 C 1.11 -0.08 0.92 -0.19 0.75 -0.34 C 0.58 -0.5 0.44 -0.69 0.34 -0.92 C 0.25 -1.14 0.20 -1.41 0.20 -1.71 C 0.20 -2.03 0.25 -2.31 0.34 -2.53 C 0.44 -2.75 0.58 -2.94 0.75 -3.09 C 0.92 -3.25 1.11 -3.36 1.32 -3.43 C 1.53 -3.50 1.75 -3.54 2 -3.54 C 2.22 -3.54 2.44 -3.50 2.65 -3.43 C 2.87 -3.36 3.06 -3.25 3.23 -3.09 C 3.41 -2.94 3.54 -2.75 3.64 -2.53 C 3.74 -2.31 3.79 -2.03 3.79 -1.71 C 3.79 -1.41 3.74 -1.14 3.64 -0.92 C 3.54 -0.69 3.41 -0.5 3.23 -0.34 C 3.06 -0.19 2.87 -0.08 2.65 -0.01 C 2.44 0.04 2.22 0.07 2 0.07 Z M 2 -0.68 C 2.14 -0.68 2.28 -0.71 2.40 -0.78 C 2.53 -0.85 2.62 -0.96 2.68 -1.10 C 2.75 -1.26 2.79 -1.46 2.79 -1.71 C 2.79 -1.97 2.75 -2.18 2.68 -2.34 C 2.62 -2.5 2.53 -2.60 2.40 -2.67 C 2.28 -2.74 2.14 -2.78 2 -2.78 C 1.85 -2.78 1.71 -2.74 1.59 -2.67 C 1.47 -2.60 1.38 -2.5 1.31 -2.34 C 1.23 -2.18 1.20 -1.97 1.20 -1.71 C 1.20 -1.46 1.23 -1.26 1.31 -1.10 C 1.38 -0.96 1.47 -0.85 1.59 -0.78 C 1.71 -0.71 1.85 -0.68 2 -0.68 Z M 2 -0.68 "/>
</g>
<g id="chemin-images-glyph-0-2">
<path d="M 1.93 0.07 C 1.57 0.07 1.25 0.00 1 -0.14 C 0.73 -0.29 0.53 -0.50 0.40 -0.78 C 0.26 -1.06 0.20 -1.37 0.20 -1.73 C 0.20 -2.09 0.27 -2.41 0.42 -2.68 C 0.56 -2.95 0.76 -3.16 1.03 -3.31 C 1.30 -3.46 1.60 -3.54 1.95 -3.54 C 2.14 -3.54 2.34 -3.51 2.53 -3.45 C 2.72 -3.39 2.90 -3.28 3.06 -3.15 C 3.22 -3.03 3.36 -2.86 3.46 -2.65 L 2.64 -2.35 C 2.58 -2.50 2.50 -2.60 2.39 -2.67 C 2.27 -2.74 2.14 -2.78 2 -2.78 C 1.86 -2.78 1.73 -2.74 1.60 -2.67 C 1.48 -2.60 1.38 -2.5 1.31 -2.34 C 1.23 -2.18 1.20 -1.98 1.20 -1.73 C 1.20 -1.47 1.23 -1.26 1.31 -1.10 C 1.39 -0.96 1.49 -0.85 1.60 -0.78 C 1.73 -0.71 1.86 -0.68 2 -0.68 C 2.15 -0.68 2.28 -0.71 2.39 -0.78 C 2.50 -0.84 2.59 -0.92 2.65 -1.03 L 3.45 -0.73 C 3.33 -0.53 3.19 -0.37 3.03 -0.25 C 2.87 -0.13 2.69 -0.05 2.5 0 C 2.31 0.05 2.12 0.07 1.93 0.07 Z M 1.93 0.07 "/>
</g>
<g id="chemin-images-glyph-0-3">
<path d="M 0.39 0 L 0.39 -4.92 L 1.35 -4.92 L 1.35 -2.09 L 2.56 -3.45 L 3.70 -3.45 L 2.37 -2.01 L 3.82 0 L 2.67 0 L 1.73 -1.32 L 1.35 -0.92 L 1.35 0 Z M 0.39 0 "/>
</g>
<g id="chemin-images-glyph-0-4">
<path d="M 2.06 0.07 C 1.68 0.07 1.35 0.00 1.07 -0.14 C 0.80 -0.28 0.59 -0.49 0.43 -0.76 C 0.28 -1.04 0.20 -1.36 0.20 -1.73 C 0.20 -2.09 0.28 -2.41 0.45 -2.68 C 0.61 -2.95 0.83 -3.16 1.10 -3.31 C 1.39 -3.46 1.69 -3.54 2.01 -3.54 C 2.29 -3.54 2.54 -3.48 2.76 -3.37 C 2.99 -3.26 3.18 -3.12 3.34 -2.93 C 3.5 -2.75 3.61 -2.53 3.68 -2.28 C 3.75 -2.03 3.78 -1.75 3.75 -1.46 L 1.15 -1.46 C 1.18 -1.32 1.22 -1.19 1.28 -1.09 C 1.34 -1 1.41 -0.92 1.48 -0.85 C 1.56 -0.79 1.65 -0.75 1.75 -0.71 C 1.84 -0.69 1.93 -0.68 2.03 -0.68 C 2.19 -0.68 2.34 -0.70 2.46 -0.75 C 2.59 -0.80 2.68 -0.86 2.75 -0.95 L 3.54 -0.67 C 3.36 -0.42 3.14 -0.23 2.89 -0.10 C 2.62 0.01 2.35 0.07 2.06 0.07 Z M 1.15 -2.07 L 2.84 -2.07 C 2.84 -2.22 2.80 -2.34 2.73 -2.45 C 2.66 -2.56 2.56 -2.65 2.45 -2.71 C 2.33 -2.78 2.20 -2.81 2.04 -2.81 C 1.91 -2.81 1.78 -2.78 1.65 -2.73 C 1.53 -2.67 1.42 -2.60 1.32 -2.5 C 1.24 -2.39 1.18 -2.25 1.15 -2.07 Z M 1.15 -2.07 "/>
</g>
<g id="chemin-images-glyph-0-5">
<path d="M 0.39 0 L 0.39 -3.45 L 1.14 -3.45 L 1.32 -2.81 C 1.41 -2.98 1.50 -3.12 1.60 -3.23 C 1.71 -3.34 1.83 -3.42 1.98 -3.46 C 2.12 -3.51 2.28 -3.54 2.46 -3.54 L 2.46 -2.56 C 2.21 -2.59 2.00 -2.57 1.84 -2.51 C 1.68 -2.46 1.56 -2.36 1.48 -2.23 C 1.39 -2.09 1.35 -1.91 1.35 -1.68 L 1.35 0 Z M 0.39 0 "/>
</g>
<g id="chemin-images-glyph-0-6">
<path d="M 1.71 0.07 C 1.42 0.07 1.16 0.00 0.93 -0.14 C 0.70 -0.28 0.52 -0.49 0.39 -0.76 C 0.26 -1.04 0.20 -1.37 0.20 -1.75 C 0.20 -2.12 0.26 -2.44 0.39 -2.70 C 0.52 -2.97 0.70 -3.17 0.93 -3.32 C 1.16 -3.47 1.42 -3.54 1.71 -3.54 C 1.92 -3.54 2.12 -3.49 2.32 -3.39 C 2.52 -3.29 2.67 -3.15 2.78 -2.96 L 2.78 -4.92 L 3.75 -4.92 L 3.75 -1.34 C 3.75 -1.17 3.75 -0.97 3.76 -0.73 C 3.78 -0.50 3.81 -0.25 3.85 0 L 2.95 0 L 2.81 -0.45 C 2.66 -0.26 2.49 -0.12 2.29 -0.04 C 2.10 0.03 1.91 0.07 1.71 0.07 Z M 2.01 -0.67 C 2.17 -0.67 2.30 -0.70 2.42 -0.78 C 2.54 -0.85 2.64 -0.96 2.71 -1.12 C 2.78 -1.28 2.82 -1.47 2.82 -1.71 C 2.82 -2.09 2.75 -2.36 2.59 -2.53 C 2.43 -2.69 2.24 -2.78 2.01 -2.78 C 1.79 -2.78 1.60 -2.69 1.45 -2.51 C 1.29 -2.33 1.21 -2.08 1.21 -1.75 C 1.21 -1.40 1.29 -1.14 1.45 -0.95 C 1.60 -0.76 1.79 -0.67 2.01 -0.67 Z M 2.01 -0.67 "/>
</g>
<g id="chemin-images-glyph-0-7">
<path d="M 1.56 0.07 C 1.25 0.07 1.01 0.02 0.84 -0.07 C 0.67 -0.19 0.55 -0.35 0.48 -0.57 C 0.41 -0.79 0.37 -1.05 0.37 -1.35 L 0.37 -3.45 L 1.34 -3.45 L 1.34 -1.59 C 1.34 -1.43 1.35 -1.28 1.37 -1.14 C 1.39 -0.99 1.44 -0.87 1.51 -0.79 C 1.59 -0.72 1.72 -0.68 1.90 -0.68 C 2.14 -0.68 2.31 -0.75 2.42 -0.90 C 2.52 -1.05 2.57 -1.28 2.57 -1.62 L 2.57 -3.45 L 3.54 -3.45 L 3.54 0 L 2.71 0 L 2.57 -0.48 C 2.47 -0.31 2.34 -0.17 2.18 -0.07 C 2.03 0.02 1.82 0.07 1.56 0.07 Z M 1.56 0.07 "/>
</g>
<g id="chemin-images-glyph-0-8">
<path d="M 0.39 1.12 L 0.39 -3.45 L 1.21 -3.45 L 1.35 -2.96 C 1.42 -3.09 1.52 -3.19 1.64 -3.28 C 1.76 -3.36 1.89 -3.42 2.01 -3.46 C 2.14 -3.51 2.28 -3.54 2.42 -3.54 C 2.71 -3.54 2.97 -3.46 3.20 -3.31 C 3.42 -3.16 3.60 -2.95 3.73 -2.68 C 3.86 -2.41 3.93 -2.09 3.93 -1.71 C 3.93 -1.34 3.86 -1.01 3.73 -0.75 C 3.60 -0.47 3.42 -0.26 3.20 -0.12 C 2.97 0.00 2.71 0.07 2.42 0.07 C 2.28 0.07 2.14 0.05 2.01 0.01 C 1.89 -0.02 1.76 -0.08 1.64 -0.17 C 1.52 -0.26 1.42 -0.37 1.35 -0.5 L 1.35 1.12 Z M 2.12 -0.67 C 2.34 -0.67 2.53 -0.75 2.68 -0.93 C 2.84 -1.11 2.92 -1.37 2.92 -1.71 C 2.92 -2.05 2.84 -2.31 2.68 -2.5 C 2.53 -2.68 2.34 -2.78 2.12 -2.78 C 1.89 -2.78 1.70 -2.69 1.54 -2.53 C 1.39 -2.36 1.32 -2.09 1.32 -1.73 C 1.32 -1.37 1.39 -1.11 1.54 -0.93 C 1.70 -0.75 1.89 -0.67 2.12 -0.67 Z M 2.12 -0.67 "/>
</g>
<g id="chemin-images-glyph-0-9">
<path d="M 1.79 0.09 C 1.53 0.09 1.29 0.05 1.07 -0.01 C 0.85 -0.08 0.66 -0.18 0.5 -0.31 C 0.33 -0.43 0.20 -0.59 0.12 -0.79 L 0.96 -1.09 C 1.00 -0.94 1.10 -0.83 1.26 -0.75 C 1.42 -0.66 1.61 -0.62 1.81 -0.62 C 1.98 -0.62 2.14 -0.65 2.26 -0.71 C 2.39 -0.78 2.46 -0.87 2.46 -1 C 2.46 -1.08 2.42 -1.14 2.34 -1.20 C 2.25 -1.26 2.11 -1.31 1.90 -1.35 L 1.35 -1.45 C 1.14 -1.49 0.94 -1.55 0.78 -1.64 C 0.61 -1.72 0.48 -1.83 0.39 -1.96 C 0.29 -2.10 0.25 -2.26 0.25 -2.45 C 0.25 -2.69 0.32 -2.89 0.46 -3.04 C 0.61 -3.21 0.80 -3.33 1.03 -3.42 C 1.26 -3.50 1.51 -3.54 1.78 -3.54 C 2.11 -3.54 2.41 -3.48 2.68 -3.35 C 2.96 -3.23 3.17 -3.03 3.31 -2.75 L 2.46 -2.45 C 2.42 -2.57 2.33 -2.67 2.20 -2.73 C 2.07 -2.79 1.92 -2.82 1.76 -2.82 C 1.57 -2.82 1.42 -2.79 1.32 -2.73 C 1.22 -2.67 1.17 -2.60 1.17 -2.5 C 1.17 -2.41 1.20 -2.34 1.28 -2.29 C 1.35 -2.25 1.46 -2.21 1.62 -2.18 L 2.20 -2.09 C 2.47 -2.03 2.69 -1.97 2.87 -1.89 C 3.06 -1.80 3.19 -1.69 3.28 -1.56 C 3.36 -1.43 3.40 -1.26 3.40 -1.06 C 3.40 -0.81 3.33 -0.59 3.18 -0.42 C 3.03 -0.25 2.84 -0.12 2.60 -0.03 C 2.36 0.05 2.09 0.09 1.79 0.09 Z M 1.79 0.09 "/>
</g>
<g id="chemin-images-glyph-0-10">
<path d="M 1.73 0 C 1.46 0 1.25 -0.01 1.09 -0.06 C 0.93 -0.11 0.82 -0.20 0.75 -0.34 C 0.68 -0.48 0.65 -0.69 0.65 -0.95 L 0.65 -2.70 L 0.07 -2.70 L 0.07 -3.45 L 0.65 -3.45 L 0.65 -4.31 L 1.62 -4.31 L 1.62 -3.45 L 2.37 -3.45 L 2.37 -2.70 L 1.62 -2.70 L 1.62 -1.20 C 1.62 -1.03 1.64 -0.92 1.70 -0.87 C 1.76 -0.82 1.87 -0.79 2.04 -0.79 L 2.37 -0.79 L 2.37 0 Z M 1.73 0 "/>
</g>
<g id="chemin-images-glyph-0-11">
<path d="M 2.03 1.39 C 1.84 1.39 1.64 1.36 1.45 1.31 C 1.26 1.26 1.08 1.19 0.92 1.07 C 0.75 0.96 0.62 0.80 0.53 0.60 L 1.32 0.28 C 1.39 0.38 1.47 0.47 1.59 0.54 C 1.71 0.61 1.87 0.65 2.06 0.65 C 2.18 0.65 2.30 0.62 2.40 0.57 C 2.51 0.53 2.60 0.46 2.67 0.35 C 2.74 0.25 2.78 0.11 2.78 -0.06 L 2.78 -0.67 C 2.64 -0.48 2.47 -0.34 2.28 -0.25 C 2.09 -0.15 1.89 -0.10 1.68 -0.10 C 1.43 -0.10 1.19 -0.17 0.96 -0.31 C 0.73 -0.44 0.55 -0.64 0.40 -0.89 C 0.26 -1.14 0.20 -1.44 0.20 -1.79 C 0.20 -2.19 0.26 -2.51 0.40 -2.76 C 0.55 -3.02 0.73 -3.21 0.95 -3.34 C 1.17 -3.47 1.41 -3.54 1.65 -3.54 C 1.88 -3.54 2.09 -3.49 2.29 -3.39 C 2.49 -3.29 2.65 -3.15 2.78 -2.96 L 2.92 -3.45 L 3.73 -3.45 L 3.73 -0.21 C 3.73 0.15 3.66 0.46 3.51 0.70 C 3.37 0.94 3.17 1.11 2.92 1.21 C 2.67 1.33 2.37 1.39 2.03 1.39 Z M 2.01 -0.87 C 2.16 -0.87 2.28 -0.89 2.40 -0.95 C 2.53 -1.01 2.62 -1.11 2.70 -1.25 C 2.77 -1.39 2.81 -1.58 2.81 -1.82 C 2.81 -2.05 2.77 -2.23 2.70 -2.37 C 2.62 -2.51 2.53 -2.62 2.40 -2.68 C 2.28 -2.75 2.16 -2.78 2.01 -2.78 C 1.79 -2.78 1.60 -2.70 1.45 -2.54 C 1.29 -2.39 1.21 -2.16 1.21 -1.84 C 1.21 -1.51 1.29 -1.27 1.45 -1.10 C 1.60 -0.95 1.79 -0.87 2.01 -0.87 Z M 2.01 -0.87 "/>
</g>
<g id="chemin-images-glyph-0-12">
<path d="M 0.70 0 L 0.70 -2.71 L 0.14 -2.71 L 0.14 -3.45 L 1.67 -3.45 L 1.67 0 Z M 1.14 -4.03 C 0.97 -4.03 0.83 -4.08 0.71 -4.20 C 0.60 -4.31 0.54 -4.45 0.54 -4.62 C 0.54 -4.78 0.60 -4.92 0.71 -5.04 C 0.83 -5.16 0.97 -5.21 1.14 -5.21 C 1.30 -5.21 1.44 -5.16 1.56 -5.04 C 1.67 -4.92 1.73 -4.78 1.73 -4.62 C 1.73 -4.45 1.67 -4.31 1.56 -4.20 C 1.44 -4.08 1.30 -4.03 1.14 -4.03 Z M 1.14 -4.03 "/>
</g>
<g id="chemin-images-glyph-0-13">
<path d="M 0.39 0 L 0.39 -3.45 L 1.21 -3.45 L 1.35 -2.96 C 1.41 -3.06 1.48 -3.14 1.57 -3.23 C 1.67 -3.31 1.80 -3.39 1.93 -3.45 C 2.08 -3.51 2.25 -3.54 2.43 -3.54 C 2.72 -3.54 2.95 -3.48 3.12 -3.37 C 3.28 -3.25 3.41 -3.09 3.48 -2.87 C 3.55 -2.66 3.59 -2.41 3.59 -2.10 L 3.59 0 L 2.62 0 L 2.62 -1.87 C 2.62 -2.03 2.61 -2.17 2.59 -2.31 C 2.57 -2.45 2.51 -2.57 2.43 -2.65 C 2.36 -2.73 2.23 -2.78 2.04 -2.78 C 1.81 -2.78 1.64 -2.69 1.53 -2.53 C 1.41 -2.36 1.35 -2.11 1.35 -1.79 L 1.35 0 Z M 0.39 0 "/>
</g>
<g id="chemin-images-glyph-0-14">
<path d="M 1.35 0.07 C 1.14 0.07 0.94 0.03 0.76 -0.03 C 0.58 -0.11 0.44 -0.22 0.32 -0.37 C 0.22 -0.53 0.17 -0.71 0.17 -0.92 C 0.17 -1.19 0.26 -1.41 0.45 -1.57 C 0.64 -1.74 0.92 -1.87 1.26 -1.96 C 1.61 -2.06 2.03 -2.12 2.5 -2.15 L 2.5 -2.26 C 2.5 -2.47 2.44 -2.62 2.32 -2.71 C 2.22 -2.82 2.06 -2.87 1.85 -2.87 C 1.70 -2.87 1.56 -2.83 1.45 -2.76 C 1.33 -2.69 1.25 -2.58 1.21 -2.43 L 0.39 -2.71 C 0.50 -2.95 0.69 -3.15 0.95 -3.31 C 1.21 -3.46 1.52 -3.54 1.89 -3.54 C 2.39 -3.54 2.76 -3.42 3.03 -3.20 C 3.28 -2.98 3.42 -2.61 3.42 -2.10 L 3.42 -1.34 C 3.42 -1.18 3.42 -1.01 3.43 -0.84 C 3.44 -0.67 3.46 -0.51 3.48 -0.37 C 3.50 -0.22 3.52 -0.10 3.54 0 L 2.65 0 L 2.51 -0.43 C 2.39 -0.25 2.24 -0.11 2.04 -0.03 C 1.84 0.03 1.61 0.07 1.35 0.07 Z M 1.70 -0.59 C 1.85 -0.59 1.99 -0.61 2.10 -0.67 C 2.23 -0.72 2.32 -0.80 2.39 -0.92 C 2.46 -1.04 2.5 -1.21 2.5 -1.42 L 2.5 -1.56 C 2.08 -1.53 1.75 -1.47 1.51 -1.39 C 1.28 -1.30 1.17 -1.17 1.17 -0.98 C 1.17 -0.86 1.21 -0.77 1.31 -0.70 C 1.41 -0.62 1.54 -0.59 1.70 -0.59 Z M 1.70 -0.59 "/>
</g>
<g id="chemin-images-glyph-0-15">
<path d="M 4.65 0.07 C 4.36 0.07 4.10 0.03 3.87 -0.06 C 3.64 -0.15 3.44 -0.29 3.28 -0.48 C 3.12 -0.28 2.92 -0.14 2.70 -0.04 C 2.48 0.03 2.25 0.07 2 0.07 C 1.75 0.07 1.53 0.03 1.32 -0.03 C 1.11 -0.10 0.92 -0.21 0.75 -0.35 C 0.58 -0.50 0.44 -0.69 0.34 -0.92 C 0.25 -1.14 0.20 -1.42 0.20 -1.73 C 0.20 -2.04 0.25 -2.31 0.34 -2.53 C 0.44 -2.75 0.58 -2.94 0.75 -3.09 C 0.92 -3.25 1.11 -3.36 1.32 -3.43 C 1.53 -3.50 1.75 -3.54 2 -3.54 C 2.25 -3.54 2.48 -3.5 2.71 -3.40 C 2.94 -3.31 3.14 -3.16 3.29 -2.96 C 3.46 -3.14 3.66 -3.28 3.89 -3.39 C 4.11 -3.49 4.35 -3.54 4.60 -3.54 C 4.89 -3.54 5.14 -3.48 5.35 -3.37 C 5.58 -3.26 5.78 -3.12 5.93 -2.93 C 6.09 -2.75 6.20 -2.53 6.28 -2.28 C 6.35 -2.03 6.37 -1.75 6.34 -1.46 L 3.75 -1.46 C 3.78 -1.32 3.82 -1.19 3.87 -1.09 C 3.93 -1 4.00 -0.92 4.07 -0.85 C 4.16 -0.79 4.25 -0.75 4.34 -0.71 C 4.43 -0.69 4.53 -0.68 4.62 -0.68 C 4.78 -0.68 4.93 -0.70 5.06 -0.75 C 5.18 -0.80 5.28 -0.86 5.34 -0.95 L 6.12 -0.67 C 5.95 -0.42 5.74 -0.23 5.48 -0.10 C 5.22 0.01 4.94 0.07 4.65 0.07 Z M 2 -0.68 C 2.14 -0.68 2.28 -0.71 2.40 -0.78 C 2.53 -0.85 2.62 -0.96 2.68 -1.12 C 2.75 -1.28 2.79 -1.48 2.79 -1.73 C 2.79 -1.98 2.75 -2.18 2.68 -2.34 C 2.61 -2.5 2.51 -2.60 2.39 -2.67 C 2.27 -2.74 2.14 -2.78 2 -2.78 C 1.85 -2.78 1.71 -2.74 1.59 -2.67 C 1.47 -2.60 1.38 -2.5 1.31 -2.34 C 1.23 -2.18 1.20 -1.98 1.20 -1.73 C 1.20 -1.48 1.23 -1.28 1.29 -1.12 C 1.36 -0.96 1.46 -0.85 1.59 -0.78 C 1.71 -0.71 1.85 -0.68 2 -0.68 Z M 3.75 -2.07 L 5.43 -2.07 C 5.43 -2.22 5.39 -2.34 5.32 -2.45 C 5.25 -2.56 5.16 -2.65 5.04 -2.71 C 4.92 -2.78 4.79 -2.81 4.64 -2.81 C 4.50 -2.81 4.37 -2.78 4.25 -2.73 C 4.12 -2.67 4.01 -2.60 3.92 -2.5 C 3.83 -2.39 3.78 -2.25 3.75 -2.07 Z M 3.75 -2.07 "/>
</g>
<g id="chemin-images-glyph-0-16">
<path d="M 0.39 0 L 0.39 -3.45 L 1.21 -3.45 L 1.35 -2.96 C 1.41 -3.06 1.48 -3.14 1.57 -3.23 C 1.67 -3.31 1.80 -3.39 1.93 -3.45 C 2.08 -3.51 2.23 -3.54 2.40 -3.54 C 2.67 -3.54 2.89 -3.49 3.04 -3.39 C 3.21 -3.28 3.33 -3.14 3.42 -2.95 C 3.55 -3.14 3.72 -3.29 3.92 -3.39 C 4.12 -3.49 4.35 -3.54 4.59 -3.54 C 4.88 -3.54 5.11 -3.48 5.28 -3.37 C 5.44 -3.25 5.56 -3.09 5.64 -2.87 C 5.71 -2.66 5.75 -2.41 5.75 -2.10 L 5.75 0 L 4.78 0 L 4.78 -1.87 C 4.78 -2.03 4.76 -2.17 4.75 -2.31 C 4.72 -2.45 4.67 -2.57 4.59 -2.65 C 4.51 -2.73 4.39 -2.78 4.20 -2.78 C 3.98 -2.78 3.81 -2.69 3.70 -2.53 C 3.59 -2.37 3.54 -2.14 3.54 -1.82 L 3.54 0 L 2.57 0 L 2.57 -1.87 C 2.57 -2.03 2.56 -2.17 2.54 -2.31 C 2.53 -2.45 2.48 -2.57 2.40 -2.65 C 2.32 -2.73 2.19 -2.78 2.01 -2.78 C 1.86 -2.78 1.75 -2.73 1.65 -2.65 C 1.56 -2.58 1.48 -2.47 1.43 -2.32 C 1.38 -2.19 1.35 -2.01 1.35 -1.81 L 1.35 0 Z M 0.39 0 "/>
</g>
<g id="chemin-images-glyph-0-17">
<path d="M 2.42 0.07 C 2.28 0.07 2.14 0.05 2.01 0.01 C 1.89 -0.02 1.76 -0.08 1.64 -0.17 C 1.52 -0.25 1.42 -0.35 1.35 -0.48 L 1.21 0 L 0.39 0 L 0.39 -4.92 L 1.35 -4.92 L 1.35 -2.96 C 1.42 -3.09 1.52 -3.19 1.64 -3.28 C 1.76 -3.36 1.89 -3.42 2.01 -3.46 C 2.14 -3.51 2.28 -3.54 2.42 -3.54 C 2.71 -3.54 2.97 -3.47 3.20 -3.32 C 3.42 -3.17 3.60 -2.97 3.73 -2.70 C 3.86 -2.44 3.93 -2.12 3.93 -1.75 C 3.93 -1.37 3.86 -1.04 3.73 -0.76 C 3.60 -0.49 3.42 -0.28 3.20 -0.14 C 2.97 0.00 2.71 0.07 2.42 0.07 Z M 2.12 -0.67 C 2.34 -0.67 2.53 -0.76 2.68 -0.95 C 2.84 -1.14 2.92 -1.40 2.92 -1.75 C 2.92 -2.08 2.84 -2.33 2.68 -2.51 C 2.53 -2.69 2.34 -2.78 2.12 -2.78 C 1.89 -2.78 1.70 -2.69 1.54 -2.53 C 1.39 -2.36 1.32 -2.09 1.32 -1.71 C 1.32 -1.47 1.35 -1.28 1.42 -1.12 C 1.49 -0.96 1.58 -0.85 1.70 -0.78 C 1.82 -0.70 1.96 -0.67 2.12 -0.67 Z M 2.12 -0.67 "/>
</g>
<g id="chemin-images-glyph-1-0">
<path d="M 2.14 0.06 C 1.81 0.06 1.52 -0.00 1.26 -0.15 C 1.01 -0.31 0.81 -0.51 0.65 -0.78 C 0.50 -1.05 0.43 -1.35 0.43 -1.68 C 0.43 -2.01 0.50 -2.31 0.65 -2.57 C 0.81 -2.84 1.01 -3.06 1.26 -3.21 C 1.52 -3.37 1.81 -3.45 2.14 -3.45 C 2.45 -3.45 2.73 -3.37 2.98 -3.23 C 3.24 -3.09 3.45 -2.91 3.60 -2.67 L 3.18 -2.42 C 3.08 -2.59 2.93 -2.73 2.75 -2.84 C 2.57 -2.94 2.36 -3 2.14 -3 C 1.91 -3 1.70 -2.94 1.51 -2.82 C 1.33 -2.71 1.19 -2.55 1.09 -2.35 C 0.98 -2.17 0.93 -1.94 0.93 -1.68 C 0.93 -1.43 0.98 -1.21 1.09 -1.01 C 1.19 -0.81 1.33 -0.66 1.51 -0.54 C 1.70 -0.42 1.91 -0.37 2.14 -0.37 C 2.36 -0.37 2.57 -0.42 2.75 -0.53 C 2.93 -0.64 3.08 -0.78 3.18 -0.95 L 3.60 -0.70 C 3.45 -0.46 3.24 -0.27 2.98 -0.14 C 2.73 -0.00 2.45 0.06 2.14 0.06 Z M 2.14 0.06 "/>
</g>
<g id="chemin-images-glyph-1-1">
<path d="M 2.09 0.06 C 1.78 0.06 1.5 -0.00 1.25 -0.15 C 1 -0.31 0.80 -0.51 0.65 -0.78 C 0.50 -1.05 0.43 -1.35 0.43 -1.68 C 0.43 -2.01 0.50 -2.31 0.65 -2.57 C 0.80 -2.84 1 -3.06 1.25 -3.21 C 1.5 -3.37 1.78 -3.45 2.09 -3.45 C 2.39 -3.45 2.67 -3.37 2.92 -3.21 C 3.17 -3.06 3.36 -2.84 3.51 -2.57 C 3.66 -2.31 3.73 -2.01 3.73 -1.68 C 3.73 -1.35 3.66 -1.05 3.51 -0.78 C 3.36 -0.51 3.17 -0.31 2.92 -0.15 C 2.67 -0.00 2.39 0.06 2.09 0.06 Z M 2.09 -0.37 C 2.31 -0.37 2.50 -0.42 2.67 -0.54 C 2.84 -0.66 2.98 -0.81 3.07 -1.01 C 3.17 -1.21 3.23 -1.43 3.23 -1.68 C 3.23 -1.94 3.17 -2.17 3.07 -2.35 C 2.98 -2.55 2.84 -2.71 2.67 -2.82 C 2.50 -2.94 2.31 -3 2.09 -3 C 1.86 -3 1.66 -2.94 1.48 -2.82 C 1.31 -2.71 1.17 -2.55 1.07 -2.35 C 0.98 -2.17 0.93 -1.94 0.93 -1.68 C 0.93 -1.43 0.98 -1.21 1.07 -1.01 C 1.17 -0.81 1.31 -0.66 1.48 -0.54 C 1.66 -0.42 1.86 -0.37 2.09 -0.37 Z M 2.09 -0.37 "/>
</g>
<g id="chemin-images-glyph-1-2">
<path d="M 2.89 0.06 C 2.52 0.06 2.25 -0.01 2.06 -0.18 C 1.87 -0.35 1.78 -0.60 1.78 -0.93 L 1.78 -4.64 L 0.51 -4.64 L 0.51 -5.06 L 2.28 -5.06 L 2.28 -0.98 C 2.28 -0.76 2.33 -0.60 2.43 -0.51 C 2.53 -0.42 2.69 -0.37 2.89 -0.37 C 3.01 -0.37 3.14 -0.38 3.26 -0.40 C 3.39 -0.43 3.52 -0.48 3.67 -0.54 L 3.67 -0.09 C 3.54 -0.03 3.41 -0.00 3.28 0.01 C 3.14 0.04 3.01 0.06 2.89 0.06 Z M 2.89 0.06 "/>
</g>
<g id="chemin-images-glyph-1-3">
<path d="M 2.03 -4.20 C 1.91 -4.20 1.81 -4.24 1.71 -4.32 C 1.63 -4.41 1.59 -4.50 1.59 -4.62 C 1.59 -4.75 1.63 -4.85 1.71 -4.93 C 1.81 -5.01 1.91 -5.06 2.03 -5.06 C 2.15 -5.06 2.25 -5.01 2.34 -4.93 C 2.42 -4.85 2.46 -4.75 2.46 -4.62 C 2.46 -4.50 2.42 -4.41 2.34 -4.32 C 2.25 -4.24 2.15 -4.20 2.03 -4.20 Z M 2.89 0.06 C 2.52 0.06 2.25 -0.01 2.06 -0.18 C 1.87 -0.35 1.78 -0.60 1.78 -0.93 L 1.78 -2.96 L 0.51 -2.96 L 0.51 -3.39 L 2.28 -3.39 L 2.28 -0.98 C 2.28 -0.76 2.33 -0.60 2.43 -0.51 C 2.53 -0.42 2.69 -0.37 2.89 -0.37 C 3.01 -0.37 3.14 -0.38 3.26 -0.40 C 3.39 -0.43 3.52 -0.48 3.67 -0.54 L 3.67 -0.09 C 3.54 -0.03 3.41 -0.00 3.28 0.01 C 3.14 0.04 3.01 0.06 2.89 0.06 Z M 2.89 0.06 "/>
</g>
<g id="chemin-images-glyph-1-4">
<path d="M 2.04 0.06 C 1.74 0.06 1.46 0.02 1.20 -0.04 C 0.95 -0.12 0.73 -0.25 0.56 -0.43 L 0.82 -0.78 C 1.04 -0.62 1.25 -0.51 1.43 -0.45 C 1.63 -0.39 1.83 -0.35 2.03 -0.35 C 2.32 -0.35 2.55 -0.41 2.73 -0.53 C 2.92 -0.64 3.01 -0.78 3.01 -0.95 C 3.01 -1.08 2.96 -1.19 2.87 -1.26 C 2.78 -1.33 2.67 -1.39 2.54 -1.42 C 2.41 -1.45 2.25 -1.47 2.07 -1.48 C 1.91 -1.50 1.74 -1.53 1.57 -1.56 C 1.41 -1.59 1.25 -1.64 1.10 -1.70 C 0.97 -1.76 0.85 -1.85 0.76 -1.96 C 0.67 -2.09 0.64 -2.25 0.64 -2.45 C 0.64 -2.64 0.69 -2.82 0.81 -2.96 C 0.92 -3.11 1.08 -3.22 1.28 -3.31 C 1.48 -3.40 1.72 -3.45 1.98 -3.45 C 2.24 -3.45 2.48 -3.42 2.71 -3.35 C 2.94 -3.29 3.17 -3.18 3.40 -3.03 L 3.15 -2.65 C 2.95 -2.78 2.75 -2.88 2.56 -2.93 C 2.37 -2.98 2.17 -3.01 1.96 -3.01 C 1.70 -3.01 1.5 -2.96 1.34 -2.85 C 1.18 -2.76 1.10 -2.64 1.10 -2.48 C 1.10 -2.34 1.14 -2.24 1.23 -2.17 C 1.32 -2.10 1.44 -2.06 1.57 -2.03 C 1.72 -2 1.87 -1.97 2.04 -1.95 C 2.21 -1.92 2.37 -1.90 2.54 -1.87 C 2.72 -1.84 2.87 -1.79 3.01 -1.73 C 3.16 -1.67 3.27 -1.57 3.35 -1.45 C 3.44 -1.33 3.48 -1.17 3.48 -0.98 C 3.48 -0.78 3.42 -0.60 3.29 -0.43 C 3.17 -0.28 3 -0.15 2.78 -0.06 C 2.57 0.01 2.32 0.06 2.04 0.06 Z M 2.04 0.06 "/>
</g>
<g id="chemin-images-glyph-1-5">
<path d="M 2.09 0.06 C 1.95 0.06 1.84 0.01 1.76 -0.06 C 1.67 -0.15 1.64 -0.26 1.64 -0.39 C 1.64 -0.51 1.67 -0.61 1.76 -0.70 C 1.84 -0.79 1.95 -0.84 2.09 -0.84 C 2.21 -0.84 2.32 -0.79 2.40 -0.70 C 2.48 -0.61 2.53 -0.51 2.53 -0.39 C 2.53 -0.26 2.48 -0.15 2.40 -0.06 C 2.32 0.01 2.21 0.06 2.09 0.06 Z M 2.09 -2.70 C 1.95 -2.70 1.84 -2.74 1.76 -2.82 C 1.67 -2.92 1.64 -3.03 1.64 -3.15 C 1.64 -3.28 1.67 -3.38 1.76 -3.46 C 1.84 -3.56 1.95 -3.60 2.09 -3.60 C 2.21 -3.60 2.32 -3.56 2.40 -3.46 C 2.48 -3.38 2.53 -3.28 2.53 -3.15 C 2.53 -3.03 2.48 -2.92 2.40 -2.82 C 2.32 -2.74 2.21 -2.70 2.09 -2.70 Z M 2.09 -2.70 "/>
</g>
<g id="chemin-images-glyph-1-6">
<path d="M 0.51 0 L 0.51 -0.37 L 2.46 -2.5 C 2.61 -2.66 2.72 -2.81 2.81 -2.93 C 2.90 -3.06 2.96 -3.17 3 -3.29 C 3.03 -3.41 3.04 -3.53 3.04 -3.65 C 3.04 -3.89 2.94 -4.09 2.75 -4.25 C 2.56 -4.41 2.32 -4.5 2.03 -4.5 C 1.80 -4.5 1.58 -4.45 1.39 -4.35 C 1.20 -4.27 0.98 -4.12 0.75 -3.90 L 0.45 -4.25 C 0.70 -4.48 0.95 -4.66 1.21 -4.76 C 1.47 -4.87 1.75 -4.93 2.03 -4.93 C 2.32 -4.93 2.58 -4.87 2.81 -4.76 C 3.03 -4.66 3.21 -4.51 3.34 -4.32 C 3.47 -4.14 3.54 -3.92 3.54 -3.67 C 3.54 -3.51 3.52 -3.36 3.48 -3.23 C 3.44 -3.09 3.36 -2.95 3.25 -2.79 C 3.14 -2.64 2.99 -2.45 2.79 -2.23 L 1.14 -0.43 L 3.65 -0.43 L 3.65 0 Z M 0.51 0 "/>
</g>
<g id="chemin-images-glyph-1-7">
<path d="M 2.09 0.06 C 1.95 0.06 1.84 0.01 1.76 -0.06 C 1.67 -0.15 1.64 -0.26 1.64 -0.39 C 1.64 -0.51 1.67 -0.61 1.76 -0.70 C 1.84 -0.79 1.95 -0.84 2.09 -0.84 C 2.21 -0.84 2.32 -0.79 2.40 -0.70 C 2.48 -0.61 2.53 -0.51 2.53 -0.39 C 2.53 -0.26 2.48 -0.15 2.40 -0.06 C 2.32 0.01 2.21 0.06 2.09 0.06 Z M 2.09 0.06 "/>
</g>
<g id="chemin-images-glyph-1-8">
<path d="M 2.09 0.07 C 1.73 0.07 1.42 -0.01 1.15 -0.21 C 0.88 -0.42 0.67 -0.71 0.51 -1.09 C 0.36 -1.46 0.29 -1.91 0.29 -2.43 C 0.29 -2.95 0.36 -3.39 0.51 -3.76 C 0.67 -4.14 0.88 -4.42 1.15 -4.62 C 1.42 -4.83 1.73 -4.93 2.09 -4.93 C 2.43 -4.93 2.74 -4.83 3.01 -4.62 C 3.28 -4.42 3.49 -4.14 3.64 -3.76 C 3.79 -3.39 3.87 -2.95 3.87 -2.43 C 3.87 -1.91 3.79 -1.46 3.64 -1.09 C 3.49 -0.71 3.28 -0.42 3.01 -0.21 C 2.74 -0.01 2.43 0.07 2.09 0.07 Z M 0.79 -2.43 C 0.79 -2.14 0.82 -1.87 0.87 -1.64 C 0.92 -1.39 1 -1.19 1.09 -1.01 L 2.75 -4.25 C 2.56 -4.40 2.34 -4.48 2.09 -4.48 C 1.83 -4.48 1.60 -4.39 1.40 -4.23 C 1.21 -4.06 1.06 -3.82 0.95 -3.51 C 0.84 -3.21 0.79 -2.85 0.79 -2.43 Z M 2.09 -0.37 C 2.34 -0.37 2.56 -0.45 2.75 -0.62 C 2.94 -0.80 3.09 -1.03 3.20 -1.34 C 3.31 -1.65 3.37 -2.01 3.37 -2.43 C 3.37 -2.71 3.34 -2.97 3.29 -3.21 C 3.24 -3.45 3.17 -3.66 3.07 -3.84 L 1.42 -0.62 C 1.60 -0.45 1.83 -0.37 2.09 -0.37 Z M 2.09 -0.37 "/>
</g>
<g id="chemin-images-glyph-1-9">
<path d="M 0.93 -1.73 L 0.93 -2.15 L 3.23 -2.15 L 3.23 -1.73 Z M 0.93 -1.73 "/>
</g>
<g id="chemin-images-glyph-1-10">
<path d="M 0.93 0 L 0.26 -3.39 L 0.71 -3.39 L 1.20 -0.70 L 1.87 -3.39 L 2.32 -3.39 L 3.01 -0.70 L 3.48 -3.39 L 3.90 -3.39 L 3.23 0 L 2.78 0 L 2.09 -2.73 L 1.40 0 Z M 0.93 0 "/>
</g>
<g id="chemin-images-glyph-1-11">
<path d="M 2.17 0.06 C 1.84 0.06 1.55 -0.00 1.29 -0.15 C 1.03 -0.31 0.82 -0.52 0.67 -0.79 C 0.52 -1.06 0.45 -1.36 0.45 -1.70 C 0.45 -2.03 0.52 -2.33 0.67 -2.59 C 0.81 -2.85 1.00 -3.06 1.25 -3.21 C 1.5 -3.37 1.78 -3.45 2.09 -3.45 C 2.40 -3.45 2.68 -3.37 2.93 -3.21 C 3.18 -3.07 3.38 -2.86 3.53 -2.60 C 3.67 -2.34 3.75 -2.05 3.75 -1.73 L 3.75 -1.57 L 0.95 -1.57 C 0.96 -1.34 1.02 -1.14 1.14 -0.95 C 1.25 -0.77 1.39 -0.63 1.57 -0.53 C 1.76 -0.42 1.96 -0.37 2.18 -0.37 C 2.38 -0.37 2.57 -0.41 2.75 -0.48 C 2.92 -0.56 3.07 -0.67 3.18 -0.81 L 3.54 -0.5 C 3.35 -0.31 3.14 -0.17 2.92 -0.07 C 2.69 0.01 2.44 0.06 2.17 0.06 Z M 0.95 -1.95 L 3.25 -1.95 C 3.21 -2.16 3.14 -2.34 3.03 -2.5 C 2.92 -2.65 2.78 -2.78 2.62 -2.87 C 2.46 -2.96 2.28 -3.01 2.07 -3.01 C 1.89 -3.01 1.71 -2.96 1.56 -2.87 C 1.40 -2.78 1.27 -2.67 1.17 -2.51 C 1.06 -2.35 0.99 -2.17 0.95 -1.95 Z M 0.95 -1.95 "/>
</g>
<g id="chemin-images-glyph-1-12">
<path d="M 0.62 0 L 0.62 -5.01 L 1.14 -5.12 L 1.14 -2.96 C 1.27 -3.11 1.42 -3.22 1.60 -3.31 C 1.79 -3.39 1.99 -3.43 2.20 -3.43 C 2.50 -3.43 2.76 -3.35 3 -3.20 C 3.23 -3.04 3.42 -2.83 3.57 -2.57 C 3.72 -2.31 3.79 -2.01 3.79 -1.68 C 3.79 -1.36 3.72 -1.07 3.57 -0.81 C 3.44 -0.55 3.25 -0.34 3.01 -0.18 C 2.78 -0.03 2.51 0.04 2.21 0.04 C 2 0.04 1.79 0.00 1.60 -0.07 C 1.42 -0.16 1.26 -0.28 1.14 -0.45 L 1.14 0 Z M 2.09 -0.39 C 2.32 -0.39 2.52 -0.44 2.70 -0.56 C 2.87 -0.67 3.01 -0.83 3.12 -1.03 C 3.22 -1.22 3.28 -1.45 3.28 -1.70 C 3.28 -1.95 3.22 -2.17 3.12 -2.35 C 3.01 -2.55 2.87 -2.70 2.70 -2.81 C 2.52 -2.92 2.32 -2.98 2.09 -2.98 C 1.90 -2.98 1.72 -2.94 1.56 -2.85 C 1.39 -2.78 1.25 -2.67 1.14 -2.53 L 1.14 -0.84 C 1.24 -0.69 1.37 -0.58 1.54 -0.5 C 1.71 -0.42 1.89 -0.39 2.09 -0.39 Z M 2.09 -0.39 "/>
</g>
<g id="chemin-images-glyph-1-13">
<path d="M 0.57 0 L 0.57 -0.43 L 1.81 -0.43 L 1.81 -4.32 L 0.57 -3.78 L 0.57 -4.23 L 2 -4.87 L 2.31 -4.87 L 2.31 -0.43 L 3.71 -0.43 L 3.71 0 Z M 0.57 0 "/>
</g>
<g id="chemin-images-glyph-1-14">
<path d="M 0.64 0 L 0.64 -0.42 L 1.57 -0.42 L 1.57 -2.96 L 0.64 -2.96 L 0.64 -3.39 L 2.09 -3.39 L 2.09 -2.64 C 2.18 -2.89 2.33 -3.09 2.53 -3.23 C 2.73 -3.37 2.97 -3.45 3.25 -3.45 C 3.35 -3.45 3.44 -3.44 3.53 -3.42 C 3.62 -3.41 3.72 -3.38 3.84 -3.34 L 3.84 -2.87 C 3.72 -2.91 3.61 -2.94 3.5 -2.96 C 3.39 -2.98 3.29 -3 3.20 -3 C 2.95 -3 2.72 -2.92 2.53 -2.79 C 2.33 -2.67 2.18 -2.48 2.09 -2.25 L 2.09 -0.42 L 3.07 -0.42 L 3.07 0 Z M 0.64 0 "/>
</g>
<g id="chemin-images-glyph-1-15">
<path d="M 2.10 1.51 C 1.87 1.51 1.64 1.48 1.42 1.42 C 1.19 1.35 0.97 1.27 0.78 1.17 L 1 0.78 C 1.20 0.88 1.39 0.96 1.56 1.01 C 1.73 1.06 1.91 1.09 2.09 1.09 C 2.71 1.09 3.03 0.80 3.03 0.21 L 3.03 -0.45 C 2.90 -0.29 2.75 -0.17 2.56 -0.07 C 2.37 0.00 2.17 0.04 1.95 0.04 C 1.66 0.04 1.39 -0.03 1.15 -0.18 C 0.91 -0.34 0.72 -0.55 0.57 -0.81 C 0.44 -1.07 0.37 -1.36 0.37 -1.70 C 0.37 -2.02 0.44 -2.31 0.59 -2.57 C 0.73 -2.83 0.92 -3.04 1.17 -3.20 C 1.41 -3.35 1.67 -3.43 1.96 -3.43 C 2.18 -3.43 2.38 -3.39 2.56 -3.31 C 2.75 -3.22 2.90 -3.10 3.03 -2.95 L 3.03 -3.39 L 3.54 -3.39 L 3.54 0.21 C 3.54 0.63 3.42 0.95 3.17 1.17 C 2.92 1.39 2.56 1.51 2.10 1.51 Z M 2.07 -0.39 C 2.27 -0.39 2.45 -0.42 2.62 -0.51 C 2.78 -0.59 2.92 -0.71 3.03 -0.85 L 3.03 -2.53 C 2.91 -2.67 2.77 -2.78 2.60 -2.85 C 2.44 -2.94 2.26 -2.98 2.07 -2.98 C 1.84 -2.98 1.64 -2.92 1.46 -2.81 C 1.28 -2.70 1.14 -2.55 1.04 -2.35 C 0.94 -2.17 0.89 -1.95 0.89 -1.70 C 0.89 -1.45 0.94 -1.22 1.04 -1.03 C 1.14 -0.83 1.28 -0.67 1.46 -0.56 C 1.64 -0.44 1.84 -0.39 2.07 -0.39 Z M 2.07 -0.39 "/>
</g>
<g id="chemin-images-glyph-1-16">
<path d="M 2.64 0.06 C 2.26 0.06 1.97 -0.01 1.76 -0.17 C 1.56 -0.33 1.46 -0.57 1.46 -0.89 L 1.46 -2.96 L 0.31 -2.96 L 0.31 -3.39 L 1.46 -3.39 L 1.46 -4.32 L 1.96 -4.43 L 1.96 -3.39 L 3.54 -3.39 L 3.54 -2.96 L 1.96 -2.96 L 1.96 -0.98 C 1.96 -0.76 2.02 -0.60 2.14 -0.51 C 2.26 -0.42 2.43 -0.37 2.65 -0.37 C 2.78 -0.37 2.91 -0.39 3.06 -0.42 C 3.20 -0.45 3.36 -0.5 3.54 -0.56 L 3.54 -0.10 C 3.39 -0.04 3.23 -0.00 3.07 0.01 C 2.92 0.04 2.78 0.06 2.64 0.06 Z M 2.64 0.06 "/>
</g>
<g id="chemin-images-glyph-1-17">
<path d="M 1.78 0.06 C 1.53 0.06 1.30 0.01 1.10 -0.06 C 0.92 -0.14 0.77 -0.26 0.67 -0.42 C 0.56 -0.57 0.51 -0.75 0.51 -0.96 C 0.51 -1.16 0.56 -1.34 0.67 -1.5 C 0.78 -1.65 0.94 -1.77 1.14 -1.85 C 1.33 -1.94 1.56 -1.98 1.82 -1.98 C 2.02 -1.98 2.21 -1.96 2.39 -1.92 C 2.56 -1.87 2.73 -1.81 2.89 -1.71 L 2.89 -2.10 C 2.89 -2.41 2.81 -2.64 2.65 -2.79 C 2.50 -2.95 2.28 -3.03 1.98 -3.03 C 1.80 -3.03 1.62 -3.00 1.45 -2.95 C 1.28 -2.89 1.09 -2.81 0.89 -2.70 L 0.68 -3.07 C 0.92 -3.21 1.15 -3.30 1.37 -3.35 C 1.60 -3.42 1.82 -3.45 2.04 -3.45 C 2.47 -3.45 2.80 -3.34 3.03 -3.12 C 3.26 -2.90 3.39 -2.59 3.39 -2.18 L 3.39 0 L 2.89 0 L 2.89 -0.39 C 2.73 -0.23 2.56 -0.11 2.37 -0.04 C 2.19 0.02 2 0.06 1.78 0.06 Z M 1 -0.98 C 1 -0.78 1.07 -0.62 1.23 -0.5 C 1.39 -0.37 1.61 -0.31 1.89 -0.31 C 2.08 -0.31 2.26 -0.34 2.42 -0.40 C 2.58 -0.46 2.74 -0.57 2.89 -0.71 L 2.89 -1.37 C 2.74 -1.45 2.58 -1.51 2.42 -1.54 C 2.26 -1.58 2.08 -1.60 1.89 -1.60 C 1.62 -1.60 1.41 -1.55 1.25 -1.43 C 1.08 -1.32 1 -1.17 1 -0.98 Z M 1 -0.98 "/>
</g>
<g id="chemin-images-glyph-1-18">
<path d="M 0.68 0 L 0.68 -5.01 L 1.20 -5.12 L 1.20 -2.84 C 1.45 -3.25 1.81 -3.45 2.28 -3.45 C 2.51 -3.45 2.72 -3.39 2.90 -3.29 C 3.09 -3.19 3.23 -3.04 3.34 -2.85 C 3.44 -2.67 3.5 -2.45 3.5 -2.20 L 3.5 0 L 3 0 L 3 -2.04 C 3 -2.34 2.91 -2.58 2.75 -2.76 C 2.58 -2.94 2.36 -3.03 2.09 -3.03 C 1.90 -3.03 1.73 -2.98 1.57 -2.89 C 1.42 -2.80 1.29 -2.67 1.20 -2.5 L 1.20 0 Z M 0.68 0 "/>
</g>
<g id="chemin-images-glyph-1-19">
<path d="M 2 0.07 C 1.36 0.07 0.81 -0.14 0.34 -0.57 L 0.65 -0.92 C 0.87 -0.72 1.08 -0.57 1.29 -0.48 C 1.50 -0.39 1.74 -0.35 2.01 -0.35 C 2.24 -0.35 2.44 -0.40 2.62 -0.5 C 2.81 -0.59 2.95 -0.72 3.04 -0.90 C 3.14 -1.08 3.20 -1.28 3.20 -1.51 C 3.20 -1.83 3.09 -2.09 2.87 -2.29 C 2.65 -2.49 2.36 -2.59 2.01 -2.59 C 1.82 -2.59 1.64 -2.57 1.46 -2.53 C 1.28 -2.48 1.10 -2.42 0.92 -2.32 L 0.56 -2.43 L 0.68 -4.87 L 3.45 -4.87 L 3.45 -4.42 L 1.10 -4.42 L 1.03 -2.75 C 1.21 -2.84 1.39 -2.90 1.56 -2.93 C 1.73 -2.97 1.92 -3 2.10 -3 C 2.42 -3 2.71 -2.93 2.95 -2.81 C 3.19 -2.69 3.37 -2.52 3.5 -2.29 C 3.63 -2.07 3.70 -1.82 3.70 -1.53 C 3.70 -1.21 3.62 -0.93 3.48 -0.68 C 3.34 -0.44 3.14 -0.25 2.89 -0.12 C 2.64 0.00 2.34 0.07 2 0.07 Z M 2 0.07 "/>
</g>
<g id="chemin-images-glyph-1-20">
<path d="M 0.46 0 L 0.46 -3.39 L 0.93 -3.39 L 0.93 -3.09 C 1.01 -3.21 1.10 -3.30 1.20 -3.35 C 1.30 -3.41 1.42 -3.43 1.56 -3.43 C 1.70 -3.43 1.83 -3.39 1.95 -3.32 C 2.06 -3.25 2.15 -3.15 2.21 -3.03 C 2.31 -3.17 2.42 -3.28 2.54 -3.34 C 2.67 -3.40 2.81 -3.43 2.96 -3.43 C 3.19 -3.43 3.37 -3.35 3.51 -3.18 C 3.66 -3.01 3.73 -2.80 3.73 -2.53 L 3.73 0 L 3.26 0 L 3.26 -2.40 C 3.26 -2.61 3.22 -2.77 3.14 -2.89 C 3.05 -3.00 2.93 -3.06 2.78 -3.06 C 2.69 -3.06 2.61 -3.03 2.53 -3 C 2.45 -2.95 2.39 -2.88 2.32 -2.78 C 2.33 -2.73 2.34 -2.69 2.34 -2.65 C 2.34 -2.61 2.34 -2.57 2.34 -2.53 L 2.34 0 L 1.87 0 L 1.87 -2.40 C 1.87 -2.61 1.83 -2.77 1.75 -2.89 C 1.66 -3.00 1.53 -3.06 1.37 -3.06 C 1.30 -3.06 1.22 -3.03 1.14 -3 C 1.06 -2.96 1 -2.89 0.93 -2.79 L 0.93 0 Z M 0.46 0 "/>
</g>
<g id="chemin-images-glyph-1-21">
<path d="M 0.68 0 L 0.68 -3.39 L 1.20 -3.39 L 1.20 -2.84 C 1.45 -3.25 1.81 -3.45 2.28 -3.45 C 2.51 -3.45 2.72 -3.39 2.90 -3.29 C 3.09 -3.19 3.23 -3.04 3.34 -2.85 C 3.44 -2.67 3.5 -2.45 3.5 -2.20 L 3.5 0 L 3 0 L 3 -2.04 C 3 -2.34 2.91 -2.58 2.75 -2.76 C 2.58 -2.94 2.36 -3.03 2.09 -3.03 C 1.90 -3.03 1.73 -2.98 1.57 -2.89 C 1.42 -2.80 1.29 -2.67 1.20 -2.5 L 1.20 0 Z M 0.68 0 "/>
</g>
<g id="chemin-images-glyph-1-22">
<path d="M 0.78 0 L 0.78 -5.01 L 1.29 -5.12 L 1.29 -1.82 L 3.09 -3.39 L 3.73 -3.39 L 1.84 -1.76 L 3.79 0 L 3.12 0 L 1.29 -1.65 L 1.29 0 Z M 0.78 0 "/>
</g>
<g id="chemin-images-glyph-1-23">
<path d="M 1.89 0.06 C 1.64 0.06 1.43 0.00 1.25 -0.09 C 1.07 -0.20 0.92 -0.35 0.82 -0.54 C 0.72 -0.73 0.67 -0.95 0.67 -1.20 L 0.67 -3.39 L 1.18 -3.39 L 1.18 -1.34 C 1.18 -1.03 1.26 -0.80 1.42 -0.62 C 1.58 -0.45 1.81 -0.37 2.09 -0.37 C 2.28 -0.37 2.44 -0.41 2.59 -0.5 C 2.75 -0.58 2.87 -0.71 2.96 -0.89 L 2.96 -3.39 L 3.48 -3.39 L 3.48 0 L 2.96 0 L 2.96 -0.54 C 2.71 -0.14 2.35 0.06 1.89 0.06 Z M 1.89 0.06 "/>
</g>
<g id="chemin-images-glyph-1-24">
<path d="M 0.26 1.45 L 3.04 -4.87 L 3.54 -4.87 L 0.76 1.45 Z M 0.26 1.45 "/>
</g>
<g id="chemin-images-glyph-1-25">
<path d="M 0.62 1.45 L 0.62 -3.39 L 1.12 -3.39 L 1.12 -2.90 C 1.25 -3.07 1.42 -3.20 1.60 -3.29 C 1.79 -3.39 2 -3.43 2.21 -3.43 C 2.51 -3.43 2.78 -3.35 3.01 -3.20 C 3.25 -3.04 3.44 -2.83 3.57 -2.57 C 3.72 -2.31 3.79 -2.02 3.79 -1.70 C 3.79 -1.36 3.72 -1.07 3.57 -0.81 C 3.42 -0.55 3.23 -0.34 3 -0.18 C 2.76 -0.03 2.50 0.04 2.20 0.04 C 1.98 0.04 1.78 0.00 1.59 -0.06 C 1.41 -0.14 1.26 -0.26 1.14 -0.42 L 1.14 1.45 Z M 2.09 -0.39 C 2.32 -0.39 2.52 -0.44 2.70 -0.56 C 2.87 -0.67 3.01 -0.83 3.12 -1.03 C 3.22 -1.22 3.28 -1.44 3.28 -1.68 C 3.28 -1.93 3.22 -2.16 3.12 -2.35 C 3.01 -2.55 2.87 -2.70 2.70 -2.81 C 2.52 -2.92 2.32 -2.98 2.09 -2.98 C 1.89 -2.98 1.71 -2.94 1.54 -2.85 C 1.37 -2.78 1.24 -2.67 1.14 -2.53 L 1.14 -0.85 C 1.24 -0.71 1.37 -0.59 1.54 -0.51 C 1.72 -0.42 1.90 -0.39 2.09 -0.39 Z M 2.09 -0.39 "/>
</g>
<g id="chemin-images-glyph-1-26">
<path d="M 1.95 0.04 C 1.66 0.04 1.39 -0.03 1.15 -0.18 C 0.91 -0.34 0.72 -0.55 0.57 -0.81 C 0.44 -1.07 0.37 -1.36 0.37 -1.68 C 0.37 -2.01 0.44 -2.31 0.59 -2.57 C 0.73 -2.83 0.92 -3.04 1.17 -3.20 C 1.41 -3.35 1.67 -3.43 1.96 -3.43 C 2.17 -3.43 2.36 -3.39 2.54 -3.31 C 2.73 -3.22 2.89 -3.11 3.03 -2.96 L 3.03 -5.01 L 3.54 -5.12 L 3.54 0 L 3.03 0 L 3.03 -0.45 C 2.90 -0.28 2.75 -0.16 2.56 -0.07 C 2.37 0.00 2.17 0.04 1.95 0.04 Z M 2.07 -0.39 C 2.27 -0.39 2.45 -0.42 2.62 -0.5 C 2.78 -0.58 2.92 -0.69 3.03 -0.84 L 3.03 -2.53 C 2.91 -2.67 2.77 -2.78 2.60 -2.85 C 2.44 -2.94 2.26 -2.98 2.07 -2.98 C 1.84 -2.98 1.64 -2.92 1.46 -2.81 C 1.28 -2.70 1.14 -2.55 1.04 -2.35 C 0.94 -2.17 0.89 -1.95 0.89 -1.70 C 0.89 -1.45 0.94 -1.22 1.04 -1.03 C 1.14 -0.83 1.28 -0.67 1.46 -0.56 C 1.64 -0.44 1.84 -0.39 2.07 -0.39 Z M 2.07 -0.39 "/>
</g>
<g id="chemin-images-glyph-2-0">
<path d="M 0.65 0 L 0.65 -2.98 L 0.17 -2.98 L 0.17 -3.45 L 1.23 -3.45 L 1.23 0 Z M 0.89 -4.10 C 0.77 -4.10 0.67 -4.14 0.57 -4.23 C 0.49 -4.31 0.45 -4.41 0.45 -4.53 C 0.45 -4.65 0.49 -4.75 0.57 -4.84 C 0.67 -4.92 0.77 -4.96 0.89 -4.96 C 1.01 -4.96 1.11 -4.92 1.20 -4.84 C 1.28 -4.75 1.32 -4.65 1.32 -4.53 C 1.32 -4.41 1.28 -4.31 1.20 -4.23 C 1.11 -4.14 1.01 -4.10 0.89 -4.10 Z M 0.89 -4.10 "/>
</g>
<g id="chemin-images-glyph-2-1">
<path d="M 0.5 0 L 0.5 -3.45 L 0.93 -3.45 L 1.07 -2.92 C 1.14 -3.03 1.23 -3.13 1.32 -3.21 C 1.42 -3.30 1.53 -3.36 1.65 -3.42 C 1.78 -3.47 1.94 -3.5 2.12 -3.5 C 2.38 -3.5 2.59 -3.44 2.75 -3.34 C 2.91 -3.23 3.03 -3.09 3.10 -2.90 C 3.25 -3.11 3.42 -3.26 3.62 -3.35 C 3.82 -3.45 4.03 -3.5 4.28 -3.5 C 4.53 -3.5 4.75 -3.44 4.92 -3.32 C 5.08 -3.22 5.20 -3.07 5.28 -2.87 C 5.35 -2.67 5.39 -2.44 5.39 -2.18 L 5.39 0 L 4.81 0 L 4.81 -2.01 C 4.81 -2.19 4.78 -2.35 4.75 -2.5 C 4.71 -2.64 4.64 -2.76 4.54 -2.85 C 4.44 -2.95 4.28 -3 4.06 -3 C 3.81 -3 3.60 -2.89 3.45 -2.70 C 3.30 -2.51 3.23 -2.23 3.23 -1.87 L 3.23 0 L 2.65 0 L 2.65 -2.01 C 2.65 -2.19 2.63 -2.35 2.59 -2.5 C 2.56 -2.64 2.49 -2.76 2.39 -2.85 C 2.28 -2.95 2.12 -3 1.92 -3 C 1.75 -3 1.60 -2.95 1.48 -2.87 C 1.35 -2.78 1.25 -2.66 1.18 -2.48 C 1.11 -2.31 1.07 -2.11 1.07 -1.87 L 1.07 0 Z M 0.5 0 "/>
</g>
<g id="chemin-images-glyph-2-2">
<path d="M 1.42 0.07 C 1.20 0.07 1 0.03 0.81 -0.03 C 0.63 -0.10 0.48 -0.21 0.37 -0.35 C 0.26 -0.50 0.21 -0.67 0.21 -0.89 C 0.21 -1.17 0.31 -1.39 0.5 -1.56 C 0.68 -1.72 0.95 -1.85 1.31 -1.95 C 1.66 -2.04 2.09 -2.11 2.59 -2.15 L 2.59 -2.21 C 2.59 -2.46 2.52 -2.66 2.39 -2.81 C 2.26 -2.95 2.06 -3.03 1.79 -3.03 C 1.57 -3.03 1.39 -2.98 1.26 -2.89 C 1.14 -2.79 1.05 -2.66 1.01 -2.5 L 0.45 -2.67 C 0.54 -2.92 0.71 -3.13 0.95 -3.28 C 1.19 -3.42 1.46 -3.5 1.76 -3.5 C 2.24 -3.5 2.59 -3.38 2.81 -3.15 C 3.03 -2.92 3.14 -2.57 3.14 -2.10 L 3.14 -1.29 C 3.14 -1.10 3.14 -0.93 3.15 -0.78 C 3.16 -0.62 3.17 -0.48 3.20 -0.35 C 3.22 -0.23 3.24 -0.11 3.26 0 L 2.73 0 L 2.59 -0.46 C 2.5 -0.30 2.35 -0.16 2.15 -0.06 C 1.96 0.03 1.72 0.07 1.42 0.07 Z M 1.54 -0.37 C 1.73 -0.37 1.90 -0.40 2.06 -0.46 C 2.21 -0.53 2.34 -0.64 2.43 -0.79 C 2.53 -0.95 2.59 -1.16 2.59 -1.42 L 2.59 -1.68 C 2.03 -1.64 1.61 -1.56 1.31 -1.43 C 1.00 -1.32 0.85 -1.14 0.85 -0.90 C 0.85 -0.75 0.92 -0.61 1.04 -0.51 C 1.17 -0.42 1.33 -0.37 1.54 -0.37 Z M 1.54 -0.37 "/>
</g>
<g id="chemin-images-glyph-2-3">
<path d="M 1.89 1.32 C 1.70 1.32 1.51 1.30 1.32 1.25 C 1.14 1.19 0.98 1.10 0.84 0.98 C 0.69 0.86 0.59 0.71 0.54 0.53 L 1.10 0.35 C 1.16 0.50 1.25 0.61 1.40 0.70 C 1.55 0.78 1.72 0.82 1.93 0.82 C 2.10 0.82 2.25 0.79 2.37 0.73 C 2.50 0.67 2.61 0.58 2.68 0.45 C 2.76 0.32 2.81 0.15 2.81 -0.06 L 2.81 -0.65 C 2.70 -0.46 2.56 -0.32 2.39 -0.21 C 2.21 -0.11 1.98 -0.06 1.70 -0.06 C 1.45 -0.06 1.21 -0.12 0.98 -0.25 C 0.76 -0.38 0.58 -0.58 0.45 -0.84 C 0.31 -1.10 0.25 -1.41 0.25 -1.78 C 0.25 -2.15 0.31 -2.46 0.45 -2.71 C 0.58 -2.96 0.76 -3.16 0.98 -3.29 C 1.21 -3.42 1.45 -3.5 1.70 -3.5 C 1.98 -3.5 2.21 -3.44 2.39 -3.32 C 2.56 -3.22 2.70 -3.08 2.81 -2.90 L 2.96 -3.45 L 3.39 -3.45 L 3.39 -0.06 C 3.39 0.25 3.32 0.50 3.20 0.70 C 3.07 0.91 2.89 1.06 2.67 1.17 C 2.45 1.27 2.19 1.32 1.89 1.32 Z M 1.85 -0.54 C 2.03 -0.54 2.19 -0.58 2.34 -0.67 C 2.48 -0.75 2.60 -0.88 2.68 -1.06 C 2.78 -1.25 2.82 -1.48 2.82 -1.78 C 2.82 -2.07 2.78 -2.30 2.68 -2.48 C 2.60 -2.67 2.48 -2.80 2.34 -2.87 C 2.19 -2.95 2.03 -3 1.85 -3 C 1.57 -3 1.34 -2.89 1.15 -2.68 C 0.97 -2.47 0.89 -2.17 0.89 -1.78 C 0.89 -1.38 0.97 -1.07 1.15 -0.85 C 1.34 -0.64 1.57 -0.54 1.85 -0.54 Z M 1.85 -0.54 "/>
</g>
<g id="chemin-images-glyph-2-4">
<path d="M 1.93 0.07 C 1.57 0.07 1.26 0 1.01 -0.15 C 0.76 -0.31 0.57 -0.52 0.43 -0.79 C 0.31 -1.06 0.25 -1.37 0.25 -1.71 C 0.25 -2.08 0.32 -2.39 0.46 -2.65 C 0.62 -2.92 0.82 -3.13 1.07 -3.28 C 1.32 -3.42 1.60 -3.5 1.92 -3.5 C 2.20 -3.5 2.44 -3.44 2.65 -3.32 C 2.86 -3.22 3.03 -3.07 3.17 -2.89 C 3.30 -2.71 3.40 -2.50 3.46 -2.28 C 3.53 -2.05 3.55 -1.81 3.53 -1.56 L 0.85 -1.56 C 0.87 -1.33 0.92 -1.14 1 -1 C 1.08 -0.85 1.17 -0.73 1.28 -0.65 C 1.38 -0.57 1.49 -0.51 1.60 -0.48 C 1.73 -0.45 1.84 -0.43 1.93 -0.43 C 2.13 -0.43 2.29 -0.46 2.42 -0.53 C 2.55 -0.59 2.66 -0.67 2.75 -0.76 L 3.31 -0.60 C 3.18 -0.41 3.00 -0.24 2.76 -0.10 C 2.53 0.01 2.25 0.07 1.93 0.07 Z M 0.87 -2.03 L 2.90 -2.03 C 2.90 -2.19 2.86 -2.35 2.78 -2.5 C 2.70 -2.64 2.59 -2.76 2.45 -2.85 C 2.30 -2.95 2.12 -3 1.92 -3 C 1.77 -3 1.62 -2.96 1.46 -2.90 C 1.32 -2.85 1.19 -2.75 1.07 -2.60 C 0.97 -2.47 0.90 -2.28 0.87 -2.03 Z M 0.87 -2.03 "/>
</g>
<g id="chemin-images-glyph-2-5">
<path d="M 1.65 0.07 C 1.45 0.07 1.25 0.04 1.06 -0.01 C 0.87 -0.07 0.70 -0.17 0.54 -0.29 C 0.39 -0.42 0.28 -0.58 0.21 -0.78 L 0.78 -0.98 C 0.83 -0.79 0.94 -0.64 1.12 -0.54 C 1.30 -0.45 1.48 -0.40 1.67 -0.40 C 1.89 -0.40 2.09 -0.45 2.25 -0.54 C 2.40 -0.64 2.48 -0.78 2.48 -0.95 C 2.48 -1.09 2.42 -1.20 2.29 -1.28 C 2.17 -1.36 1.99 -1.42 1.73 -1.48 L 1.32 -1.57 C 1.14 -1.61 0.96 -1.67 0.81 -1.75 C 0.65 -1.83 0.53 -1.93 0.43 -2.06 C 0.35 -2.18 0.31 -2.34 0.31 -2.54 C 0.31 -2.74 0.36 -2.91 0.48 -3.06 C 0.60 -3.20 0.76 -3.31 0.96 -3.39 C 1.16 -3.47 1.39 -3.51 1.64 -3.51 C 1.92 -3.51 2.17 -3.45 2.42 -3.32 C 2.67 -3.21 2.85 -3.03 2.96 -2.79 L 2.40 -2.59 C 2.35 -2.73 2.25 -2.84 2.09 -2.92 C 1.93 -2.99 1.76 -3.03 1.59 -3.03 C 1.39 -3.03 1.22 -2.98 1.09 -2.90 C 0.95 -2.82 0.89 -2.70 0.89 -2.56 C 0.89 -2.43 0.93 -2.33 1.03 -2.26 C 1.13 -2.20 1.28 -2.14 1.48 -2.09 L 1.89 -2.01 C 2.12 -1.96 2.33 -1.89 2.51 -1.81 C 2.69 -1.73 2.82 -1.63 2.92 -1.5 C 3.01 -1.36 3.06 -1.18 3.06 -0.96 C 3.06 -0.75 3 -0.57 2.87 -0.42 C 2.75 -0.26 2.58 -0.14 2.37 -0.04 C 2.16 0.03 1.92 0.07 1.65 0.07 Z M 1.65 0.07 "/>
</g>
<g id="chemin-images-glyph-2-6">
<path d="M 1.73 0.07 C 1.47 0.07 1.22 0.00 1 -0.12 C 0.76 -0.26 0.58 -0.47 0.45 -0.73 C 0.31 -1.00 0.25 -1.32 0.25 -1.70 C 0.25 -2.08 0.31 -2.41 0.45 -2.67 C 0.58 -2.94 0.76 -3.14 1 -3.28 C 1.22 -3.42 1.47 -3.5 1.73 -3.5 C 2.00 -3.5 2.23 -3.44 2.42 -3.32 C 2.60 -3.22 2.75 -3.08 2.84 -2.90 L 2.84 -4.92 L 3.43 -4.92 L 3.43 -1.29 C 3.43 -1.17 3.44 -1.00 3.45 -0.78 C 3.46 -0.56 3.49 -0.30 3.54 0 L 3 0 L 2.84 -0.51 C 2.75 -0.33 2.61 -0.19 2.42 -0.07 C 2.23 0.02 2.00 0.07 1.73 0.07 Z M 1.89 -0.42 C 2.08 -0.42 2.25 -0.46 2.40 -0.56 C 2.55 -0.66 2.66 -0.81 2.73 -1 C 2.81 -1.19 2.85 -1.42 2.85 -1.70 C 2.85 -2.11 2.76 -2.43 2.59 -2.65 C 2.41 -2.88 2.17 -3 1.89 -3 C 1.58 -3 1.34 -2.88 1.17 -2.65 C 0.99 -2.43 0.90 -2.11 0.90 -1.70 C 0.90 -1.29 0.99 -0.97 1.17 -0.75 C 1.34 -0.53 1.58 -0.42 1.89 -0.42 Z M 1.89 -0.42 "/>
</g>
<g id="chemin-images-glyph-2-7">
<path d="M 1.59 0.07 C 1.32 0.07 1.10 0.02 0.93 -0.07 C 0.78 -0.19 0.66 -0.34 0.59 -0.54 C 0.51 -0.75 0.48 -0.98 0.48 -1.25 L 0.48 -3.45 L 1.07 -3.45 L 1.07 -1.42 C 1.07 -1.24 1.09 -1.07 1.12 -0.92 C 1.15 -0.77 1.22 -0.65 1.32 -0.56 C 1.42 -0.47 1.58 -0.43 1.79 -0.43 C 2.06 -0.43 2.28 -0.53 2.43 -0.71 C 2.59 -0.91 2.67 -1.19 2.67 -1.56 L 2.67 -3.45 L 3.25 -3.45 L 3.25 0 L 2.81 0 L 2.67 -0.5 C 2.57 -0.33 2.44 -0.19 2.26 -0.07 C 2.09 0.02 1.87 0.07 1.59 0.07 Z M 1.59 0.07 "/>
</g>
<g id="chemin-images-glyph-2-8">
<path d="M 0.54 0 L 0.54 -4.64 L 2.23 -4.64 C 2.56 -4.64 2.85 -4.58 3.10 -4.48 C 3.36 -4.39 3.56 -4.23 3.70 -4.03 C 3.84 -3.83 3.92 -3.57 3.92 -3.25 C 3.92 -2.92 3.84 -2.66 3.70 -2.45 C 3.56 -2.25 3.36 -2.10 3.10 -2 C 2.85 -1.89 2.56 -1.84 2.23 -1.84 L 1.20 -1.84 L 1.20 0 Z M 1.20 -2.40 L 2.20 -2.40 C 2.51 -2.40 2.76 -2.46 2.96 -2.59 C 3.16 -2.71 3.26 -2.93 3.26 -3.25 C 3.26 -3.56 3.16 -3.77 2.96 -3.89 C 2.76 -4.01 2.51 -4.07 2.20 -4.07 L 1.20 -4.07 Z M 1.20 -2.40 "/>
</g>
<g id="chemin-images-glyph-2-9">
<path d="M 1.90 0.07 C 1.70 0.07 1.50 0.04 1.31 -0.01 C 1.11 -0.08 0.93 -0.19 0.78 -0.34 C 0.62 -0.48 0.49 -0.67 0.39 -0.90 C 0.29 -1.13 0.25 -1.39 0.25 -1.70 C 0.25 -2.01 0.29 -2.28 0.39 -2.51 C 0.49 -2.74 0.62 -2.92 0.78 -3.07 C 0.93 -3.22 1.11 -3.32 1.31 -3.39 C 1.50 -3.46 1.70 -3.5 1.90 -3.5 C 2.10 -3.5 2.29 -3.46 2.48 -3.39 C 2.67 -3.32 2.85 -3.22 3.01 -3.07 C 3.17 -2.92 3.31 -2.74 3.40 -2.51 C 3.50 -2.28 3.56 -2.01 3.56 -1.70 C 3.56 -1.39 3.50 -1.13 3.40 -0.90 C 3.31 -0.67 3.17 -0.48 3.01 -0.34 C 2.85 -0.19 2.67 -0.08 2.48 -0.01 C 2.29 0.04 2.10 0.07 1.90 0.07 Z M 1.90 -0.43 C 2.08 -0.43 2.25 -0.47 2.40 -0.56 C 2.56 -0.65 2.68 -0.79 2.78 -0.98 C 2.88 -1.17 2.93 -1.41 2.93 -1.70 C 2.93 -2.00 2.88 -2.25 2.78 -2.43 C 2.68 -2.62 2.56 -2.75 2.40 -2.84 C 2.25 -2.93 2.08 -2.98 1.90 -2.98 C 1.72 -2.98 1.56 -2.93 1.40 -2.84 C 1.25 -2.75 1.11 -2.62 1.01 -2.43 C 0.92 -2.25 0.87 -2.00 0.87 -1.70 C 0.87 -1.41 0.92 -1.17 1.01 -0.98 C 1.11 -0.79 1.25 -0.65 1.40 -0.56 C 1.56 -0.47 1.72 -0.43 1.90 -0.43 Z M 1.90 -0.43 "/>
</g>
<g id="chemin-images-glyph-2-10">
<path d="M 0.73 0.07 C 0.60 0.07 0.5 0.03 0.40 -0.04 C 0.32 -0.14 0.28 -0.25 0.28 -0.37 C 0.28 -0.5 0.32 -0.60 0.40 -0.68 C 0.5 -0.78 0.60 -0.82 0.73 -0.82 C 0.85 -0.82 0.96 -0.78 1.04 -0.68 C 1.14 -0.60 1.18 -0.5 1.18 -0.37 C 1.18 -0.25 1.14 -0.14 1.04 -0.04 C 0.96 0.03 0.85 0.07 0.73 0.07 Z M 0.73 -2.59 C 0.60 -2.59 0.5 -2.63 0.40 -2.71 C 0.32 -2.80 0.28 -2.90 0.28 -3.03 C 0.28 -3.15 0.32 -3.25 0.40 -3.34 C 0.5 -3.43 0.60 -3.48 0.73 -3.48 C 0.85 -3.48 0.96 -3.43 1.04 -3.34 C 1.14 -3.25 1.18 -3.15 1.18 -3.03 C 1.18 -2.90 1.14 -2.80 1.04 -2.71 C 0.96 -2.63 0.85 -2.59 0.73 -2.59 Z M 0.73 -2.59 "/>
</g>
<g id="chemin-images-glyph-2-11">
<path d="M 0.32 0.92 L 0.65 0.07 C 0.55 0.05 0.46 0.00 0.39 -0.07 C 0.31 -0.16 0.28 -0.25 0.28 -0.37 C 0.28 -0.48 0.32 -0.59 0.40 -0.68 C 0.5 -0.78 0.60 -0.82 0.71 -0.82 C 0.85 -0.82 0.96 -0.78 1.04 -0.68 C 1.14 -0.59 1.18 -0.48 1.18 -0.37 C 1.18 -0.33 1.17 -0.29 1.17 -0.26 C 1.16 -0.23 1.14 -0.20 1.14 -0.17 L 0.70 0.92 Z M 0.32 0.92 "/>
</g>
<g id="chemin-images-glyph-2-12">
<path d="M 1.48 0 L 1.48 -3.5 L 0.25 -3.5 L 0.25 -3.96 C 0.46 -3.96 0.67 -3.98 0.85 -4.01 C 1.05 -4.04 1.22 -4.10 1.35 -4.20 C 1.50 -4.30 1.60 -4.45 1.67 -4.64 L 2.06 -4.64 L 2.06 0 Z M 1.48 0 "/>
</g>
<g id="chemin-images-glyph-2-13">
<path d="M 0.73 0.07 C 0.60 0.07 0.5 0.03 0.40 -0.04 C 0.32 -0.14 0.28 -0.25 0.28 -0.37 C 0.28 -0.5 0.32 -0.60 0.40 -0.68 C 0.5 -0.78 0.60 -0.82 0.73 -0.82 C 0.85 -0.82 0.96 -0.78 1.04 -0.68 C 1.14 -0.60 1.18 -0.5 1.18 -0.37 C 1.18 -0.25 1.14 -0.14 1.04 -0.04 C 0.96 0.03 0.85 0.07 0.73 0.07 Z M 0.73 0.07 "/>
</g>
<g id="chemin-images-glyph-2-14">
<path d="M 1.26 1.12 C 0.98 0.68 0.76 0.20 0.60 -0.31 C 0.45 -0.83 0.37 -1.35 0.37 -1.89 C 0.37 -2.42 0.45 -2.96 0.60 -3.48 C 0.76 -4.00 0.98 -4.48 1.26 -4.92 L 1.82 -4.92 C 1.54 -4.48 1.32 -4.00 1.17 -3.48 C 1.01 -2.96 0.93 -2.42 0.93 -1.89 C 0.93 -1.35 1.01 -0.83 1.17 -0.31 C 1.32 0.20 1.54 0.68 1.82 1.12 Z M 1.26 1.12 "/>
</g>
<g id="chemin-images-glyph-2-15">
<path d="M 2.25 0.07 C 1.85 0.07 1.51 -0.00 1.23 -0.18 C 0.96 -0.37 0.75 -0.64 0.62 -1 C 0.48 -1.36 0.42 -1.80 0.42 -2.32 C 0.42 -2.84 0.48 -3.28 0.62 -3.64 C 0.75 -4.00 0.96 -4.27 1.23 -4.45 C 1.51 -4.64 1.85 -4.73 2.25 -4.73 C 2.64 -4.73 2.97 -4.64 3.25 -4.45 C 3.53 -4.27 3.73 -4.00 3.87 -3.64 C 4.01 -3.28 4.09 -2.84 4.09 -2.32 C 4.09 -1.80 4.01 -1.36 3.87 -1 C 3.73 -0.64 3.53 -0.37 3.25 -0.18 C 2.97 -0.00 2.64 0.07 2.25 0.07 Z M 2.25 -0.43 C 2.43 -0.43 2.59 -0.46 2.73 -0.53 C 2.86 -0.59 2.98 -0.68 3.07 -0.81 L 1.21 -3.48 C 1.16 -3.33 1.12 -3.16 1.09 -2.96 C 1.06 -2.76 1.04 -2.55 1.04 -2.32 C 1.04 -1.92 1.08 -1.57 1.17 -1.29 C 1.26 -1.01 1.39 -0.80 1.57 -0.65 C 1.75 -0.50 1.97 -0.43 2.25 -0.43 Z M 1.46 -3.90 L 3.31 -1.25 C 3.36 -1.39 3.39 -1.55 3.42 -1.73 C 3.44 -1.92 3.45 -2.11 3.45 -2.32 C 3.45 -2.62 3.42 -2.89 3.37 -3.12 C 3.33 -3.36 3.25 -3.56 3.15 -3.73 C 3.06 -3.89 2.93 -4.02 2.78 -4.10 C 2.63 -4.19 2.45 -4.23 2.25 -4.23 C 2.08 -4.23 1.92 -4.20 1.79 -4.14 C 1.67 -4.08 1.56 -4.00 1.46 -3.90 Z M 1.46 -3.90 "/>
</g>
<g id="chemin-images-glyph-2-16">
<path d="M 0.25 1.12 C 0.53 0.67 0.75 0.19 0.90 -0.32 C 1.06 -0.84 1.14 -1.37 1.14 -1.90 C 1.14 -2.44 1.06 -2.97 0.90 -3.48 C 0.75 -4.00 0.53 -4.48 0.25 -4.93 L 0.81 -4.93 C 1.09 -4.48 1.31 -4.00 1.46 -3.48 C 1.62 -2.97 1.70 -2.44 1.70 -1.90 C 1.70 -1.37 1.62 -0.84 1.46 -0.32 C 1.31 0.19 1.09 0.67 0.81 1.12 Z M 0.25 1.12 "/>
</g>
<g id="chemin-images-glyph-2-17">
<path d="M 0.20 0 L 0.20 -0.54 C 0.60 -0.84 0.97 -1.12 1.29 -1.39 C 1.61 -1.64 1.89 -1.89 2.10 -2.12 C 2.33 -2.36 2.50 -2.58 2.62 -2.79 C 2.73 -3.01 2.79 -3.22 2.79 -3.43 C 2.79 -3.67 2.71 -3.86 2.56 -4.01 C 2.41 -4.16 2.20 -4.23 1.93 -4.23 C 1.71 -4.23 1.51 -4.17 1.32 -4.06 C 1.14 -3.94 1.01 -3.75 0.95 -3.46 L 0.37 -3.62 C 0.45 -3.96 0.63 -4.23 0.90 -4.43 C 1.18 -4.63 1.53 -4.73 1.95 -4.73 C 2.23 -4.73 2.48 -4.67 2.70 -4.57 C 2.92 -4.48 3.10 -4.33 3.23 -4.14 C 3.35 -3.95 3.42 -3.72 3.42 -3.45 C 3.42 -3.17 3.35 -2.90 3.21 -2.65 C 3.09 -2.40 2.91 -2.16 2.68 -1.92 C 2.46 -1.69 2.20 -1.46 1.90 -1.23 C 1.61 -1.01 1.30 -0.78 0.98 -0.56 L 3.54 -0.56 L 3.54 0 Z M 0.20 0 "/>
</g>
<g id="chemin-images-glyph-2-18">
<path d="M 1.29 0 C 1.08 0 0.92 -0.01 0.79 -0.06 C 0.67 -0.11 0.59 -0.19 0.54 -0.31 C 0.49 -0.43 0.46 -0.60 0.46 -0.82 L 0.46 -4.92 L 1.06 -4.92 L 1.06 -0.89 C 1.06 -0.74 1.08 -0.64 1.12 -0.59 C 1.16 -0.53 1.27 -0.51 1.45 -0.51 L 1.68 -0.51 L 1.68 0 Z M 1.29 0 "/>
</g>
<g id="chemin-images-glyph-2-19">
<path d="M 0.5 0 L 0.5 -4.92 L 1.07 -4.92 L 1.07 -1.89 L 2.46 -3.45 L 3.17 -3.45 L 1.87 -2.01 L 3.34 0 L 2.64 0 L 1.48 -1.59 L 1.07 -1.15 L 1.07 0 Z M 0.5 0 "/>
</g>
<g id="chemin-images-glyph-2-20">
<path d="M 2.20 0.07 C 2.02 0.07 1.86 0.05 1.71 0 C 1.58 -0.03 1.45 -0.10 1.34 -0.20 C 1.23 -0.29 1.14 -0.39 1.07 -0.51 L 0.93 0 L 0.5 0 L 0.5 -4.92 L 1.07 -4.92 L 1.07 -2.90 C 1.14 -3.03 1.23 -3.13 1.34 -3.21 C 1.45 -3.31 1.58 -3.37 1.71 -3.42 C 1.86 -3.47 2.02 -3.5 2.20 -3.5 C 2.46 -3.5 2.70 -3.42 2.93 -3.28 C 3.16 -3.14 3.34 -2.94 3.48 -2.67 C 3.61 -2.41 3.68 -2.08 3.68 -1.70 C 3.68 -1.32 3.61 -1.00 3.48 -0.73 C 3.34 -0.47 3.16 -0.26 2.93 -0.12 C 2.70 0.00 2.46 0.07 2.20 0.07 Z M 2.04 -0.42 C 2.34 -0.42 2.58 -0.53 2.76 -0.75 C 2.94 -0.97 3.03 -1.29 3.03 -1.70 C 3.03 -2.11 2.94 -2.43 2.76 -2.65 C 2.58 -2.88 2.34 -3 2.04 -3 C 1.75 -3 1.51 -2.88 1.34 -2.65 C 1.16 -2.43 1.07 -2.11 1.07 -1.70 C 1.07 -1.42 1.11 -1.19 1.18 -1 C 1.26 -0.81 1.38 -0.66 1.53 -0.56 C 1.68 -0.46 1.85 -0.42 2.04 -0.42 Z M 2.04 -0.42 "/>
</g>
<g id="chemin-images-glyph-2-21">
<path d="M 1.53 0 C 1.31 0 1.14 -0.01 1.03 -0.06 C 0.91 -0.10 0.83 -0.18 0.78 -0.31 C 0.73 -0.43 0.71 -0.61 0.71 -0.85 L 0.71 -2.98 L 0.14 -2.98 L 0.14 -3.45 L 0.71 -3.45 L 0.71 -4.31 L 1.31 -4.31 L 1.31 -3.45 L 2.01 -3.45 L 2.01 -2.98 L 1.31 -2.98 L 1.31 -0.95 C 1.31 -0.76 1.33 -0.64 1.37 -0.59 C 1.41 -0.53 1.50 -0.51 1.65 -0.51 L 2.01 -0.51 L 2.01 0 Z M 1.53 0 "/>
</g>
<g id="chemin-images-glyph-2-22">
<path d="M 0.5 0 L 0.5 -3.45 L 0.92 -3.45 L 1.10 -2.81 C 1.19 -2.94 1.28 -3.06 1.40 -3.17 C 1.53 -3.27 1.67 -3.35 1.82 -3.40 C 1.98 -3.46 2.15 -3.5 2.34 -3.5 L 2.34 -2.90 C 2.03 -2.90 1.78 -2.84 1.59 -2.73 C 1.41 -2.62 1.28 -2.46 1.20 -2.25 C 1.11 -2.03 1.07 -1.78 1.07 -1.48 L 1.07 0 Z M 0.5 0 "/>
</g>
<g id="chemin-images-glyph-2-23">
<path d="M 0.42 -2.98 L 0.75 -3.82 C 0.63 -3.84 0.53 -3.89 0.46 -3.98 C 0.40 -4.06 0.37 -4.16 0.37 -4.28 C 0.37 -4.39 0.41 -4.5 0.5 -4.59 C 0.58 -4.68 0.68 -4.73 0.81 -4.73 C 0.94 -4.73 1.05 -4.68 1.14 -4.59 C 1.22 -4.5 1.26 -4.39 1.26 -4.28 C 1.26 -4.25 1.25 -4.21 1.25 -4.17 C 1.25 -4.14 1.24 -4.10 1.23 -4.07 L 0.79 -2.98 Z M 0.42 -2.98 "/>
</g>
<g id="chemin-images-glyph-2-24">
<path d="M 1.90 0.07 C 1.59 0.07 1.32 0.03 1.10 -0.06 C 0.89 -0.16 0.71 -0.30 0.57 -0.46 C 0.45 -0.64 0.36 -0.83 0.31 -1.04 L 0.89 -1.21 C 0.92 -0.97 1.03 -0.78 1.20 -0.62 C 1.37 -0.47 1.61 -0.40 1.92 -0.40 C 2.11 -0.40 2.29 -0.43 2.45 -0.5 C 2.61 -0.57 2.74 -0.67 2.82 -0.81 C 2.92 -0.94 2.96 -1.10 2.96 -1.29 C 2.96 -1.48 2.92 -1.63 2.84 -1.75 C 2.76 -1.86 2.66 -1.95 2.53 -2.01 C 2.40 -2.07 2.26 -2.11 2.12 -2.14 C 1.97 -2.17 1.83 -2.18 1.70 -2.18 L 1.53 -2.18 L 1.53 -2.71 L 1.70 -2.71 C 1.87 -2.71 2.05 -2.73 2.23 -2.78 C 2.41 -2.83 2.55 -2.91 2.67 -3.03 C 2.78 -3.15 2.84 -3.31 2.84 -3.51 C 2.84 -3.67 2.80 -3.80 2.71 -3.90 C 2.63 -4.01 2.52 -4.10 2.39 -4.15 C 2.25 -4.20 2.10 -4.23 1.93 -4.23 C 1.65 -4.23 1.42 -4.16 1.26 -4.01 C 1.09 -3.87 0.99 -3.69 0.95 -3.46 L 0.37 -3.62 C 0.42 -3.85 0.51 -4.04 0.65 -4.20 C 0.80 -4.36 0.98 -4.5 1.20 -4.59 C 1.42 -4.68 1.67 -4.73 1.95 -4.73 C 2.14 -4.73 2.33 -4.70 2.51 -4.65 C 2.69 -4.61 2.85 -4.53 3 -4.43 C 3.14 -4.34 3.25 -4.21 3.32 -4.06 C 3.41 -3.91 3.45 -3.73 3.45 -3.51 C 3.45 -3.28 3.38 -3.07 3.25 -2.89 C 3.11 -2.70 2.91 -2.56 2.64 -2.48 C 2.98 -2.37 3.22 -2.21 3.37 -2 C 3.53 -1.78 3.60 -1.55 3.60 -1.31 C 3.60 -1 3.52 -0.73 3.35 -0.53 C 3.20 -0.32 2.99 -0.16 2.73 -0.06 C 2.47 0.03 2.19 0.07 1.90 0.07 Z M 1.90 0.07 "/>
</g>
<g id="chemin-images-glyph-2-25">
<path d="M 0.45 -2.14 L 0.45 -2.68 L 3.90 -2.68 L 3.90 -2.14 Z M 0.45 -0.84 L 0.45 -1.39 L 3.90 -1.39 L 3.90 -0.84 Z M 0.45 -0.84 "/>
</g>
<g id="chemin-images-glyph-2-26">
<path d="M 0.5 1.12 L 0.5 -3.45 L 0.92 -3.45 L 1.07 -2.90 C 1.14 -3.03 1.23 -3.13 1.34 -3.21 C 1.45 -3.31 1.58 -3.37 1.71 -3.42 C 1.86 -3.47 2.02 -3.5 2.20 -3.5 C 2.46 -3.5 2.70 -3.42 2.93 -3.28 C 3.16 -3.14 3.34 -2.94 3.48 -2.67 C 3.61 -2.41 3.68 -2.08 3.68 -1.70 C 3.68 -1.32 3.61 -1.00 3.48 -0.73 C 3.34 -0.47 3.16 -0.26 2.93 -0.12 C 2.70 0.00 2.46 0.07 2.20 0.07 C 2.02 0.07 1.86 0.05 1.71 0 C 1.58 -0.03 1.45 -0.10 1.34 -0.20 C 1.23 -0.29 1.14 -0.39 1.07 -0.51 L 1.07 1.12 Z M 2.04 -0.42 C 2.34 -0.42 2.58 -0.53 2.76 -0.75 C 2.94 -0.97 3.03 -1.29 3.03 -1.70 C 3.03 -2.11 2.94 -2.43 2.76 -2.65 C 2.58 -2.88 2.34 -3 2.04 -3 C 1.75 -3 1.51 -2.88 1.34 -2.65 C 1.16 -2.43 1.07 -2.11 1.07 -1.70 C 1.07 -1.29 1.16 -0.97 1.34 -0.75 C 1.51 -0.53 1.75 -0.42 2.04 -0.42 Z M 2.04 -0.42 "/>
</g>
<g id="chemin-images-glyph-2-27">
<path d="M 1.29 0 L 0.06 -3.45 L 0.70 -3.45 L 1.60 -0.76 L 2.5 -3.45 L 3.14 -3.45 L 1.90 0 Z M 1.29 0 "/>
</g>
<g id="chemin-images-glyph-2-28">
<path d="M 0.5 0 L 0.5 -3.45 L 0.93 -3.45 L 1.07 -2.92 C 1.14 -3.03 1.23 -3.13 1.32 -3.21 C 1.42 -3.30 1.55 -3.36 1.68 -3.42 C 1.83 -3.47 2.00 -3.5 2.20 -3.5 C 2.47 -3.5 2.69 -3.44 2.85 -3.32 C 3.02 -3.22 3.14 -3.07 3.21 -2.87 C 3.30 -2.67 3.34 -2.44 3.34 -2.18 L 3.34 0 L 2.75 0 L 2.75 -2.01 C 2.75 -2.19 2.73 -2.35 2.70 -2.5 C 2.67 -2.64 2.59 -2.76 2.48 -2.85 C 2.37 -2.95 2.21 -3 2 -3 C 1.71 -3 1.49 -2.89 1.32 -2.70 C 1.16 -2.51 1.07 -2.23 1.07 -1.87 L 1.07 0 Z M 0.5 0 "/>
</g>
<g id="chemin-images-glyph-2-29">
<path d="M 4.62 0.07 C 4.31 0.07 4.03 0.01 3.79 -0.10 C 3.56 -0.24 3.38 -0.41 3.25 -0.62 C 3.09 -0.38 2.89 -0.20 2.65 -0.09 C 2.41 0.01 2.16 0.07 1.90 0.07 C 1.70 0.07 1.50 0.04 1.31 -0.01 C 1.11 -0.08 0.93 -0.19 0.78 -0.34 C 0.62 -0.48 0.49 -0.67 0.39 -0.90 C 0.29 -1.13 0.25 -1.39 0.25 -1.70 C 0.25 -2.01 0.29 -2.28 0.39 -2.51 C 0.49 -2.74 0.62 -2.92 0.78 -3.07 C 0.93 -3.22 1.11 -3.32 1.31 -3.39 C 1.50 -3.46 1.70 -3.5 1.90 -3.5 C 2.16 -3.5 2.41 -3.44 2.65 -3.32 C 2.89 -3.21 3.09 -3.03 3.25 -2.78 C 3.40 -3.00 3.59 -3.18 3.82 -3.31 C 4.06 -3.43 4.32 -3.5 4.60 -3.5 C 4.87 -3.5 5.11 -3.44 5.32 -3.32 C 5.53 -3.22 5.70 -3.07 5.84 -2.89 C 5.98 -2.71 6.09 -2.50 6.15 -2.28 C 6.21 -2.05 6.23 -1.81 6.21 -1.56 L 3.54 -1.56 C 3.56 -1.33 3.61 -1.14 3.68 -1 C 3.75 -0.85 3.84 -0.73 3.95 -0.65 C 4.06 -0.57 4.17 -0.51 4.29 -0.48 C 4.42 -0.45 4.53 -0.43 4.62 -0.43 C 4.82 -0.43 4.98 -0.46 5.10 -0.53 C 5.24 -0.59 5.35 -0.67 5.43 -0.76 L 6 -0.60 C 5.87 -0.41 5.69 -0.24 5.45 -0.10 C 5.22 0.01 4.94 0.07 4.62 0.07 Z M 1.90 -0.43 C 2.08 -0.43 2.25 -0.47 2.40 -0.56 C 2.56 -0.65 2.68 -0.79 2.78 -0.98 C 2.88 -1.17 2.93 -1.41 2.93 -1.70 C 2.93 -2.00 2.88 -2.25 2.78 -2.43 C 2.68 -2.62 2.56 -2.75 2.40 -2.84 C 2.25 -2.93 2.08 -2.98 1.90 -2.98 C 1.72 -2.98 1.56 -2.93 1.40 -2.84 C 1.25 -2.75 1.11 -2.62 1.01 -2.43 C 0.92 -2.25 0.87 -2.00 0.87 -1.70 C 0.87 -1.41 0.92 -1.17 1.01 -0.98 C 1.11 -0.79 1.25 -0.65 1.40 -0.56 C 1.56 -0.47 1.72 -0.43 1.90 -0.43 Z M 3.54 -2.03 L 5.59 -2.03 C 5.59 -2.19 5.55 -2.35 5.46 -2.5 C 5.39 -2.64 5.28 -2.76 5.14 -2.85 C 4.99 -2.95 4.81 -3 4.60 -3 C 4.45 -3 4.29 -2.96 4.14 -2.90 C 3.99 -2.85 3.86 -2.75 3.76 -2.60 C 3.66 -2.47 3.58 -2.28 3.54 -2.03 Z M 3.54 -2.03 "/>
</g>
<g id="chemin-images-glyph-2-30">
<path d="M 0.32 0.92 L 0.65 0.07 C 0.55 0.05 0.46 0.00 0.39 -0.07 C 0.31 -0.16 0.28 -0.25 0.28 -0.37 C 0.28 -0.48 0.32 -0.59 0.40 -0.68 C 0.5 -0.78 0.60 -0.82 0.71 -0.82 C 0.85 -0.82 0.96 -0.78 1.04 -0.68 C 1.14 -0.59 1.18 -0.48 1.18 -0.37 C 1.18 -0.33 1.17 -0.29 1.17 -0.26 C 1.16 -0.23 1.14 -0.20 1.14 -0.17 L 0.70 0.92 Z M 0.73 -2.59 C 0.60 -2.59 0.5 -2.63 0.40 -2.71 C 0.32 -2.80 0.28 -2.90 0.28 -3.03 C 0.28 -3.15 0.32 -3.25 0.40 -3.34 C 0.5 -3.43 0.60 -3.48 0.73 -3.48 C 0.85 -3.48 0.96 -3.43 1.04 -3.34 C 1.14 -3.25 1.18 -3.15 1.18 -3.03 C 1.18 -2.90 1.14 -2.80 1.04 -2.71 C 0.96 -2.63 0.85 -2.59 0.73 -2.59 Z M 0.73 -2.59 "/>
</g>
<g id="chemin-images-glyph-2-31">
<path d="M 0.54 0 L 0.54 -4.64 L 1.20 -4.64 L 1.20 -2.67 L 3.62 -2.67 L 3.62 -4.64 L 4.28 -4.64 L 4.28 0 L 3.62 0 L 3.62 -2.10 L 1.20 -2.10 L 1.20 0 Z M 0.54 0 "/>
</g>
<g id="chemin-images-glyph-2-32">
<path d="M 1.60 0 L 1.60 -4.07 L 0.06 -4.07 L 0.06 -4.64 L 3.81 -4.64 L 3.81 -4.07 L 2.26 -4.07 L 2.26 0 Z M 1.60 0 "/>
</g>
<g id="chemin-images-glyph-2-33">
<path d="M 1.93 0.07 C 1.57 0.07 1.26 0 1.01 -0.15 C 0.76 -0.31 0.57 -0.52 0.43 -0.79 C 0.31 -1.06 0.25 -1.37 0.25 -1.71 C 0.25 -2.08 0.32 -2.39 0.46 -2.65 C 0.62 -2.92 0.82 -3.13 1.07 -3.28 C 1.32 -3.42 1.60 -3.5 1.92 -3.5 C 2.20 -3.5 2.44 -3.44 2.65 -3.32 C 2.86 -3.22 3.03 -3.07 3.17 -2.89 C 3.30 -2.71 3.40 -2.50 3.46 -2.28 C 3.53 -2.05 3.55 -1.81 3.53 -1.56 L 0.85 -1.56 C 0.87 -1.33 0.92 -1.14 1 -1 C 1.08 -0.85 1.17 -0.73 1.28 -0.65 C 1.38 -0.57 1.49 -0.51 1.60 -0.48 C 1.73 -0.45 1.84 -0.43 1.93 -0.43 C 2.13 -0.43 2.29 -0.46 2.42 -0.53 C 2.55 -0.59 2.66 -0.67 2.75 -0.76 L 3.31 -0.60 C 3.18 -0.41 3.00 -0.24 2.76 -0.10 C 2.53 0.01 2.25 0.07 1.93 0.07 Z M 0.87 -2.03 L 2.90 -2.03 C 2.90 -2.19 2.86 -2.35 2.78 -2.5 C 2.70 -2.64 2.59 -2.76 2.45 -2.85 C 2.30 -2.95 2.12 -3 1.92 -3 C 1.77 -3 1.62 -2.96 1.46 -2.90 C 1.32 -2.85 1.19 -2.75 1.07 -2.60 C 0.97 -2.47 0.90 -2.28 0.87 -2.03 Z M 1.73 -3.96 L 2.29 -4.68 C 2.35 -4.76 2.41 -4.82 2.45 -4.85 C 2.50 -4.89 2.55 -4.90 2.60 -4.90 C 2.67 -4.90 2.74 -4.88 2.79 -4.84 C 2.84 -4.80 2.87 -4.73 2.87 -4.65 C 2.87 -4.60 2.84 -4.54 2.79 -4.48 C 2.75 -4.42 2.68 -4.36 2.59 -4.28 L 2.21 -3.96 Z M 1.73 -3.96 "/>
</g>
</g>
<clipPath id="chemin-images-clip-0">
<path clip-rule="nonzero" d="M 0.48 0 L 118 0 L 118 53 L 0.48 53 Z M 0.48 0 "/>
</clipPath>
</defs>
<path fill-rule="nonzero" style="fill:var(--fig-gris-bg)" fill-opacity="1" d="M 104.54 5.93 L 6.33 5.93 C 5.51 5.93 4.84 6.59 4.84 7.42 L 4.84 39.76 C 4.84 40.58 5.51 41.25 6.33 41.25 L 104.54 41.25 C 105.37 41.25 106.03 40.58 106.03 39.76 L 106.03 7.42 C 106.03 6.59 105.37 5.93 104.54 5.93 Z M 104.54 5.93 "/>
<g clip-path="url(#chemin-images-clip-0)">
<path fill="none" stroke-width="0.79" stroke-linecap="butt" stroke-linejoin="miter" style="stroke:var(--fig-gris)" stroke-opacity="1" stroke-miterlimit="10" d="M 49.26 17.71 L -49.26 17.71 C -50.08 17.71 -50.75 17.04 -50.75 16.22 L -50.75 -16.22 C -50.75 -17.04 -50.08 -17.71 -49.26 -17.71 L 49.26 -17.71 C 50.08 -17.71 50.75 -17.04 50.75 -16.22 L 50.75 16.22 C 50.75 17.04 50.08 17.71 49.26 17.71 Z M 49.26 17.71 " transform="matrix(0.996794, 0, 0, -0.996794, 55.443384, 23.592112)"/>
</g>
<g style="fill:var(--fig-ink)" fill-opacity="1">
<use xlink:href="#chemin-images-glyph-0-0" x="28.80" y="18.06"/>
<use xlink:href="#chemin-images-glyph-0-1" x="33.58" y="18.06"/>
</g>
<g style="fill:var(--fig-ink)" fill-opacity="1">
<use xlink:href="#chemin-images-glyph-0-2" x="37.59" y="18.06"/>
</g>
<g style="fill:var(--fig-ink)" fill-opacity="1">
<use xlink:href="#chemin-images-glyph-0-3" x="41.28" y="18.06"/>
</g>
<g style="fill:var(--fig-ink)" fill-opacity="1">
<use xlink:href="#chemin-images-glyph-0-4" x="44.92" y="18.06"/>
<use xlink:href="#chemin-images-glyph-0-5" x="48.83" y="18.06"/>
</g>
<g style="fill:var(--fig-ink)" fill-opacity="1">
<use xlink:href="#chemin-images-glyph-0-6" x="53.61" y="18.06"/>
<use xlink:href="#chemin-images-glyph-0-7" x="57.76" y="18.06"/>
</g>
<g style="fill:var(--fig-ink)" fill-opacity="1">
<use xlink:href="#chemin-images-glyph-0-8" x="64.01" y="18.06"/>
</g>
<g style="fill:var(--fig-ink)" fill-opacity="1">
<use xlink:href="#chemin-images-glyph-0-1" x="68.16" y="18.06"/>
</g>
<g style="fill:var(--fig-ink)" fill-opacity="1">
<use xlink:href="#chemin-images-glyph-0-9" x="72.12" y="18.06"/>
<use xlink:href="#chemin-images-glyph-0-10" x="75.65" y="18.06"/>
</g>
<g style="fill:var(--fig-ink)" fill-opacity="1">
<use xlink:href="#chemin-images-glyph-0-4" x="78.17" y="18.06"/>
</g>
<g style="fill:var(--fig-ink)" fill-opacity="1">
<use xlink:href="#chemin-images-glyph-1-0" x="36.67" y="26.01"/>
<use xlink:href="#chemin-images-glyph-1-1" x="40.84" y="26.01"/>
<use xlink:href="#chemin-images-glyph-1-2" x="45.01" y="26.01"/>
<use xlink:href="#chemin-images-glyph-1-3" x="49.18" y="26.01"/>
<use xlink:href="#chemin-images-glyph-1-4" x="53.35" y="26.01"/>
<use xlink:href="#chemin-images-glyph-1-5" x="57.52" y="26.01"/>
<use xlink:href="#chemin-images-glyph-1-6" x="61.70" y="26.01"/>
<use xlink:href="#chemin-images-glyph-1-7" x="65.87" y="26.01"/>
<use xlink:href="#chemin-images-glyph-1-8" x="70.04" y="26.01"/>
</g>
<g style="fill:var(--fig-ink)" fill-opacity="1">
<use xlink:href="#chemin-images-glyph-1-0" x="28.33" y="33.95"/>
<use xlink:href="#chemin-images-glyph-1-1" x="32.50" y="33.95"/>
<use xlink:href="#chemin-images-glyph-1-2" x="36.67" y="33.95"/>
<use xlink:href="#chemin-images-glyph-1-3" x="40.84" y="33.95"/>
<use xlink:href="#chemin-images-glyph-1-4" x="45.01" y="33.95"/>
<use xlink:href="#chemin-images-glyph-1-9" x="49.18" y="33.95"/>
<use xlink:href="#chemin-images-glyph-1-10" x="53.35" y="33.95"/>
<use xlink:href="#chemin-images-glyph-1-11" x="57.52" y="33.95"/>
<use xlink:href="#chemin-images-glyph-1-12" x="61.69" y="33.95"/>
<use xlink:href="#chemin-images-glyph-1-5" x="65.87" y="33.95"/>
<use xlink:href="#chemin-images-glyph-1-13" x="70.04" y="33.95"/>
<use xlink:href="#chemin-images-glyph-1-7" x="74.21" y="33.95"/>
<use xlink:href="#chemin-images-glyph-1-8" x="78.38" y="33.95"/>
</g>
<path fill-rule="nonzero" style="fill:var(--fig-sarcelle-bg);stroke:var(--fig-sarcelle)" fill-opacity="1" stroke-width="0.79" stroke-linecap="butt" stroke-linejoin="miter" stroke-opacity="1" stroke-miterlimit="10" d="M 179.66 -27.63 L 81.13 -27.63 C 80.30 -27.63 79.63 -28.30 79.63 -29.13 L 79.63 -61.57 C 79.63 -62.40 80.30 -63.07 81.13 -63.07 L 179.66 -63.07 C 180.48 -63.07 181.15 -62.40 181.15 -61.57 L 181.15 -29.13 C 181.15 -28.30 180.48 -27.63 179.66 -27.63 Z M 179.66 -27.63 " transform="matrix(0.996794, 0, 0, -0.996794, 55.443384, 23.592112)"/>
<g style="fill:var(--fig-ink)" fill-opacity="1">
<use xlink:href="#chemin-images-glyph-0-5" x="154.96" y="67.39"/>
</g>
<g style="fill:var(--fig-ink)" fill-opacity="1">
<use xlink:href="#chemin-images-glyph-0-4" x="157.46" y="67.39"/>
</g>
<g style="fill:var(--fig-ink)" fill-opacity="1">
<use xlink:href="#chemin-images-glyph-0-11" x="161.41" y="67.39"/>
<use xlink:href="#chemin-images-glyph-0-12" x="165.54" y="67.39"/>
<use xlink:href="#chemin-images-glyph-0-9" x="167.62" y="67.39"/>
<use xlink:href="#chemin-images-glyph-0-10" x="171.15" y="67.39"/>
<use xlink:href="#chemin-images-glyph-0-5" x="173.77" y="67.39"/>
</g>
<g style="fill:var(--fig-ink)" fill-opacity="1">
<use xlink:href="#chemin-images-glyph-0-4" x="176.28" y="67.39"/>
</g>
<g style="fill:var(--fig-ink)" fill-opacity="1">
<use xlink:href="#chemin-images-glyph-1-14" x="182.51" y="67.39"/>
<use xlink:href="#chemin-images-glyph-1-11" x="186.68" y="67.39"/>
<use xlink:href="#chemin-images-glyph-1-15" x="190.85" y="67.39"/>
<use xlink:href="#chemin-images-glyph-1-3" x="195.02" y="67.39"/>
<use xlink:href="#chemin-images-glyph-1-4" x="199.19" y="67.39"/>
<use xlink:href="#chemin-images-glyph-1-16" x="203.36" y="67.39"/>
<use xlink:href="#chemin-images-glyph-1-14" x="207.53" y="67.39"/>
<use xlink:href="#chemin-images-glyph-1-11" x="211.70" y="67.39"/>
</g>
<g style="fill:var(--fig-ink)" fill-opacity="1">
<use xlink:href="#chemin-images-glyph-1-2" x="156.22" y="75.34"/>
<use xlink:href="#chemin-images-glyph-1-1" x="160.39" y="75.34"/>
<use xlink:href="#chemin-images-glyph-1-0" x="164.56" y="75.34"/>
<use xlink:href="#chemin-images-glyph-1-17" x="168.73" y="75.34"/>
<use xlink:href="#chemin-images-glyph-1-2" x="172.90" y="75.34"/>
<use xlink:href="#chemin-images-glyph-1-18" x="177.07" y="75.34"/>
<use xlink:href="#chemin-images-glyph-1-1" x="181.24" y="75.34"/>
<use xlink:href="#chemin-images-glyph-1-4" x="185.41" y="75.34"/>
<use xlink:href="#chemin-images-glyph-1-16" x="189.59" y="75.34"/>
<use xlink:href="#chemin-images-glyph-1-5" x="193.76" y="75.34"/>
<use xlink:href="#chemin-images-glyph-1-19" x="197.93" y="75.34"/>
<use xlink:href="#chemin-images-glyph-1-8" x="202.10" y="75.34"/>
<use xlink:href="#chemin-images-glyph-1-8" x="206.27" y="75.34"/>
<use xlink:href="#chemin-images-glyph-1-13" x="210.44" y="75.34"/>
</g>
<path fill-rule="nonzero" style="fill:var(--fig-vert-bg);stroke:var(--fig-vert)" fill-opacity="1" stroke-width="0.79" stroke-linecap="butt" stroke-linejoin="miter" stroke-opacity="1" stroke-miterlimit="10" d="M 348.32 19.28 L 218.61 19.28 C 217.79 19.28 217.11 18.61 217.11 17.78 L 217.11 -17.78 C 217.11 -18.61 217.79 -19.28 218.61 -19.28 L 348.32 -19.28 C 349.14 -19.28 349.81 -18.61 349.81 -17.78 L 349.81 17.78 C 349.81 18.61 349.14 19.28 348.32 19.28 Z M 348.32 19.28 " transform="matrix(0.996794, 0, 0, -0.996794, 55.443384, 23.592112)"/>
<g style="fill:var(--fig-ink)" fill-opacity="1">
<use xlink:href="#chemin-images-glyph-0-2" x="289.00" y="13.55"/>
</g>
<g style="fill:var(--fig-ink)" fill-opacity="1">
<use xlink:href="#chemin-images-glyph-0-1" x="292.44" y="13.55"/>
<use xlink:href="#chemin-images-glyph-0-13" x="296.45" y="13.55"/>
</g>
<g style="fill:var(--fig-ink)" fill-opacity="1">
<use xlink:href="#chemin-images-glyph-0-10" x="300.37" y="13.55"/>
<use xlink:href="#chemin-images-glyph-0-14" x="302.98" y="13.55"/>
</g>
<g style="fill:var(--fig-ink)" fill-opacity="1">
<use xlink:href="#chemin-images-glyph-0-12" x="306.75" y="13.55"/>
<use xlink:href="#chemin-images-glyph-0-13" x="308.84" y="13.55"/>
<use xlink:href="#chemin-images-glyph-0-4" x="312.81" y="13.55"/>
<use xlink:href="#chemin-images-glyph-0-5" x="316.72" y="13.55"/>
</g>
<g style="fill:var(--fig-ink)" fill-opacity="1">
<use xlink:href="#chemin-images-glyph-0-6" x="319.23" y="13.55"/>
</g>
<g style="fill:var(--fig-ink)" fill-opacity="1">
<use xlink:href="#chemin-images-glyph-0-6" x="325.68" y="13.55"/>
<use xlink:href="#chemin-images-glyph-0-7" x="329.83" y="13.55"/>
</g>
<g style="fill:var(--fig-ink)" fill-opacity="1">
<use xlink:href="#chemin-images-glyph-0-13" x="336.08" y="13.55"/>
<use xlink:href="#chemin-images-glyph-0-15" x="340.05" y="13.55"/>
<use xlink:href="#chemin-images-glyph-0-7" x="346.56" y="13.55"/>
<use xlink:href="#chemin-images-glyph-0-6" x="350.50" y="13.55"/>
</g>
<g style="fill:var(--fig-ink)" fill-opacity="1">
<use xlink:href="#chemin-images-glyph-0-16" x="356.96" y="13.55"/>
</g>
<g style="fill:var(--fig-ink)" fill-opacity="1">
<use xlink:href="#chemin-images-glyph-0-12" x="363.04" y="13.55"/>
<use xlink:href="#chemin-images-glyph-0-13" x="365.13" y="13.55"/>
</g>
<g style="fill:var(--fig-ink)" fill-opacity="1">
<use xlink:href="#chemin-images-glyph-0-12" x="369.04" y="13.55"/>
<use xlink:href="#chemin-images-glyph-0-3" x="371.12" y="13.55"/>
<use xlink:href="#chemin-images-glyph-0-7" x="374.98" y="13.55"/>
<use xlink:href="#chemin-images-glyph-0-17" x="378.92" y="13.55"/>
<use xlink:href="#chemin-images-glyph-0-4" x="383.07" y="13.55"/>
</g>
<g style="fill:var(--fig-ink)" fill-opacity="1">
<use xlink:href="#chemin-images-glyph-2-0" x="312.98" y="21.49"/>
<use xlink:href="#chemin-images-glyph-2-1" x="314.73" y="21.49"/>
<use xlink:href="#chemin-images-glyph-2-2" x="320.61" y="21.49"/>
<use xlink:href="#chemin-images-glyph-2-3" x="324.26" y="21.49"/>
<use xlink:href="#chemin-images-glyph-2-4" x="328.13" y="21.49"/>
<use xlink:href="#chemin-images-glyph-2-5" x="331.87" y="21.49"/>
</g>
<g style="fill:var(--fig-ink)" fill-opacity="1">
<use xlink:href="#chemin-images-glyph-2-6" x="337.46" y="21.49"/>
<use xlink:href="#chemin-images-glyph-2-7" x="341.38" y="21.49"/>
</g>
<g style="fill:var(--fig-ink)" fill-opacity="1">
<use xlink:href="#chemin-images-glyph-2-8" x="347.45" y="21.49"/>
</g>
<g style="fill:var(--fig-ink)" fill-opacity="1">
<use xlink:href="#chemin-images-glyph-2-9" x="351.48" y="21.49"/>
</g>
<g style="fill:var(--fig-ink)" fill-opacity="1">
<use xlink:href="#chemin-images-glyph-2-6" x="355.31" y="21.49"/>
</g>
<g style="fill:var(--fig-ink)" fill-opacity="1">
<use xlink:href="#chemin-images-glyph-2-10" x="361.54" y="21.49"/>
</g>
<g style="fill:var(--fig-ink)" fill-opacity="1">
<use xlink:href="#chemin-images-glyph-1-0" x="313.56" y="29.44"/>
<use xlink:href="#chemin-images-glyph-1-1" x="317.73" y="29.44"/>
<use xlink:href="#chemin-images-glyph-1-2" x="321.90" y="29.44"/>
<use xlink:href="#chemin-images-glyph-1-3" x="326.07" y="29.44"/>
<use xlink:href="#chemin-images-glyph-1-4" x="330.24" y="29.44"/>
<use xlink:href="#chemin-images-glyph-1-5" x="334.41" y="29.44"/>
<use xlink:href="#chemin-images-glyph-1-6" x="338.58" y="29.44"/>
<use xlink:href="#chemin-images-glyph-1-7" x="342.75" y="29.44"/>
<use xlink:href="#chemin-images-glyph-1-8" x="346.92" y="29.44"/>
</g>
<g style="fill:var(--fig-ink)" fill-opacity="1">
<use xlink:href="#chemin-images-glyph-2-11" x="351.09" y="29.44"/>
</g>
<g style="fill:var(--fig-ink)" fill-opacity="1">
<use xlink:href="#chemin-images-glyph-2-9" x="354.87" y="29.44"/>
<use xlink:href="#chemin-images-glyph-2-7" x="358.68" y="29.44"/>
</g>
<g style="fill:var(--fig-ink)" fill-opacity="1">
<use xlink:href="#chemin-images-glyph-1-18" x="275.83" y="37.38"/>
<use xlink:href="#chemin-images-glyph-1-1" x="280.00" y="37.38"/>
<use xlink:href="#chemin-images-glyph-1-4" x="284.17" y="37.38"/>
<use xlink:href="#chemin-images-glyph-1-16" x="288.35" y="37.38"/>
<use xlink:href="#chemin-images-glyph-1-7" x="292.52" y="37.38"/>
<use xlink:href="#chemin-images-glyph-1-20" x="296.69" y="37.38"/>
<use xlink:href="#chemin-images-glyph-1-3" x="300.86" y="37.38"/>
<use xlink:href="#chemin-images-glyph-1-21" x="305.03" y="37.38"/>
<use xlink:href="#chemin-images-glyph-1-3" x="309.20" y="37.38"/>
<use xlink:href="#chemin-images-glyph-1-22" x="313.37" y="37.38"/>
<use xlink:href="#chemin-images-glyph-1-23" x="317.54" y="37.38"/>
<use xlink:href="#chemin-images-glyph-1-12" x="321.71" y="37.38"/>
<use xlink:href="#chemin-images-glyph-1-11" x="325.88" y="37.38"/>
<use xlink:href="#chemin-images-glyph-1-7" x="330.05" y="37.38"/>
<use xlink:href="#chemin-images-glyph-1-3" x="334.22" y="37.38"/>
<use xlink:href="#chemin-images-glyph-1-21" x="338.40" y="37.38"/>
<use xlink:href="#chemin-images-glyph-1-16" x="342.57" y="37.38"/>
<use xlink:href="#chemin-images-glyph-1-11" x="346.74" y="37.38"/>
<use xlink:href="#chemin-images-glyph-1-14" x="350.91" y="37.38"/>
<use xlink:href="#chemin-images-glyph-1-21" x="355.08" y="37.38"/>
<use xlink:href="#chemin-images-glyph-1-17" x="359.25" y="37.38"/>
<use xlink:href="#chemin-images-glyph-1-2" x="363.42" y="37.38"/>
<use xlink:href="#chemin-images-glyph-1-5" x="367.59" y="37.38"/>
<use xlink:href="#chemin-images-glyph-1-19" x="371.76" y="37.38"/>
<use xlink:href="#chemin-images-glyph-1-8" x="375.93" y="37.38"/>
<use xlink:href="#chemin-images-glyph-1-8" x="380.10" y="37.38"/>
<use xlink:href="#chemin-images-glyph-1-13" x="384.28" y="37.38"/>
<use xlink:href="#chemin-images-glyph-1-24" x="388.45" y="37.38"/>
<use xlink:href="#chemin-images-glyph-1-0" x="392.62" y="37.38"/>
<use xlink:href="#chemin-images-glyph-1-1" x="396.79" y="37.38"/>
<use xlink:href="#chemin-images-glyph-1-2" x="400.96" y="37.38"/>
<use xlink:href="#chemin-images-glyph-1-3" x="405.13" y="37.38"/>
<use xlink:href="#chemin-images-glyph-1-4" x="409.30" y="37.38"/>
<use xlink:href="#chemin-images-glyph-1-24" x="413.47" y="37.38"/>
<use xlink:href="#chemin-images-glyph-1-17" x="417.64" y="37.38"/>
<use xlink:href="#chemin-images-glyph-1-25" x="421.81" y="37.38"/>
<use xlink:href="#chemin-images-glyph-1-3" x="425.98" y="37.38"/>
<use xlink:href="#chemin-images-glyph-1-5" x="430.16" y="37.38"/>
<use xlink:href="#chemin-images-glyph-1-6" x="434.33" y="37.38"/>
<use xlink:href="#chemin-images-glyph-1-7" x="438.50" y="37.38"/>
<use xlink:href="#chemin-images-glyph-1-8" x="442.67" y="37.38"/>
</g>
<path fill="none" stroke-width="0.79" stroke-linecap="butt" stroke-linejoin="miter" style="stroke:var(--fig-line)" stroke-opacity="1" stroke-miterlimit="10" d="M 51.15 -0.00 L 212.47 13.80 " transform="matrix(0.996794, 0, 0, -0.996794, 55.443384, 23.592112)"/>
<path fill-rule="nonzero" style="fill:var(--fig-line);stroke:var(--fig-line)" fill-opacity="1" stroke-width="0.79" stroke-linecap="butt" stroke-linejoin="miter" stroke-opacity="1" stroke-miterlimit="10" d="M 5.66 -0.00 L 1.28 1.65 L 2.73 0.00 L 1.28 -1.65 Z M 5.66 -0.00 " transform="matrix(0.993106, -0.0850066, -0.0850066, -0.993106, 264.713712, 10.042497)"/>
<path fill-rule="nonzero" style="fill:var(--fig-paper)" fill-opacity="1" d="M 135.56 16.13 L 242.33 16.13 L 242.33 7.5 L 135.56 7.5 Z M 135.56 16.13 "/>
<g style="fill:var(--fig-muted)" fill-opacity="1">
<use xlink:href="#chemin-images-glyph-2-12" x="136.55" y="13.61"/>
<use xlink:href="#chemin-images-glyph-2-13" x="139.38" y="13.61"/>
</g>
<g style="fill:var(--fig-muted)" fill-opacity="1">
<use xlink:href="#chemin-images-glyph-1-20" x="143.44" y="13.61"/>
<use xlink:href="#chemin-images-glyph-1-3" x="147.61" y="13.61"/>
<use xlink:href="#chemin-images-glyph-1-21" x="151.78" y="13.61"/>
<use xlink:href="#chemin-images-glyph-1-3" x="155.95" y="13.61"/>
<use xlink:href="#chemin-images-glyph-1-22" x="160.12" y="13.61"/>
<use xlink:href="#chemin-images-glyph-1-23" x="164.29" y="13.61"/>
<use xlink:href="#chemin-images-glyph-1-12" x="168.46" y="13.61"/>
<use xlink:href="#chemin-images-glyph-1-11" x="172.63" y="13.61"/>
</g>
<g style="fill:var(--fig-muted)" fill-opacity="1">
<use xlink:href="#chemin-images-glyph-1-3" x="180.97" y="13.61"/>
<use xlink:href="#chemin-images-glyph-1-20" x="185.15" y="13.61"/>
<use xlink:href="#chemin-images-glyph-1-17" x="189.32" y="13.61"/>
<use xlink:href="#chemin-images-glyph-1-15" x="193.49" y="13.61"/>
<use xlink:href="#chemin-images-glyph-1-11" x="197.66" y="13.61"/>
</g>
<g style="fill:var(--fig-muted)" fill-opacity="1">
<use xlink:href="#chemin-images-glyph-1-2" x="205.99" y="13.61"/>
<use xlink:href="#chemin-images-glyph-1-1" x="210.16" y="13.61"/>
<use xlink:href="#chemin-images-glyph-1-17" x="214.33" y="13.61"/>
<use xlink:href="#chemin-images-glyph-1-26" x="218.51" y="13.61"/>
</g>
<g style="fill:var(--fig-muted)" fill-opacity="1">
<use xlink:href="#chemin-images-glyph-2-14" x="224.63" y="13.61"/>
<use xlink:href="#chemin-images-glyph-2-12" x="226.71" y="13.61"/>
<use xlink:href="#chemin-images-glyph-2-15" x="229.54" y="13.61"/>
</g>
<g style="fill:var(--fig-muted)" fill-opacity="1">
<use xlink:href="#chemin-images-glyph-2-5" x="235.99" y="13.61"/>
<use xlink:href="#chemin-images-glyph-2-16" x="239.26" y="13.61"/>
</g>
<path fill="none" stroke-width="0.79" stroke-linecap="butt" stroke-linejoin="miter" style="stroke:var(--fig-line)" stroke-opacity="1" stroke-miterlimit="10" d="M 0.00 -18.11 L 0.00 -45.35 L 74.97 -45.35 " transform="matrix(0.996794, 0, 0, -0.996794, 55.443384, 23.592112)"/>
<path fill-rule="nonzero" style="fill:var(--fig-line);stroke:var(--fig-line)" fill-opacity="1" stroke-width="0.79" stroke-linecap="butt" stroke-linejoin="miter" stroke-opacity="1" stroke-miterlimit="10" d="M 5.66 0.00 L 1.28 1.65 L 2.74 0.00 L 1.28 -1.65 Z M 5.66 0.00 " transform="matrix(0.996794, 0, 0, -0.996794, 127.647488, 68.801748)"/>
<path fill-rule="nonzero" style="fill:var(--fig-paper)" fill-opacity="1" d="M 71.00 77.76 L 118.87 77.76 L 118.87 69.19 L 71.00 69.19 Z M 71.00 77.76 "/>
<g style="fill:var(--fig-muted)" fill-opacity="1">
<use xlink:href="#chemin-images-glyph-1-26" x="71.99" y="75.31"/>
<use xlink:href="#chemin-images-glyph-1-1" x="76.16" y="75.31"/>
<use xlink:href="#chemin-images-glyph-1-0" x="80.33" y="75.31"/>
<use xlink:href="#chemin-images-glyph-1-22" x="84.50" y="75.31"/>
<use xlink:href="#chemin-images-glyph-1-11" x="88.67" y="75.31"/>
<use xlink:href="#chemin-images-glyph-1-14" x="92.85" y="75.31"/>
</g>
<g style="fill:var(--fig-muted)" fill-opacity="1">
<use xlink:href="#chemin-images-glyph-1-25" x="101.19" y="75.31"/>
<use xlink:href="#chemin-images-glyph-1-23" x="105.36" y="75.31"/>
<use xlink:href="#chemin-images-glyph-1-4" x="109.53" y="75.31"/>
<use xlink:href="#chemin-images-glyph-1-18" x="113.70" y="75.31"/>
</g>
<path fill="none" stroke-width="0.79" stroke-linecap="butt" stroke-linejoin="miter" style="stroke:var(--fig-line)" stroke-opacity="1" stroke-miterlimit="10" d="M 181.55 -45.35 L 283.46 -45.35 L 283.46 -23.94 " transform="matrix(0.996794, 0, 0, -0.996794, 55.443384, 23.592112)"/>
<path fill-rule="nonzero" style="fill:var(--fig-line);stroke:var(--fig-line)" fill-opacity="1" stroke-width="0.79" stroke-linecap="butt" stroke-linejoin="miter" stroke-opacity="1" stroke-miterlimit="10" d="M 5.66 -0.00 L 1.28 1.65 L 2.73 -0.00 L 1.28 -1.65 Z M 5.66 -0.00 " transform="matrix(0, -0.996794, -0.996794, 0, 338.002587, 49.993338)"/>
<path fill-rule="nonzero" style="fill:var(--fig-paper)" fill-opacity="1" d="M 244.80 77.48 L 349.92 77.48 L 349.92 69.19 L 244.80 69.19 Z M 244.80 77.48 "/>
<g style="fill:var(--fig-muted)" fill-opacity="1">
<use xlink:href="#chemin-images-glyph-2-17" x="245.80" y="75.15"/>
<use xlink:href="#chemin-images-glyph-2-13" x="249.60" y="75.15"/>
</g>
<g style="fill:var(--fig-muted)" fill-opacity="1">
<use xlink:href="#chemin-images-glyph-2-18" x="253.66" y="75.15"/>
</g>
<g style="fill:var(--fig-muted)" fill-opacity="1">
<use xlink:href="#chemin-images-glyph-2-4" x="255.46" y="75.15"/>
</g>
<g style="fill:var(--fig-muted)" fill-opacity="1">
<use xlink:href="#chemin-images-glyph-2-19" x="261.14" y="75.15"/>
<use xlink:href="#chemin-images-glyph-2-7" x="264.56" y="75.15"/>
<use xlink:href="#chemin-images-glyph-2-20" x="268.31" y="75.15"/>
</g>
<g style="fill:var(--fig-muted)" fill-opacity="1">
<use xlink:href="#chemin-images-glyph-2-4" x="272.27" y="75.15"/>
<use xlink:href="#chemin-images-glyph-2-18" x="276.01" y="75.15"/>
</g>
<g style="fill:var(--fig-muted)" fill-opacity="1">
<use xlink:href="#chemin-images-glyph-2-4" x="277.81" y="75.15"/>
</g>
<g style="fill:var(--fig-muted)" fill-opacity="1">
<use xlink:href="#chemin-images-glyph-2-21" x="281.53" y="75.15"/>
</g>
<g style="fill:var(--fig-muted)" fill-opacity="1">
<use xlink:href="#chemin-images-glyph-2-21" x="285.73" y="75.15"/>
</g>
<g style="fill:var(--fig-muted)" fill-opacity="1">
<use xlink:href="#chemin-images-glyph-2-0" x="288.04" y="75.15"/>
<use xlink:href="#chemin-images-glyph-2-22" x="289.79" y="75.15"/>
</g>
<g style="fill:var(--fig-muted)" fill-opacity="1">
<use xlink:href="#chemin-images-glyph-2-4" x="292.13" y="75.15"/>
</g>
<g style="fill:var(--fig-muted)" fill-opacity="1">
<use xlink:href="#chemin-images-glyph-2-18" x="297.81" y="75.15"/>
<use xlink:href="#chemin-images-glyph-2-23" x="299.63" y="75.15"/>
<use xlink:href="#chemin-images-glyph-2-0" x="301.27" y="75.15"/>
<use xlink:href="#chemin-images-glyph-2-1" x="303.03" y="75.15"/>
<use xlink:href="#chemin-images-glyph-2-2" x="308.90" y="75.15"/>
<use xlink:href="#chemin-images-glyph-2-3" x="312.55" y="75.15"/>
<use xlink:href="#chemin-images-glyph-2-4" x="316.43" y="75.15"/>
</g>
<g style="fill:var(--fig-muted)" fill-opacity="1">
<use xlink:href="#chemin-images-glyph-2-14" x="322.12" y="75.15"/>
<use xlink:href="#chemin-images-glyph-2-17" x="324.19" y="75.15"/>
<use xlink:href="#chemin-images-glyph-2-17" x="328.00" y="75.15"/>
</g>
<g style="fill:var(--fig-muted)" fill-opacity="1">
<use xlink:href="#chemin-images-glyph-2-24" x="331.75" y="75.15"/>
</g>
<g style="fill:var(--fig-muted)" fill-opacity="1">
<use xlink:href="#chemin-images-glyph-2-1" x="337.69" y="75.15"/>
<use xlink:href="#chemin-images-glyph-2-5" x="343.57" y="75.15"/>
<use xlink:href="#chemin-images-glyph-2-16" x="346.84" y="75.15"/>
</g>
<g style="fill:var(--fig-muted)" fill-opacity="1">
<use xlink:href="#chemin-images-glyph-1-18" x="242.61" y="108.51"/>
<use xlink:href="#chemin-images-glyph-1-1" x="246.78" y="108.51"/>
<use xlink:href="#chemin-images-glyph-1-4" x="250.95" y="108.51"/>
<use xlink:href="#chemin-images-glyph-1-16" x="255.12" y="108.51"/>
<use xlink:href="#chemin-images-glyph-1-7" x="259.29" y="108.51"/>
<use xlink:href="#chemin-images-glyph-1-20" x="263.46" y="108.51"/>
<use xlink:href="#chemin-images-glyph-1-3" x="267.63" y="108.51"/>
<use xlink:href="#chemin-images-glyph-1-21" x="271.80" y="108.51"/>
<use xlink:href="#chemin-images-glyph-1-3" x="275.98" y="108.51"/>
<use xlink:href="#chemin-images-glyph-1-22" x="280.15" y="108.51"/>
<use xlink:href="#chemin-images-glyph-1-23" x="284.32" y="108.51"/>
<use xlink:href="#chemin-images-glyph-1-12" x="288.49" y="108.51"/>
<use xlink:href="#chemin-images-glyph-1-11" x="292.66" y="108.51"/>
<use xlink:href="#chemin-images-glyph-1-7" x="296.83" y="108.51"/>
<use xlink:href="#chemin-images-glyph-1-3" x="301.00" y="108.51"/>
<use xlink:href="#chemin-images-glyph-1-21" x="305.17" y="108.51"/>
<use xlink:href="#chemin-images-glyph-1-16" x="309.34" y="108.51"/>
<use xlink:href="#chemin-images-glyph-1-11" x="313.51" y="108.51"/>
<use xlink:href="#chemin-images-glyph-1-14" x="317.68" y="108.51"/>
<use xlink:href="#chemin-images-glyph-1-21" x="321.86" y="108.51"/>
<use xlink:href="#chemin-images-glyph-1-17" x="326.03" y="108.51"/>
<use xlink:href="#chemin-images-glyph-1-2" x="330.20" y="108.51"/>
</g>
<g style="fill:var(--fig-muted)" fill-opacity="1">
<use xlink:href="#chemin-images-glyph-2-25" x="336.31" y="108.51"/>
</g>
<g style="fill:var(--fig-muted)" fill-opacity="1">
<use xlink:href="#chemin-images-glyph-2-18" x="342.63" y="108.51"/>
</g>
<g style="fill:var(--fig-muted)" fill-opacity="1">
<use xlink:href="#chemin-images-glyph-2-4" x="344.43" y="108.51"/>
</g>
<g style="fill:var(--fig-muted)" fill-opacity="1">
<use xlink:href="#chemin-images-glyph-2-26" x="350.11" y="108.51"/>
</g>
<g style="fill:var(--fig-muted)" fill-opacity="1">
<use xlink:href="#chemin-images-glyph-2-9" x="354.06" y="108.51"/>
</g>
<g style="fill:var(--fig-muted)" fill-opacity="1">
<use xlink:href="#chemin-images-glyph-2-5" x="357.83" y="108.51"/>
</g>
<g style="fill:var(--fig-muted)" fill-opacity="1">
<use xlink:href="#chemin-images-glyph-2-21" x="361.09" y="108.51"/>
</g>
<g style="fill:var(--fig-muted)" fill-opacity="1">
<use xlink:href="#chemin-images-glyph-2-4" x="363.27" y="108.51"/>
<use xlink:href="#chemin-images-glyph-2-11" x="367.01" y="108.51"/>
</g>
<g style="fill:var(--fig-muted)" fill-opacity="1">
<use xlink:href="#chemin-images-glyph-2-27" x="370.34" y="108.51"/>
<use xlink:href="#chemin-images-glyph-2-7" x="373.55" y="108.51"/>
</g>
<g style="fill:var(--fig-muted)" fill-opacity="1">
<use xlink:href="#chemin-images-glyph-2-6" x="379.25" y="108.51"/>
<use xlink:href="#chemin-images-glyph-2-7" x="383.17" y="108.51"/>
</g>
<g style="fill:var(--fig-muted)" fill-opacity="1">
<use xlink:href="#chemin-images-glyph-2-28" x="388.87" y="108.51"/>
<use xlink:href="#chemin-images-glyph-2-29" x="392.69" y="108.51"/>
<use xlink:href="#chemin-images-glyph-2-7" x="399.11" y="108.51"/>
<use xlink:href="#chemin-images-glyph-2-6" x="402.87" y="108.51"/>
</g>
<g style="fill:var(--fig-muted)" fill-opacity="1">
<use xlink:href="#chemin-images-glyph-2-30" x="408.73" y="108.51"/>
</g>
<g style="fill:var(--fig-muted)" fill-opacity="1">
<use xlink:href="#chemin-images-glyph-2-31" x="242.61" y="116.45"/>
<use xlink:href="#chemin-images-glyph-2-32" x="247.43" y="116.45"/>
</g>
<g style="fill:var(--fig-muted)" fill-opacity="1">
<use xlink:href="#chemin-images-glyph-2-32" x="251.45" y="116.45"/>
<use xlink:href="#chemin-images-glyph-2-8" x="255.33" y="116.45"/>
</g>
<g style="fill:var(--fig-muted)" fill-opacity="1">
<use xlink:href="#chemin-images-glyph-2-2" x="261.18" y="116.45"/>
</g>
<g style="fill:var(--fig-muted)" fill-opacity="1">
<use xlink:href="#chemin-images-glyph-2-7" x="264.77" y="116.45"/>
<use xlink:href="#chemin-images-glyph-2-21" x="268.52" y="116.45"/>
</g>
<g style="fill:var(--fig-muted)" fill-opacity="1">
<use xlink:href="#chemin-images-glyph-2-9" x="270.71" y="116.45"/>
<use xlink:href="#chemin-images-glyph-2-22" x="274.52" y="116.45"/>
</g>
<g style="fill:var(--fig-muted)" fill-opacity="1">
<use xlink:href="#chemin-images-glyph-2-0" x="277.15" y="116.45"/>
<use xlink:href="#chemin-images-glyph-2-5" x="278.90" y="116.45"/>
</g>
<g style="fill:var(--fig-muted)" fill-opacity="1">
<use xlink:href="#chemin-images-glyph-2-33" x="282.16" y="116.45"/>
</g>
<g style="fill:var(--fig-muted)" fill-opacity="1">
<use xlink:href="#chemin-images-glyph-2-26" x="287.85" y="116.45"/>
<use xlink:href="#chemin-images-glyph-2-2" x="291.78" y="116.45"/>
<use xlink:href="#chemin-images-glyph-2-22" x="295.43" y="116.45"/>
</g>
<g style="fill:var(--fig-muted)" fill-opacity="1">
<use xlink:href="#chemin-images-glyph-1-24" x="299.67" y="116.45"/>
<use xlink:href="#chemin-images-glyph-1-11" x="303.84" y="116.45"/>
<use xlink:href="#chemin-images-glyph-1-16" x="308.01" y="116.45"/>
<use xlink:href="#chemin-images-glyph-1-0" x="312.18" y="116.45"/>
<use xlink:href="#chemin-images-glyph-1-24" x="316.35" y="116.45"/>
<use xlink:href="#chemin-images-glyph-1-0" x="320.52" y="116.45"/>
<use xlink:href="#chemin-images-glyph-1-1" x="324.69" y="116.45"/>
<use xlink:href="#chemin-images-glyph-1-21" x="328.86" y="116.45"/>
<use xlink:href="#chemin-images-glyph-1-16" x="333.03" y="116.45"/>
<use xlink:href="#chemin-images-glyph-1-17" x="337.20" y="116.45"/>
<use xlink:href="#chemin-images-glyph-1-3" x="341.37" y="116.45"/>
<use xlink:href="#chemin-images-glyph-1-21" x="345.55" y="116.45"/>
<use xlink:href="#chemin-images-glyph-1-11" x="349.72" y="116.45"/>
<use xlink:href="#chemin-images-glyph-1-14" x="353.89" y="116.45"/>
<use xlink:href="#chemin-images-glyph-1-26" x="358.06" y="116.45"/>
<use xlink:href="#chemin-images-glyph-1-24" x="362.23" y="116.45"/>
<use xlink:href="#chemin-images-glyph-1-0" x="366.40" y="116.45"/>
<use xlink:href="#chemin-images-glyph-1-11" x="370.57" y="116.45"/>
<use xlink:href="#chemin-images-glyph-1-14" x="374.74" y="116.45"/>
<use xlink:href="#chemin-images-glyph-1-16" x="378.91" y="116.45"/>
<use xlink:href="#chemin-images-glyph-1-4" x="383.08" y="116.45"/>
<use xlink:href="#chemin-images-glyph-1-7" x="387.25" y="116.45"/>
<use xlink:href="#chemin-images-glyph-1-26" x="391.43" y="116.45"/>
<use xlink:href="#chemin-images-glyph-1-24" x="395.60" y="116.45"/>
<use xlink:href="#chemin-images-glyph-1-7" x="399.77" y="116.45"/>
<use xlink:href="#chemin-images-glyph-1-7" x="403.94" y="116.45"/>
<use xlink:href="#chemin-images-glyph-1-7" x="408.11" y="116.45"/>
<use xlink:href="#chemin-images-glyph-1-24" x="412.28" y="116.45"/>
<use xlink:href="#chemin-images-glyph-1-18" x="416.45" y="116.45"/>
<use xlink:href="#chemin-images-glyph-1-1" x="420.62" y="116.45"/>
<use xlink:href="#chemin-images-glyph-1-4" x="424.79" y="116.45"/>
<use xlink:href="#chemin-images-glyph-1-16" x="428.96" y="116.45"/>
<use xlink:href="#chemin-images-glyph-1-4" x="433.13" y="116.45"/>
<use xlink:href="#chemin-images-glyph-1-7" x="437.31" y="116.45"/>
<use xlink:href="#chemin-images-glyph-1-16" x="441.48" y="116.45"/>
<use xlink:href="#chemin-images-glyph-1-1" x="445.65" y="116.45"/>
<use xlink:href="#chemin-images-glyph-1-20" x="449.82" y="116.45"/>
<use xlink:href="#chemin-images-glyph-1-2" x="453.99" y="116.45"/>
</g>
</svg>
