<?xml version="1.0" encoding="UTF-8"?>
<svg xmlns="http://www.w3.org/2000/svg" xmlns:xlink="http://www.w3.org/1999/xlink" viewBox="0 0 424.59 135.21">
<defs>
<g>
<g id="helm-kustomize-glyph-0-0">
<path d="M 3.04 -6.81 C 3.04 -6.84 3.05 -6.86 3.07 -6.89 C 3.09 -6.92 3.12 -6.93 3.15 -6.93 L 4.07 -6.93 C 4.10 -6.93 4.13 -6.92 4.15 -6.89 C 4.17 -6.86 4.18 -6.84 4.18 -6.81 L 4.18 -0.12 C 4.18 -0.08 4.17 -0.05 4.15 -0.03 C 4.13 -0.00 4.10 0 4.07 0 L 3.15 0 C 3.12 0 3.09 -0.00 3.07 -0.03 C 3.05 -0.05 3.04 -0.08 3.04 -0.12 L 3.04 -2.92 C 3.04 -2.95 3.02 -2.96 2.98 -2.96 L 1.73 -2.96 C 1.70 -2.96 1.68 -2.95 1.68 -2.92 L 1.68 -0.12 C 1.68 -0.08 1.67 -0.05 1.64 -0.03 C 1.61 -0.00 1.59 0 1.56 0 L 0.65 0 C 0.62 0 0.59 -0.00 0.56 -0.03 C 0.53 -0.05 0.53 -0.08 0.53 -0.12 L 0.53 -6.81 C 0.53 -6.84 0.53 -6.86 0.56 -6.89 C 0.59 -6.92 0.62 -6.93 0.65 -6.93 L 1.56 -6.93 C 1.59 -6.93 1.61 -6.92 1.64 -6.89 C 1.67 -6.86 1.68 -6.84 1.68 -6.81 L 1.68 -4.01 C 1.68 -3.98 1.70 -3.96 1.73 -3.96 L 2.98 -3.96 C 3.02 -3.96 3.04 -3.98 3.04 -4.01 Z M 3.04 -6.81 "/>
</g>
<g id="helm-kustomize-glyph-0-1">
<path d="M 3.89 -2.23 C 3.89 -2.19 3.87 -2.16 3.84 -2.14 C 3.82 -2.11 3.79 -2.10 3.76 -2.10 L 1.57 -2.10 C 1.54 -2.10 1.53 -2.09 1.53 -2.06 L 1.53 -1.60 C 1.53 -1.41 1.58 -1.24 1.68 -1.10 C 1.80 -0.97 1.94 -0.90 2.12 -0.90 C 2.28 -0.90 2.41 -0.95 2.51 -1.04 C 2.62 -1.14 2.70 -1.27 2.73 -1.42 C 2.75 -1.49 2.79 -1.53 2.85 -1.53 L 3.75 -1.48 C 3.78 -1.48 3.80 -1.47 3.82 -1.45 C 3.84 -1.42 3.85 -1.39 3.85 -1.35 C 3.80 -0.89 3.63 -0.53 3.34 -0.28 C 3.05 -0.03 2.64 0.07 2.12 0.07 C 1.58 0.07 1.15 -0.06 0.84 -0.34 C 0.53 -0.63 0.37 -1.03 0.37 -1.53 L 0.37 -3.53 C 0.37 -4.01 0.53 -4.41 0.84 -4.70 C 1.15 -4.99 1.58 -5.14 2.12 -5.14 C 2.66 -5.14 3.09 -4.99 3.40 -4.70 C 3.72 -4.41 3.89 -4.01 3.89 -3.53 Z M 2.12 -4.15 C 1.94 -4.15 1.80 -4.08 1.68 -3.95 C 1.58 -3.81 1.53 -3.64 1.53 -3.45 L 1.53 -3 C 1.53 -2.96 1.54 -2.95 1.57 -2.95 L 2.68 -2.95 C 2.72 -2.95 2.75 -2.96 2.75 -3 L 2.75 -3.45 C 2.75 -3.66 2.69 -3.82 2.57 -3.95 C 2.46 -4.08 2.31 -4.15 2.12 -4.15 Z M 2.12 -4.15 "/>
</g>
<g id="helm-kustomize-glyph-0-2">
<path d="M 0.53 0 C 0.5 0 0.47 -0.00 0.45 -0.03 C 0.42 -0.05 0.42 -0.08 0.42 -0.12 L 0.42 -6.81 C 0.42 -6.84 0.42 -6.86 0.45 -6.89 C 0.47 -6.92 0.5 -6.93 0.53 -6.93 L 1.45 -6.93 C 1.48 -6.93 1.50 -6.92 1.53 -6.89 C 1.55 -6.86 1.56 -6.84 1.56 -6.81 L 1.56 -0.12 C 1.56 -0.08 1.55 -0.05 1.53 -0.03 C 1.50 -0.00 1.48 0 1.45 0 Z M 0.53 0 "/>
</g>
<g id="helm-kustomize-glyph-0-3">
<path d="M 4.85 -5.14 C 5.29 -5.14 5.62 -4.98 5.84 -4.68 C 6.06 -4.38 6.17 -3.96 6.17 -3.43 L 6.17 -0.12 C 6.17 -0.08 6.16 -0.05 6.14 -0.03 C 6.11 -0.00 6.08 0 6.04 0 L 5.15 0 C 5.12 0 5.09 -0.00 5.06 -0.03 C 5.03 -0.05 5.03 -0.08 5.03 -0.12 L 5.03 -3.35 C 5.03 -3.60 4.97 -3.80 4.87 -3.93 C 4.78 -4.08 4.64 -4.15 4.48 -4.15 C 4.29 -4.15 4.14 -4.08 4.04 -3.93 C 3.94 -3.80 3.89 -3.61 3.89 -3.37 L 3.89 -0.12 C 3.89 -0.08 3.87 -0.05 3.84 -0.03 C 3.82 -0.00 3.79 0 3.76 0 L 2.85 0 C 2.82 0 2.80 -0.00 2.78 -0.03 C 2.75 -0.05 2.75 -0.08 2.75 -0.12 L 2.75 -3.35 C 2.75 -3.60 2.69 -3.80 2.59 -3.93 C 2.48 -4.08 2.35 -4.15 2.18 -4.15 C 2 -4.15 1.85 -4.08 1.75 -3.93 C 1.64 -3.80 1.59 -3.61 1.59 -3.37 L 1.59 -0.12 C 1.59 -0.08 1.58 -0.05 1.56 -0.03 C 1.53 -0.00 1.50 0 1.46 0 L 0.57 0 C 0.54 0 0.51 -0.00 0.48 -0.03 C 0.46 -0.05 0.45 -0.08 0.45 -0.12 L 0.45 -4.93 C 0.45 -4.97 0.46 -5.00 0.48 -5.03 C 0.51 -5.05 0.54 -5.06 0.57 -5.06 L 1.46 -5.06 C 1.50 -5.06 1.53 -5.05 1.56 -5.03 C 1.58 -5.00 1.59 -4.97 1.59 -4.93 L 1.59 -4.78 C 1.59 -4.75 1.59 -4.74 1.60 -4.73 C 1.62 -4.73 1.64 -4.74 1.65 -4.76 C 1.78 -4.89 1.93 -4.99 2.09 -5.04 C 2.25 -5.10 2.42 -5.14 2.57 -5.14 C 3.06 -5.14 3.42 -4.92 3.67 -4.51 C 3.67 -4.49 3.70 -4.50 3.75 -4.54 C 3.88 -4.75 4.05 -4.90 4.25 -5 C 4.45 -5.09 4.66 -5.14 4.85 -5.14 Z M 4.85 -5.14 "/>
</g>
<g id="helm-kustomize-glyph-0-4">
<path d="M 1.26 -3.29 C 1.06 -3.29 0.89 -3.36 0.76 -3.5 C 0.62 -3.63 0.56 -3.80 0.56 -4 C 0.56 -4.20 0.62 -4.37 0.76 -4.5 C 0.89 -4.63 1.06 -4.70 1.26 -4.70 C 1.47 -4.70 1.64 -4.63 1.76 -4.5 C 1.89 -4.37 1.96 -4.20 1.96 -4 C 1.96 -3.80 1.89 -3.63 1.76 -3.5 C 1.62 -3.36 1.46 -3.29 1.26 -3.29 Z M 1.26 -0.01 C 1.06 -0.01 0.89 -0.08 0.76 -0.21 C 0.62 -0.35 0.56 -0.51 0.56 -0.71 C 0.56 -0.92 0.62 -1.09 0.76 -1.21 C 0.89 -1.35 1.06 -1.42 1.26 -1.42 C 1.47 -1.42 1.64 -1.35 1.76 -1.21 C 1.89 -1.09 1.96 -0.92 1.96 -0.71 C 1.96 -0.51 1.89 -0.35 1.76 -0.21 C 1.62 -0.08 1.46 -0.01 1.26 -0.01 Z M 1.26 -0.01 "/>
</g>
<g id="helm-kustomize-glyph-0-5">
<path d="M 2.71 -6.81 C 2.71 -6.84 2.72 -6.86 2.75 -6.89 C 2.78 -6.92 2.81 -6.93 2.84 -6.93 L 3.75 -6.93 C 3.78 -6.93 3.80 -6.92 3.82 -6.89 C 3.85 -6.86 3.87 -6.84 3.87 -6.81 L 3.87 -0.12 C 3.87 -0.08 3.85 -0.05 3.82 -0.03 C 3.80 -0.00 3.78 0 3.75 0 L 2.84 0 C 2.81 0 2.78 -0.00 2.75 -0.03 C 2.72 -0.05 2.71 -0.08 2.71 -0.12 L 2.71 -0.23 C 2.71 -0.25 2.71 -0.26 2.70 -0.26 C 2.69 -0.27 2.67 -0.27 2.67 -0.26 C 2.42 -0.03 2.12 0.07 1.76 0.07 C 1.32 0.07 0.98 -0.06 0.73 -0.35 C 0.49 -0.64 0.37 -1.03 0.37 -1.53 L 0.37 -3.53 C 0.37 -4.03 0.5 -4.43 0.75 -4.71 C 1 -5 1.33 -5.14 1.76 -5.14 C 1.92 -5.14 2.07 -5.10 2.23 -5.04 C 2.39 -4.99 2.54 -4.90 2.67 -4.78 C 2.67 -4.76 2.69 -4.76 2.70 -4.76 C 2.71 -4.77 2.71 -4.78 2.71 -4.81 Z M 2.12 -0.90 C 2.28 -0.90 2.42 -0.95 2.53 -1.06 C 2.63 -1.16 2.69 -1.30 2.71 -1.46 L 2.71 -3.59 C 2.69 -3.75 2.63 -3.89 2.53 -4 C 2.42 -4.10 2.28 -4.15 2.12 -4.15 C 1.94 -4.15 1.80 -4.08 1.68 -3.95 C 1.57 -3.82 1.51 -3.66 1.51 -3.45 L 1.51 -1.60 C 1.51 -1.39 1.57 -1.22 1.68 -1.09 C 1.80 -0.96 1.94 -0.90 2.12 -0.90 Z M 2.12 -0.90 "/>
</g>
<g id="helm-kustomize-glyph-0-6">
<path d="M 2.01 0.06 C 1.49 0.06 1.07 -0.06 0.76 -0.31 C 0.45 -0.56 0.29 -0.90 0.29 -1.34 L 0.29 -1.40 C 0.29 -1.43 0.30 -1.46 0.32 -1.48 C 0.34 -1.51 0.37 -1.53 0.42 -1.53 L 1.26 -1.53 C 1.29 -1.53 1.32 -1.51 1.34 -1.48 C 1.37 -1.46 1.39 -1.43 1.39 -1.40 L 1.39 -1.35 C 1.39 -1.20 1.44 -1.06 1.56 -0.95 C 1.68 -0.84 1.83 -0.79 2.01 -0.79 C 2.19 -0.79 2.32 -0.84 2.42 -0.93 C 2.52 -1.03 2.57 -1.17 2.57 -1.32 C 2.57 -1.46 2.53 -1.57 2.43 -1.65 C 2.35 -1.75 2.25 -1.81 2.15 -1.85 C 2.06 -1.91 1.89 -1.98 1.64 -2.09 C 1.25 -2.23 0.94 -2.42 0.70 -2.64 C 0.46 -2.86 0.34 -3.20 0.34 -3.64 C 0.34 -4.10 0.48 -4.47 0.78 -4.73 C 1.08 -4.99 1.48 -5.12 1.98 -5.12 C 2.49 -5.12 2.89 -4.98 3.20 -4.70 C 3.50 -4.42 3.65 -4.06 3.65 -3.60 C 3.65 -3.57 3.64 -3.54 3.62 -3.51 C 3.60 -3.49 3.57 -3.48 3.53 -3.48 L 2.70 -3.48 C 2.67 -3.48 2.64 -3.49 2.60 -3.51 C 2.58 -3.54 2.57 -3.57 2.57 -3.60 L 2.57 -3.67 C 2.57 -3.82 2.52 -3.95 2.42 -4.06 C 2.31 -4.16 2.17 -4.21 2.01 -4.21 C 1.83 -4.21 1.69 -4.16 1.59 -4.04 C 1.5 -3.94 1.45 -3.81 1.45 -3.67 C 1.45 -3.54 1.48 -3.43 1.56 -3.34 C 1.64 -3.25 1.73 -3.19 1.82 -3.14 C 1.92 -3.09 2.09 -3.02 2.32 -2.92 C 2.60 -2.80 2.84 -2.69 3.03 -2.57 C 3.21 -2.47 3.37 -2.32 3.51 -2.12 C 3.66 -1.92 3.73 -1.67 3.73 -1.37 C 3.73 -0.93 3.57 -0.58 3.26 -0.32 C 2.95 -0.06 2.53 0.06 2.01 0.06 Z M 2.01 0.06 "/>
</g>
<g id="helm-kustomize-glyph-0-7">
<path d="M 2.14 0.07 C 1.58 0.07 1.15 -0.06 0.84 -0.35 C 0.53 -0.64 0.37 -1.03 0.37 -1.53 L 0.37 -3.53 C 0.37 -4.01 0.53 -4.41 0.84 -4.70 C 1.16 -4.99 1.59 -5.14 2.14 -5.14 C 2.69 -5.14 3.12 -4.99 3.43 -4.70 C 3.75 -4.41 3.90 -4.01 3.90 -3.53 L 3.90 -1.53 C 3.90 -1.03 3.75 -0.64 3.43 -0.35 C 3.12 -0.06 2.69 0.07 2.14 0.07 Z M 2.14 -0.92 C 2.32 -0.92 2.47 -0.98 2.59 -1.10 C 2.70 -1.24 2.76 -1.41 2.76 -1.62 L 2.76 -3.45 C 2.76 -3.64 2.70 -3.81 2.59 -3.95 C 2.47 -4.08 2.32 -4.15 2.14 -4.15 C 1.95 -4.15 1.80 -4.08 1.68 -3.95 C 1.58 -3.82 1.53 -3.66 1.53 -3.45 L 1.53 -1.62 C 1.53 -1.41 1.58 -1.24 1.68 -1.10 C 1.80 -0.98 1.95 -0.92 2.14 -0.92 Z M 2.14 -0.92 "/>
</g>
<g id="helm-kustomize-glyph-0-8">
<path d="M 3.89 -2.23 C 3.89 -2.19 3.87 -2.16 3.84 -2.14 C 3.82 -2.11 3.79 -2.10 3.76 -2.10 L 1.57 -2.10 C 1.54 -2.10 1.53 -2.09 1.53 -2.06 L 1.53 -1.60 C 1.53 -1.41 1.58 -1.24 1.68 -1.10 C 1.80 -0.97 1.94 -0.90 2.12 -0.90 C 2.28 -0.90 2.41 -0.95 2.51 -1.04 C 2.62 -1.14 2.70 -1.27 2.73 -1.42 C 2.75 -1.49 2.79 -1.53 2.85 -1.53 L 3.75 -1.48 C 3.78 -1.48 3.80 -1.47 3.82 -1.45 C 3.84 -1.42 3.85 -1.39 3.85 -1.35 C 3.80 -0.89 3.63 -0.53 3.34 -0.28 C 3.05 -0.03 2.64 0.07 2.12 0.07 C 1.58 0.07 1.15 -0.06 0.84 -0.34 C 0.53 -0.63 0.37 -1.03 0.37 -1.53 L 0.37 -3.53 C 0.37 -4.01 0.53 -4.41 0.84 -4.70 C 1.15 -4.99 1.58 -5.14 2.12 -5.14 C 2.66 -5.14 3.09 -4.99 3.40 -4.70 C 3.72 -4.41 3.89 -4.01 3.89 -3.53 Z M 2.12 -4.15 C 1.94 -4.15 1.80 -4.08 1.68 -3.95 C 1.58 -3.81 1.53 -3.64 1.53 -3.45 L 1.53 -3 C 1.53 -2.96 1.54 -2.95 1.57 -2.95 L 2.68 -2.95 C 2.72 -2.95 2.75 -2.96 2.75 -3 L 2.75 -3.45 C 2.75 -3.66 2.69 -3.82 2.57 -3.95 C 2.46 -4.08 2.31 -4.15 2.12 -4.15 Z M 2.46 -5.78 C 2.46 -5.72 2.42 -5.70 2.35 -5.70 L 1.79 -5.70 C 1.73 -5.70 1.68 -5.72 1.65 -5.78 L 0.92 -6.78 C 0.91 -6.81 0.90 -6.83 0.90 -6.85 C 0.90 -6.91 0.94 -6.93 1.01 -6.93 L 1.71 -6.93 C 1.78 -6.93 1.84 -6.91 1.87 -6.85 L 2.45 -5.82 Z M 2.46 -5.78 "/>
</g>
<g id="helm-kustomize-glyph-0-9">
<path d="M 2.57 -4.37 C 2.57 -4.33 2.56 -4.30 2.53 -4.28 C 2.50 -4.25 2.48 -4.25 2.45 -4.25 L 1.84 -4.25 C 1.81 -4.25 1.79 -4.23 1.79 -4.20 L 1.79 -1.60 C 1.79 -1.37 1.83 -1.21 1.92 -1.12 C 2.00 -1.03 2.13 -0.98 2.31 -1 L 2.37 -1 C 2.40 -1 2.42 -0.98 2.45 -0.96 C 2.48 -0.94 2.5 -0.91 2.5 -0.87 L 2.5 -0.12 C 2.5 -0.08 2.48 -0.05 2.45 -0.03 C 2.42 -0.00 2.40 0 2.37 0 L 2.04 0 C 1.58 0 1.24 -0.08 1.01 -0.25 C 0.79 -0.41 0.68 -0.72 0.68 -1.17 L 0.68 -4.20 C 0.68 -4.23 0.67 -4.25 0.64 -4.25 L 0.28 -4.25 C 0.25 -4.25 0.22 -4.25 0.20 -4.28 C 0.17 -4.30 0.17 -4.33 0.17 -4.37 L 0.17 -4.93 C 0.17 -4.97 0.17 -5.00 0.20 -5.03 C 0.22 -5.05 0.25 -5.06 0.28 -5.06 L 0.64 -5.06 C 0.67 -5.06 0.68 -5.07 0.68 -5.10 L 0.68 -6.20 C 0.68 -6.23 0.69 -6.25 0.71 -6.28 C 0.73 -6.30 0.76 -6.31 0.79 -6.31 L 1.67 -6.31 C 1.70 -6.31 1.72 -6.30 1.75 -6.28 C 1.78 -6.25 1.79 -6.23 1.79 -6.20 L 1.79 -5.10 C 1.79 -5.07 1.81 -5.06 1.84 -5.06 L 2.45 -5.06 C 2.48 -5.06 2.50 -5.05 2.53 -5.03 C 2.56 -5.00 2.57 -4.97 2.57 -4.93 Z M 2.57 -4.37 "/>
</g>
<g id="helm-kustomize-glyph-0-10">
<path d="M 1.53 0 C 1.45 0 1.41 -0.03 1.39 -0.09 L 0.18 -4.93 L 0.18 -4.98 C 0.18 -5.04 0.22 -5.07 0.29 -5.07 L 1.31 -5.07 C 1.38 -5.07 1.42 -5.03 1.43 -4.96 L 2.03 -1.87 C 2.03 -1.86 2.05 -1.85 2.06 -1.85 C 2.07 -1.85 2.08 -1.86 2.09 -1.87 L 2.67 -4.96 C 2.67 -5.03 2.72 -5.07 2.79 -5.07 L 3.81 -5.04 C 3.90 -5.04 3.94 -5.00 3.92 -4.92 L 2.71 -0.09 C 2.69 -0.03 2.64 0 2.57 0 Z M 1.53 0 "/>
</g>
<g id="helm-kustomize-glyph-0-11">
<path d="M 2.17 -5.14 C 2.70 -5.14 3.12 -4.98 3.45 -4.68 C 3.77 -4.38 3.93 -3.98 3.93 -3.48 L 3.93 -0.12 C 3.93 -0.08 3.92 -0.05 3.89 -0.03 C 3.86 -0.00 3.84 0 3.81 0 L 2.90 0 C 2.87 0 2.84 -0.00 2.81 -0.03 C 2.78 -0.05 2.78 -0.08 2.78 -0.12 L 2.78 -0.31 C 2.78 -0.33 2.77 -0.34 2.76 -0.34 C 2.75 -0.35 2.73 -0.34 2.71 -0.32 C 2.48 -0.05 2.15 0.07 1.71 0.07 C 1.34 0.07 1.00 -0.02 0.71 -0.23 C 0.42 -0.45 0.28 -0.84 0.28 -1.42 C 0.28 -2.01 0.45 -2.43 0.79 -2.68 C 1.14 -2.93 1.62 -3.06 2.21 -3.06 L 2.73 -3.06 C 2.76 -3.06 2.78 -3.07 2.78 -3.10 L 2.78 -3.37 C 2.78 -3.60 2.71 -3.78 2.59 -3.93 C 2.47 -4.08 2.33 -4.15 2.15 -4.15 C 2.01 -4.15 1.90 -4.10 1.81 -4.01 C 1.71 -3.92 1.66 -3.81 1.64 -3.65 C 1.64 -3.57 1.59 -3.53 1.51 -3.53 L 0.56 -3.53 C 0.47 -3.53 0.44 -3.57 0.45 -3.65 C 0.48 -4.10 0.65 -4.46 0.96 -4.73 C 1.28 -5.00 1.69 -5.14 2.17 -5.14 Z M 2.03 -0.87 C 2.22 -0.87 2.39 -0.93 2.54 -1.06 C 2.70 -1.18 2.78 -1.35 2.78 -1.57 L 2.78 -2.15 C 2.78 -2.18 2.76 -2.20 2.73 -2.20 L 2.21 -2.20 C 1.98 -2.20 1.80 -2.14 1.67 -2.01 C 1.53 -1.89 1.46 -1.71 1.46 -1.48 C 1.46 -1.27 1.51 -1.11 1.62 -1.01 C 1.72 -0.92 1.86 -0.87 2.03 -0.87 Z M 2.03 -0.87 "/>
</g>
<g id="helm-kustomize-glyph-0-12">
<path d="M 2.75 -4.93 C 2.75 -4.97 2.75 -5.00 2.78 -5.03 C 2.80 -5.05 2.82 -5.06 2.85 -5.06 L 3.78 -5.06 C 3.81 -5.06 3.83 -5.05 3.85 -5.03 C 3.87 -5.00 3.89 -4.97 3.89 -4.93 L 3.89 -0.12 C 3.89 -0.08 3.87 -0.05 3.85 -0.03 C 3.83 -0.00 3.81 0 3.78 0 L 2.85 0 C 2.82 0 2.80 -0.00 2.78 -0.03 C 2.75 -0.05 2.75 -0.08 2.75 -0.12 L 2.75 -0.34 C 2.75 -0.35 2.73 -0.36 2.71 -0.37 C 2.70 -0.38 2.69 -0.37 2.68 -0.35 C 2.48 -0.07 2.17 0.06 1.76 0.06 C 1.35 0.06 1.03 -0.05 0.78 -0.29 C 0.53 -0.53 0.42 -0.90 0.42 -1.40 L 0.42 -4.93 C 0.42 -4.97 0.42 -5.00 0.45 -5.03 C 0.47 -5.05 0.5 -5.06 0.53 -5.06 L 1.45 -5.06 C 1.48 -5.06 1.50 -5.05 1.53 -5.03 C 1.55 -5.00 1.56 -4.97 1.56 -4.93 L 1.56 -1.65 C 1.56 -1.15 1.75 -0.90 2.14 -0.90 C 2.32 -0.90 2.47 -0.97 2.57 -1.12 C 2.69 -1.26 2.75 -1.46 2.75 -1.70 Z M 2.75 -4.93 "/>
</g>
<g id="helm-kustomize-glyph-0-13">
<path d="M 2.53 -5.12 C 2.70 -5.12 2.84 -5.08 2.93 -5.01 C 2.98 -4.98 3.00 -4.93 3 -4.87 L 2.84 -3.95 C 2.83 -3.86 2.78 -3.84 2.70 -3.89 C 2.60 -3.91 2.52 -3.92 2.45 -3.92 C 2.36 -3.92 2.29 -3.91 2.23 -3.89 C 2.04 -3.86 1.89 -3.76 1.78 -3.57 C 1.66 -3.39 1.60 -3.18 1.60 -2.93 L 1.60 -0.12 C 1.60 -0.09 1.59 -0.06 1.56 -0.04 C 1.53 -0.02 1.51 -0.01 1.48 -0.01 L 0.57 -0.01 C 0.54 -0.01 0.51 -0.02 0.48 -0.04 C 0.46 -0.06 0.45 -0.09 0.45 -0.12 L 0.45 -4.93 C 0.45 -4.97 0.46 -5.00 0.48 -5.03 C 0.51 -5.05 0.54 -5.06 0.57 -5.06 L 1.48 -5.06 C 1.51 -5.06 1.53 -5.05 1.56 -5.03 C 1.59 -5.00 1.60 -4.97 1.60 -4.93 L 1.60 -4.48 C 1.60 -4.46 1.61 -4.44 1.62 -4.43 C 1.63 -4.43 1.64 -4.45 1.65 -4.48 C 1.83 -4.91 2.12 -5.12 2.53 -5.12 Z M 2.53 -5.12 "/>
</g>
<g id="helm-kustomize-glyph-0-14">
<path d="M 0.65 0 C 0.62 0 0.59 -0.00 0.56 -0.03 C 0.53 -0.05 0.53 -0.08 0.53 -0.12 L 0.53 -6.81 C 0.53 -6.84 0.53 -6.86 0.56 -6.89 C 0.59 -6.92 0.62 -6.93 0.65 -6.93 L 1.56 -6.93 C 1.59 -6.93 1.61 -6.92 1.64 -6.89 C 1.67 -6.86 1.68 -6.84 1.68 -6.81 L 1.68 -4.07 C 1.68 -4.05 1.69 -4.03 1.70 -4.03 C 1.71 -4.03 1.72 -4.03 1.75 -4.06 L 3.23 -6.84 C 3.26 -6.90 3.31 -6.93 3.37 -6.93 L 4.35 -6.93 C 4.39 -6.93 4.42 -6.92 4.43 -6.89 C 4.45 -6.86 4.45 -6.83 4.43 -6.79 L 2.95 -4.01 C 2.94 -3.98 2.93 -3.96 2.93 -3.95 L 4.54 -0.14 C 4.55 -0.12 4.56 -0.10 4.56 -0.07 C 4.56 -0.02 4.52 0 4.45 0 L 3.48 0 C 3.41 0 3.36 -0.03 3.34 -0.09 L 2.17 -2.95 C 2.16 -2.97 2.14 -2.97 2.14 -2.96 C 2.12 -2.96 2.11 -2.96 2.09 -2.95 L 1.70 -2.28 C 1.69 -2.25 1.68 -2.24 1.68 -2.23 L 1.68 -0.12 C 1.68 -0.08 1.67 -0.05 1.64 -0.03 C 1.61 -0.00 1.59 0 1.56 0 Z M 0.65 0 "/>
</g>
<g id="helm-kustomize-glyph-0-15">
<path d="M 1.06 -5.75 C 0.85 -5.75 0.67 -5.81 0.54 -5.95 C 0.42 -6.08 0.35 -6.25 0.35 -6.45 C 0.35 -6.66 0.42 -6.82 0.54 -6.95 C 0.67 -7.08 0.85 -7.15 1.06 -7.15 C 1.25 -7.15 1.42 -7.08 1.54 -6.95 C 1.67 -6.82 1.75 -6.66 1.75 -6.45 C 1.75 -6.25 1.67 -6.08 1.54 -5.95 C 1.42 -5.81 1.25 -5.75 1.06 -5.75 Z M 0.60 0 C 0.57 0 0.55 -0.00 0.53 -0.03 C 0.50 -0.05 0.5 -0.08 0.5 -0.12 L 0.5 -4.93 C 0.5 -4.97 0.50 -5.00 0.53 -5.03 C 0.55 -5.05 0.57 -5.06 0.60 -5.06 L 1.53 -5.06 C 1.56 -5.06 1.58 -5.05 1.60 -5.03 C 1.62 -5.00 1.64 -4.97 1.64 -4.93 L 1.64 -0.12 C 1.64 -0.08 1.62 -0.05 1.60 -0.03 C 1.58 -0.00 1.56 0 1.53 0 Z M 0.60 0 "/>
</g>
<g id="helm-kustomize-glyph-0-16">
<path d="M 0.35 0 C 0.32 0 0.29 -0.00 0.26 -0.03 C 0.24 -0.05 0.23 -0.08 0.23 -0.12 L 0.23 -0.95 C 0.23 -1.01 0.25 -1.06 0.28 -1.10 L 1.98 -3.96 C 2.00 -4 1.99 -4.01 1.95 -4.01 L 0.39 -4.01 C 0.35 -4.01 0.33 -4.02 0.31 -4.04 C 0.28 -4.07 0.28 -4.10 0.28 -4.14 L 0.28 -4.93 C 0.28 -4.97 0.28 -5.00 0.31 -5.03 C 0.33 -5.05 0.35 -5.06 0.39 -5.06 L 3.26 -5.06 C 3.29 -5.06 3.32 -5.05 3.34 -5.03 C 3.36 -5.00 3.37 -4.97 3.37 -4.93 L 3.37 -4.09 C 3.37 -4.03 3.36 -3.99 3.34 -3.95 L 1.57 -1.09 C 1.56 -1.06 1.57 -1.04 1.60 -1.04 L 3.31 -1.04 C 3.34 -1.04 3.36 -1.03 3.39 -1 C 3.41 -0.97 3.42 -0.95 3.42 -0.92 L 3.42 -0.12 C 3.42 -0.08 3.41 -0.05 3.39 -0.03 C 3.36 -0.00 3.34 0 3.31 0 Z M 0.35 0 "/>
</g>
<g id="helm-kustomize-glyph-0-17">
<path d="M 1.79 -0.01 C 1.76 -0.01 1.73 -0.02 1.71 -0.04 C 1.69 -0.06 1.68 -0.09 1.68 -0.12 L 1.68 -2.82 L 1.67 -2.89 L 0.29 -6.79 C 0.28 -6.80 0.28 -6.82 0.28 -6.84 C 0.28 -6.90 0.31 -6.93 0.39 -6.93 L 1.34 -6.93 C 1.41 -6.93 1.46 -6.89 1.48 -6.82 L 2.23 -4.29 C 2.23 -4.27 2.23 -4.26 2.25 -4.26 C 2.26 -4.26 2.28 -4.27 2.28 -4.29 L 3.03 -6.82 C 3.05 -6.89 3.09 -6.93 3.17 -6.93 L 4.12 -6.93 C 4.16 -6.93 4.19 -6.92 4.20 -6.89 C 4.22 -6.86 4.22 -6.83 4.21 -6.79 L 2.84 -2.89 L 2.82 -2.82 L 2.82 -0.12 C 2.82 -0.09 2.81 -0.06 2.79 -0.04 C 2.77 -0.02 2.75 -0.01 2.71 -0.01 Z M 1.79 -0.01 "/>
</g>
<g id="helm-kustomize-glyph-0-18">
<path d="M 3.34 0 C 3.26 0 3.22 -0.03 3.21 -0.10 L 3.03 -1.15 C 3.03 -1.18 3.00 -1.20 2.96 -1.20 L 1.53 -1.20 C 1.48 -1.20 1.46 -1.18 1.46 -1.15 L 1.28 -0.10 C 1.26 -0.03 1.22 0 1.15 0 L 0.25 0 C 0.15 0 0.11 -0.03 0.14 -0.12 L 1.60 -6.82 C 1.61 -6.89 1.66 -6.93 1.73 -6.93 L 2.78 -6.93 C 2.85 -6.93 2.89 -6.89 2.90 -6.82 L 4.37 -0.12 L 4.37 -0.09 C 4.37 -0.03 4.33 0 4.26 0 Z M 1.64 -2.15 C 1.64 -2.11 1.65 -2.09 1.68 -2.09 L 2.79 -2.09 C 2.83 -2.09 2.85 -2.11 2.84 -2.15 L 2.26 -5.28 C 2.26 -5.30 2.25 -5.31 2.23 -5.31 C 2.22 -5.31 2.21 -5.30 2.20 -5.28 Z M 1.64 -2.15 "/>
</g>
<g id="helm-kustomize-glyph-0-19">
<path d="M 3.64 -6.85 C 3.67 -6.91 3.72 -6.93 3.79 -6.93 L 4.70 -6.93 C 4.73 -6.93 4.75 -6.92 4.78 -6.89 C 4.81 -6.86 4.82 -6.84 4.82 -6.81 L 4.82 -0.12 C 4.82 -0.08 4.81 -0.05 4.78 -0.03 C 4.75 -0.00 4.73 0 4.70 0 L 3.79 0 C 3.76 0 3.73 -0.00 3.70 -0.03 C 3.67 -0.05 3.67 -0.08 3.67 -0.12 L 3.67 -4.79 C 3.67 -4.81 3.66 -4.82 3.65 -4.82 C 3.64 -4.82 3.62 -4.81 3.60 -4.79 L 2.75 -3.23 C 2.71 -3.17 2.69 -3.15 2.67 -3.15 C 2.64 -3.15 2.60 -3.17 2.57 -3.23 L 1.71 -4.79 C 1.69 -4.81 1.67 -4.82 1.67 -4.82 C 1.66 -4.82 1.65 -4.81 1.65 -4.79 L 1.65 -0.12 C 1.65 -0.08 1.64 -0.05 1.60 -0.03 C 1.58 -0.00 1.56 0 1.53 0 L 0.62 0 C 0.59 0 0.56 -0.00 0.53 -0.03 C 0.50 -0.05 0.5 -0.08 0.5 -0.12 L 0.5 -6.81 C 0.5 -6.84 0.50 -6.86 0.53 -6.89 C 0.56 -6.92 0.59 -6.93 0.62 -6.93 L 1.53 -6.93 C 1.60 -6.93 1.65 -6.91 1.68 -6.85 L 2.64 -5.15 C 2.66 -5.13 2.67 -5.13 2.70 -5.15 Z M 3.64 -6.85 "/>
</g>
<g id="helm-kustomize-glyph-0-20">
<path d="M 0.65 0 C 0.62 0 0.59 -0.00 0.56 -0.03 C 0.53 -0.05 0.53 -0.08 0.53 -0.12 L 0.53 -6.81 C 0.53 -6.84 0.53 -6.86 0.56 -6.89 C 0.59 -6.92 0.62 -6.93 0.65 -6.93 L 1.56 -6.93 C 1.59 -6.93 1.61 -6.92 1.64 -6.89 C 1.67 -6.86 1.68 -6.84 1.68 -6.81 L 1.68 -1.04 C 1.68 -1.00 1.70 -0.98 1.73 -0.98 L 3.87 -0.98 C 3.90 -0.98 3.92 -0.97 3.95 -0.95 C 3.98 -0.92 4 -0.90 4 -0.87 L 4 -0.12 C 4 -0.08 3.98 -0.05 3.95 -0.03 C 3.92 -0.00 3.90 0 3.87 0 Z M 0.65 0 "/>
</g>
<g id="helm-kustomize-glyph-0-21">
<path d="M 2.12 0.07 C 1.58 0.07 1.15 -0.06 0.84 -0.35 C 0.53 -0.64 0.37 -1.03 0.37 -1.53 L 0.37 -3.53 C 0.37 -4.01 0.53 -4.41 0.84 -4.70 C 1.15 -4.99 1.58 -5.14 2.12 -5.14 C 2.66 -5.14 3.09 -4.99 3.40 -4.70 C 3.72 -4.42 3.89 -4.05 3.89 -3.60 L 3.89 -3.48 C 3.89 -3.44 3.87 -3.41 3.85 -3.39 C 3.83 -3.36 3.81 -3.35 3.78 -3.35 L 2.85 -3.31 C 2.78 -3.31 2.75 -3.35 2.75 -3.43 L 2.75 -3.53 C 2.75 -3.69 2.68 -3.84 2.56 -3.96 C 2.44 -4.09 2.30 -4.15 2.12 -4.15 C 1.94 -4.15 1.80 -4.08 1.68 -3.95 C 1.58 -3.81 1.53 -3.64 1.53 -3.45 L 1.53 -1.60 C 1.53 -1.41 1.58 -1.24 1.68 -1.10 C 1.80 -0.97 1.94 -0.90 2.12 -0.90 C 2.30 -0.90 2.44 -0.96 2.56 -1.09 C 2.68 -1.21 2.75 -1.36 2.75 -1.53 L 2.75 -1.64 C 2.75 -1.67 2.75 -1.69 2.78 -1.71 C 2.80 -1.73 2.82 -1.75 2.85 -1.75 L 3.78 -1.75 C 3.81 -1.75 3.83 -1.73 3.85 -1.70 C 3.87 -1.67 3.89 -1.65 3.89 -1.62 L 3.89 -1.45 C 3.89 -0.99 3.72 -0.62 3.40 -0.34 C 3.09 -0.06 2.66 0.07 2.12 0.07 Z M 2.12 0.07 "/>
</g>
<g id="helm-kustomize-glyph-0-22">
<path d="M 2.5 -5.06 C 2.53 -5.06 2.57 -5.05 2.59 -5.03 C 2.61 -5.00 2.62 -4.97 2.62 -4.93 L 2.62 -4.35 C 2.62 -4.32 2.61 -4.29 2.59 -4.26 C 2.57 -4.24 2.53 -4.23 2.5 -4.23 L 1.89 -4.23 C 1.85 -4.23 1.84 -4.21 1.84 -4.18 L 1.84 -0.12 C 1.84 -0.08 1.82 -0.05 1.79 -0.03 C 1.77 -0.00 1.75 0 1.71 0 L 0.82 0 C 0.78 0 0.75 -0.00 0.73 -0.03 C 0.71 -0.05 0.70 -0.08 0.70 -0.12 L 0.70 -4.18 C 0.70 -4.21 0.68 -4.23 0.65 -4.23 L 0.34 -4.23 C 0.30 -4.23 0.26 -4.24 0.25 -4.26 C 0.22 -4.29 0.21 -4.32 0.21 -4.35 L 0.21 -4.93 C 0.21 -4.97 0.22 -5.00 0.25 -5.03 C 0.26 -5.05 0.30 -5.06 0.34 -5.06 L 0.65 -5.06 C 0.68 -5.06 0.70 -5.07 0.70 -5.10 L 0.70 -5.35 C 0.70 -5.95 0.83 -6.36 1.10 -6.60 C 1.37 -6.85 1.81 -6.97 2.40 -6.96 L 2.48 -6.96 C 2.51 -6.96 2.53 -6.95 2.56 -6.93 C 2.59 -6.91 2.60 -6.89 2.60 -6.85 L 2.57 -6.18 C 2.57 -6.14 2.56 -6.11 2.54 -6.09 C 2.52 -6.07 2.5 -6.06 2.46 -6.06 L 2.42 -6.06 C 2.22 -6.05 2.07 -5.98 1.98 -5.85 C 1.89 -5.74 1.84 -5.56 1.84 -5.31 L 1.84 -5.10 C 1.84 -5.07 1.85 -5.06 1.89 -5.06 Z M 2.5 -5.06 "/>
</g>
<g id="helm-kustomize-glyph-1-0">
<path d="M 0.5 0 L 0.5 -3.43 L 0.92 -3.43 L 1.07 -2.92 C 1.14 -3.03 1.21 -3.13 1.31 -3.21 C 1.41 -3.30 1.53 -3.36 1.65 -3.42 C 1.78 -3.47 1.94 -3.5 2.10 -3.5 C 2.37 -3.5 2.59 -3.44 2.75 -3.32 C 2.91 -3.22 3.03 -3.07 3.10 -2.89 C 3.24 -3.10 3.41 -3.26 3.60 -3.35 C 3.80 -3.45 4.02 -3.5 4.26 -3.5 C 4.53 -3.5 4.75 -3.44 4.90 -3.32 C 5.07 -3.21 5.19 -3.05 5.26 -2.85 C 5.33 -2.67 5.37 -2.44 5.37 -2.17 L 5.37 0 L 4.79 0 L 4.79 -2 C 4.79 -2.17 4.77 -2.33 4.73 -2.48 C 4.70 -2.64 4.63 -2.76 4.53 -2.85 C 4.42 -2.95 4.26 -3 4.06 -3 C 3.81 -3 3.60 -2.89 3.45 -2.70 C 3.30 -2.51 3.23 -2.23 3.23 -1.85 L 3.23 0 L 2.65 0 L 2.65 -2 C 2.65 -2.17 2.63 -2.33 2.59 -2.48 C 2.56 -2.64 2.49 -2.76 2.39 -2.85 C 2.28 -2.95 2.12 -3 1.92 -3 C 1.75 -3 1.60 -2.95 1.48 -2.85 C 1.35 -2.77 1.25 -2.64 1.18 -2.48 C 1.11 -2.31 1.07 -2.10 1.07 -1.85 L 1.07 0 Z M 0.5 0 "/>
</g>
<g id="helm-kustomize-glyph-1-1">
<path d="M 1.90 0.07 C 1.70 0.07 1.50 0.04 1.31 -0.01 C 1.11 -0.08 0.93 -0.19 0.78 -0.34 C 0.62 -0.48 0.49 -0.67 0.39 -0.89 C 0.29 -1.11 0.25 -1.39 0.25 -1.70 C 0.25 -2.01 0.29 -2.28 0.39 -2.5 C 0.49 -2.72 0.62 -2.91 0.78 -3.06 C 0.93 -3.20 1.11 -3.31 1.31 -3.39 C 1.50 -3.46 1.70 -3.5 1.90 -3.5 C 2.10 -3.5 2.29 -3.46 2.48 -3.39 C 2.67 -3.31 2.85 -3.20 3.01 -3.06 C 3.17 -2.91 3.31 -2.72 3.40 -2.5 C 3.5 -2.28 3.54 -2.01 3.54 -1.70 C 3.54 -1.39 3.5 -1.11 3.40 -0.89 C 3.31 -0.67 3.17 -0.48 3.01 -0.34 C 2.85 -0.19 2.67 -0.08 2.48 -0.01 C 2.29 0.04 2.10 0.07 1.90 0.07 Z M 1.90 -0.43 C 2.08 -0.43 2.24 -0.47 2.39 -0.56 C 2.54 -0.65 2.67 -0.79 2.76 -0.98 C 2.86 -1.17 2.92 -1.41 2.92 -1.70 C 2.92 -2.00 2.86 -2.25 2.76 -2.43 C 2.67 -2.62 2.54 -2.75 2.39 -2.84 C 2.24 -2.93 2.08 -2.98 1.90 -2.98 C 1.72 -2.98 1.56 -2.93 1.40 -2.84 C 1.25 -2.75 1.11 -2.62 1.01 -2.43 C 0.92 -2.25 0.87 -2.00 0.87 -1.70 C 0.87 -1.41 0.92 -1.17 1.01 -0.98 C 1.11 -0.79 1.25 -0.65 1.40 -0.56 C 1.56 -0.47 1.72 -0.43 1.90 -0.43 Z M 1.90 -0.43 "/>
</g>
<g id="helm-kustomize-glyph-1-2">
<path d="M 1.73 0.07 C 1.47 0.07 1.22 0.00 1 -0.12 C 0.76 -0.26 0.58 -0.47 0.45 -0.73 C 0.31 -1.00 0.25 -1.32 0.25 -1.70 C 0.25 -2.08 0.31 -2.41 0.45 -2.67 C 0.58 -2.94 0.76 -3.14 1 -3.28 C 1.22 -3.42 1.47 -3.5 1.73 -3.5 C 2.00 -3.5 2.22 -3.44 2.40 -3.32 C 2.59 -3.22 2.73 -3.08 2.84 -2.90 L 2.84 -4.90 L 3.42 -4.90 L 3.42 -1.29 C 3.42 -1.17 3.42 -1.00 3.43 -0.78 C 3.45 -0.56 3.49 -0.30 3.54 0 L 3 0 L 2.84 -0.51 C 2.75 -0.33 2.60 -0.19 2.42 -0.07 C 2.23 0.02 2.00 0.07 1.73 0.07 Z M 1.87 -0.42 C 2.07 -0.42 2.24 -0.46 2.39 -0.56 C 2.53 -0.66 2.64 -0.81 2.73 -1 C 2.81 -1.19 2.85 -1.42 2.85 -1.70 C 2.85 -2.11 2.76 -2.43 2.59 -2.65 C 2.41 -2.88 2.17 -3 1.87 -3 C 1.58 -3 1.34 -2.88 1.17 -2.65 C 0.99 -2.43 0.90 -2.11 0.90 -1.70 C 0.90 -1.29 0.99 -0.97 1.17 -0.75 C 1.34 -0.53 1.58 -0.42 1.87 -0.42 Z M 1.87 -0.42 "/>
</g>
<g id="helm-kustomize-glyph-1-3">
<path d="M 1.93 0.07 C 1.57 0.07 1.26 0 1.01 -0.15 C 0.76 -0.31 0.57 -0.52 0.43 -0.79 C 0.31 -1.06 0.25 -1.37 0.25 -1.71 C 0.25 -2.08 0.32 -2.39 0.46 -2.65 C 0.61 -2.92 0.81 -3.13 1.06 -3.28 C 1.32 -3.42 1.60 -3.5 1.92 -3.5 C 2.19 -3.5 2.42 -3.44 2.64 -3.32 C 2.84 -3.22 3.01 -3.07 3.15 -2.89 C 3.28 -2.71 3.39 -2.50 3.45 -2.26 C 3.51 -2.03 3.53 -1.80 3.53 -1.56 L 0.85 -1.56 C 0.87 -1.33 0.92 -1.14 1 -1 C 1.07 -0.85 1.16 -0.73 1.26 -0.65 C 1.37 -0.57 1.49 -0.51 1.60 -0.48 C 1.73 -0.45 1.84 -0.43 1.93 -0.43 C 2.13 -0.43 2.29 -0.46 2.42 -0.53 C 2.55 -0.59 2.66 -0.67 2.73 -0.76 L 3.29 -0.60 C 3.17 -0.41 2.99 -0.24 2.76 -0.10 C 2.53 0.01 2.25 0.07 1.93 0.07 Z M 0.87 -2.03 L 2.90 -2.03 C 2.90 -2.18 2.86 -2.33 2.78 -2.48 C 2.69 -2.64 2.58 -2.76 2.43 -2.85 C 2.30 -2.95 2.12 -3 1.92 -3 C 1.76 -3 1.60 -2.96 1.45 -2.90 C 1.30 -2.84 1.17 -2.73 1.07 -2.59 C 0.97 -2.45 0.90 -2.26 0.87 -2.03 Z M 1.68 -3.96 L 1.31 -4.28 C 1.21 -4.35 1.14 -4.41 1.09 -4.46 C 1.05 -4.53 1.03 -4.58 1.03 -4.64 C 1.03 -4.72 1.05 -4.78 1.09 -4.82 C 1.14 -4.86 1.21 -4.89 1.29 -4.89 C 1.34 -4.89 1.39 -4.87 1.43 -4.84 C 1.48 -4.81 1.54 -4.75 1.60 -4.68 L 2.17 -3.96 Z M 1.68 -3.96 "/>
</g>
<g id="helm-kustomize-glyph-1-4">
<path d="M 1.29 0 C 1.08 0 0.92 -0.01 0.79 -0.06 C 0.67 -0.11 0.59 -0.19 0.54 -0.31 C 0.49 -0.43 0.46 -0.60 0.46 -0.81 L 0.46 -4.90 L 1.04 -4.90 L 1.04 -0.89 C 1.04 -0.74 1.06 -0.64 1.10 -0.59 C 1.16 -0.53 1.26 -0.51 1.43 -0.51 L 1.67 -0.51 L 1.67 0 Z M 1.29 0 "/>
</g>
<g id="helm-kustomize-glyph-1-5">
<path d="M 1.93 0.07 C 1.57 0.07 1.26 0 1.01 -0.15 C 0.76 -0.31 0.57 -0.52 0.43 -0.79 C 0.31 -1.06 0.25 -1.37 0.25 -1.71 C 0.25 -2.08 0.32 -2.39 0.46 -2.65 C 0.61 -2.92 0.81 -3.13 1.06 -3.28 C 1.32 -3.42 1.60 -3.5 1.92 -3.5 C 2.19 -3.5 2.42 -3.44 2.64 -3.32 C 2.84 -3.22 3.01 -3.07 3.15 -2.89 C 3.28 -2.71 3.39 -2.50 3.45 -2.26 C 3.51 -2.03 3.53 -1.80 3.53 -1.56 L 0.85 -1.56 C 0.87 -1.33 0.92 -1.14 1 -1 C 1.07 -0.85 1.16 -0.73 1.26 -0.65 C 1.37 -0.57 1.49 -0.51 1.60 -0.48 C 1.73 -0.45 1.84 -0.43 1.93 -0.43 C 2.13 -0.43 2.29 -0.46 2.42 -0.53 C 2.55 -0.59 2.66 -0.67 2.73 -0.76 L 3.29 -0.60 C 3.17 -0.41 2.99 -0.24 2.76 -0.10 C 2.53 0.01 2.25 0.07 1.93 0.07 Z M 0.87 -2.03 L 2.90 -2.03 C 2.90 -2.18 2.86 -2.33 2.78 -2.48 C 2.69 -2.64 2.58 -2.76 2.43 -2.85 C 2.30 -2.95 2.12 -3 1.92 -3 C 1.76 -3 1.60 -2.96 1.45 -2.90 C 1.30 -2.84 1.17 -2.73 1.07 -2.59 C 0.97 -2.45 0.90 -2.26 0.87 -2.03 Z M 0.87 -2.03 "/>
</g>
<g id="helm-kustomize-glyph-1-6">
<path d="M 1.65 0.07 C 1.45 0.07 1.25 0.04 1.06 -0.01 C 0.87 -0.07 0.70 -0.17 0.54 -0.29 C 0.39 -0.42 0.28 -0.58 0.21 -0.78 L 0.78 -0.98 C 0.83 -0.79 0.94 -0.64 1.10 -0.54 C 1.28 -0.45 1.47 -0.40 1.67 -0.40 C 1.89 -0.40 2.07 -0.45 2.23 -0.54 C 2.39 -0.64 2.48 -0.78 2.48 -0.93 C 2.48 -1.09 2.42 -1.20 2.29 -1.28 C 2.17 -1.36 1.98 -1.42 1.73 -1.48 L 1.32 -1.57 C 1.14 -1.61 0.96 -1.67 0.81 -1.75 C 0.65 -1.82 0.53 -1.92 0.43 -2.04 C 0.35 -2.17 0.31 -2.33 0.31 -2.54 C 0.31 -2.74 0.36 -2.91 0.48 -3.06 C 0.60 -3.20 0.76 -3.31 0.96 -3.39 C 1.16 -3.47 1.38 -3.51 1.62 -3.51 C 1.91 -3.51 2.17 -3.45 2.42 -3.32 C 2.67 -3.21 2.84 -3.03 2.95 -2.78 L 2.40 -2.59 C 2.34 -2.72 2.23 -2.83 2.07 -2.90 C 1.92 -2.97 1.76 -3.01 1.59 -3.01 C 1.39 -3.01 1.22 -2.97 1.09 -2.89 C 0.95 -2.81 0.89 -2.70 0.89 -2.54 C 0.89 -2.42 0.93 -2.32 1.03 -2.26 C 1.12 -2.20 1.27 -2.14 1.48 -2.09 L 1.87 -2 C 2.11 -1.94 2.32 -1.87 2.5 -1.79 C 2.67 -1.72 2.81 -1.61 2.90 -1.48 C 3.00 -1.35 3.06 -1.18 3.06 -0.96 C 3.06 -0.75 3 -0.57 2.87 -0.42 C 2.75 -0.26 2.57 -0.14 2.35 -0.04 C 2.14 0.03 1.91 0.07 1.65 0.07 Z M 1.65 0.07 "/>
</g>
<g id="helm-kustomize-glyph-1-7">
<path d="M 1.26 1.12 C 0.98 0.68 0.76 0.20 0.60 -0.31 C 0.45 -0.83 0.37 -1.35 0.37 -1.89 C 0.37 -2.42 0.45 -2.95 0.60 -3.46 C 0.76 -3.98 0.98 -4.46 1.26 -4.90 L 1.82 -4.90 C 1.54 -4.46 1.32 -3.98 1.15 -3.46 C 1 -2.95 0.92 -2.42 0.92 -1.89 C 0.92 -1.35 1 -0.83 1.15 -0.31 C 1.32 0.20 1.54 0.68 1.82 1.12 Z M 1.26 1.12 "/>
</g>
<g id="helm-kustomize-glyph-1-8">
<path d="M 0.5 1.12 L 0.5 -3.43 L 0.92 -3.43 L 1.07 -2.90 C 1.14 -3.01 1.23 -3.11 1.34 -3.20 C 1.44 -3.29 1.56 -3.36 1.70 -3.42 C 1.84 -3.47 2.01 -3.5 2.20 -3.5 C 2.46 -3.5 2.70 -3.42 2.92 -3.28 C 3.14 -3.14 3.33 -2.94 3.46 -2.67 C 3.60 -2.41 3.67 -2.08 3.67 -1.70 C 3.67 -1.32 3.60 -1.00 3.46 -0.73 C 3.33 -0.47 3.14 -0.26 2.92 -0.12 C 2.70 0.00 2.46 0.07 2.20 0.07 C 2.01 0.07 1.84 0.05 1.70 0 C 1.56 -0.03 1.44 -0.10 1.34 -0.20 C 1.23 -0.29 1.14 -0.39 1.07 -0.51 L 1.07 1.12 Z M 2.04 -0.42 C 2.33 -0.42 2.57 -0.53 2.75 -0.75 C 2.93 -0.97 3.03 -1.29 3.03 -1.70 C 3.03 -2.11 2.93 -2.43 2.75 -2.65 C 2.57 -2.88 2.33 -3 2.04 -3 C 1.75 -3 1.51 -2.88 1.32 -2.65 C 1.14 -2.43 1.06 -2.11 1.06 -1.70 C 1.06 -1.29 1.14 -0.97 1.32 -0.75 C 1.51 -0.53 1.75 -0.42 2.04 -0.42 Z M 2.04 -0.42 "/>
</g>
<g id="helm-kustomize-glyph-1-9">
<path d="M 1.42 0.07 C 1.20 0.07 1 0.03 0.81 -0.03 C 0.63 -0.10 0.48 -0.21 0.37 -0.35 C 0.26 -0.50 0.21 -0.67 0.21 -0.89 C 0.21 -1.16 0.31 -1.37 0.5 -1.54 C 0.68 -1.71 0.95 -1.84 1.31 -1.93 C 1.66 -2.03 2.08 -2.10 2.57 -2.15 L 2.57 -2.21 C 2.57 -2.45 2.51 -2.64 2.39 -2.79 C 2.26 -2.95 2.06 -3.03 1.79 -3.03 C 1.57 -3.03 1.39 -2.98 1.26 -2.89 C 1.12 -2.79 1.04 -2.66 1.01 -2.5 L 0.45 -2.65 C 0.54 -2.92 0.70 -3.13 0.93 -3.28 C 1.17 -3.42 1.45 -3.5 1.76 -3.5 C 2.24 -3.5 2.59 -3.38 2.81 -3.15 C 3.03 -2.92 3.14 -2.57 3.14 -2.10 L 3.14 -1.29 C 3.14 -1.10 3.14 -0.93 3.15 -0.78 C 3.16 -0.62 3.17 -0.48 3.20 -0.35 C 3.22 -0.23 3.24 -0.11 3.26 0 L 2.71 0 L 2.59 -0.46 C 2.48 -0.30 2.33 -0.16 2.14 -0.06 C 1.95 0.03 1.71 0.07 1.42 0.07 Z M 1.54 -0.37 C 1.73 -0.37 1.90 -0.40 2.06 -0.46 C 2.21 -0.53 2.34 -0.64 2.43 -0.79 C 2.53 -0.95 2.57 -1.16 2.57 -1.42 L 2.57 -1.68 C 2.03 -1.63 1.61 -1.55 1.31 -1.43 C 1.00 -1.32 0.85 -1.14 0.85 -0.90 C 0.85 -0.75 0.92 -0.61 1.04 -0.51 C 1.17 -0.42 1.33 -0.37 1.54 -0.37 Z M 1.54 -0.37 "/>
</g>
<g id="helm-kustomize-glyph-1-10">
<path d="M 1.59 0.07 C 1.32 0.07 1.10 0.02 0.93 -0.07 C 0.78 -0.19 0.66 -0.34 0.59 -0.54 C 0.51 -0.75 0.48 -0.98 0.48 -1.25 L 0.48 -3.43 L 1.06 -3.43 L 1.06 -1.42 C 1.06 -1.24 1.07 -1.07 1.10 -0.92 C 1.14 -0.77 1.22 -0.65 1.32 -0.56 C 1.42 -0.47 1.58 -0.43 1.79 -0.43 C 2.06 -0.43 2.27 -0.53 2.42 -0.71 C 2.57 -0.90 2.65 -1.17 2.65 -1.54 L 2.65 -3.43 L 3.25 -3.43 L 3.25 0 L 2.81 0 L 2.65 -0.5 C 2.56 -0.33 2.42 -0.19 2.26 -0.07 C 2.09 0.02 1.87 0.07 1.59 0.07 Z M 1.59 0.07 "/>
</g>
<g id="helm-kustomize-glyph-1-11">
<path d="M 1.67 0 L 1.67 -1.79 L 0 -4.64 L 0.71 -4.64 L 2 -2.39 L 3.28 -4.64 L 3.98 -4.64 L 2.32 -1.79 L 2.32 0 Z M 1.67 0 "/>
</g>
<g id="helm-kustomize-glyph-1-12">
<path d="M 0.06 0 L 1.81 -4.64 L 2.54 -4.64 L 4.28 0 L 3.57 0 L 3.21 -1.01 L 1.12 -1.01 L 0.76 0 Z M 1.31 -1.57 L 3.03 -1.57 L 2.17 -3.96 Z M 1.31 -1.57 "/>
</g>
<g id="helm-kustomize-glyph-1-13">
<path d="M 0.54 0 L 0.54 -4.64 L 1.62 -4.64 L 2.85 -0.84 L 4.09 -4.64 L 5.17 -4.64 L 5.17 0 L 4.51 0 L 4.51 -3.95 L 3.18 0 L 2.54 0 L 1.18 -3.95 L 1.18 0 Z M 0.54 0 "/>
</g>
<g id="helm-kustomize-glyph-1-14">
<path d="M 0.54 0 L 0.54 -4.64 L 1.18 -4.64 L 1.18 -0.56 L 3.68 -0.56 L 3.68 0 Z M 0.54 0 "/>
</g>
<g id="helm-kustomize-glyph-1-15">
<path d="M 1.29 0 L 0.06 -3.43 L 0.70 -3.43 L 1.60 -0.76 L 2.5 -3.43 L 3.12 -3.43 L 1.90 0 Z M 1.29 0 "/>
</g>
<g id="helm-kustomize-glyph-1-16">
<path d="M 0.65 0 L 0.65 -2.96 L 0.17 -2.96 L 0.17 -3.43 L 1.23 -3.43 L 1.23 0 Z M 0.89 -4.09 C 0.77 -4.09 0.67 -4.13 0.57 -4.21 C 0.49 -4.30 0.45 -4.39 0.45 -4.51 C 0.45 -4.64 0.49 -4.74 0.57 -4.82 C 0.67 -4.91 0.77 -4.95 0.89 -4.95 C 1.00 -4.95 1.10 -4.91 1.18 -4.82 C 1.26 -4.74 1.31 -4.64 1.31 -4.51 C 1.31 -4.39 1.26 -4.30 1.18 -4.21 C 1.10 -4.13 1.00 -4.09 0.89 -4.09 Z M 0.89 -4.09 "/>
</g>
<g id="helm-kustomize-glyph-1-17">
<path d="M 0.25 1.10 C 0.53 0.67 0.75 0.19 0.90 -0.32 C 1.06 -0.84 1.14 -1.37 1.14 -1.90 C 1.14 -2.43 1.06 -2.96 0.90 -3.48 C 0.75 -4.00 0.53 -4.48 0.25 -4.92 L 0.81 -4.92 C 1.09 -4.48 1.30 -4.00 1.45 -3.48 C 1.60 -2.96 1.68 -2.43 1.68 -1.90 C 1.68 -1.37 1.60 -0.84 1.45 -0.32 C 1.30 0.19 1.09 0.67 0.81 1.10 Z M 0.25 1.10 "/>
</g>
<g id="helm-kustomize-glyph-1-18">
<path d="M 0.5 0 L 0.5 -3.43 L 0.92 -3.43 L 1.10 -2.79 C 1.19 -2.94 1.28 -3.06 1.40 -3.17 C 1.53 -3.27 1.66 -3.35 1.81 -3.40 C 1.96 -3.46 2.14 -3.5 2.34 -3.5 L 2.34 -2.89 C 2.01 -2.89 1.76 -2.83 1.57 -2.71 C 1.39 -2.61 1.26 -2.45 1.18 -2.25 C 1.11 -2.03 1.07 -1.78 1.07 -1.48 L 1.07 0 Z M 0.5 0 "/>
</g>
<g id="helm-kustomize-glyph-1-19">
<path d="M 0.32 0.92 L 0.65 0.07 C 0.55 0.05 0.46 0.00 0.39 -0.07 C 0.31 -0.16 0.28 -0.25 0.28 -0.37 C 0.28 -0.48 0.32 -0.58 0.40 -0.67 C 0.5 -0.76 0.60 -0.81 0.71 -0.81 C 0.85 -0.81 0.96 -0.76 1.04 -0.67 C 1.12 -0.58 1.17 -0.48 1.17 -0.37 C 1.17 -0.33 1.16 -0.29 1.15 -0.26 C 1.15 -0.23 1.14 -0.20 1.14 -0.17 L 0.70 0.92 Z M 0.32 0.92 "/>
</g>
<g id="helm-kustomize-glyph-1-20">
<path d="M 0.73 0.07 C 0.60 0.07 0.5 0.03 0.40 -0.04 C 0.32 -0.14 0.28 -0.25 0.28 -0.37 C 0.28 -0.5 0.32 -0.60 0.40 -0.68 C 0.5 -0.76 0.60 -0.81 0.73 -0.81 C 0.85 -0.81 0.96 -0.76 1.04 -0.68 C 1.12 -0.60 1.17 -0.5 1.17 -0.37 C 1.17 -0.25 1.12 -0.14 1.04 -0.04 C 0.96 0.03 0.85 0.07 0.73 0.07 Z M 0.73 -2.57 C 0.60 -2.57 0.5 -2.61 0.40 -2.70 C 0.32 -2.79 0.28 -2.90 0.28 -3.03 C 0.28 -3.15 0.32 -3.25 0.40 -3.34 C 0.5 -3.43 0.60 -3.48 0.73 -3.48 C 0.85 -3.48 0.96 -3.43 1.04 -3.34 C 1.12 -3.25 1.17 -3.15 1.17 -3.03 C 1.17 -2.90 1.12 -2.79 1.04 -2.70 C 0.96 -2.61 0.85 -2.57 0.73 -2.57 Z M 0.73 -2.57 "/>
</g>
<g id="helm-kustomize-glyph-1-21">
<path d="M 1.93 0.07 C 1.57 0.07 1.26 0 1.01 -0.15 C 0.76 -0.31 0.57 -0.52 0.43 -0.79 C 0.31 -1.06 0.25 -1.37 0.25 -1.71 C 0.25 -2.08 0.32 -2.39 0.46 -2.65 C 0.61 -2.92 0.81 -3.13 1.06 -3.28 C 1.32 -3.42 1.60 -3.5 1.92 -3.5 C 2.19 -3.5 2.42 -3.44 2.64 -3.32 C 2.84 -3.22 3.01 -3.07 3.15 -2.89 C 3.28 -2.71 3.39 -2.50 3.45 -2.26 C 3.51 -2.03 3.53 -1.80 3.53 -1.56 L 0.85 -1.56 C 0.87 -1.33 0.92 -1.14 1 -1 C 1.07 -0.85 1.16 -0.73 1.26 -0.65 C 1.37 -0.57 1.49 -0.51 1.60 -0.48 C 1.73 -0.45 1.84 -0.43 1.93 -0.43 C 2.13 -0.43 2.29 -0.46 2.42 -0.53 C 2.55 -0.59 2.66 -0.67 2.73 -0.76 L 3.29 -0.60 C 3.17 -0.41 2.99 -0.24 2.76 -0.10 C 2.53 0.01 2.25 0.07 1.93 0.07 Z M 0.87 -2.03 L 2.90 -2.03 C 2.90 -2.18 2.86 -2.33 2.78 -2.48 C 2.69 -2.64 2.58 -2.76 2.43 -2.85 C 2.30 -2.95 2.12 -3 1.92 -3 C 1.76 -3 1.60 -2.96 1.45 -2.90 C 1.30 -2.84 1.17 -2.73 1.07 -2.59 C 0.97 -2.45 0.90 -2.26 0.87 -2.03 Z M 1.73 -3.96 L 2.29 -4.68 C 2.35 -4.75 2.41 -4.81 2.45 -4.84 C 2.49 -4.87 2.54 -4.89 2.60 -4.89 C 2.67 -4.89 2.73 -4.86 2.78 -4.82 C 2.83 -4.78 2.85 -4.72 2.85 -4.64 C 2.85 -4.58 2.83 -4.53 2.79 -4.46 C 2.75 -4.41 2.68 -4.35 2.59 -4.28 L 2.21 -3.96 Z M 1.73 -3.96 "/>
</g>
<g id="helm-kustomize-glyph-1-22">
<path d="M 0.5 0 L 0.5 -3.43 L 0.92 -3.43 L 1.07 -2.92 C 1.14 -3.03 1.22 -3.13 1.32 -3.21 C 1.42 -3.30 1.55 -3.36 1.68 -3.42 C 1.83 -3.47 2 -3.5 2.18 -3.5 C 2.46 -3.5 2.69 -3.44 2.85 -3.32 C 3.02 -3.21 3.14 -3.05 3.21 -2.85 C 3.28 -2.67 3.32 -2.44 3.32 -2.17 L 3.32 0 L 2.75 0 L 2.75 -2 C 2.75 -2.17 2.73 -2.33 2.70 -2.48 C 2.67 -2.64 2.59 -2.76 2.48 -2.85 C 2.37 -2.95 2.21 -3 1.98 -3 C 1.70 -3 1.47 -2.89 1.31 -2.70 C 1.15 -2.51 1.07 -2.23 1.07 -1.85 L 1.07 0 Z M 0.5 0 "/>
</g>
<g id="helm-kustomize-glyph-1-23">
<path d="M 0.5 0 L 0.5 -4.90 L 1.07 -4.90 L 1.07 -2.92 C 1.14 -3.03 1.22 -3.13 1.32 -3.21 C 1.42 -3.30 1.55 -3.36 1.68 -3.42 C 1.83 -3.47 2 -3.5 2.18 -3.5 C 2.46 -3.5 2.69 -3.44 2.85 -3.32 C 3.02 -3.21 3.14 -3.05 3.21 -2.85 C 3.28 -2.67 3.32 -2.44 3.32 -2.17 L 3.32 0 L 2.75 0 L 2.75 -2 C 2.75 -2.17 2.73 -2.33 2.70 -2.48 C 2.67 -2.64 2.59 -2.76 2.48 -2.85 C 2.37 -2.95 2.21 -3 1.98 -3 C 1.70 -3 1.47 -2.89 1.31 -2.70 C 1.15 -2.51 1.07 -2.23 1.07 -1.85 L 1.07 0 Z M 0.5 0 "/>
</g>
<g id="helm-kustomize-glyph-1-24">
<path d="M 0.5 0 L 0.5 -4.90 L 1.07 -4.90 L 1.07 -1.89 L 2.46 -3.43 L 3.17 -3.43 L 1.87 -2.01 L 3.34 0 L 2.62 0 L 1.48 -1.59 L 1.07 -1.15 L 1.07 0 Z M 0.5 0 "/>
</g>
<g id="helm-kustomize-glyph-1-25">
<path d="M 1.53 0 C 1.31 0 1.14 -0.01 1.03 -0.06 C 0.91 -0.10 0.83 -0.18 0.78 -0.31 C 0.73 -0.43 0.71 -0.61 0.71 -0.85 L 0.71 -2.96 L 0.14 -2.96 L 0.14 -3.43 L 0.71 -3.43 L 0.71 -4.29 L 1.29 -4.29 L 1.29 -3.43 L 2.01 -3.43 L 2.01 -2.96 L 1.29 -2.96 L 1.29 -0.95 C 1.29 -0.76 1.31 -0.64 1.35 -0.59 C 1.41 -0.53 1.50 -0.51 1.65 -0.51 L 2.01 -0.51 L 2.01 0 Z M 1.53 0 "/>
</g>
<g id="helm-kustomize-glyph-1-26">
<path d="M 1.85 0.07 C 1.52 0.07 1.23 0.00 1 -0.14 C 0.75 -0.29 0.57 -0.50 0.43 -0.78 C 0.31 -1.05 0.25 -1.35 0.25 -1.70 C 0.25 -2.04 0.31 -2.35 0.45 -2.62 C 0.58 -2.89 0.78 -3.10 1.03 -3.26 C 1.28 -3.42 1.57 -3.5 1.92 -3.5 C 2.12 -3.5 2.31 -3.46 2.46 -3.39 C 2.63 -3.31 2.78 -3.22 2.90 -3.10 C 3.03 -2.99 3.13 -2.86 3.21 -2.71 L 2.67 -2.53 C 2.59 -2.66 2.48 -2.77 2.34 -2.85 C 2.20 -2.94 2.05 -2.98 1.87 -2.98 C 1.69 -2.98 1.53 -2.93 1.37 -2.84 C 1.22 -2.75 1.10 -2.62 1.01 -2.43 C 0.92 -2.25 0.87 -2.00 0.87 -1.71 C 0.87 -1.42 0.92 -1.17 1.01 -0.98 C 1.11 -0.79 1.24 -0.65 1.39 -0.56 C 1.53 -0.47 1.69 -0.43 1.87 -0.43 C 2.06 -0.43 2.22 -0.47 2.35 -0.56 C 2.50 -0.64 2.61 -0.75 2.68 -0.87 L 3.21 -0.68 C 3.13 -0.53 3.02 -0.41 2.89 -0.29 C 2.75 -0.17 2.59 -0.08 2.42 -0.01 C 2.24 0.04 2.05 0.07 1.85 0.07 Z M 1.85 0.07 "/>
</g>
<g id="helm-kustomize-glyph-1-27">
<path d="M 2.20 0.07 C 2.01 0.07 1.84 0.05 1.70 0 C 1.56 -0.03 1.44 -0.10 1.34 -0.20 C 1.23 -0.29 1.14 -0.39 1.07 -0.51 L 0.92 0 L 0.5 0 L 0.5 -4.90 L 1.07 -4.90 L 1.07 -2.90 C 1.14 -3.01 1.23 -3.11 1.34 -3.20 C 1.44 -3.29 1.56 -3.36 1.70 -3.42 C 1.84 -3.47 2.01 -3.5 2.20 -3.5 C 2.46 -3.5 2.70 -3.42 2.92 -3.28 C 3.14 -3.14 3.33 -2.94 3.46 -2.67 C 3.60 -2.41 3.67 -2.08 3.67 -1.70 C 3.67 -1.32 3.60 -1.00 3.46 -0.73 C 3.33 -0.47 3.14 -0.26 2.92 -0.12 C 2.70 0.00 2.46 0.07 2.20 0.07 Z M 2.04 -0.42 C 2.33 -0.42 2.57 -0.53 2.75 -0.75 C 2.93 -0.97 3.03 -1.29 3.03 -1.70 C 3.03 -2.11 2.93 -2.43 2.75 -2.65 C 2.57 -2.88 2.33 -3 2.04 -3 C 1.75 -3 1.51 -2.88 1.32 -2.65 C 1.14 -2.43 1.06 -2.11 1.06 -1.70 C 1.06 -1.42 1.10 -1.19 1.18 -1 C 1.26 -0.81 1.38 -0.66 1.53 -0.56 C 1.67 -0.46 1.84 -0.42 2.04 -0.42 Z M 2.04 -0.42 "/>
</g>
<g id="helm-kustomize-glyph-1-28">
<path d="M 3.78 1.20 C 3.61 1.20 3.45 1.17 3.31 1.10 C 3.17 1.05 3.06 0.95 2.96 0.81 C 2.88 0.66 2.84 0.46 2.84 0.20 L 2.84 -0.51 C 2.75 -0.33 2.60 -0.19 2.42 -0.07 C 2.23 0.02 2.00 0.07 1.73 0.07 C 1.47 0.07 1.22 0.00 1 -0.12 C 0.76 -0.26 0.58 -0.47 0.45 -0.73 C 0.31 -1.00 0.25 -1.32 0.25 -1.70 C 0.25 -2.08 0.31 -2.41 0.45 -2.67 C 0.58 -2.94 0.76 -3.14 1 -3.28 C 1.22 -3.42 1.47 -3.5 1.73 -3.5 C 2.00 -3.5 2.22 -3.44 2.40 -3.32 C 2.59 -3.22 2.73 -3.08 2.84 -2.90 L 3 -3.43 L 3.42 -3.43 L 3.42 0.17 C 3.42 0.27 3.43 0.36 3.46 0.43 C 3.50 0.50 3.56 0.56 3.62 0.59 C 3.69 0.63 3.78 0.65 3.90 0.65 C 3.97 0.65 4.04 0.64 4.10 0.64 C 4.17 0.62 4.25 0.60 4.32 0.56 L 4.32 1.10 C 4.24 1.14 4.15 1.16 4.06 1.17 C 3.97 1.19 3.88 1.20 3.78 1.20 Z M 1.87 -0.42 C 2.17 -0.42 2.41 -0.53 2.59 -0.75 C 2.76 -0.97 2.85 -1.29 2.85 -1.70 C 2.85 -2.11 2.76 -2.43 2.59 -2.65 C 2.41 -2.88 2.17 -3 1.87 -3 C 1.58 -3 1.34 -2.88 1.17 -2.65 C 0.99 -2.43 0.90 -2.11 0.90 -1.70 C 0.90 -1.29 0.99 -0.97 1.17 -0.75 C 1.34 -0.53 1.58 -0.42 1.87 -0.42 Z M 1.87 -0.42 "/>
</g>
<g id="helm-kustomize-glyph-1-29">
<path d="M 0.32 1.12 L 0.32 0.60 L 0.60 0.60 C 0.74 0.60 0.85 0.59 0.93 0.57 C 1.01 0.55 1.08 0.50 1.14 0.43 C 1.19 0.36 1.23 0.25 1.28 0.12 L 1.31 0 L 0.06 -3.43 L 0.70 -3.43 L 1.59 -0.81 L 2.40 -3.43 L 3.04 -3.43 L 1.84 0.15 C 1.78 0.34 1.71 0.5 1.64 0.62 C 1.57 0.75 1.50 0.84 1.42 0.92 C 1.33 0.99 1.23 1.04 1.10 1.07 C 0.98 1.10 0.82 1.12 0.62 1.12 Z M 0.32 1.12 "/>
</g>
<g id="helm-kustomize-glyph-1-30">
<path d="M 0.68 0 L 0.68 -2.96 L 0.10 -2.96 L 0.10 -3.43 L 0.68 -3.43 L 0.68 -4.03 C 0.68 -4.26 0.70 -4.45 0.75 -4.59 C 0.80 -4.73 0.89 -4.83 1.03 -4.89 C 1.16 -4.95 1.35 -4.98 1.60 -4.98 L 1.98 -4.98 L 1.98 -4.48 L 1.62 -4.48 C 1.47 -4.48 1.37 -4.45 1.32 -4.39 C 1.28 -4.33 1.26 -4.22 1.26 -4.04 L 1.26 -3.43 L 1.98 -3.43 L 1.98 -2.96 L 1.26 -2.96 L 1.26 0 Z M 0.68 0 "/>
</g>
<g id="helm-kustomize-glyph-1-31">
<path d="M -0.42 1.12 L -0.42 0.60 L -0.06 0.60 C 0.12 0.60 0.26 0.59 0.35 0.56 C 0.45 0.53 0.51 0.46 0.54 0.37 C 0.58 0.28 0.60 0.14 0.60 -0.03 L 0.60 -3.43 L 1.18 -3.43 L 1.18 0 C 1.18 0.28 1.14 0.51 1.07 0.67 C 1.00 0.83 0.87 0.95 0.70 1.01 C 0.53 1.08 0.30 1.12 0 1.12 Z M 0.89 -4.09 C 0.77 -4.09 0.67 -4.13 0.59 -4.21 C 0.50 -4.30 0.46 -4.39 0.46 -4.51 C 0.46 -4.64 0.50 -4.74 0.59 -4.82 C 0.67 -4.91 0.77 -4.95 0.89 -4.95 C 1.01 -4.95 1.11 -4.91 1.20 -4.82 C 1.28 -4.74 1.32 -4.64 1.32 -4.51 C 1.32 -4.39 1.28 -4.30 1.20 -4.21 C 1.11 -4.13 1.01 -4.09 0.89 -4.09 Z M 0.89 -4.09 "/>
</g>
<g id="helm-kustomize-glyph-1-32">
<path d="M 0.42 -2.96 L 0.75 -3.82 C 0.63 -3.83 0.53 -3.88 0.46 -3.96 C 0.40 -4.05 0.37 -4.14 0.37 -4.26 C 0.37 -4.39 0.41 -4.49 0.5 -4.57 C 0.58 -4.67 0.68 -4.71 0.81 -4.71 C 0.93 -4.71 1.03 -4.67 1.12 -4.57 C 1.21 -4.49 1.26 -4.39 1.26 -4.26 C 1.26 -4.23 1.25 -4.19 1.25 -4.15 C 1.23 -4.12 1.23 -4.09 1.23 -4.07 L 0.79 -2.96 Z M 0.42 -2.96 "/>
</g>
<g id="helm-kustomize-glyph-1-33">
<path d="M 2.40 0.07 C 1.95 0.07 1.57 -0.01 1.26 -0.21 C 0.95 -0.42 0.71 -0.70 0.54 -1.06 C 0.39 -1.42 0.31 -1.84 0.31 -2.32 C 0.31 -2.80 0.39 -3.22 0.57 -3.57 C 0.75 -3.94 1.00 -4.22 1.32 -4.42 C 1.66 -4.61 2.04 -4.71 2.48 -4.71 C 2.86 -4.71 3.21 -4.62 3.53 -4.45 C 3.85 -4.27 4.09 -4.01 4.25 -3.67 L 3.65 -3.45 C 3.56 -3.67 3.41 -3.84 3.20 -3.96 C 2.99 -4.10 2.73 -4.17 2.43 -4.17 C 2.16 -4.17 1.91 -4.09 1.68 -3.95 C 1.46 -3.81 1.28 -3.60 1.15 -3.32 C 1.03 -3.05 0.96 -2.72 0.96 -2.32 C 0.96 -1.92 1.03 -1.59 1.15 -1.31 C 1.28 -1.03 1.45 -0.83 1.67 -0.68 C 1.89 -0.53 2.14 -0.46 2.42 -0.46 C 2.57 -0.46 2.73 -0.48 2.89 -0.51 C 3.05 -0.55 3.20 -0.61 3.34 -0.70 C 3.47 -0.79 3.58 -0.92 3.67 -1.07 C 3.75 -1.23 3.79 -1.42 3.79 -1.67 L 3.79 -1.82 L 2.43 -1.82 L 2.43 -2.39 L 4.40 -2.39 L 4.40 0 L 4.03 0 L 3.85 -0.57 C 3.71 -0.34 3.50 -0.17 3.25 -0.07 C 3 0.02 2.71 0.07 2.40 0.07 Z M 2.40 0.07 "/>
</g>
<g id="helm-kustomize-glyph-1-34">
<path d="M 0.32 0.92 L 0.65 0.07 C 0.55 0.05 0.46 0.00 0.39 -0.07 C 0.31 -0.16 0.28 -0.25 0.28 -0.37 C 0.28 -0.48 0.32 -0.58 0.40 -0.67 C 0.5 -0.76 0.60 -0.81 0.71 -0.81 C 0.85 -0.81 0.96 -0.76 1.04 -0.67 C 1.12 -0.58 1.17 -0.48 1.17 -0.37 C 1.17 -0.33 1.16 -0.29 1.15 -0.26 C 1.15 -0.23 1.14 -0.20 1.14 -0.17 L 0.70 0.92 Z M 0.73 -2.57 C 0.60 -2.57 0.5 -2.61 0.40 -2.70 C 0.32 -2.79 0.28 -2.90 0.28 -3.03 C 0.28 -3.15 0.32 -3.25 0.40 -3.34 C 0.5 -3.43 0.60 -3.48 0.73 -3.48 C 0.85 -3.48 0.96 -3.43 1.04 -3.34 C 1.12 -3.25 1.17 -3.15 1.17 -3.03 C 1.17 -2.90 1.12 -2.79 1.04 -2.70 C 0.96 -2.61 0.85 -2.57 0.73 -2.57 Z M 0.73 -2.57 "/>
</g>
<g id="helm-kustomize-glyph-1-35">
<path d="M 1.89 1.32 C 1.70 1.32 1.51 1.30 1.32 1.25 C 1.14 1.19 0.97 1.10 0.82 0.98 C 0.69 0.86 0.59 0.71 0.54 0.53 L 1.10 0.35 C 1.16 0.50 1.25 0.61 1.40 0.70 C 1.55 0.78 1.72 0.82 1.92 0.82 C 2.09 0.82 2.25 0.79 2.37 0.73 C 2.50 0.67 2.61 0.58 2.68 0.45 C 2.75 0.32 2.79 0.15 2.79 -0.06 L 2.79 -0.65 C 2.69 -0.46 2.55 -0.32 2.37 -0.21 C 2.19 -0.11 1.97 -0.06 1.70 -0.06 C 1.45 -0.06 1.21 -0.12 0.98 -0.25 C 0.76 -0.38 0.58 -0.58 0.45 -0.84 C 0.31 -1.10 0.25 -1.41 0.25 -1.78 C 0.25 -2.14 0.31 -2.45 0.45 -2.70 C 0.58 -2.96 0.76 -3.16 0.98 -3.29 C 1.21 -3.42 1.45 -3.5 1.70 -3.5 C 1.97 -3.5 2.19 -3.44 2.37 -3.32 C 2.55 -3.22 2.69 -3.08 2.79 -2.90 L 2.96 -3.43 L 3.39 -3.43 L 3.39 -0.06 C 3.39 0.25 3.32 0.50 3.20 0.70 C 3.07 0.91 2.89 1.06 2.67 1.17 C 2.45 1.27 2.19 1.32 1.89 1.32 Z M 1.85 -0.54 C 2.02 -0.54 2.17 -0.58 2.32 -0.67 C 2.47 -0.75 2.59 -0.88 2.68 -1.06 C 2.78 -1.25 2.82 -1.48 2.82 -1.78 C 2.82 -2.07 2.78 -2.30 2.68 -2.48 C 2.59 -2.66 2.47 -2.78 2.32 -2.87 C 2.17 -2.95 2.02 -3 1.85 -3 C 1.56 -3 1.32 -2.89 1.14 -2.67 C 0.96 -2.46 0.87 -2.16 0.87 -1.78 C 0.87 -1.38 0.96 -1.07 1.14 -0.85 C 1.32 -0.64 1.56 -0.54 1.85 -0.54 Z M 1.85 -0.54 "/>
</g>
<g id="helm-kustomize-glyph-1-36">
<path d="M 1.42 0.07 C 1.20 0.07 1 0.03 0.81 -0.03 C 0.63 -0.10 0.48 -0.21 0.37 -0.35 C 0.26 -0.50 0.21 -0.67 0.21 -0.89 C 0.21 -1.16 0.31 -1.37 0.5 -1.54 C 0.68 -1.71 0.95 -1.84 1.31 -1.93 C 1.66 -2.03 2.08 -2.10 2.57 -2.15 L 2.57 -2.21 C 2.57 -2.45 2.51 -2.64 2.39 -2.79 C 2.26 -2.95 2.06 -3.03 1.79 -3.03 C 1.57 -3.03 1.39 -2.98 1.26 -2.89 C 1.12 -2.79 1.04 -2.66 1.01 -2.5 L 0.45 -2.65 C 0.54 -2.92 0.70 -3.13 0.93 -3.28 C 1.17 -3.42 1.45 -3.5 1.76 -3.5 C 2.24 -3.5 2.59 -3.38 2.81 -3.15 C 3.03 -2.92 3.14 -2.57 3.14 -2.10 L 3.14 -1.29 C 3.14 -1.10 3.14 -0.93 3.15 -0.78 C 3.16 -0.62 3.17 -0.48 3.20 -0.35 C 3.22 -0.23 3.24 -0.11 3.26 0 L 2.71 0 L 2.59 -0.46 C 2.48 -0.30 2.33 -0.16 2.14 -0.06 C 1.95 0.03 1.71 0.07 1.42 0.07 Z M 1.54 -0.37 C 1.73 -0.37 1.90 -0.40 2.06 -0.46 C 2.21 -0.53 2.34 -0.64 2.43 -0.79 C 2.53 -0.95 2.57 -1.16 2.57 -1.42 L 2.57 -1.68 C 2.03 -1.63 1.61 -1.55 1.31 -1.43 C 1.00 -1.32 0.85 -1.14 0.85 -0.90 C 0.85 -0.75 0.92 -0.61 1.04 -0.51 C 1.17 -0.42 1.33 -0.37 1.54 -0.37 Z M 1.53 -3.96 L 1.15 -4.28 C 1.05 -4.35 0.97 -4.41 0.93 -4.46 C 0.89 -4.53 0.87 -4.58 0.87 -4.64 C 0.87 -4.72 0.89 -4.78 0.93 -4.82 C 0.98 -4.86 1.05 -4.89 1.12 -4.89 C 1.18 -4.89 1.23 -4.87 1.28 -4.84 C 1.33 -4.81 1.38 -4.75 1.43 -4.68 L 2 -3.96 Z M 1.53 -3.96 "/>
</g>
<g id="helm-kustomize-glyph-1-37">
<path d="M 0.25 -1.43 L 0.25 -2 L 2.26 -2 L 2.26 -1.43 Z M 0.25 -1.43 "/>
</g>
<g id="helm-kustomize-glyph-2-0">
<path d="M 0.64 0 L 0.64 -0.42 L 1.57 -0.42 L 1.57 -2.96 L 0.64 -2.96 L 0.64 -3.39 L 2.07 -3.39 L 2.07 -2.62 C 2.17 -2.88 2.33 -3.08 2.53 -3.21 C 2.73 -3.36 2.97 -3.43 3.25 -3.43 C 3.35 -3.43 3.44 -3.42 3.53 -3.40 C 3.61 -3.39 3.71 -3.37 3.82 -3.34 L 3.82 -2.87 C 3.71 -2.90 3.60 -2.92 3.5 -2.95 C 3.39 -2.98 3.28 -3 3.18 -3 C 2.93 -3 2.71 -2.92 2.51 -2.79 C 2.32 -2.67 2.17 -2.48 2.07 -2.25 L 2.07 -0.42 L 3.06 -0.42 L 3.06 0 Z M 0.64 0 "/>
</g>
<g id="helm-kustomize-glyph-2-1">
<path d="M 2.17 0.06 C 1.83 0.06 1.53 -0.00 1.28 -0.15 C 1.03 -0.31 0.82 -0.51 0.67 -0.78 C 0.52 -1.05 0.45 -1.35 0.45 -1.68 C 0.45 -2.01 0.51 -2.31 0.65 -2.57 C 0.80 -2.84 1 -3.05 1.25 -3.20 C 1.5 -3.35 1.77 -3.43 2.07 -3.43 C 2.39 -3.43 2.68 -3.35 2.93 -3.20 C 3.18 -3.05 3.37 -2.85 3.51 -2.59 C 3.66 -2.34 3.73 -2.05 3.73 -1.73 L 3.73 -1.57 L 0.93 -1.57 C 0.95 -1.34 1.01 -1.14 1.12 -0.95 C 1.23 -0.77 1.39 -0.63 1.57 -0.53 C 1.76 -0.42 1.96 -0.37 2.18 -0.37 C 2.38 -0.37 2.56 -0.41 2.73 -0.48 C 2.91 -0.56 3.05 -0.67 3.17 -0.81 L 3.53 -0.5 C 3.35 -0.31 3.14 -0.17 2.90 -0.07 C 2.67 0.01 2.42 0.06 2.17 0.06 Z M 0.95 -1.95 L 3.23 -1.95 C 3.21 -2.16 3.14 -2.34 3.03 -2.5 C 2.92 -2.65 2.78 -2.77 2.62 -2.85 C 2.45 -2.95 2.27 -3 2.07 -3 C 1.89 -3 1.71 -2.95 1.54 -2.85 C 1.39 -2.77 1.25 -2.65 1.15 -2.5 C 1.05 -2.34 0.98 -2.16 0.95 -1.95 Z M 0.95 -1.95 "/>
</g>
<g id="helm-kustomize-glyph-2-2">
<path d="M 0.62 1.45 L 0.62 -3.39 L 1.12 -3.39 L 1.12 -2.90 C 1.25 -3.07 1.40 -3.19 1.59 -3.28 C 1.78 -3.37 1.98 -3.42 2.21 -3.42 C 2.50 -3.42 2.76 -3.34 3 -3.18 C 3.23 -3.03 3.42 -2.83 3.56 -2.56 C 3.70 -2.30 3.78 -2.00 3.78 -1.68 C 3.78 -1.36 3.70 -1.07 3.56 -0.81 C 3.42 -0.55 3.23 -0.34 3 -0.18 C 2.75 -0.03 2.48 0.04 2.18 0.04 C 1.97 0.04 1.78 0.00 1.59 -0.06 C 1.41 -0.14 1.25 -0.26 1.12 -0.42 L 1.12 1.45 Z M 2.09 -0.39 C 2.32 -0.39 2.52 -0.44 2.70 -0.56 C 2.87 -0.67 3.01 -0.82 3.12 -1.01 C 3.22 -1.21 3.28 -1.43 3.28 -1.68 C 3.28 -1.93 3.22 -2.15 3.12 -2.34 C 3.01 -2.53 2.87 -2.69 2.70 -2.81 C 2.52 -2.92 2.32 -2.98 2.09 -2.98 C 1.89 -2.98 1.71 -2.94 1.54 -2.85 C 1.37 -2.77 1.23 -2.66 1.12 -2.51 L 1.12 -0.85 C 1.23 -0.71 1.37 -0.59 1.54 -0.51 C 1.71 -0.42 1.89 -0.39 2.09 -0.39 Z M 2.09 -0.39 "/>
</g>
<g id="helm-kustomize-glyph-2-3">
<path d="M 2.87 0.06 C 2.51 0.06 2.25 -0.01 2.06 -0.18 C 1.87 -0.35 1.78 -0.59 1.78 -0.92 L 1.78 -4.62 L 0.51 -4.62 L 0.51 -5.04 L 2.28 -5.04 L 2.28 -0.98 C 2.28 -0.76 2.33 -0.60 2.43 -0.51 C 2.53 -0.42 2.69 -0.37 2.89 -0.37 C 3.00 -0.37 3.12 -0.38 3.25 -0.40 C 3.37 -0.43 3.51 -0.48 3.67 -0.54 L 3.67 -0.09 C 3.53 -0.03 3.39 -0.00 3.26 0.01 C 3.14 0.04 3.00 0.06 2.87 0.06 Z M 2.87 0.06 "/>
</g>
<g id="helm-kustomize-glyph-2-4">
<path d="M 2.03 -4.18 C 1.91 -4.18 1.81 -4.22 1.71 -4.31 C 1.63 -4.40 1.59 -4.50 1.59 -4.62 C 1.59 -4.73 1.63 -4.83 1.71 -4.92 C 1.81 -5.00 1.91 -5.04 2.03 -5.04 C 2.15 -5.04 2.25 -5.00 2.34 -4.92 C 2.42 -4.83 2.46 -4.73 2.46 -4.62 C 2.46 -4.50 2.42 -4.40 2.34 -4.31 C 2.25 -4.22 2.15 -4.18 2.03 -4.18 Z M 2.87 0.06 C 2.51 0.06 2.25 -0.01 2.06 -0.18 C 1.87 -0.35 1.78 -0.59 1.78 -0.92 L 1.78 -2.96 L 0.51 -2.96 L 0.51 -3.39 L 2.28 -3.39 L 2.28 -0.98 C 2.28 -0.76 2.33 -0.60 2.43 -0.51 C 2.53 -0.42 2.69 -0.37 2.89 -0.37 C 3.00 -0.37 3.12 -0.38 3.25 -0.40 C 3.37 -0.43 3.51 -0.48 3.67 -0.54 L 3.67 -0.09 C 3.53 -0.03 3.39 -0.00 3.26 0.01 C 3.14 0.04 3.00 0.06 2.87 0.06 Z M 2.87 0.06 "/>
</g>
<g id="helm-kustomize-glyph-2-5">
<path d="M 2.14 0.06 C 1.81 0.06 1.52 -0.00 1.26 -0.15 C 1.01 -0.31 0.81 -0.51 0.65 -0.78 C 0.50 -1.05 0.43 -1.35 0.43 -1.68 C 0.43 -2.01 0.50 -2.31 0.65 -2.57 C 0.81 -2.84 1.01 -3.05 1.26 -3.20 C 1.52 -3.35 1.81 -3.43 2.14 -3.43 C 2.45 -3.43 2.73 -3.36 2.98 -3.23 C 3.24 -3.09 3.44 -2.91 3.59 -2.67 L 3.18 -2.42 C 3.08 -2.58 2.93 -2.72 2.75 -2.82 C 2.57 -2.92 2.36 -2.98 2.14 -2.98 C 1.91 -2.98 1.70 -2.92 1.51 -2.81 C 1.33 -2.70 1.19 -2.55 1.09 -2.35 C 0.98 -2.16 0.93 -1.93 0.93 -1.68 C 0.93 -1.43 0.98 -1.21 1.09 -1.01 C 1.19 -0.81 1.33 -0.66 1.51 -0.54 C 1.70 -0.42 1.91 -0.37 2.14 -0.37 C 2.36 -0.37 2.57 -0.42 2.75 -0.53 C 2.93 -0.63 3.08 -0.77 3.18 -0.95 L 3.59 -0.70 C 3.44 -0.46 3.24 -0.27 2.98 -0.14 C 2.73 -0.00 2.45 0.06 2.14 0.06 Z M 2.14 0.06 "/>
</g>
<g id="helm-kustomize-glyph-2-6">
<path d="M 1.78 0.06 C 1.53 0.06 1.30 0.01 1.10 -0.06 C 0.92 -0.14 0.77 -0.26 0.67 -0.42 C 0.56 -0.57 0.51 -0.75 0.51 -0.96 C 0.51 -1.16 0.56 -1.34 0.67 -1.5 C 0.78 -1.65 0.93 -1.77 1.12 -1.85 C 1.32 -1.94 1.55 -1.98 1.81 -1.98 C 2.01 -1.98 2.21 -1.96 2.39 -1.92 C 2.56 -1.87 2.73 -1.81 2.89 -1.71 L 2.89 -2.10 C 2.89 -2.41 2.81 -2.63 2.65 -2.78 C 2.5 -2.93 2.27 -3.01 1.98 -3.01 C 1.80 -3.01 1.62 -2.98 1.45 -2.93 C 1.28 -2.89 1.09 -2.81 0.89 -2.68 L 0.68 -3.07 C 0.92 -3.21 1.15 -3.30 1.37 -3.35 C 1.60 -3.41 1.82 -3.43 2.04 -3.43 C 2.47 -3.43 2.80 -3.32 3.03 -3.10 C 3.26 -2.89 3.39 -2.57 3.39 -2.17 L 3.39 0 L 2.89 0 L 2.89 -0.39 C 2.73 -0.23 2.56 -0.11 2.37 -0.04 C 2.19 0.02 2 0.06 1.78 0.06 Z M 1 -0.98 C 1 -0.78 1.07 -0.62 1.23 -0.5 C 1.39 -0.37 1.61 -0.31 1.87 -0.31 C 2.07 -0.31 2.25 -0.34 2.42 -0.40 C 2.58 -0.46 2.74 -0.57 2.89 -0.71 L 2.89 -1.35 C 2.74 -1.45 2.58 -1.51 2.42 -1.54 C 2.26 -1.58 2.08 -1.60 1.89 -1.60 C 1.61 -1.60 1.39 -1.55 1.23 -1.43 C 1.07 -1.32 1 -1.17 1 -0.98 Z M 1 -0.98 "/>
</g>
<g id="helm-kustomize-glyph-2-7">
<path d="M 2.04 0.06 C 1.74 0.06 1.46 0.02 1.20 -0.04 C 0.94 -0.12 0.72 -0.25 0.56 -0.43 L 0.82 -0.78 C 1.04 -0.62 1.25 -0.51 1.43 -0.45 C 1.63 -0.39 1.83 -0.35 2.03 -0.35 C 2.31 -0.35 2.53 -0.41 2.71 -0.51 C 2.90 -0.62 3 -0.77 3 -0.95 C 3 -1.08 2.95 -1.18 2.87 -1.25 C 2.78 -1.32 2.67 -1.37 2.53 -1.40 C 2.39 -1.44 2.24 -1.47 2.07 -1.48 C 1.91 -1.50 1.73 -1.53 1.56 -1.56 C 1.39 -1.59 1.24 -1.64 1.10 -1.70 C 0.97 -1.76 0.85 -1.85 0.76 -1.96 C 0.67 -2.08 0.64 -2.23 0.64 -2.43 C 0.64 -2.63 0.69 -2.80 0.81 -2.95 C 0.92 -3.10 1.08 -3.22 1.28 -3.31 C 1.48 -3.39 1.72 -3.43 1.98 -3.43 C 2.23 -3.43 2.47 -3.40 2.70 -3.34 C 2.92 -3.28 3.16 -3.17 3.39 -3.01 L 3.14 -2.65 C 2.95 -2.78 2.75 -2.86 2.56 -2.92 C 2.36 -2.98 2.16 -3.01 1.96 -3.01 C 1.70 -3.01 1.5 -2.96 1.34 -2.85 C 1.18 -2.76 1.10 -2.64 1.10 -2.48 C 1.10 -2.34 1.14 -2.24 1.23 -2.17 C 1.31 -2.10 1.42 -2.06 1.57 -2.03 C 1.72 -2 1.87 -1.97 2.04 -1.95 C 2.21 -1.92 2.37 -1.90 2.54 -1.87 C 2.71 -1.84 2.86 -1.79 3 -1.73 C 3.14 -1.67 3.25 -1.57 3.34 -1.45 C 3.43 -1.33 3.48 -1.17 3.48 -0.98 C 3.48 -0.78 3.42 -0.60 3.29 -0.43 C 3.17 -0.28 3 -0.15 2.78 -0.06 C 2.56 0.01 2.31 0.06 2.04 0.06 Z M 2.04 0.06 "/>
</g>
<g id="helm-kustomize-glyph-2-8">
<path d="M 2.07 0.06 C 1.95 0.06 1.84 0.01 1.75 -0.06 C 1.66 -0.15 1.62 -0.26 1.62 -0.39 C 1.62 -0.51 1.66 -0.61 1.75 -0.70 C 1.84 -0.79 1.95 -0.84 2.07 -0.84 C 2.21 -0.84 2.32 -0.79 2.40 -0.70 C 2.48 -0.61 2.53 -0.51 2.53 -0.39 C 2.53 -0.26 2.48 -0.15 2.40 -0.06 C 2.32 0.01 2.21 0.06 2.07 0.06 Z M 2.07 -2.68 C 1.95 -2.68 1.84 -2.72 1.75 -2.81 C 1.66 -2.90 1.62 -3.01 1.62 -3.14 C 1.62 -3.26 1.66 -3.36 1.75 -3.45 C 1.84 -3.54 1.95 -3.59 2.07 -3.59 C 2.21 -3.59 2.32 -3.54 2.40 -3.45 C 2.48 -3.36 2.53 -3.26 2.53 -3.14 C 2.53 -3.01 2.48 -2.90 2.40 -2.81 C 2.32 -2.72 2.21 -2.68 2.07 -2.68 Z M 2.07 -2.68 "/>
</g>
<g id="helm-kustomize-glyph-2-9">
<path d="M 2.37 1.51 C 2.17 1.51 2.00 1.47 1.85 1.39 C 1.72 1.31 1.61 1.21 1.53 1.07 C 1.44 0.94 1.40 0.78 1.40 0.60 C 1.40 0.46 1.43 0.31 1.5 0.17 C 1.56 0.02 1.62 -0.10 1.70 -0.23 C 1.77 -0.36 1.84 -0.5 1.90 -0.62 C 1.96 -0.75 2 -0.86 2 -0.96 C 2 -1.12 1.93 -1.25 1.81 -1.34 C 1.69 -1.43 1.53 -1.48 1.34 -1.48 L 0.79 -1.48 L 0.79 -1.92 L 1.34 -1.92 C 1.53 -1.92 1.69 -1.96 1.81 -2.06 C 1.93 -2.16 2 -2.28 2 -2.43 C 2 -2.55 1.96 -2.66 1.90 -2.78 C 1.84 -2.90 1.77 -3.03 1.70 -3.17 C 1.62 -3.30 1.56 -3.44 1.5 -3.57 C 1.43 -3.72 1.40 -3.87 1.40 -4.03 C 1.40 -4.19 1.44 -4.34 1.53 -4.48 C 1.61 -4.61 1.72 -4.72 1.85 -4.81 C 2.00 -4.89 2.17 -4.93 2.37 -4.93 C 2.48 -4.93 2.61 -4.92 2.76 -4.89 C 2.92 -4.86 3.07 -4.81 3.23 -4.73 L 3.09 -4.35 C 2.95 -4.42 2.83 -4.46 2.71 -4.48 C 2.60 -4.50 2.48 -4.51 2.37 -4.51 C 2.21 -4.51 2.09 -4.46 2 -4.37 C 1.90 -4.28 1.85 -4.17 1.85 -4.03 C 1.85 -3.91 1.88 -3.78 1.93 -3.65 C 2 -3.53 2.06 -3.39 2.14 -3.25 C 2.22 -3.11 2.28 -2.97 2.34 -2.84 C 2.40 -2.71 2.43 -2.59 2.43 -2.48 C 2.43 -2.30 2.37 -2.14 2.26 -2 C 2.14 -1.85 2 -1.75 1.81 -1.70 C 2 -1.66 2.14 -1.56 2.26 -1.42 C 2.37 -1.27 2.43 -1.10 2.43 -0.92 C 2.43 -0.80 2.40 -0.67 2.34 -0.54 C 2.28 -0.42 2.22 -0.28 2.14 -0.15 C 2.06 -0.01 2 0.10 1.93 0.23 C 1.88 0.36 1.85 0.49 1.85 0.60 C 1.85 0.75 1.90 0.87 2 0.96 C 2.09 1.06 2.21 1.10 2.37 1.10 C 2.48 1.10 2.60 1.09 2.71 1.07 C 2.83 1.05 2.95 1.01 3.09 0.95 L 3.23 1.32 C 3.07 1.39 2.92 1.44 2.76 1.46 C 2.61 1.5 2.48 1.51 2.37 1.51 Z M 2.37 1.51 "/>
</g>
<g id="helm-kustomize-glyph-2-10">
<path d="M 2.07 0.06 C 1.95 0.06 1.84 0.01 1.75 -0.06 C 1.66 -0.15 1.62 -0.26 1.62 -0.39 C 1.62 -0.51 1.66 -0.61 1.75 -0.70 C 1.84 -0.79 1.95 -0.84 2.07 -0.84 C 2.21 -0.84 2.32 -0.79 2.40 -0.70 C 2.48 -0.61 2.53 -0.51 2.53 -0.39 C 2.53 -0.26 2.48 -0.15 2.40 -0.06 C 2.32 0.01 2.21 0.06 2.07 0.06 Z M 2.07 0.06 "/>
</g>
<g id="helm-kustomize-glyph-2-11">
<path d="M 1.73 0 L 0.10 -4.85 L 0.67 -4.85 L 2.09 -0.5 L 3.5 -4.84 L 4.04 -4.84 L 2.42 0 Z M 1.73 0 "/>
</g>
<g id="helm-kustomize-glyph-2-12">
<path d="M 1.89 0.06 C 1.64 0.06 1.43 0.00 1.25 -0.09 C 1.07 -0.20 0.92 -0.35 0.82 -0.54 C 0.72 -0.73 0.67 -0.95 0.67 -1.20 L 0.67 -3.39 L 1.17 -3.39 L 1.17 -1.34 C 1.17 -1.03 1.25 -0.80 1.42 -0.62 C 1.58 -0.45 1.80 -0.37 2.07 -0.37 C 2.26 -0.37 2.42 -0.41 2.57 -0.5 C 2.73 -0.58 2.86 -0.70 2.96 -0.87 L 2.96 -3.39 L 3.46 -3.39 L 3.46 0 L 2.96 0 L 2.96 -0.54 C 2.71 -0.14 2.35 0.06 1.89 0.06 Z M 1.89 0.06 "/>
</g>
<g id="helm-kustomize-glyph-2-13">
<path d="M 1.79 -4.93 C 1.98 -4.93 2.14 -4.89 2.29 -4.81 C 2.44 -4.72 2.55 -4.61 2.62 -4.48 C 2.70 -4.34 2.75 -4.19 2.75 -4.03 C 2.75 -3.87 2.71 -3.72 2.65 -3.57 C 2.60 -3.44 2.53 -3.30 2.45 -3.17 C 2.37 -3.03 2.31 -2.90 2.25 -2.78 C 2.19 -2.66 2.17 -2.55 2.17 -2.43 C 2.17 -2.28 2.22 -2.16 2.34 -2.06 C 2.45 -1.96 2.61 -1.92 2.82 -1.92 L 3.37 -1.92 L 3.37 -1.48 L 2.82 -1.48 C 2.61 -1.48 2.45 -1.43 2.34 -1.34 C 2.22 -1.25 2.17 -1.12 2.17 -0.96 C 2.17 -0.86 2.19 -0.75 2.25 -0.62 C 2.31 -0.5 2.37 -0.36 2.45 -0.23 C 2.53 -0.10 2.60 0.02 2.65 0.17 C 2.71 0.31 2.75 0.46 2.75 0.60 C 2.75 0.78 2.70 0.94 2.62 1.07 C 2.55 1.21 2.44 1.31 2.29 1.39 C 2.14 1.47 1.98 1.51 1.79 1.51 C 1.67 1.51 1.53 1.5 1.37 1.46 C 1.22 1.44 1.07 1.39 0.92 1.32 L 1.06 0.95 C 1.20 1.01 1.33 1.05 1.43 1.07 C 1.55 1.09 1.66 1.10 1.78 1.10 C 1.94 1.10 2.07 1.06 2.17 0.96 C 2.26 0.87 2.31 0.75 2.31 0.60 C 2.31 0.49 2.28 0.36 2.21 0.23 C 2.15 0.10 2.08 -0.01 2.01 -0.15 C 1.94 -0.28 1.87 -0.42 1.81 -0.54 C 1.75 -0.67 1.71 -0.80 1.71 -0.92 C 1.71 -1.10 1.77 -1.27 1.89 -1.42 C 2.01 -1.56 2.16 -1.66 2.34 -1.70 C 2.15 -1.75 2.00 -1.85 1.89 -2 C 1.77 -2.14 1.71 -2.30 1.71 -2.48 C 1.71 -2.59 1.75 -2.71 1.81 -2.84 C 1.87 -2.97 1.94 -3.11 2.01 -3.25 C 2.08 -3.39 2.15 -3.53 2.21 -3.65 C 2.28 -3.78 2.31 -3.91 2.31 -4.03 C 2.31 -4.17 2.26 -4.28 2.17 -4.37 C 2.07 -4.46 1.94 -4.51 1.78 -4.51 C 1.66 -4.51 1.55 -4.50 1.43 -4.48 C 1.33 -4.46 1.20 -4.42 1.06 -4.35 L 0.92 -4.73 C 1.07 -4.81 1.22 -4.86 1.37 -4.89 C 1.53 -4.92 1.67 -4.93 1.79 -4.93 Z M 1.79 -4.93 "/>
</g>
<g id="helm-kustomize-glyph-2-14">
<path d="M 0.92 -1.73 L 0.92 -2.15 L 3.23 -2.15 L 3.23 -1.73 Z M 0.92 -1.73 "/>
</g>
<g id="helm-kustomize-glyph-2-15">
<path d="M 1.5 0 L 1.5 -2.96 L 0.34 -2.96 L 0.34 -3.39 L 1.5 -3.39 L 1.5 -4.06 C 1.5 -4.78 1.90 -5.14 2.71 -5.14 C 2.86 -5.14 3.00 -5.12 3.14 -5.09 C 3.28 -5.06 3.42 -5.01 3.56 -4.96 L 3.56 -4.5 C 3.39 -4.57 3.24 -4.61 3.10 -4.64 C 2.98 -4.67 2.83 -4.68 2.67 -4.68 C 2.46 -4.68 2.29 -4.62 2.17 -4.51 C 2.05 -4.41 2 -4.23 2 -3.98 L 2 -3.39 L 3.56 -3.39 L 3.56 -2.96 L 2 -2.96 L 2 0 Z M 1.5 0 "/>
</g>
<g id="helm-kustomize-glyph-2-16">
<path d="M 0.92 -2.20 L 0.92 -2.62 L 3.23 -2.62 L 3.23 -2.20 Z M 0.92 -2.20 "/>
</g>
<g id="helm-kustomize-glyph-2-17">
<path d="M 2.64 0.06 C 2.25 0.06 1.96 -0.01 1.76 -0.17 C 1.56 -0.33 1.46 -0.57 1.46 -0.89 L 1.46 -2.96 L 0.31 -2.96 L 0.31 -3.39 L 1.46 -3.39 L 1.46 -4.31 L 1.96 -4.43 L 1.96 -3.39 L 3.53 -3.39 L 3.53 -2.96 L 1.96 -2.96 L 1.96 -0.98 C 1.96 -0.76 2.02 -0.60 2.14 -0.51 C 2.25 -0.42 2.42 -0.37 2.64 -0.37 C 2.77 -0.37 2.91 -0.39 3.06 -0.42 C 3.20 -0.45 3.36 -0.5 3.53 -0.56 L 3.53 -0.10 C 3.37 -0.04 3.22 -0.00 3.07 0.01 C 2.92 0.04 2.78 0.06 2.64 0.06 Z M 2.64 0.06 "/>
</g>
<g id="helm-kustomize-glyph-2-18">
<path d="M 2.07 0.06 C 1.76 0.06 1.48 -0.00 1.23 -0.15 C 0.99 -0.31 0.80 -0.51 0.65 -0.78 C 0.50 -1.05 0.43 -1.35 0.43 -1.68 C 0.43 -2.01 0.50 -2.31 0.65 -2.57 C 0.80 -2.84 0.99 -3.05 1.23 -3.20 C 1.48 -3.35 1.76 -3.43 2.07 -3.43 C 2.39 -3.43 2.66 -3.35 2.90 -3.20 C 3.15 -3.05 3.35 -2.84 3.5 -2.57 C 3.64 -2.31 3.71 -2.01 3.71 -1.68 C 3.71 -1.35 3.64 -1.05 3.5 -0.78 C 3.35 -0.51 3.15 -0.31 2.90 -0.15 C 2.66 -0.00 2.39 0.06 2.07 0.06 Z M 2.07 -0.37 C 2.30 -0.37 2.50 -0.42 2.67 -0.54 C 2.83 -0.66 2.96 -0.81 3.06 -1.01 C 3.16 -1.21 3.21 -1.43 3.21 -1.68 C 3.21 -1.93 3.16 -2.16 3.06 -2.35 C 2.96 -2.55 2.83 -2.70 2.67 -2.81 C 2.50 -2.92 2.30 -2.98 2.07 -2.98 C 1.85 -2.98 1.66 -2.92 1.48 -2.81 C 1.31 -2.70 1.17 -2.55 1.07 -2.35 C 0.98 -2.16 0.93 -1.93 0.93 -1.68 C 0.93 -1.43 0.98 -1.21 1.07 -1.01 C 1.17 -0.81 1.31 -0.66 1.48 -0.54 C 1.66 -0.42 1.85 -0.37 2.07 -0.37 Z M 2.07 -0.37 "/>
</g>
<g id="helm-kustomize-glyph-2-19">
<path d="M 0.62 0 L 0.62 -5.01 L 1.14 -5.10 L 1.14 -2.95 C 1.27 -3.10 1.42 -3.22 1.60 -3.29 C 1.78 -3.37 1.97 -3.42 2.18 -3.42 C 2.48 -3.42 2.75 -3.34 3 -3.18 C 3.23 -3.03 3.42 -2.83 3.56 -2.56 C 3.70 -2.30 3.78 -2.00 3.78 -1.68 C 3.78 -1.36 3.70 -1.07 3.56 -0.81 C 3.42 -0.55 3.23 -0.34 3 -0.18 C 2.76 -0.03 2.50 0.04 2.21 0.04 C 2 0.04 1.79 0.00 1.60 -0.07 C 1.42 -0.16 1.26 -0.28 1.14 -0.45 L 1.14 0 Z M 2.09 -0.39 C 2.32 -0.39 2.52 -0.44 2.70 -0.56 C 2.87 -0.67 3.01 -0.83 3.12 -1.03 C 3.22 -1.22 3.28 -1.44 3.28 -1.68 C 3.28 -1.93 3.22 -2.16 3.12 -2.35 C 3.01 -2.55 2.87 -2.70 2.70 -2.81 C 2.52 -2.92 2.32 -2.98 2.09 -2.98 C 1.90 -2.98 1.72 -2.94 1.54 -2.85 C 1.37 -2.77 1.24 -2.66 1.14 -2.53 L 1.14 -0.84 C 1.24 -0.69 1.37 -0.58 1.54 -0.5 C 1.71 -0.42 1.89 -0.39 2.09 -0.39 Z M 2.09 -0.39 "/>
</g>
<g id="helm-kustomize-glyph-2-20">
<path d="M 0.78 0 L 0.78 -5.01 L 1.29 -5.10 L 1.29 -1.82 L 3.07 -3.39 L 3.71 -3.39 L 1.84 -1.76 L 3.79 0 L 3.10 0 L 1.29 -1.65 L 1.29 0 Z M 0.78 0 "/>
</g>
<g id="helm-kustomize-glyph-2-21">
<path d="M 0.51 0 L 0.51 -0.37 L 2.45 -2.48 C 2.60 -2.64 2.72 -2.79 2.81 -2.92 C 2.89 -3.05 2.95 -3.17 2.98 -3.28 C 3.02 -3.39 3.04 -3.51 3.04 -3.64 C 3.04 -3.89 2.94 -4.09 2.75 -4.25 C 2.56 -4.40 2.32 -4.48 2.03 -4.48 C 1.80 -4.48 1.58 -4.43 1.39 -4.34 C 1.20 -4.25 0.98 -4.11 0.75 -3.90 L 0.45 -4.25 C 0.70 -4.47 0.95 -4.64 1.21 -4.76 C 1.47 -4.87 1.75 -4.93 2.03 -4.93 C 2.32 -4.93 2.58 -4.87 2.81 -4.76 C 3.03 -4.66 3.21 -4.50 3.34 -4.31 C 3.46 -4.12 3.53 -3.91 3.53 -3.67 C 3.53 -3.50 3.50 -3.35 3.46 -3.21 C 3.42 -3.08 3.35 -2.93 3.25 -2.78 C 3.14 -2.62 2.99 -2.44 2.79 -2.23 L 1.14 -0.43 L 3.64 -0.43 L 3.64 0 Z M 0.51 0 "/>
</g>
<g id="helm-kustomize-glyph-2-22">
<path d="M 1.98 0.07 C 1.64 0.07 1.33 0.01 1.04 -0.09 C 0.76 -0.20 0.50 -0.37 0.28 -0.60 L 0.62 -0.93 C 0.82 -0.72 1.02 -0.57 1.23 -0.48 C 1.45 -0.39 1.70 -0.35 1.98 -0.35 C 2.21 -0.35 2.41 -0.39 2.59 -0.48 C 2.78 -0.56 2.92 -0.67 3.03 -0.82 C 3.13 -0.97 3.18 -1.14 3.18 -1.34 C 3.18 -1.51 3.14 -1.67 3.04 -1.81 C 2.95 -1.95 2.82 -2.06 2.67 -2.14 C 2.51 -2.22 2.33 -2.26 2.14 -2.26 L 1.56 -2.26 L 1.56 -2.70 L 2.10 -2.70 C 2.37 -2.70 2.59 -2.78 2.75 -2.93 C 2.91 -3.10 3 -3.31 3 -3.57 C 3 -3.74 2.95 -3.89 2.85 -4.03 C 2.76 -4.17 2.64 -4.28 2.48 -4.35 C 2.32 -4.44 2.14 -4.48 1.95 -4.48 C 1.70 -4.48 1.47 -4.43 1.28 -4.34 C 1.08 -4.25 0.88 -4.11 0.68 -3.90 L 0.34 -4.23 C 0.56 -4.46 0.80 -4.63 1.07 -4.75 C 1.34 -4.87 1.64 -4.93 1.95 -4.93 C 2.25 -4.93 2.51 -4.87 2.75 -4.75 C 2.97 -4.63 3.16 -4.47 3.29 -4.28 C 3.42 -4.08 3.5 -3.85 3.5 -3.59 C 3.5 -3.34 3.41 -3.11 3.25 -2.90 C 3.08 -2.70 2.86 -2.57 2.59 -2.5 C 2.92 -2.42 3.19 -2.28 3.39 -2.06 C 3.58 -1.85 3.68 -1.60 3.68 -1.32 C 3.68 -1.05 3.61 -0.81 3.46 -0.59 C 3.32 -0.38 3.11 -0.21 2.85 -0.09 C 2.60 0.01 2.31 0.07 1.98 0.07 Z M 1.98 0.07 "/>
</g>
</g>
<clipPath id="helm-kustomize-clip-0">
<path clip-rule="nonzero" d="M 1.02 11 L 128 11 L 128 72 L 1.02 72 Z M 1.02 11 "/>
</clipPath>
<clipPath id="helm-kustomize-clip-1">
<path clip-rule="nonzero" d="M 278 15 L 423.16 15 L 423.16 68 L 278 68 Z M 278 15 "/>
</clipPath>
<clipPath id="helm-kustomize-clip-2">
<path clip-rule="nonzero" d="M 1.02 88 L 128 88 L 128 134.42 L 1.02 134.42 Z M 1.02 88 "/>
</clipPath>
<clipPath id="helm-kustomize-clip-3">
<path clip-rule="nonzero" d="M 119 92 L 252 92 L 252 134.42 L 119 134.42 Z M 119 92 "/>
</clipPath>
<clipPath id="helm-kustomize-clip-4">
<path clip-rule="nonzero" d="M 278 88 L 423.16 88 L 423.16 134.42 L 278 134.42 Z M 278 88 "/>
</clipPath>
</defs>
<g style="fill:var(--fig-ink)" fill-opacity="1">
<use xlink:href="#helm-kustomize-glyph-0-0" x="8.29" y="14.19"/>
<use xlink:href="#helm-kustomize-glyph-0-1" x="13.01" y="14.19"/>
<use xlink:href="#helm-kustomize-glyph-0-2" x="17.23" y="14.19"/>
<use xlink:href="#helm-kustomize-glyph-0-3" x="19.20" y="14.19"/>
</g>
<g style="fill:var(--fig-ink)" fill-opacity="1">
<use xlink:href="#helm-kustomize-glyph-0-4" x="27.77" y="14.19"/>
</g>
<g style="fill:var(--fig-ink)" fill-opacity="1">
<use xlink:href="#helm-kustomize-glyph-0-5" x="32.90" y="14.19"/>
<use xlink:href="#helm-kustomize-glyph-0-1" x="37.23" y="14.19"/>
<use xlink:href="#helm-kustomize-glyph-0-6" x="41.45" y="14.19"/>
</g>
<g style="fill:var(--fig-ink)" fill-opacity="1">
<use xlink:href="#helm-kustomize-glyph-0-3" x="47.36" y="14.19"/>
<use xlink:href="#helm-kustomize-glyph-0-7" x="53.95" y="14.19"/>
<use xlink:href="#helm-kustomize-glyph-0-5" x="58.23" y="14.19"/>
<use xlink:href="#helm-kustomize-glyph-0-8" x="62.56" y="14.19"/>
<use xlink:href="#helm-kustomize-glyph-0-2" x="66.78" y="14.19"/>
<use xlink:href="#helm-kustomize-glyph-0-1" x="68.75" y="14.19"/>
<use xlink:href="#helm-kustomize-glyph-0-6" x="72.97" y="14.19"/>
</g>
<g style="fill:var(--fig-ink)" fill-opacity="1">
<use xlink:href="#helm-kustomize-glyph-0-1" x="78.88" y="14.19"/>
</g>
<g style="fill:var(--fig-ink)" fill-opacity="1">
<use xlink:href="#helm-kustomize-glyph-0-9" x="83.08" y="14.19"/>
</g>
<g style="fill:var(--fig-ink)" fill-opacity="1">
<use xlink:href="#helm-kustomize-glyph-0-5" x="87.84" y="14.19"/>
<use xlink:href="#helm-kustomize-glyph-0-1" x="92.17" y="14.19"/>
<use xlink:href="#helm-kustomize-glyph-0-6" x="96.39" y="14.19"/>
</g>
<g style="fill:var(--fig-ink)" fill-opacity="1">
<use xlink:href="#helm-kustomize-glyph-0-10" x="102.30" y="14.19"/>
</g>
<g style="fill:var(--fig-ink)" fill-opacity="1">
<use xlink:href="#helm-kustomize-glyph-0-11" x="106.32" y="14.19"/>
<use xlink:href="#helm-kustomize-glyph-0-2" x="110.62" y="14.19"/>
<use xlink:href="#helm-kustomize-glyph-0-1" x="112.59" y="14.19"/>
<use xlink:href="#helm-kustomize-glyph-0-12" x="116.81" y="14.19"/>
<use xlink:href="#helm-kustomize-glyph-0-13" x="121.14" y="14.19"/>
<use xlink:href="#helm-kustomize-glyph-0-6" x="124.24" y="14.19"/>
</g>
<path fill-rule="nonzero" style="fill:var(--fig-sarcelle-bg)" fill-opacity="1" d="M 114.36 22.90 L 7.95 22.90 C 7.13 22.90 6.46 23.57 6.46 24.39 L 6.46 59.14 C 6.46 59.96 7.13 60.63 7.95 60.63 L 114.36 60.63 C 115.18 60.63 115.84 59.96 115.84 59.14 L 115.84 24.39 C 115.84 23.57 115.18 22.90 114.36 22.90 Z M 114.36 22.90 "/>
<g clip-path="url(#helm-kustomize-clip-0)">
<path fill="none" stroke-width="0.79" stroke-linecap="butt" stroke-linejoin="miter" style="stroke:var(--fig-sarcelle)" stroke-opacity="1" stroke-miterlimit="10" d="M 53.51 52.98 L -53.51 52.98 C -54.33 52.98 -55.01 52.32 -55.01 51.49 L -55.01 16.53 C -55.01 15.71 -54.33 15.04 -53.51 15.04 L 53.51 15.04 C 54.34 15.04 55.00 15.71 55.00 16.53 L 55.00 51.49 C 55.00 52.32 54.34 52.98 53.51 52.98 Z M 53.51 52.98 " transform="matrix(0.994206, 0, 0, -0.994206, 61.157328, 75.588479)"/>
</g>
<g style="fill:var(--fig-ink)" fill-opacity="1">
<use xlink:href="#helm-kustomize-glyph-1-0" x="10.42" y="31.77"/>
<use xlink:href="#helm-kustomize-glyph-1-1" x="16.28" y="31.77"/>
</g>
<g style="fill:var(--fig-ink)" fill-opacity="1">
<use xlink:href="#helm-kustomize-glyph-1-2" x="20.10" y="31.77"/>
<use xlink:href="#helm-kustomize-glyph-1-3" x="24.01" y="31.77"/>
<use xlink:href="#helm-kustomize-glyph-1-4" x="27.74" y="31.77"/>
</g>
<g style="fill:var(--fig-ink)" fill-opacity="1">
<use xlink:href="#helm-kustomize-glyph-1-5" x="29.53" y="31.77"/>
<use xlink:href="#helm-kustomize-glyph-1-6" x="33.26" y="31.77"/>
</g>
<g style="fill:var(--fig-ink)" fill-opacity="1">
<use xlink:href="#helm-kustomize-glyph-2-0" x="10.42" y="39.70"/>
<use xlink:href="#helm-kustomize-glyph-2-1" x="14.58" y="39.70"/>
<use xlink:href="#helm-kustomize-glyph-2-2" x="18.74" y="39.70"/>
<use xlink:href="#helm-kustomize-glyph-2-3" x="22.90" y="39.70"/>
<use xlink:href="#helm-kustomize-glyph-2-4" x="27.06" y="39.70"/>
<use xlink:href="#helm-kustomize-glyph-2-5" x="31.22" y="39.70"/>
<use xlink:href="#helm-kustomize-glyph-2-6" x="35.38" y="39.70"/>
<use xlink:href="#helm-kustomize-glyph-2-7" x="39.54" y="39.70"/>
<use xlink:href="#helm-kustomize-glyph-2-8" x="43.70" y="39.70"/>
</g>
<g style="fill:var(--fig-ink)" fill-opacity="1">
<use xlink:href="#helm-kustomize-glyph-2-9" x="51.33" y="39.70"/>
<use xlink:href="#helm-kustomize-glyph-2-9" x="55.49" y="39.70"/>
</g>
<g style="fill:var(--fig-ink)" fill-opacity="1">
<use xlink:href="#helm-kustomize-glyph-2-10" x="61.96" y="39.70"/>
<use xlink:href="#helm-kustomize-glyph-2-11" x="66.12" y="39.70"/>
<use xlink:href="#helm-kustomize-glyph-2-6" x="70.28" y="39.70"/>
<use xlink:href="#helm-kustomize-glyph-2-3" x="74.44" y="39.70"/>
<use xlink:href="#helm-kustomize-glyph-2-12" x="78.60" y="39.70"/>
<use xlink:href="#helm-kustomize-glyph-2-1" x="82.76" y="39.70"/>
<use xlink:href="#helm-kustomize-glyph-2-7" x="86.92" y="39.70"/>
<use xlink:href="#helm-kustomize-glyph-2-10" x="91.08" y="39.70"/>
<use xlink:href="#helm-kustomize-glyph-2-10" x="95.24" y="39.70"/>
<use xlink:href="#helm-kustomize-glyph-2-10" x="99.40" y="39.70"/>
</g>
<g style="fill:var(--fig-ink)" fill-opacity="1">
<use xlink:href="#helm-kustomize-glyph-2-13" x="10.42" y="47.62"/>
<use xlink:href="#helm-kustomize-glyph-2-13" x="14.58" y="47.62"/>
</g>
<g style="fill:var(--fig-ink)" fill-opacity="1">
<use xlink:href="#helm-kustomize-glyph-1-7" x="10.42" y="55.54"/>
<use xlink:href="#helm-kustomize-glyph-1-8" x="12.50" y="55.54"/>
<use xlink:href="#helm-kustomize-glyph-1-9" x="16.42" y="55.54"/>
</g>
<g style="fill:var(--fig-ink)" fill-opacity="1">
<use xlink:href="#helm-kustomize-glyph-1-6" x="19.99" y="55.54"/>
</g>
<g style="fill:var(--fig-ink)" fill-opacity="1">
<use xlink:href="#helm-kustomize-glyph-1-2" x="25.57" y="55.54"/>
<use xlink:href="#helm-kustomize-glyph-1-10" x="29.48" y="55.54"/>
</g>
<g style="fill:var(--fig-ink)" fill-opacity="1">
<use xlink:href="#helm-kustomize-glyph-1-11" x="35.32" y="55.54"/>
</g>
<g style="fill:var(--fig-ink)" fill-opacity="1">
<use xlink:href="#helm-kustomize-glyph-1-12" x="38.97" y="55.54"/>
<use xlink:href="#helm-kustomize-glyph-1-13" x="43.31" y="55.54"/>
<use xlink:href="#helm-kustomize-glyph-1-14" x="49.02" y="55.54"/>
</g>
<g style="fill:var(--fig-ink)" fill-opacity="1">
<use xlink:href="#helm-kustomize-glyph-1-15" x="55.01" y="55.54"/>
</g>
<g style="fill:var(--fig-ink)" fill-opacity="1">
<use xlink:href="#helm-kustomize-glyph-1-9" x="58.15" y="55.54"/>
<use xlink:href="#helm-kustomize-glyph-1-4" x="61.79" y="55.54"/>
</g>
<g style="fill:var(--fig-ink)" fill-opacity="1">
<use xlink:href="#helm-kustomize-glyph-1-16" x="63.65" y="55.54"/>
<use xlink:href="#helm-kustomize-glyph-1-2" x="65.40" y="55.54"/>
<use xlink:href="#helm-kustomize-glyph-1-5" x="69.31" y="55.54"/>
<use xlink:href="#helm-kustomize-glyph-1-17" x="73.04" y="55.54"/>
</g>
<path fill-rule="nonzero" style="fill:var(--fig-gris-bg);stroke:var(--fig-gris)" fill-opacity="1" stroke-width="0.79" stroke-linecap="butt" stroke-linejoin="miter" stroke-opacity="1" stroke-miterlimit="10" d="M 178.24 44.91 L 71.21 44.91 C 70.38 44.91 69.71 44.25 69.71 43.42 L 69.71 24.60 C 69.71 23.78 70.38 23.11 71.21 23.11 L 178.24 23.11 C 179.06 23.11 179.73 23.78 179.73 24.60 L 179.73 43.42 C 179.73 44.25 179.06 44.91 178.24 44.91 Z M 178.24 44.91 " transform="matrix(0.994206, 0, 0, -0.994206, 61.157328, 75.588479)"/>
<g style="fill:var(--fig-ink)" fill-opacity="1">
<use xlink:href="#helm-kustomize-glyph-1-15" x="134.43" y="39.80"/>
</g>
<g style="fill:var(--fig-ink)" fill-opacity="1">
<use xlink:href="#helm-kustomize-glyph-1-9" x="137.57" y="39.80"/>
<use xlink:href="#helm-kustomize-glyph-1-4" x="141.21" y="39.80"/>
</g>
<g style="fill:var(--fig-ink)" fill-opacity="1">
<use xlink:href="#helm-kustomize-glyph-1-5" x="143.00" y="39.80"/>
<use xlink:href="#helm-kustomize-glyph-1-10" x="146.73" y="39.80"/>
<use xlink:href="#helm-kustomize-glyph-1-18" x="150.47" y="39.80"/>
<use xlink:href="#helm-kustomize-glyph-1-6" x="152.89" y="39.80"/>
</g>
<g style="fill:var(--fig-ink)" fill-opacity="1">
<use xlink:href="#helm-kustomize-glyph-2-14" x="134.43" y="47.72"/>
<use xlink:href="#helm-kustomize-glyph-2-15" x="138.59" y="47.72"/>
</g>
<g style="fill:var(--fig-ink)" fill-opacity="1">
<use xlink:href="#helm-kustomize-glyph-1-19" x="142.75" y="47.72"/>
</g>
<g style="fill:var(--fig-ink)" fill-opacity="1">
<use xlink:href="#helm-kustomize-glyph-2-16" x="146.51" y="47.72"/>
<use xlink:href="#helm-kustomize-glyph-2-16" x="150.67" y="47.72"/>
<use xlink:href="#helm-kustomize-glyph-2-7" x="154.83" y="47.72"/>
<use xlink:href="#helm-kustomize-glyph-2-1" x="158.99" y="47.72"/>
<use xlink:href="#helm-kustomize-glyph-2-17" x="163.15" y="47.72"/>
</g>
<path fill-rule="nonzero" style="fill:var(--fig-vert-bg)" fill-opacity="1" d="M 417.32 26.76 L 291.18 26.76 C 290.36 26.76 289.70 27.43 289.70 28.25 L 289.70 55.28 C 289.70 56.10 290.36 56.77 291.18 56.77 L 417.32 56.77 C 418.14 56.77 418.80 56.10 418.80 55.28 L 418.80 28.25 C 418.80 27.43 418.14 26.76 417.32 26.76 Z M 417.32 26.76 "/>
<g clip-path="url(#helm-kustomize-clip-1)">
<path fill="none" stroke-width="0.79" stroke-linecap="butt" stroke-linejoin="miter" style="stroke:var(--fig-vert)" stroke-opacity="1" stroke-miterlimit="10" d="M 358.24 49.10 L 231.37 49.10 C 230.54 49.10 229.87 48.43 229.87 47.61 L 229.87 20.42 C 229.87 19.59 230.54 18.92 231.37 18.92 L 358.24 18.92 C 359.06 18.92 359.73 19.59 359.73 20.42 L 359.73 47.61 C 359.73 48.43 359.06 49.10 358.24 49.10 Z M 358.24 49.10 " transform="matrix(0.994206, 0, 0, -0.994206, 61.157328, 75.588479)"/>
</g>
<g style="fill:var(--fig-ink)" fill-opacity="1">
<use xlink:href="#helm-kustomize-glyph-1-18" x="293.66" y="35.83"/>
</g>
<g style="fill:var(--fig-ink)" fill-opacity="1">
<use xlink:href="#helm-kustomize-glyph-1-5" x="295.98" y="35.83"/>
<use xlink:href="#helm-kustomize-glyph-1-4" x="299.72" y="35.83"/>
</g>
<g style="fill:var(--fig-ink)" fill-opacity="1">
<use xlink:href="#helm-kustomize-glyph-1-5" x="301.50" y="35.83"/>
<use xlink:href="#helm-kustomize-glyph-1-9" x="305.23" y="35.83"/>
</g>
<g style="fill:var(--fig-ink)" fill-opacity="1">
<use xlink:href="#helm-kustomize-glyph-1-6" x="308.80" y="35.83"/>
</g>
<g style="fill:var(--fig-ink)" fill-opacity="1">
<use xlink:href="#helm-kustomize-glyph-1-5" x="312.06" y="35.83"/>
</g>
<g style="fill:var(--fig-ink)" fill-opacity="1">
<use xlink:href="#helm-kustomize-glyph-1-20" x="318.10" y="35.83"/>
</g>
<g style="fill:var(--fig-ink)" fill-opacity="1">
<use xlink:href="#helm-kustomize-glyph-1-18" x="323.02" y="35.83"/>
</g>
<g style="fill:var(--fig-ink)" fill-opacity="1">
<use xlink:href="#helm-kustomize-glyph-1-21" x="325.36" y="35.83"/>
</g>
<g style="fill:var(--fig-ink)" fill-opacity="1">
<use xlink:href="#helm-kustomize-glyph-1-15" x="329.06" y="35.83"/>
</g>
<g style="fill:var(--fig-ink)" fill-opacity="1">
<use xlink:href="#helm-kustomize-glyph-1-16" x="332.39" y="35.83"/>
<use xlink:href="#helm-kustomize-glyph-1-6" x="334.13" y="35.83"/>
<use xlink:href="#helm-kustomize-glyph-1-16" x="337.40" y="35.83"/>
<use xlink:href="#helm-kustomize-glyph-1-1" x="339.15" y="35.83"/>
<use xlink:href="#helm-kustomize-glyph-1-22" x="342.95" y="35.83"/>
<use xlink:href="#helm-kustomize-glyph-1-6" x="346.76" y="35.83"/>
<use xlink:href="#helm-kustomize-glyph-1-19" x="350.02" y="35.83"/>
</g>
<g style="fill:var(--fig-ink)" fill-opacity="1">
<use xlink:href="#helm-kustomize-glyph-2-0" x="353.79" y="35.83"/>
<use xlink:href="#helm-kustomize-glyph-2-18" x="357.95" y="35.83"/>
<use xlink:href="#helm-kustomize-glyph-2-3" x="362.11" y="35.83"/>
<use xlink:href="#helm-kustomize-glyph-2-3" x="366.27" y="35.83"/>
<use xlink:href="#helm-kustomize-glyph-2-19" x="370.43" y="35.83"/>
<use xlink:href="#helm-kustomize-glyph-2-6" x="374.59" y="35.83"/>
<use xlink:href="#helm-kustomize-glyph-2-5" x="378.75" y="35.83"/>
<use xlink:href="#helm-kustomize-glyph-2-20" x="382.91" y="35.83"/>
</g>
<g style="fill:var(--fig-ink)" fill-opacity="1">
<use xlink:href="#helm-kustomize-glyph-1-19" x="387.07" y="35.83"/>
</g>
<g style="fill:var(--fig-ink)" fill-opacity="1">
<use xlink:href="#helm-kustomize-glyph-1-23" x="293.66" y="43.76"/>
<use xlink:href="#helm-kustomize-glyph-1-1" x="297.47" y="43.76"/>
</g>
<g style="fill:var(--fig-ink)" fill-opacity="1">
<use xlink:href="#helm-kustomize-glyph-1-1" x="301.28" y="43.76"/>
<use xlink:href="#helm-kustomize-glyph-1-24" x="305.08" y="43.76"/>
<use xlink:href="#helm-kustomize-glyph-1-6" x="308.49" y="43.76"/>
<use xlink:href="#helm-kustomize-glyph-1-19" x="311.76" y="43.76"/>
</g>
<g style="fill:var(--fig-ink)" fill-opacity="1">
<use xlink:href="#helm-kustomize-glyph-1-25" x="315.53" y="43.76"/>
</g>
<g style="fill:var(--fig-ink)" fill-opacity="1">
<use xlink:href="#helm-kustomize-glyph-1-5" x="317.71" y="43.76"/>
<use xlink:href="#helm-kustomize-glyph-1-6" x="321.44" y="43.76"/>
</g>
<g style="fill:var(--fig-ink)" fill-opacity="1">
<use xlink:href="#helm-kustomize-glyph-1-25" x="324.70" y="43.76"/>
<use xlink:href="#helm-kustomize-glyph-1-6" x="326.96" y="43.76"/>
<use xlink:href="#helm-kustomize-glyph-1-19" x="330.22" y="43.76"/>
</g>
<g style="fill:var(--fig-ink)" fill-opacity="1">
<use xlink:href="#helm-kustomize-glyph-2-3" x="333.98" y="43.76"/>
<use xlink:href="#helm-kustomize-glyph-2-18" x="338.14" y="43.76"/>
<use xlink:href="#helm-kustomize-glyph-2-18" x="342.30" y="43.76"/>
<use xlink:href="#helm-kustomize-glyph-2-20" x="346.46" y="43.76"/>
<use xlink:href="#helm-kustomize-glyph-2-12" x="350.62" y="43.76"/>
<use xlink:href="#helm-kustomize-glyph-2-2" x="354.78" y="43.76"/>
</g>
<g style="fill:var(--fig-ink)" fill-opacity="1">
<use xlink:href="#helm-kustomize-glyph-1-19" x="358.94" y="43.76"/>
</g>
<g style="fill:var(--fig-ink)" fill-opacity="1">
<use xlink:href="#helm-kustomize-glyph-1-26" x="293.66" y="51.68"/>
</g>
<g style="fill:var(--fig-ink)" fill-opacity="1">
<use xlink:href="#helm-kustomize-glyph-1-23" x="297.15" y="51.68"/>
<use xlink:href="#helm-kustomize-glyph-1-9" x="300.96" y="51.68"/>
<use xlink:href="#helm-kustomize-glyph-1-18" x="304.60" y="51.68"/>
</g>
<g style="fill:var(--fig-ink)" fill-opacity="1">
<use xlink:href="#helm-kustomize-glyph-1-25" x="307.20" y="51.68"/>
</g>
<g style="fill:var(--fig-ink)" fill-opacity="1">
<use xlink:href="#helm-kustomize-glyph-1-15" x="311.70" y="51.68"/>
</g>
<g style="fill:var(--fig-ink)" fill-opacity="1">
<use xlink:href="#helm-kustomize-glyph-1-5" x="314.85" y="51.68"/>
<use xlink:href="#helm-kustomize-glyph-1-18" x="318.58" y="51.68"/>
<use xlink:href="#helm-kustomize-glyph-1-6" x="321.00" y="51.68"/>
<use xlink:href="#helm-kustomize-glyph-1-16" x="324.27" y="51.68"/>
<use xlink:href="#helm-kustomize-glyph-1-1" x="326.01" y="51.68"/>
<use xlink:href="#helm-kustomize-glyph-1-22" x="329.81" y="51.68"/>
<use xlink:href="#helm-kustomize-glyph-1-22" x="333.63" y="51.68"/>
<use xlink:href="#helm-kustomize-glyph-1-21" x="337.44" y="51.68"/>
</g>
<g style="fill:var(--fig-ink)" fill-opacity="1">
<use xlink:href="#helm-kustomize-glyph-1-5" x="343.47" y="51.68"/>
</g>
<g style="fill:var(--fig-ink)" fill-opacity="1">
<use xlink:href="#helm-kustomize-glyph-1-25" x="347.19" y="51.68"/>
</g>
<g style="fill:var(--fig-ink)" fill-opacity="1">
<use xlink:href="#helm-kustomize-glyph-1-8" x="351.75" y="51.68"/>
<use xlink:href="#helm-kustomize-glyph-1-10" x="355.67" y="51.68"/>
<use xlink:href="#helm-kustomize-glyph-1-27" x="359.42" y="51.68"/>
<use xlink:href="#helm-kustomize-glyph-1-4" x="363.34" y="51.68"/>
</g>
<g style="fill:var(--fig-ink)" fill-opacity="1">
<use xlink:href="#helm-kustomize-glyph-1-16" x="365.21" y="51.68"/>
<use xlink:href="#helm-kustomize-glyph-1-21" x="366.96" y="51.68"/>
</g>
<path fill="none" stroke-width="0.79" stroke-linecap="butt" stroke-linejoin="miter" style="stroke:var(--fig-line)" stroke-opacity="1" stroke-miterlimit="10" d="M 55.40 34.01 L 65.05 34.01 " transform="matrix(0.994206, 0, 0, -0.994206, 61.157328, 75.588479)"/>
<path fill-rule="nonzero" style="fill:var(--fig-line);stroke:var(--fig-line)" fill-opacity="1" stroke-width="0.79" stroke-linecap="butt" stroke-linejoin="miter" stroke-opacity="1" stroke-miterlimit="10" d="M 5.66 -0.00 L 1.28 1.65 L 2.73 -0.00 L 1.28 -1.65 Z M 5.66 -0.00 " transform="matrix(0.994206, 0, 0, -0.994206, 123.309701, 41.769492)"/>
<path fill="none" stroke-width="0.79" stroke-linecap="butt" stroke-linejoin="miter" style="stroke:var(--fig-line)" stroke-opacity="1" stroke-miterlimit="10" d="M 180.13 34.01 L 225.21 34.01 " transform="matrix(0.994206, 0, 0, -0.994206, 61.157328, 75.588479)"/>
<path fill-rule="nonzero" style="fill:var(--fig-line);stroke:var(--fig-line)" fill-opacity="1" stroke-width="0.79" stroke-linecap="butt" stroke-linejoin="miter" stroke-opacity="1" stroke-miterlimit="10" d="M 5.66 -0.00 L 1.28 1.65 L 2.74 -0.00 L 1.28 -1.65 Z M 5.66 -0.00 " transform="matrix(0.994206, 0, 0, -0.994206, 282.541228, 41.769492)"/>
<path fill-rule="nonzero" style="fill:var(--fig-paper)" fill-opacity="1" d="M 246.05 41.37 L 283.50 41.37 L 283.50 34.35 L 246.05 34.35 Z M 246.05 41.37 "/>
<g style="fill:var(--fig-muted)" fill-opacity="1">
<use xlink:href="#helm-kustomize-glyph-1-23" x="247.03" y="40.30"/>
<use xlink:href="#helm-kustomize-glyph-1-5" x="250.85" y="40.30"/>
<use xlink:href="#helm-kustomize-glyph-1-4" x="254.58" y="40.30"/>
<use xlink:href="#helm-kustomize-glyph-1-0" x="256.39" y="40.30"/>
</g>
<g style="fill:var(--fig-muted)" fill-opacity="1">
<use xlink:href="#helm-kustomize-glyph-1-16" x="264.19" y="40.30"/>
<use xlink:href="#helm-kustomize-glyph-1-22" x="265.94" y="40.30"/>
<use xlink:href="#helm-kustomize-glyph-1-6" x="269.75" y="40.30"/>
</g>
<g style="fill:var(--fig-muted)" fill-opacity="1">
<use xlink:href="#helm-kustomize-glyph-1-25" x="273.01" y="40.30"/>
<use xlink:href="#helm-kustomize-glyph-1-9" x="275.27" y="40.30"/>
<use xlink:href="#helm-kustomize-glyph-1-4" x="278.91" y="40.30"/>
</g>
<g style="fill:var(--fig-muted)" fill-opacity="1">
<use xlink:href="#helm-kustomize-glyph-1-4" x="280.69" y="40.30"/>
</g>
<g style="fill:var(--fig-ink)" fill-opacity="1">
<use xlink:href="#helm-kustomize-glyph-0-14" x="8.29" y="87.58"/>
<use xlink:href="#helm-kustomize-glyph-0-12" x="13.01" y="87.58"/>
<use xlink:href="#helm-kustomize-glyph-0-6" x="17.35" y="87.58"/>
<use xlink:href="#helm-kustomize-glyph-0-9" x="21.29" y="87.58"/>
<use xlink:href="#helm-kustomize-glyph-0-7" x="24.09" y="87.58"/>
<use xlink:href="#helm-kustomize-glyph-0-3" x="28.36" y="87.58"/>
<use xlink:href="#helm-kustomize-glyph-0-15" x="34.95" y="87.58"/>
<use xlink:href="#helm-kustomize-glyph-0-16" x="37.08" y="87.58"/>
<use xlink:href="#helm-kustomize-glyph-0-1" x="40.73" y="87.58"/>
</g>
<g style="fill:var(--fig-ink)" fill-opacity="1">
<use xlink:href="#helm-kustomize-glyph-0-4" x="46.93" y="87.58"/>
</g>
<g style="fill:var(--fig-ink)" fill-opacity="1">
<use xlink:href="#helm-kustomize-glyph-0-5" x="52.06" y="87.58"/>
<use xlink:href="#helm-kustomize-glyph-0-12" x="56.39" y="87.58"/>
</g>
<g style="fill:var(--fig-ink)" fill-opacity="1">
<use xlink:href="#helm-kustomize-glyph-0-17" x="62.71" y="87.58"/>
</g>
<g style="fill:var(--fig-ink)" fill-opacity="1">
<use xlink:href="#helm-kustomize-glyph-0-18" x="66.61" y="87.58"/>
<use xlink:href="#helm-kustomize-glyph-0-19" x="71.12" y="87.58"/>
<use xlink:href="#helm-kustomize-glyph-0-20" x="76.45" y="87.58"/>
</g>
<g style="fill:var(--fig-ink)" fill-opacity="1">
<use xlink:href="#helm-kustomize-glyph-0-1" x="82.53" y="87.58"/>
</g>
<g style="fill:var(--fig-ink)" fill-opacity="1">
<use xlink:href="#helm-kustomize-glyph-0-9" x="86.73" y="87.58"/>
</g>
<g style="fill:var(--fig-ink)" fill-opacity="1">
<use xlink:href="#helm-kustomize-glyph-0-5" x="91.50" y="87.58"/>
<use xlink:href="#helm-kustomize-glyph-0-1" x="95.83" y="87.58"/>
<use xlink:href="#helm-kustomize-glyph-0-6" x="100.05" y="87.58"/>
</g>
<g style="fill:var(--fig-ink)" fill-opacity="1">
<use xlink:href="#helm-kustomize-glyph-0-21" x="105.96" y="87.58"/>
<use xlink:href="#helm-kustomize-glyph-0-7" x="110.14" y="87.58"/>
<use xlink:href="#helm-kustomize-glyph-0-13" x="114.42" y="87.58"/>
<use xlink:href="#helm-kustomize-glyph-0-13" x="117.52" y="87.58"/>
</g>
<g style="fill:var(--fig-ink)" fill-opacity="1">
<use xlink:href="#helm-kustomize-glyph-0-1" x="120.57" y="87.58"/>
<use xlink:href="#helm-kustomize-glyph-0-21" x="124.79" y="87.58"/>
</g>
<g style="fill:var(--fig-ink)" fill-opacity="1">
<use xlink:href="#helm-kustomize-glyph-0-9" x="128.92" y="87.58"/>
<use xlink:href="#helm-kustomize-glyph-0-15" x="131.71" y="87.58"/>
<use xlink:href="#helm-kustomize-glyph-0-22" x="133.84" y="87.58"/>
<use xlink:href="#helm-kustomize-glyph-0-6" x="136.72" y="87.58"/>
</g>
<path fill-rule="nonzero" style="fill:var(--fig-sarcelle-bg)" fill-opacity="1" d="M 114.36 100.10 L 7.95 100.10 C 7.13 100.10 6.46 100.76 6.46 101.58 L 6.46 128.5 C 6.46 129.32 7.13 129.98 7.95 129.98 L 114.36 129.98 C 115.18 129.98 115.84 129.32 115.84 128.5 L 115.84 101.58 C 115.84 100.76 115.18 100.10 114.36 100.10 Z M 114.36 100.10 "/>
<g clip-path="url(#helm-kustomize-clip-2)">
<path fill="none" stroke-width="0.79" stroke-linecap="butt" stroke-linejoin="miter" style="stroke:var(--fig-sarcelle)" stroke-opacity="1" stroke-miterlimit="10" d="M 53.51 -24.65 L -53.51 -24.65 C -54.33 -24.65 -55.01 -25.32 -55.01 -26.15 L -55.01 -53.21 C -55.01 -54.04 -54.33 -54.71 -53.51 -54.71 L 53.51 -54.71 C 54.34 -54.71 55.00 -54.04 55.00 -53.21 L 55.00 -26.15 C 55.00 -25.32 54.34 -24.65 53.51 -24.65 Z M 53.51 -24.65 " transform="matrix(0.994206, 0, 0, -0.994206, 61.157328, 75.588479)"/>
</g>
<g style="fill:var(--fig-ink)" fill-opacity="1">
<use xlink:href="#helm-kustomize-glyph-1-27" x="10.42" y="108.97"/>
<use xlink:href="#helm-kustomize-glyph-1-9" x="14.35" y="108.97"/>
</g>
<g style="fill:var(--fig-ink)" fill-opacity="1">
<use xlink:href="#helm-kustomize-glyph-1-6" x="17.92" y="108.97"/>
</g>
<g style="fill:var(--fig-ink)" fill-opacity="1">
<use xlink:href="#helm-kustomize-glyph-1-5" x="21.17" y="108.97"/>
</g>
<g style="fill:var(--fig-ink)" fill-opacity="1">
<use xlink:href="#helm-kustomize-glyph-2-0" x="10.42" y="116.89"/>
<use xlink:href="#helm-kustomize-glyph-2-1" x="14.58" y="116.89"/>
<use xlink:href="#helm-kustomize-glyph-2-2" x="18.74" y="116.89"/>
<use xlink:href="#helm-kustomize-glyph-2-3" x="22.90" y="116.89"/>
<use xlink:href="#helm-kustomize-glyph-2-4" x="27.06" y="116.89"/>
<use xlink:href="#helm-kustomize-glyph-2-5" x="31.22" y="116.89"/>
<use xlink:href="#helm-kustomize-glyph-2-6" x="35.38" y="116.89"/>
<use xlink:href="#helm-kustomize-glyph-2-7" x="39.54" y="116.89"/>
<use xlink:href="#helm-kustomize-glyph-2-8" x="43.70" y="116.89"/>
</g>
<g style="fill:var(--fig-ink)" fill-opacity="1">
<use xlink:href="#helm-kustomize-glyph-2-21" x="51.33" y="116.89"/>
</g>
<g style="fill:var(--fig-ink)" fill-opacity="1">
<use xlink:href="#helm-kustomize-glyph-1-7" x="10.42" y="124.82"/>
<use xlink:href="#helm-kustomize-glyph-1-11" x="12.50" y="124.82"/>
</g>
<g style="fill:var(--fig-ink)" fill-opacity="1">
<use xlink:href="#helm-kustomize-glyph-1-12" x="16.14" y="124.82"/>
<use xlink:href="#helm-kustomize-glyph-1-13" x="20.48" y="124.82"/>
<use xlink:href="#helm-kustomize-glyph-1-14" x="26.19" y="124.82"/>
</g>
<g style="fill:var(--fig-ink)" fill-opacity="1">
<use xlink:href="#helm-kustomize-glyph-1-15" x="32.18" y="124.82"/>
</g>
<g style="fill:var(--fig-ink)" fill-opacity="1">
<use xlink:href="#helm-kustomize-glyph-1-9" x="35.33" y="124.82"/>
<use xlink:href="#helm-kustomize-glyph-1-4" x="38.97" y="124.82"/>
</g>
<g style="fill:var(--fig-ink)" fill-opacity="1">
<use xlink:href="#helm-kustomize-glyph-1-16" x="40.83" y="124.82"/>
<use xlink:href="#helm-kustomize-glyph-1-2" x="42.57" y="124.82"/>
<use xlink:href="#helm-kustomize-glyph-1-5" x="46.48" y="124.82"/>
<use xlink:href="#helm-kustomize-glyph-1-19" x="50.21" y="124.82"/>
</g>
<g style="fill:var(--fig-ink)" fill-opacity="1">
<use xlink:href="#helm-kustomize-glyph-1-9" x="53.98" y="124.82"/>
<use xlink:href="#helm-kustomize-glyph-1-8" x="57.62" y="124.82"/>
<use xlink:href="#helm-kustomize-glyph-1-8" x="61.54" y="124.82"/>
<use xlink:href="#helm-kustomize-glyph-1-4" x="65.47" y="124.82"/>
</g>
<g style="fill:var(--fig-ink)" fill-opacity="1">
<use xlink:href="#helm-kustomize-glyph-1-16" x="67.33" y="124.82"/>
<use xlink:href="#helm-kustomize-glyph-1-28" x="69.08" y="124.82"/>
<use xlink:href="#helm-kustomize-glyph-1-10" x="73.06" y="124.82"/>
<use xlink:href="#helm-kustomize-glyph-1-9" x="76.80" y="124.82"/>
<use xlink:href="#helm-kustomize-glyph-1-27" x="80.44" y="124.82"/>
<use xlink:href="#helm-kustomize-glyph-1-4" x="84.37" y="124.82"/>
</g>
<g style="fill:var(--fig-ink)" fill-opacity="1">
<use xlink:href="#helm-kustomize-glyph-1-5" x="86.16" y="124.82"/>
</g>
<g style="fill:var(--fig-ink)" fill-opacity="1">
<use xlink:href="#helm-kustomize-glyph-1-6" x="92.20" y="124.82"/>
</g>
<g style="fill:var(--fig-ink)" fill-opacity="1">
<use xlink:href="#helm-kustomize-glyph-1-5" x="95.46" y="124.82"/>
<use xlink:href="#helm-kustomize-glyph-1-10" x="99.19" y="124.82"/>
<use xlink:href="#helm-kustomize-glyph-1-4" x="102.93" y="124.82"/>
<use xlink:href="#helm-kustomize-glyph-1-17" x="104.75" y="124.82"/>
</g>
<path fill-rule="nonzero" style="fill:var(--fig-bleu-bg)" fill-opacity="1" d="M 238.36 103.94 L 131.95 103.94 C 131.13 103.94 130.46 104.60 130.46 105.42 L 130.46 124.66 C 130.46 125.48 131.13 126.14 131.95 126.14 L 238.36 126.14 C 239.18 126.14 239.85 125.48 239.85 124.66 L 239.85 105.42 C 239.85 104.60 239.18 103.94 238.36 103.94 Z M 238.36 103.94 "/>
<g clip-path="url(#helm-kustomize-clip-3)">
<path fill="none" stroke-width="0.79" stroke-linecap="butt" stroke-linejoin="miter" style="stroke:var(--fig-bleu)" stroke-opacity="1" stroke-miterlimit="10" d="M 178.24 -28.51 L 71.21 -28.51 C 70.38 -28.51 69.71 -29.18 69.71 -30.01 L 69.71 -49.35 C 69.71 -50.18 70.38 -50.85 71.21 -50.85 L 178.24 -50.85 C 179.06 -50.85 179.73 -50.18 179.73 -49.35 L 179.73 -30.01 C 179.73 -29.18 179.06 -28.51 178.24 -28.51 Z M 178.24 -28.51 " transform="matrix(0.994206, 0, 0, -0.994206, 61.157328, 75.588479)"/>
</g>
<g style="fill:var(--fig-ink)" fill-opacity="1">
<use xlink:href="#helm-kustomize-glyph-1-1" x="134.43" y="112.81"/>
</g>
<g style="fill:var(--fig-ink)" fill-opacity="1">
<use xlink:href="#helm-kustomize-glyph-1-15" x="138.17" y="112.81"/>
</g>
<g style="fill:var(--fig-ink)" fill-opacity="1">
<use xlink:href="#helm-kustomize-glyph-1-5" x="141.31" y="112.81"/>
<use xlink:href="#helm-kustomize-glyph-1-18" x="145.04" y="112.81"/>
</g>
<g style="fill:var(--fig-ink)" fill-opacity="1">
<use xlink:href="#helm-kustomize-glyph-1-4" x="147.53" y="112.81"/>
</g>
<g style="fill:var(--fig-ink)" fill-opacity="1">
<use xlink:href="#helm-kustomize-glyph-1-9" x="149.46" y="112.81"/>
</g>
<g style="fill:var(--fig-ink)" fill-opacity="1">
<use xlink:href="#helm-kustomize-glyph-1-29" x="153.05" y="112.81"/>
</g>
<g style="fill:var(--fig-ink)" fill-opacity="1">
<use xlink:href="#helm-kustomize-glyph-1-26" x="134.43" y="120.73"/>
</g>
<g style="fill:var(--fig-ink)" fill-opacity="1">
<use xlink:href="#helm-kustomize-glyph-1-1" x="137.72" y="120.73"/>
<use xlink:href="#helm-kustomize-glyph-1-18" x="141.52" y="120.73"/>
</g>
<g style="fill:var(--fig-ink)" fill-opacity="1">
<use xlink:href="#helm-kustomize-glyph-1-18" x="144.01" y="120.73"/>
</g>
<g style="fill:var(--fig-ink)" fill-opacity="1">
<use xlink:href="#helm-kustomize-glyph-1-5" x="146.34" y="120.73"/>
<use xlink:href="#helm-kustomize-glyph-1-26" x="150.07" y="120.73"/>
</g>
<g style="fill:var(--fig-ink)" fill-opacity="1">
<use xlink:href="#helm-kustomize-glyph-1-25" x="153.57" y="120.73"/>
</g>
<g style="fill:var(--fig-ink)" fill-opacity="1">
<use xlink:href="#helm-kustomize-glyph-1-16" x="155.87" y="120.73"/>
<use xlink:href="#helm-kustomize-glyph-1-30" x="157.62" y="120.73"/>
</g>
<g style="fill:var(--fig-ink)" fill-opacity="1">
<use xlink:href="#helm-kustomize-glyph-2-0" x="162.11" y="120.73"/>
<use xlink:href="#helm-kustomize-glyph-2-1" x="166.27" y="120.73"/>
<use xlink:href="#helm-kustomize-glyph-2-2" x="170.43" y="120.73"/>
<use xlink:href="#helm-kustomize-glyph-2-3" x="174.59" y="120.73"/>
<use xlink:href="#helm-kustomize-glyph-2-4" x="178.75" y="120.73"/>
<use xlink:href="#helm-kustomize-glyph-2-5" x="182.91" y="120.73"/>
<use xlink:href="#helm-kustomize-glyph-2-6" x="187.07" y="120.73"/>
<use xlink:href="#helm-kustomize-glyph-2-7" x="191.23" y="120.73"/>
<use xlink:href="#helm-kustomize-glyph-2-8" x="195.39" y="120.73"/>
</g>
<g style="fill:var(--fig-ink)" fill-opacity="1">
<use xlink:href="#helm-kustomize-glyph-2-22" x="203.01" y="120.73"/>
</g>
<path fill-rule="nonzero" style="fill:var(--fig-vert-bg)" fill-opacity="1" d="M 417.32 100.01 L 291.18 100.01 C 290.36 100.01 289.70 100.68 289.70 101.50 L 289.70 128.58 C 289.70 129.40 290.36 130.07 291.18 130.07 L 417.32 130.07 C 418.14 130.07 418.80 129.40 418.80 128.58 L 418.80 101.50 C 418.80 100.68 418.14 100.01 417.32 100.01 Z M 417.32 100.01 "/>
<g clip-path="url(#helm-kustomize-clip-4)">
<path fill="none" stroke-width="0.79" stroke-linecap="butt" stroke-linejoin="miter" style="stroke:var(--fig-vert)" stroke-opacity="1" stroke-miterlimit="10" d="M 358.24 -24.56 L 231.37 -24.56 C 230.54 -24.56 229.87 -25.24 229.87 -26.06 L 229.87 -53.30 C 229.87 -54.13 230.54 -54.79 231.37 -54.79 L 358.24 -54.79 C 359.06 -54.79 359.73 -54.13 359.73 -53.30 L 359.73 -26.06 C 359.73 -25.24 359.06 -24.56 358.24 -24.56 Z M 358.24 -24.56 " transform="matrix(0.994206, 0, 0, -0.994206, 61.157328, 75.588479)"/>
</g>
<g style="fill:var(--fig-ink)" fill-opacity="1">
<use xlink:href="#helm-kustomize-glyph-1-1" x="293.66" y="108.92"/>
<use xlink:href="#helm-kustomize-glyph-1-27" x="297.45" y="108.92"/>
<use xlink:href="#helm-kustomize-glyph-1-31" x="301.38" y="108.92"/>
<use xlink:href="#helm-kustomize-glyph-1-5" x="303.08" y="108.92"/>
</g>
<g style="fill:var(--fig-ink)" fill-opacity="1">
<use xlink:href="#helm-kustomize-glyph-1-25" x="306.79" y="108.92"/>
<use xlink:href="#helm-kustomize-glyph-1-6" x="309.05" y="108.92"/>
</g>
<g style="fill:var(--fig-ink)" fill-opacity="1">
<use xlink:href="#helm-kustomize-glyph-1-1" x="314.62" y="108.92"/>
<use xlink:href="#helm-kustomize-glyph-1-18" x="318.42" y="108.92"/>
</g>
<g style="fill:var(--fig-ink)" fill-opacity="1">
<use xlink:href="#helm-kustomize-glyph-1-2" x="320.76" y="108.92"/>
<use xlink:href="#helm-kustomize-glyph-1-16" x="324.67" y="108.92"/>
<use xlink:href="#helm-kustomize-glyph-1-22" x="326.42" y="108.92"/>
<use xlink:href="#helm-kustomize-glyph-1-9" x="330.23" y="108.92"/>
</g>
<g style="fill:var(--fig-ink)" fill-opacity="1">
<use xlink:href="#helm-kustomize-glyph-1-16" x="333.82" y="108.92"/>
<use xlink:href="#helm-kustomize-glyph-1-18" x="335.57" y="108.92"/>
</g>
<g style="fill:var(--fig-ink)" fill-opacity="1">
<use xlink:href="#helm-kustomize-glyph-1-5" x="337.90" y="108.92"/>
<use xlink:href="#helm-kustomize-glyph-1-6" x="341.63" y="108.92"/>
</g>
<g style="fill:var(--fig-ink)" fill-opacity="1">
<use xlink:href="#helm-kustomize-glyph-1-20" x="347.20" y="108.92"/>
</g>
<g style="fill:var(--fig-ink)" fill-opacity="1">
<use xlink:href="#helm-kustomize-glyph-1-8" x="352.12" y="108.92"/>
<use xlink:href="#helm-kustomize-glyph-1-9" x="356.04" y="108.92"/>
</g>
<g style="fill:var(--fig-ink)" fill-opacity="1">
<use xlink:href="#helm-kustomize-glyph-1-6" x="359.62" y="108.92"/>
</g>
<g style="fill:var(--fig-ink)" fill-opacity="1">
<use xlink:href="#helm-kustomize-glyph-1-2" x="365.19" y="108.92"/>
<use xlink:href="#helm-kustomize-glyph-1-32" x="369.10" y="108.92"/>
<use xlink:href="#helm-kustomize-glyph-1-23" x="370.73" y="108.92"/>
<use xlink:href="#helm-kustomize-glyph-1-16" x="374.55" y="108.92"/>
<use xlink:href="#helm-kustomize-glyph-1-6" x="376.30" y="108.92"/>
</g>
<g style="fill:var(--fig-ink)" fill-opacity="1">
<use xlink:href="#helm-kustomize-glyph-1-25" x="379.55" y="108.92"/>
</g>
<g style="fill:var(--fig-ink)" fill-opacity="1">
<use xlink:href="#helm-kustomize-glyph-1-1" x="381.73" y="108.92"/>
<use xlink:href="#helm-kustomize-glyph-1-18" x="385.53" y="108.92"/>
</g>
<g style="fill:var(--fig-ink)" fill-opacity="1">
<use xlink:href="#helm-kustomize-glyph-1-16" x="388.15" y="108.92"/>
<use xlink:href="#helm-kustomize-glyph-1-28" x="389.90" y="108.92"/>
<use xlink:href="#helm-kustomize-glyph-1-10" x="393.88" y="108.92"/>
<use xlink:href="#helm-kustomize-glyph-1-5" x="397.62" y="108.92"/>
<use xlink:href="#helm-kustomize-glyph-1-19" x="401.35" y="108.92"/>
</g>
<g style="fill:var(--fig-ink)" fill-opacity="1">
<use xlink:href="#helm-kustomize-glyph-1-4" x="293.66" y="116.85"/>
</g>
<g style="fill:var(--fig-ink)" fill-opacity="1">
<use xlink:href="#helm-kustomize-glyph-1-5" x="295.44" y="116.85"/>
</g>
<g style="fill:var(--fig-ink)" fill-opacity="1">
<use xlink:href="#helm-kustomize-glyph-1-18" x="301.48" y="116.85"/>
</g>
<g style="fill:var(--fig-ink)" fill-opacity="1">
<use xlink:href="#helm-kustomize-glyph-1-5" x="303.82" y="116.85"/>
</g>
<g style="fill:var(--fig-ink)" fill-opacity="1">
<use xlink:href="#helm-kustomize-glyph-1-25" x="307.53" y="116.85"/>
</g>
<g style="fill:var(--fig-ink)" fill-opacity="1">
<use xlink:href="#helm-kustomize-glyph-1-1" x="309.71" y="116.85"/>
<use xlink:href="#helm-kustomize-glyph-1-10" x="313.51" y="116.85"/>
<use xlink:href="#helm-kustomize-glyph-1-18" x="317.25" y="116.85"/>
</g>
<g style="fill:var(--fig-ink)" fill-opacity="1">
<use xlink:href="#helm-kustomize-glyph-1-9" x="321.83" y="116.85"/>
<use xlink:href="#helm-kustomize-glyph-1-18" x="325.47" y="116.85"/>
</g>
<g style="fill:var(--fig-ink)" fill-opacity="1">
<use xlink:href="#helm-kustomize-glyph-1-18" x="327.96" y="116.85"/>
</g>
<g style="fill:var(--fig-ink)" fill-opacity="1">
<use xlink:href="#helm-kustomize-glyph-1-16" x="330.59" y="116.85"/>
<use xlink:href="#helm-kustomize-glyph-1-3" x="332.34" y="116.85"/>
<use xlink:href="#helm-kustomize-glyph-1-18" x="336.07" y="116.85"/>
</g>
<g style="fill:var(--fig-ink)" fill-opacity="1">
<use xlink:href="#helm-kustomize-glyph-1-5" x="338.40" y="116.85"/>
</g>
<g style="fill:var(--fig-ink)" fill-opacity="1">
<use xlink:href="#helm-kustomize-glyph-1-8" x="344.44" y="116.85"/>
<use xlink:href="#helm-kustomize-glyph-1-9" x="348.36" y="116.85"/>
</g>
<g style="fill:var(--fig-ink)" fill-opacity="1">
<use xlink:href="#helm-kustomize-glyph-1-6" x="351.94" y="116.85"/>
<use xlink:href="#helm-kustomize-glyph-1-6" x="355.20" y="116.85"/>
</g>
<g style="fill:var(--fig-ink)" fill-opacity="1">
<use xlink:href="#helm-kustomize-glyph-1-5" x="358.46" y="116.85"/>
</g>
<g style="fill:var(--fig-ink)" fill-opacity="1">
<use xlink:href="#helm-kustomize-glyph-1-8" x="364.49" y="116.85"/>
<use xlink:href="#helm-kustomize-glyph-1-9" x="368.42" y="116.85"/>
<use xlink:href="#helm-kustomize-glyph-1-18" x="372.06" y="116.85"/>
</g>
<g style="fill:var(--fig-ink)" fill-opacity="1">
<use xlink:href="#helm-kustomize-glyph-1-33" x="376.65" y="116.85"/>
<use xlink:href="#helm-kustomize-glyph-1-16" x="381.46" y="116.85"/>
<use xlink:href="#helm-kustomize-glyph-1-25" x="383.21" y="116.85"/>
</g>
<g style="fill:var(--fig-ink)" fill-opacity="1">
<use xlink:href="#helm-kustomize-glyph-1-34" x="387.78" y="116.85"/>
</g>
<g style="fill:var(--fig-ink)" fill-opacity="1">
<use xlink:href="#helm-kustomize-glyph-1-16" x="293.66" y="124.77"/>
<use xlink:href="#helm-kustomize-glyph-1-22" x="295.40" y="124.77"/>
</g>
<g style="fill:var(--fig-ink)" fill-opacity="1">
<use xlink:href="#helm-kustomize-glyph-1-25" x="299.10" y="124.77"/>
</g>
<g style="fill:var(--fig-ink)" fill-opacity="1">
<use xlink:href="#helm-kustomize-glyph-1-21" x="301.28" y="124.77"/>
</g>
<g style="fill:var(--fig-ink)" fill-opacity="1">
<use xlink:href="#helm-kustomize-glyph-1-35" x="305.03" y="124.77"/>
<use xlink:href="#helm-kustomize-glyph-1-18" x="308.90" y="124.77"/>
</g>
<g style="fill:var(--fig-ink)" fill-opacity="1">
<use xlink:href="#helm-kustomize-glyph-1-21" x="311.24" y="124.77"/>
</g>
<g style="fill:var(--fig-ink)" fill-opacity="1">
<use xlink:href="#helm-kustomize-glyph-1-36" x="317.28" y="124.77"/>
</g>
<g style="fill:var(--fig-ink)" fill-opacity="1">
<use xlink:href="#helm-kustomize-glyph-2-20" x="323.23" y="124.77"/>
<use xlink:href="#helm-kustomize-glyph-2-12" x="327.39" y="124.77"/>
<use xlink:href="#helm-kustomize-glyph-2-19" x="331.55" y="124.77"/>
<use xlink:href="#helm-kustomize-glyph-2-1" x="335.71" y="124.77"/>
<use xlink:href="#helm-kustomize-glyph-2-5" x="339.87" y="124.77"/>
<use xlink:href="#helm-kustomize-glyph-2-17" x="344.03" y="124.77"/>
<use xlink:href="#helm-kustomize-glyph-2-3" x="348.19" y="124.77"/>
</g>
<path fill="none" stroke-width="0.79" stroke-linecap="butt" stroke-linejoin="miter" style="stroke:var(--fig-line)" stroke-opacity="1" stroke-miterlimit="10" d="M 55.40 -39.68 L 65.05 -39.68 " transform="matrix(0.994206, 0, 0, -0.994206, 61.157328, 75.588479)"/>
<path fill-rule="nonzero" style="fill:var(--fig-line);stroke:var(--fig-line)" fill-opacity="1" stroke-width="0.79" stroke-linecap="butt" stroke-linejoin="miter" stroke-opacity="1" stroke-miterlimit="10" d="M 5.66 0.00 L 1.28 1.65 L 2.73 0.00 L 1.28 -1.65 Z M 5.66 0.00 " transform="matrix(0.994206, 0, 0, -0.994206, 123.309701, 115.043887)"/>
<path fill="none" stroke-width="0.79" stroke-linecap="butt" stroke-linejoin="miter" style="stroke:var(--fig-line)" stroke-opacity="1" stroke-miterlimit="10" d="M 180.13 -39.68 L 225.21 -39.68 " transform="matrix(0.994206, 0, 0, -0.994206, 61.157328, 75.588479)"/>
<path fill-rule="nonzero" style="fill:var(--fig-line);stroke:var(--fig-line)" fill-opacity="1" stroke-width="0.79" stroke-linecap="butt" stroke-linejoin="miter" stroke-opacity="1" stroke-miterlimit="10" d="M 5.66 0.00 L 1.28 1.65 L 2.74 0.00 L 1.28 -1.65 Z M 5.66 0.00 " transform="matrix(0.994206, 0, 0, -0.994206, 282.541228, 115.043887)"/>
<path fill-rule="nonzero" style="fill:var(--fig-paper)" fill-opacity="1" d="M 251.71 114.64 L 277.83 114.64 L 277.83 106.63 L 251.71 106.63 Z M 251.71 114.64 "/>
<g style="fill:var(--fig-muted)" fill-opacity="1">
<use xlink:href="#helm-kustomize-glyph-1-9" x="252.69" y="112.53"/>
<use xlink:href="#helm-kustomize-glyph-1-8" x="256.33" y="112.53"/>
<use xlink:href="#helm-kustomize-glyph-1-8" x="260.26" y="112.53"/>
<use xlink:href="#helm-kustomize-glyph-1-4" x="264.18" y="112.53"/>
</g>
<g style="fill:var(--fig-muted)" fill-opacity="1">
<use xlink:href="#helm-kustomize-glyph-1-29" x="265.94" y="112.53"/>
</g>
<g style="fill:var(--fig-muted)" fill-opacity="1">
<use xlink:href="#helm-kustomize-glyph-1-37" x="270.92" y="112.53"/>
<use xlink:href="#helm-kustomize-glyph-1-24" x="273.43" y="112.53"/>
</g>
</svg>
